%TF.GenerationSoftware,KiCad,Pcbnew,(6.0.0)*%
%TF.CreationDate,2022-06-06T22:40:17+03:00*%
%TF.ProjectId,basic_digital,62617369-635f-4646-9967-6974616c2e6b,rev?*%
%TF.SameCoordinates,Original*%
%TF.FileFunction,Legend,Bot*%
%TF.FilePolarity,Positive*%
%FSLAX46Y46*%
G04 Gerber Fmt 4.6, Leading zero omitted, Abs format (unit mm)*
G04 Created by KiCad (PCBNEW (6.0.0)) date 2022-06-06 22:40:17*
%MOMM*%
%LPD*%
G01*
G04 APERTURE LIST*
%ADD10C,0.150000*%
%ADD11C,0.300000*%
%ADD12C,0.120000*%
%ADD13R,0.760000X6.000000*%
G04 APERTURE END LIST*
D10*
X175942857Y16638095D02*
X175571428Y16638095D01*
X175771428Y16333333D01*
X175685714Y16333333D01*
X175628571Y16295238D01*
X175600000Y16257142D01*
X175571428Y16180952D01*
X175571428Y15990476D01*
X175600000Y15914285D01*
X175628571Y15876190D01*
X175685714Y15838095D01*
X175857142Y15838095D01*
X175914285Y15876190D01*
X175942857Y15914285D01*
X175400000Y16638095D02*
X175200000Y15838095D01*
X175000000Y16638095D01*
X174857142Y16638095D02*
X174485714Y16638095D01*
X174685714Y16333333D01*
X174600000Y16333333D01*
X174542857Y16295238D01*
X174514285Y16257142D01*
X174485714Y16180952D01*
X174485714Y15990476D01*
X174514285Y15914285D01*
X174542857Y15876190D01*
X174600000Y15838095D01*
X174771428Y15838095D01*
X174828571Y15876190D01*
X174857142Y15914285D01*
X182057142Y16600000D02*
X182114285Y16638095D01*
X182200000Y16638095D01*
X182285714Y16600000D01*
X182342857Y16523809D01*
X182371428Y16447619D01*
X182400000Y16295238D01*
X182400000Y16180952D01*
X182371428Y16028571D01*
X182342857Y15952380D01*
X182285714Y15876190D01*
X182200000Y15838095D01*
X182142857Y15838095D01*
X182057142Y15876190D01*
X182028571Y15914285D01*
X182028571Y16180952D01*
X182142857Y16180952D01*
X181771428Y15838095D02*
X181771428Y16638095D01*
X181428571Y15838095D01*
X181428571Y16638095D01*
X181142857Y15838095D02*
X181142857Y16638095D01*
X181000000Y16638095D01*
X180914285Y16600000D01*
X180857142Y16523809D01*
X180828571Y16447619D01*
X180800000Y16295238D01*
X180800000Y16180952D01*
X180828571Y16028571D01*
X180857142Y15952380D01*
X180914285Y15876190D01*
X181000000Y15838095D01*
X181142857Y15838095D01*
X120457142Y16438095D02*
X120457142Y17238095D01*
X120228571Y17238095D01*
X120171428Y17200000D01*
X120142857Y17161904D01*
X120114285Y17085714D01*
X120114285Y16971428D01*
X120142857Y16895238D01*
X120171428Y16857142D01*
X120228571Y16819047D01*
X120457142Y16819047D01*
X119742857Y17238095D02*
X119628571Y17238095D01*
X119571428Y17200000D01*
X119514285Y17123809D01*
X119485714Y16971428D01*
X119485714Y16704761D01*
X119514285Y16552380D01*
X119571428Y16476190D01*
X119628571Y16438095D01*
X119742857Y16438095D01*
X119800000Y16476190D01*
X119857142Y16552380D01*
X119885714Y16704761D01*
X119885714Y16971428D01*
X119857142Y17123809D01*
X119800000Y17200000D01*
X119742857Y17238095D01*
X119314285Y17238095D02*
X118971428Y17238095D01*
X119142857Y16438095D02*
X119142857Y17238095D01*
X118114285Y16857142D02*
X118028571Y16819047D01*
X118000000Y16780952D01*
X117971428Y16704761D01*
X117971428Y16590476D01*
X118000000Y16514285D01*
X118028571Y16476190D01*
X118085714Y16438095D01*
X118314285Y16438095D01*
X118314285Y17238095D01*
X118114285Y17238095D01*
X118057142Y17200000D01*
X118028571Y17161904D01*
X118000000Y17085714D01*
X118000000Y17009523D01*
X118028571Y16933333D01*
X118057142Y16895238D01*
X118114285Y16857142D01*
X118314285Y16857142D01*
X117800000Y17238095D02*
X117457142Y17238095D01*
X117628571Y16438095D02*
X117628571Y17238095D01*
X190835714Y56938095D02*
X190464285Y56938095D01*
X190664285Y56633333D01*
X190578571Y56633333D01*
X190521428Y56595238D01*
X190492857Y56557142D01*
X190464285Y56480952D01*
X190464285Y56290476D01*
X190492857Y56214285D01*
X190521428Y56176190D01*
X190578571Y56138095D01*
X190750000Y56138095D01*
X190807142Y56176190D01*
X190835714Y56214285D01*
X190264285Y56671428D02*
X190121428Y56138095D01*
X189978571Y56671428D01*
X189807142Y56938095D02*
X189435714Y56938095D01*
X189635714Y56633333D01*
X189550000Y56633333D01*
X189492857Y56595238D01*
X189464285Y56557142D01*
X189435714Y56480952D01*
X189435714Y56290476D01*
X189464285Y56214285D01*
X189492857Y56176190D01*
X189550000Y56138095D01*
X189721428Y56138095D01*
X189778571Y56176190D01*
X189807142Y56214285D01*
X188350000Y56671428D02*
X188121428Y56671428D01*
X188264285Y56938095D02*
X188264285Y56252380D01*
X188235714Y56176190D01*
X188178571Y56138095D01*
X188121428Y56138095D01*
X187978571Y56138095D02*
X187664285Y56671428D01*
X187978571Y56671428D02*
X187664285Y56138095D01*
X185807142Y56671428D02*
X185807142Y56023809D01*
X185835714Y55947619D01*
X185864285Y55909523D01*
X185921428Y55871428D01*
X186007142Y55871428D01*
X186064285Y55909523D01*
X185807142Y56176190D02*
X185864285Y56138095D01*
X185978571Y56138095D01*
X186035714Y56176190D01*
X186064285Y56214285D01*
X186092857Y56290476D01*
X186092857Y56519047D01*
X186064285Y56595238D01*
X186035714Y56633333D01*
X185978571Y56671428D01*
X185864285Y56671428D01*
X185807142Y56633333D01*
X185521428Y56671428D02*
X185521428Y56138095D01*
X185521428Y56595238D02*
X185492857Y56633333D01*
X185435714Y56671428D01*
X185350000Y56671428D01*
X185292857Y56633333D01*
X185264285Y56557142D01*
X185264285Y56138095D01*
X184721428Y56138095D02*
X184721428Y56938095D01*
X184721428Y56176190D02*
X184778571Y56138095D01*
X184892857Y56138095D01*
X184950000Y56176190D01*
X184978571Y56214285D01*
X185007142Y56290476D01*
X185007142Y56519047D01*
X184978571Y56595238D01*
X184950000Y56633333D01*
X184892857Y56671428D01*
X184778571Y56671428D01*
X184721428Y56633333D01*
X107257142Y56861904D02*
X107257142Y56328571D01*
X107257142Y56480952D02*
X107285714Y56404761D01*
X107314285Y56366666D01*
X107371428Y56328571D01*
X107428571Y56328571D01*
X107571428Y56861904D02*
X107885714Y56328571D01*
X107571428Y56328571D02*
X107885714Y56861904D01*
X109485714Y56861904D02*
X109485714Y56061904D01*
X109485714Y56366666D02*
X109542857Y56328571D01*
X109657142Y56328571D01*
X109714285Y56366666D01*
X109742857Y56404761D01*
X109771428Y56480952D01*
X109771428Y56709523D01*
X109742857Y56785714D01*
X109714285Y56823809D01*
X109657142Y56861904D01*
X109542857Y56861904D01*
X109485714Y56823809D01*
X110114285Y56861904D02*
X110057142Y56823809D01*
X110028571Y56785714D01*
X110000000Y56709523D01*
X110000000Y56480952D01*
X110028571Y56404761D01*
X110057142Y56366666D01*
X110114285Y56328571D01*
X110200000Y56328571D01*
X110257142Y56366666D01*
X110285714Y56404761D01*
X110314285Y56480952D01*
X110314285Y56709523D01*
X110285714Y56785714D01*
X110257142Y56823809D01*
X110200000Y56861904D01*
X110114285Y56861904D01*
X110657142Y56861904D02*
X110600000Y56823809D01*
X110571428Y56785714D01*
X110542857Y56709523D01*
X110542857Y56480952D01*
X110571428Y56404761D01*
X110600000Y56366666D01*
X110657142Y56328571D01*
X110742857Y56328571D01*
X110800000Y56366666D01*
X110828571Y56404761D01*
X110857142Y56480952D01*
X110857142Y56709523D01*
X110828571Y56785714D01*
X110800000Y56823809D01*
X110742857Y56861904D01*
X110657142Y56861904D01*
X111028571Y56328571D02*
X111257142Y56328571D01*
X111114285Y56061904D02*
X111114285Y56747619D01*
X111142857Y56823809D01*
X111200000Y56861904D01*
X111257142Y56861904D01*
X112828571Y56861904D02*
X112828571Y56328571D01*
X112828571Y56480952D02*
X112857142Y56404761D01*
X112885714Y56366666D01*
X112942857Y56328571D01*
X113000000Y56328571D01*
X113171428Y56823809D02*
X113228571Y56861904D01*
X113342857Y56861904D01*
X113400000Y56823809D01*
X113428571Y56747619D01*
X113428571Y56709523D01*
X113400000Y56633333D01*
X113342857Y56595238D01*
X113257142Y56595238D01*
X113200000Y56557142D01*
X113171428Y56480952D01*
X113171428Y56442857D01*
X113200000Y56366666D01*
X113257142Y56328571D01*
X113342857Y56328571D01*
X113400000Y56366666D01*
X113600000Y56328571D02*
X113828571Y56328571D01*
X113685714Y56061904D02*
X113685714Y56747619D01*
X113714285Y56823809D01*
X113771428Y56861904D01*
X113828571Y56861904D01*
X130035714Y16361904D02*
X129978571Y16323809D01*
X129950000Y16285714D01*
X129921428Y16209523D01*
X129921428Y15980952D01*
X129950000Y15904761D01*
X129978571Y15866666D01*
X130035714Y15828571D01*
X130121428Y15828571D01*
X130178571Y15866666D01*
X130207142Y15904761D01*
X130235714Y15980952D01*
X130235714Y16209523D01*
X130207142Y16285714D01*
X130178571Y16323809D01*
X130121428Y16361904D01*
X130035714Y16361904D01*
X130492857Y15828571D02*
X130492857Y16361904D01*
X130492857Y15904761D02*
X130521428Y15866666D01*
X130578571Y15828571D01*
X130664285Y15828571D01*
X130721428Y15866666D01*
X130750000Y15942857D01*
X130750000Y16361904D01*
X130892857Y16438095D02*
X131350000Y16438095D01*
X131464285Y16323809D02*
X131521428Y16361904D01*
X131635714Y16361904D01*
X131692857Y16323809D01*
X131721428Y16247619D01*
X131721428Y16209523D01*
X131692857Y16133333D01*
X131635714Y16095238D01*
X131550000Y16095238D01*
X131492857Y16057142D01*
X131464285Y15980952D01*
X131464285Y15942857D01*
X131492857Y15866666D01*
X131550000Y15828571D01*
X131635714Y15828571D01*
X131692857Y15866666D01*
X131921428Y15828571D02*
X132035714Y16361904D01*
X132150000Y15980952D01*
X132264285Y16361904D01*
X132378571Y15828571D01*
X133064285Y16361904D02*
X133064285Y15561904D01*
X133064285Y15866666D02*
X133121428Y15828571D01*
X133235714Y15828571D01*
X133292857Y15866666D01*
X133321428Y15904761D01*
X133350000Y15980952D01*
X133350000Y16209523D01*
X133321428Y16285714D01*
X133292857Y16323809D01*
X133235714Y16361904D01*
X133121428Y16361904D01*
X133064285Y16323809D01*
X133864285Y16361904D02*
X133864285Y15942857D01*
X133835714Y15866666D01*
X133778571Y15828571D01*
X133664285Y15828571D01*
X133607142Y15866666D01*
X133864285Y16323809D02*
X133807142Y16361904D01*
X133664285Y16361904D01*
X133607142Y16323809D01*
X133578571Y16247619D01*
X133578571Y16171428D01*
X133607142Y16095238D01*
X133664285Y16057142D01*
X133807142Y16057142D01*
X133864285Y16019047D01*
X134064285Y15828571D02*
X134292857Y15828571D01*
X134150000Y15561904D02*
X134150000Y16247619D01*
X134178571Y16323809D01*
X134235714Y16361904D01*
X134292857Y16361904D01*
X134407142Y15828571D02*
X134635714Y15828571D01*
X134492857Y15561904D02*
X134492857Y16247619D01*
X134521428Y16323809D01*
X134578571Y16361904D01*
X134635714Y16361904D01*
X135292857Y16361904D02*
X135292857Y15561904D01*
X135292857Y15866666D02*
X135350000Y15828571D01*
X135464285Y15828571D01*
X135521428Y15866666D01*
X135550000Y15904761D01*
X135578571Y15980952D01*
X135578571Y16209523D01*
X135550000Y16285714D01*
X135521428Y16323809D01*
X135464285Y16361904D01*
X135350000Y16361904D01*
X135292857Y16323809D01*
X135750000Y15828571D02*
X135978571Y15828571D01*
X135835714Y15561904D02*
X135835714Y16247619D01*
X135864285Y16323809D01*
X135921428Y16361904D01*
X135978571Y16361904D01*
X136035714Y16438095D02*
X136492857Y16438095D01*
X136635714Y16361904D02*
X136635714Y15828571D01*
X136635714Y15904761D02*
X136664285Y15866666D01*
X136721428Y15828571D01*
X136807142Y15828571D01*
X136864285Y15866666D01*
X136892857Y15942857D01*
X136892857Y16361904D01*
X136892857Y15942857D02*
X136921428Y15866666D01*
X136978571Y15828571D01*
X137064285Y15828571D01*
X137121428Y15866666D01*
X137150000Y15942857D01*
X137150000Y16361904D01*
X137692857Y15828571D02*
X137692857Y16361904D01*
X137435714Y15828571D02*
X137435714Y16247619D01*
X137464285Y16323809D01*
X137521428Y16361904D01*
X137607142Y16361904D01*
X137664285Y16323809D01*
X137692857Y16285714D01*
X137892857Y15828571D02*
X138121428Y15828571D01*
X137978571Y15561904D02*
X137978571Y16247619D01*
X138007142Y16323809D01*
X138064285Y16361904D01*
X138121428Y16361904D01*
X138550000Y16323809D02*
X138492857Y16361904D01*
X138378571Y16361904D01*
X138321428Y16323809D01*
X138292857Y16247619D01*
X138292857Y15942857D01*
X138321428Y15866666D01*
X138378571Y15828571D01*
X138492857Y15828571D01*
X138550000Y15866666D01*
X138578571Y15942857D01*
X138578571Y16019047D01*
X138292857Y16095238D01*
D11*
X164714285Y20642857D02*
X164500000Y20571428D01*
X164142857Y20571428D01*
X164000000Y20642857D01*
X163928571Y20714285D01*
X163857142Y20857142D01*
X163857142Y21000000D01*
X163928571Y21142857D01*
X164000000Y21214285D01*
X164142857Y21285714D01*
X164428571Y21357142D01*
X164571428Y21428571D01*
X164642857Y21500000D01*
X164714285Y21642857D01*
X164714285Y21785714D01*
X164642857Y21928571D01*
X164571428Y22000000D01*
X164428571Y22071428D01*
X164071428Y22071428D01*
X163857142Y22000000D01*
X162571428Y20642857D02*
X162714285Y20571428D01*
X163000000Y20571428D01*
X163142857Y20642857D01*
X163214285Y20714285D01*
X163285714Y20857142D01*
X163285714Y21285714D01*
X163214285Y21428571D01*
X163142857Y21500000D01*
X163000000Y21571428D01*
X162714285Y21571428D01*
X162571428Y21500000D01*
X161928571Y20571428D02*
X161928571Y22071428D01*
X161285714Y20571428D02*
X161285714Y21357142D01*
X161357142Y21500000D01*
X161500000Y21571428D01*
X161714285Y21571428D01*
X161857142Y21500000D01*
X161928571Y21428571D01*
X160571428Y20571428D02*
X160571428Y21571428D01*
X160571428Y21285714D02*
X160500000Y21428571D01*
X160428571Y21500000D01*
X160285714Y21571428D01*
X160142857Y21571428D01*
X159428571Y20571428D02*
X159571428Y20642857D01*
X159642857Y20714285D01*
X159714285Y20857142D01*
X159714285Y21285714D01*
X159642857Y21428571D01*
X159571428Y21500000D01*
X159428571Y21571428D01*
X159214285Y21571428D01*
X159071428Y21500000D01*
X159000000Y21428571D01*
X158928571Y21285714D01*
X158928571Y20857142D01*
X159000000Y20714285D01*
X159071428Y20642857D01*
X159214285Y20571428D01*
X159428571Y20571428D01*
X159571428Y22071428D02*
X159500000Y22000000D01*
X159571428Y21928571D01*
X159642857Y22000000D01*
X159571428Y22071428D01*
X159571428Y21928571D01*
X159000000Y22071428D02*
X158928571Y22000000D01*
X159000000Y21928571D01*
X159071428Y22000000D01*
X159000000Y22071428D01*
X159000000Y21928571D01*
X157642857Y20571428D02*
X157642857Y22071428D01*
X157642857Y20642857D02*
X157785714Y20571428D01*
X158071428Y20571428D01*
X158214285Y20642857D01*
X158285714Y20714285D01*
X158357142Y20857142D01*
X158357142Y21285714D01*
X158285714Y21428571D01*
X158214285Y21500000D01*
X158071428Y21571428D01*
X157785714Y21571428D01*
X157642857Y21500000D01*
X156928571Y20571428D02*
X156928571Y21571428D01*
X156928571Y22071428D02*
X157000000Y22000000D01*
X156928571Y21928571D01*
X156857142Y22000000D01*
X156928571Y22071428D01*
X156928571Y21928571D01*
X156214285Y21571428D02*
X156214285Y20571428D01*
X156214285Y21428571D02*
X156142857Y21500000D01*
X156000000Y21571428D01*
X155785714Y21571428D01*
X155642857Y21500000D01*
X155571428Y21357142D01*
X155571428Y20571428D01*
X154214285Y21571428D02*
X154214285Y20357142D01*
X154285714Y20214285D01*
X154357142Y20142857D01*
X154500000Y20071428D01*
X154714285Y20071428D01*
X154857142Y20142857D01*
X154214285Y20642857D02*
X154357142Y20571428D01*
X154642857Y20571428D01*
X154785714Y20642857D01*
X154857142Y20714285D01*
X154928571Y20857142D01*
X154928571Y21285714D01*
X154857142Y21428571D01*
X154785714Y21500000D01*
X154642857Y21571428D01*
X154357142Y21571428D01*
X154214285Y21500000D01*
X152928571Y20642857D02*
X153071428Y20571428D01*
X153357142Y20571428D01*
X153500000Y20642857D01*
X153571428Y20785714D01*
X153571428Y21357142D01*
X153500000Y21500000D01*
X153357142Y21571428D01*
X153071428Y21571428D01*
X152928571Y21500000D01*
X152857142Y21357142D01*
X152857142Y21214285D01*
X153571428Y21071428D01*
X152214285Y20571428D02*
X152214285Y21571428D01*
X152214285Y21285714D02*
X152142857Y21428571D01*
X152071428Y21500000D01*
X151928571Y21571428D01*
X151785714Y21571428D01*
X151285714Y20714285D02*
X151214285Y20642857D01*
X151285714Y20571428D01*
X151357142Y20642857D01*
X151285714Y20714285D01*
X151285714Y20571428D01*
X150571428Y20571428D02*
X150571428Y22071428D01*
X150214285Y22071428D01*
X150000000Y22000000D01*
X149857142Y21857142D01*
X149785714Y21714285D01*
X149714285Y21428571D01*
X149714285Y21214285D01*
X149785714Y20928571D01*
X149857142Y20785714D01*
X150000000Y20642857D01*
X150214285Y20571428D01*
X150571428Y20571428D01*
X149071428Y20571428D02*
X149071428Y21571428D01*
X149071428Y22071428D02*
X149142857Y22000000D01*
X149071428Y21928571D01*
X149000000Y22000000D01*
X149071428Y22071428D01*
X149071428Y21928571D01*
X147714285Y21571428D02*
X147714285Y20357142D01*
X147785714Y20214285D01*
X147857142Y20142857D01*
X148000000Y20071428D01*
X148214285Y20071428D01*
X148357142Y20142857D01*
X147714285Y20642857D02*
X147857142Y20571428D01*
X148142857Y20571428D01*
X148285714Y20642857D01*
X148357142Y20714285D01*
X148428571Y20857142D01*
X148428571Y21285714D01*
X148357142Y21428571D01*
X148285714Y21500000D01*
X148142857Y21571428D01*
X147857142Y21571428D01*
X147714285Y21500000D01*
X147000000Y20571428D02*
X147000000Y21571428D01*
X147000000Y22071428D02*
X147071428Y22000000D01*
X147000000Y21928571D01*
X146928571Y22000000D01*
X147000000Y22071428D01*
X147000000Y21928571D01*
X146500000Y21571428D02*
X145928571Y21571428D01*
X146285714Y22071428D02*
X146285714Y20785714D01*
X146214285Y20642857D01*
X146071428Y20571428D01*
X145928571Y20571428D01*
X144785714Y20571428D02*
X144785714Y21357142D01*
X144857142Y21500000D01*
X145000000Y21571428D01*
X145285714Y21571428D01*
X145428571Y21500000D01*
X144785714Y20642857D02*
X144928571Y20571428D01*
X145285714Y20571428D01*
X145428571Y20642857D01*
X145500000Y20785714D01*
X145500000Y20928571D01*
X145428571Y21071428D01*
X145285714Y21142857D01*
X144928571Y21142857D01*
X144785714Y21214285D01*
X143857142Y20571428D02*
X144000000Y20642857D01*
X144071428Y20785714D01*
X144071428Y22071428D01*
X142285714Y21571428D02*
X141928571Y20571428D01*
X141571428Y21571428D01*
X140214285Y20571428D02*
X141071428Y20571428D01*
X140642857Y20571428D02*
X140642857Y22071428D01*
X140785714Y21857142D01*
X140928571Y21714285D01*
X141071428Y21642857D01*
X138428571Y20571428D02*
X138428571Y21571428D01*
X138428571Y21285714D02*
X138357142Y21428571D01*
X138285714Y21500000D01*
X138142857Y21571428D01*
X138000000Y21571428D01*
X136928571Y20642857D02*
X137071428Y20571428D01*
X137357142Y20571428D01*
X137500000Y20642857D01*
X137571428Y20785714D01*
X137571428Y21357142D01*
X137500000Y21500000D01*
X137357142Y21571428D01*
X137071428Y21571428D01*
X136928571Y21500000D01*
X136857142Y21357142D01*
X136857142Y21214285D01*
X137571428Y21071428D01*
X136357142Y21571428D02*
X136000000Y20571428D01*
X135642857Y21571428D01*
X134000000Y21000000D02*
X133285714Y21000000D01*
X134142857Y20571428D02*
X133642857Y22071428D01*
X133142857Y20571428D01*
D10*
X107164285Y50311904D02*
X107535714Y50311904D01*
X107335714Y50616666D01*
X107421428Y50616666D01*
X107478571Y50654761D01*
X107507142Y50692857D01*
X107535714Y50769047D01*
X107535714Y50959523D01*
X107507142Y51035714D01*
X107478571Y51073809D01*
X107421428Y51111904D01*
X107250000Y51111904D01*
X107192857Y51073809D01*
X107164285Y51035714D01*
X107735714Y50578571D02*
X107878571Y51111904D01*
X108021428Y50578571D01*
X108192857Y50311904D02*
X108564285Y50311904D01*
X108364285Y50616666D01*
X108450000Y50616666D01*
X108507142Y50654761D01*
X108535714Y50692857D01*
X108564285Y50769047D01*
X108564285Y50959523D01*
X108535714Y51035714D01*
X108507142Y51073809D01*
X108450000Y51111904D01*
X108278571Y51111904D01*
X108221428Y51073809D01*
X108192857Y51035714D01*
X109650000Y50578571D02*
X109878571Y50578571D01*
X109735714Y50311904D02*
X109735714Y50997619D01*
X109764285Y51073809D01*
X109821428Y51111904D01*
X109878571Y51111904D01*
X110021428Y51111904D02*
X110335714Y50578571D01*
X110021428Y50578571D02*
X110335714Y51111904D01*
X112192857Y50578571D02*
X112192857Y51226190D01*
X112164285Y51302380D01*
X112135714Y51340476D01*
X112078571Y51378571D01*
X111992857Y51378571D01*
X111935714Y51340476D01*
X112192857Y51073809D02*
X112135714Y51111904D01*
X112021428Y51111904D01*
X111964285Y51073809D01*
X111935714Y51035714D01*
X111907142Y50959523D01*
X111907142Y50730952D01*
X111935714Y50654761D01*
X111964285Y50616666D01*
X112021428Y50578571D01*
X112135714Y50578571D01*
X112192857Y50616666D01*
X112478571Y50578571D02*
X112478571Y51111904D01*
X112478571Y50654761D02*
X112507142Y50616666D01*
X112564285Y50578571D01*
X112650000Y50578571D01*
X112707142Y50616666D01*
X112735714Y50692857D01*
X112735714Y51111904D01*
X113278571Y51111904D02*
X113278571Y50311904D01*
X113278571Y51073809D02*
X113221428Y51111904D01*
X113107142Y51111904D01*
X113050000Y51073809D01*
X113021428Y51035714D01*
X112992857Y50959523D01*
X112992857Y50730952D01*
X113021428Y50654761D01*
X113050000Y50616666D01*
X113107142Y50578571D01*
X113221428Y50578571D01*
X113278571Y50616666D01*
X142835714Y65828571D02*
X142835714Y66476190D01*
X142807142Y66552380D01*
X142778571Y66590476D01*
X142721428Y66628571D01*
X142635714Y66628571D01*
X142578571Y66590476D01*
X142835714Y66323809D02*
X142778571Y66361904D01*
X142664285Y66361904D01*
X142607142Y66323809D01*
X142578571Y66285714D01*
X142550000Y66209523D01*
X142550000Y65980952D01*
X142578571Y65904761D01*
X142607142Y65866666D01*
X142664285Y65828571D01*
X142778571Y65828571D01*
X142835714Y65866666D01*
X143121428Y65828571D02*
X143121428Y66361904D01*
X143121428Y65904761D02*
X143150000Y65866666D01*
X143207142Y65828571D01*
X143292857Y65828571D01*
X143350000Y65866666D01*
X143378571Y65942857D01*
X143378571Y66361904D01*
X143921428Y66361904D02*
X143921428Y65561904D01*
X143921428Y66323809D02*
X143864285Y66361904D01*
X143750000Y66361904D01*
X143692857Y66323809D01*
X143664285Y66285714D01*
X143635714Y66209523D01*
X143635714Y65980952D01*
X143664285Y65904761D01*
X143692857Y65866666D01*
X143750000Y65828571D01*
X143864285Y65828571D01*
X143921428Y65866666D01*
X145121428Y66361904D02*
X145121428Y65828571D01*
X145121428Y65980952D02*
X145150000Y65904761D01*
X145178571Y65866666D01*
X145235714Y65828571D01*
X145292857Y65828571D01*
X145464285Y66323809D02*
X145521428Y66361904D01*
X145635714Y66361904D01*
X145692857Y66323809D01*
X145721428Y66247619D01*
X145721428Y66209523D01*
X145692857Y66133333D01*
X145635714Y66095238D01*
X145550000Y66095238D01*
X145492857Y66057142D01*
X145464285Y65980952D01*
X145464285Y65942857D01*
X145492857Y65866666D01*
X145550000Y65828571D01*
X145635714Y65828571D01*
X145692857Y65866666D01*
X145892857Y65828571D02*
X146121428Y65828571D01*
X145978571Y65561904D02*
X145978571Y66247619D01*
X146007142Y66323809D01*
X146064285Y66361904D01*
X146121428Y66361904D01*
X147207142Y66323809D02*
X147264285Y66361904D01*
X147378571Y66361904D01*
X147435714Y66323809D01*
X147464285Y66247619D01*
X147464285Y66209523D01*
X147435714Y66133333D01*
X147378571Y66095238D01*
X147292857Y66095238D01*
X147235714Y66057142D01*
X147207142Y65980952D01*
X147207142Y65942857D01*
X147235714Y65866666D01*
X147292857Y65828571D01*
X147378571Y65828571D01*
X147435714Y65866666D01*
X147664285Y65828571D02*
X147778571Y66361904D01*
X147892857Y65980952D01*
X148007142Y66361904D01*
X148121428Y65828571D01*
X148607142Y66361904D02*
X148607142Y65561904D01*
X148607142Y66323809D02*
X148549999Y66361904D01*
X148435714Y66361904D01*
X148378571Y66323809D01*
X148349999Y66285714D01*
X148321428Y66209523D01*
X148321428Y65980952D01*
X148349999Y65904761D01*
X148378571Y65866666D01*
X148435714Y65828571D01*
X148549999Y65828571D01*
X148607142Y65866666D01*
X148892857Y66361904D02*
X148892857Y65828571D01*
X148892857Y65561904D02*
X148864285Y65600000D01*
X148892857Y65638095D01*
X148921428Y65600000D01*
X148892857Y65561904D01*
X148892857Y65638095D01*
X149264285Y66361904D02*
X149207142Y66323809D01*
X149178571Y66285714D01*
X149149999Y66209523D01*
X149149999Y65980952D01*
X149178571Y65904761D01*
X149207142Y65866666D01*
X149264285Y65828571D01*
X149349999Y65828571D01*
X149407142Y65866666D01*
X149435714Y65904761D01*
X149464285Y65980952D01*
X149464285Y66209523D01*
X149435714Y66285714D01*
X149407142Y66323809D01*
X149349999Y66361904D01*
X149264285Y66361904D01*
X150149999Y66323809D02*
X150207142Y66361904D01*
X150321428Y66361904D01*
X150378571Y66323809D01*
X150407142Y66247619D01*
X150407142Y66209523D01*
X150378571Y66133333D01*
X150321428Y66095238D01*
X150235714Y66095238D01*
X150178571Y66057142D01*
X150149999Y65980952D01*
X150149999Y65942857D01*
X150178571Y65866666D01*
X150235714Y65828571D01*
X150321428Y65828571D01*
X150378571Y65866666D01*
X150607142Y65828571D02*
X150721428Y66361904D01*
X150835714Y65980952D01*
X150949999Y66361904D01*
X151064285Y65828571D01*
X151549999Y66361904D02*
X151549999Y65561904D01*
X151549999Y66323809D02*
X151492857Y66361904D01*
X151378571Y66361904D01*
X151321428Y66323809D01*
X151292857Y66285714D01*
X151264285Y66209523D01*
X151264285Y65980952D01*
X151292857Y65904761D01*
X151321428Y65866666D01*
X151378571Y65828571D01*
X151492857Y65828571D01*
X151549999Y65866666D01*
X152092857Y66323809D02*
X152035714Y66361904D01*
X151921428Y66361904D01*
X151864285Y66323809D01*
X151835714Y66285714D01*
X151807142Y66209523D01*
X151807142Y65980952D01*
X151835714Y65904761D01*
X151864285Y65866666D01*
X151921428Y65828571D01*
X152035714Y65828571D01*
X152092857Y65866666D01*
X152435714Y66361904D02*
X152378571Y66323809D01*
X152349999Y66247619D01*
X152349999Y65561904D01*
X152664285Y66361904D02*
X152664285Y65561904D01*
X152721428Y66057142D02*
X152892857Y66361904D01*
X152892857Y65828571D02*
X152664285Y66133333D01*
X153549999Y65561904D02*
X153921428Y65561904D01*
X153721428Y65866666D01*
X153807142Y65866666D01*
X153864285Y65904761D01*
X153892857Y65942857D01*
X153921428Y66019047D01*
X153921428Y66209523D01*
X153892857Y66285714D01*
X153864285Y66323809D01*
X153807142Y66361904D01*
X153635714Y66361904D01*
X153578571Y66323809D01*
X153549999Y66285714D01*
X154121428Y65828571D02*
X154264285Y66361904D01*
X154407142Y65828571D01*
X154578571Y65561904D02*
X154949999Y65561904D01*
X154749999Y65866666D01*
X154835714Y65866666D01*
X154892857Y65904761D01*
X154921428Y65942857D01*
X154949999Y66019047D01*
X154949999Y66209523D01*
X154921428Y66285714D01*
X154892857Y66323809D01*
X154835714Y66361904D01*
X154664285Y66361904D01*
X154607142Y66323809D01*
X154578571Y66285714D01*
X161078571Y17111904D02*
X161078571Y16578571D01*
X161078571Y16654761D02*
X161107142Y16616666D01*
X161164285Y16578571D01*
X161250000Y16578571D01*
X161307142Y16616666D01*
X161335714Y16692857D01*
X161335714Y17111904D01*
X161335714Y16692857D02*
X161364285Y16616666D01*
X161421428Y16578571D01*
X161507142Y16578571D01*
X161564285Y16616666D01*
X161592857Y16692857D01*
X161592857Y17111904D01*
X161964285Y17111904D02*
X161907142Y17073809D01*
X161878571Y17035714D01*
X161850000Y16959523D01*
X161850000Y16730952D01*
X161878571Y16654761D01*
X161907142Y16616666D01*
X161964285Y16578571D01*
X162050000Y16578571D01*
X162107142Y16616666D01*
X162135714Y16654761D01*
X162164285Y16730952D01*
X162164285Y16959523D01*
X162135714Y17035714D01*
X162107142Y17073809D01*
X162050000Y17111904D01*
X161964285Y17111904D01*
X162392857Y17073809D02*
X162450000Y17111904D01*
X162564285Y17111904D01*
X162621428Y17073809D01*
X162650000Y16997619D01*
X162650000Y16959523D01*
X162621428Y16883333D01*
X162564285Y16845238D01*
X162478571Y16845238D01*
X162421428Y16807142D01*
X162392857Y16730952D01*
X162392857Y16692857D01*
X162421428Y16616666D01*
X162478571Y16578571D01*
X162564285Y16578571D01*
X162621428Y16616666D01*
X162907142Y17111904D02*
X162907142Y16578571D01*
X162907142Y16311904D02*
X162878571Y16350000D01*
X162907142Y16388095D01*
X162935714Y16350000D01*
X162907142Y16311904D01*
X162907142Y16388095D01*
X163650000Y17111904D02*
X163650000Y16578571D01*
X163650000Y16654761D02*
X163678571Y16616666D01*
X163735714Y16578571D01*
X163821428Y16578571D01*
X163878571Y16616666D01*
X163907142Y16692857D01*
X163907142Y17111904D01*
X163907142Y16692857D02*
X163935714Y16616666D01*
X163992857Y16578571D01*
X164078571Y16578571D01*
X164135714Y16616666D01*
X164164285Y16692857D01*
X164164285Y17111904D01*
X164450000Y17111904D02*
X164450000Y16578571D01*
X164450000Y16311904D02*
X164421428Y16350000D01*
X164450000Y16388095D01*
X164478571Y16350000D01*
X164450000Y16311904D01*
X164450000Y16388095D01*
X164707142Y17073809D02*
X164764285Y17111904D01*
X164878571Y17111904D01*
X164935714Y17073809D01*
X164964285Y16997619D01*
X164964285Y16959523D01*
X164935714Y16883333D01*
X164878571Y16845238D01*
X164792857Y16845238D01*
X164735714Y16807142D01*
X164707142Y16730952D01*
X164707142Y16692857D01*
X164735714Y16616666D01*
X164792857Y16578571D01*
X164878571Y16578571D01*
X164935714Y16616666D01*
X165307142Y17111904D02*
X165250000Y17073809D01*
X165221428Y17035714D01*
X165192857Y16959523D01*
X165192857Y16730952D01*
X165221428Y16654761D01*
X165250000Y16616666D01*
X165307142Y16578571D01*
X165392857Y16578571D01*
X165450000Y16616666D01*
X165478571Y16654761D01*
X165507142Y16730952D01*
X165507142Y16959523D01*
X165478571Y17035714D01*
X165450000Y17073809D01*
X165392857Y17111904D01*
X165307142Y17111904D01*
X166192857Y17073809D02*
X166250000Y17111904D01*
X166364285Y17111904D01*
X166421428Y17073809D01*
X166450000Y16997619D01*
X166450000Y16959523D01*
X166421428Y16883333D01*
X166364285Y16845238D01*
X166278571Y16845238D01*
X166221428Y16807142D01*
X166192857Y16730952D01*
X166192857Y16692857D01*
X166221428Y16616666D01*
X166278571Y16578571D01*
X166364285Y16578571D01*
X166421428Y16616666D01*
X166964285Y17073809D02*
X166907142Y17111904D01*
X166792857Y17111904D01*
X166735714Y17073809D01*
X166707142Y17035714D01*
X166678571Y16959523D01*
X166678571Y16730952D01*
X166707142Y16654761D01*
X166735714Y16616666D01*
X166792857Y16578571D01*
X166907142Y16578571D01*
X166964285Y16616666D01*
X167221428Y17111904D02*
X167221428Y16311904D01*
X167278571Y16807142D02*
X167450000Y17111904D01*
X167450000Y16578571D02*
X167221428Y16883333D01*
X190992857Y49388095D02*
X190992857Y49921428D01*
X190992857Y49769047D02*
X190964285Y49845238D01*
X190935714Y49883333D01*
X190878571Y49921428D01*
X190821428Y49921428D01*
X190678571Y49388095D02*
X190364285Y49921428D01*
X190678571Y49921428D02*
X190364285Y49388095D01*
X188764285Y49388095D02*
X188764285Y50188095D01*
X188764285Y49883333D02*
X188707142Y49921428D01*
X188592857Y49921428D01*
X188535714Y49883333D01*
X188507142Y49845238D01*
X188478571Y49769047D01*
X188478571Y49540476D01*
X188507142Y49464285D01*
X188535714Y49426190D01*
X188592857Y49388095D01*
X188707142Y49388095D01*
X188764285Y49426190D01*
X188135714Y49388095D02*
X188192857Y49426190D01*
X188221428Y49464285D01*
X188250000Y49540476D01*
X188250000Y49769047D01*
X188221428Y49845238D01*
X188192857Y49883333D01*
X188135714Y49921428D01*
X188050000Y49921428D01*
X187992857Y49883333D01*
X187964285Y49845238D01*
X187935714Y49769047D01*
X187935714Y49540476D01*
X187964285Y49464285D01*
X187992857Y49426190D01*
X188050000Y49388095D01*
X188135714Y49388095D01*
X187592857Y49388095D02*
X187650000Y49426190D01*
X187678571Y49464285D01*
X187707142Y49540476D01*
X187707142Y49769047D01*
X187678571Y49845238D01*
X187650000Y49883333D01*
X187592857Y49921428D01*
X187507142Y49921428D01*
X187450000Y49883333D01*
X187421428Y49845238D01*
X187392857Y49769047D01*
X187392857Y49540476D01*
X187421428Y49464285D01*
X187450000Y49426190D01*
X187507142Y49388095D01*
X187592857Y49388095D01*
X187221428Y49921428D02*
X186992857Y49921428D01*
X187135714Y50188095D02*
X187135714Y49502380D01*
X187107142Y49426190D01*
X187050000Y49388095D01*
X186992857Y49388095D01*
X185421428Y49388095D02*
X185421428Y49921428D01*
X185421428Y49769047D02*
X185392857Y49845238D01*
X185364285Y49883333D01*
X185307142Y49921428D01*
X185250000Y49921428D01*
X185078571Y49426190D02*
X185021428Y49388095D01*
X184907142Y49388095D01*
X184850000Y49426190D01*
X184821428Y49502380D01*
X184821428Y49540476D01*
X184850000Y49616666D01*
X184907142Y49654761D01*
X184992857Y49654761D01*
X185050000Y49692857D01*
X185078571Y49769047D01*
X185078571Y49807142D01*
X185050000Y49883333D01*
X184992857Y49921428D01*
X184907142Y49921428D01*
X184850000Y49883333D01*
X184650000Y49921428D02*
X184421428Y49921428D01*
X184564285Y50188095D02*
X184564285Y49502380D01*
X184535714Y49426190D01*
X184478571Y49388095D01*
X184421428Y49388095D01*
X143607142Y16328571D02*
X143750000Y16861904D01*
X143892857Y16328571D01*
X144121428Y16557142D02*
X144578571Y16557142D01*
X145778571Y16861904D02*
X145778571Y16061904D01*
X145778571Y16366666D02*
X145835714Y16328571D01*
X145950000Y16328571D01*
X146007142Y16366666D01*
X146035714Y16404761D01*
X146064285Y16480952D01*
X146064285Y16709523D01*
X146035714Y16785714D01*
X146007142Y16823809D01*
X145950000Y16861904D01*
X145835714Y16861904D01*
X145778571Y16823809D01*
X146235714Y16328571D02*
X146464285Y16328571D01*
X146321428Y16061904D02*
X146321428Y16747619D01*
X146350000Y16823809D01*
X146407142Y16861904D01*
X146464285Y16861904D01*
X146521428Y16938095D02*
X146978571Y16938095D01*
X147207142Y16861904D02*
X147150000Y16823809D01*
X147121428Y16747619D01*
X147121428Y16061904D01*
X147892857Y16861904D02*
X147892857Y16328571D01*
X147892857Y16061904D02*
X147864285Y16100000D01*
X147892857Y16138095D01*
X147921428Y16100000D01*
X147892857Y16061904D01*
X147892857Y16138095D01*
X148178571Y16328571D02*
X148178571Y16861904D01*
X148178571Y16404761D02*
X148207142Y16366666D01*
X148264285Y16328571D01*
X148350000Y16328571D01*
X148407142Y16366666D01*
X148435714Y16442857D01*
X148435714Y16861904D01*
X148578571Y16938095D02*
X149035714Y16938095D01*
X149178571Y16861904D02*
X149178571Y16328571D01*
X149178571Y16404761D02*
X149207142Y16366666D01*
X149264285Y16328571D01*
X149350000Y16328571D01*
X149407142Y16366666D01*
X149435714Y16442857D01*
X149435714Y16861904D01*
X149435714Y16442857D02*
X149464285Y16366666D01*
X149521428Y16328571D01*
X149607142Y16328571D01*
X149664285Y16366666D01*
X149692857Y16442857D01*
X149692857Y16861904D01*
X150435714Y16861904D02*
X150435714Y16328571D01*
X150435714Y16404761D02*
X150464285Y16366666D01*
X150521428Y16328571D01*
X150607142Y16328571D01*
X150664285Y16366666D01*
X150692857Y16442857D01*
X150692857Y16861904D01*
X150692857Y16442857D02*
X150721428Y16366666D01*
X150778571Y16328571D01*
X150864285Y16328571D01*
X150921428Y16366666D01*
X150950000Y16442857D01*
X150950000Y16861904D01*
X151492857Y16861904D02*
X151492857Y16442857D01*
X151464285Y16366666D01*
X151407142Y16328571D01*
X151292857Y16328571D01*
X151235714Y16366666D01*
X151492857Y16823809D02*
X151435714Y16861904D01*
X151292857Y16861904D01*
X151235714Y16823809D01*
X151207142Y16747619D01*
X151207142Y16671428D01*
X151235714Y16595238D01*
X151292857Y16557142D01*
X151435714Y16557142D01*
X151492857Y16519047D01*
X151750000Y16823809D02*
X151807142Y16861904D01*
X151921428Y16861904D01*
X151978571Y16823809D01*
X152007142Y16747619D01*
X152007142Y16709523D01*
X151978571Y16633333D01*
X151921428Y16595238D01*
X151835714Y16595238D01*
X151778571Y16557142D01*
X151750000Y16480952D01*
X151750000Y16442857D01*
X151778571Y16366666D01*
X151835714Y16328571D01*
X151921428Y16328571D01*
X151978571Y16366666D01*
X152121428Y16938095D02*
X152578571Y16938095D01*
X152807142Y16861904D02*
X152750000Y16823809D01*
X152721428Y16747619D01*
X152721428Y16061904D01*
X153750000Y16328571D02*
X153750000Y16976190D01*
X153721428Y17052380D01*
X153692857Y17090476D01*
X153635714Y17128571D01*
X153550000Y17128571D01*
X153492857Y17090476D01*
X153750000Y16823809D02*
X153692857Y16861904D01*
X153578571Y16861904D01*
X153521428Y16823809D01*
X153492857Y16785714D01*
X153464285Y16709523D01*
X153464285Y16480952D01*
X153492857Y16404761D01*
X153521428Y16366666D01*
X153578571Y16328571D01*
X153692857Y16328571D01*
X153750000Y16366666D01*
X154035714Y16328571D02*
X154035714Y16861904D01*
X154035714Y16404761D02*
X154064285Y16366666D01*
X154121428Y16328571D01*
X154207142Y16328571D01*
X154264285Y16366666D01*
X154292857Y16442857D01*
X154292857Y16861904D01*
X154835714Y16861904D02*
X154835714Y16061904D01*
X154835714Y16823809D02*
X154778571Y16861904D01*
X154664285Y16861904D01*
X154607142Y16823809D01*
X154578571Y16785714D01*
X154550000Y16709523D01*
X154550000Y16480952D01*
X154578571Y16404761D01*
X154607142Y16366666D01*
X154664285Y16328571D01*
X154778571Y16328571D01*
X154835714Y16366666D01*
%TO.C,J13*%
X110902380Y9289523D02*
X111616666Y9289523D01*
X111759523Y9337142D01*
X111854761Y9432380D01*
X111902380Y9575238D01*
X111902380Y9670476D01*
X111902380Y8289523D02*
X111902380Y8860952D01*
X111902380Y8575238D02*
X110902380Y8575238D01*
X111045238Y8670476D01*
X111140476Y8765714D01*
X111188095Y8860952D01*
X110902380Y7956190D02*
X110902380Y7337142D01*
X111283333Y7670476D01*
X111283333Y7527619D01*
X111330952Y7432380D01*
X111378571Y7384761D01*
X111473809Y7337142D01*
X111711904Y7337142D01*
X111807142Y7384761D01*
X111854761Y7432380D01*
X111902380Y7527619D01*
X111902380Y7813333D01*
X111854761Y7908571D01*
X111807142Y7956190D01*
%TO.C,J12*%
X170902380Y9289523D02*
X171616666Y9289523D01*
X171759523Y9337142D01*
X171854761Y9432380D01*
X171902380Y9575238D01*
X171902380Y9670476D01*
X171902380Y8289523D02*
X171902380Y8860952D01*
X171902380Y8575238D02*
X170902380Y8575238D01*
X171045238Y8670476D01*
X171140476Y8765714D01*
X171188095Y8860952D01*
X170997619Y7908571D02*
X170950000Y7860952D01*
X170902380Y7765714D01*
X170902380Y7527619D01*
X170950000Y7432380D01*
X170997619Y7384761D01*
X171092857Y7337142D01*
X171188095Y7337142D01*
X171330952Y7384761D01*
X171902380Y7956190D01*
X171902380Y7337142D01*
%TO.C,J7*%
X140902380Y8813333D02*
X141616666Y8813333D01*
X141759523Y8860952D01*
X141854761Y8956190D01*
X141902380Y9099047D01*
X141902380Y9194285D01*
X140902380Y8432380D02*
X140902380Y7765714D01*
X141902380Y8194285D01*
%TO.C,J11*%
X158442380Y9289523D02*
X159156666Y9289523D01*
X159299523Y9337142D01*
X159394761Y9432380D01*
X159442380Y9575238D01*
X159442380Y9670476D01*
X159442380Y8289523D02*
X159442380Y8860952D01*
X159442380Y8575238D02*
X158442380Y8575238D01*
X158585238Y8670476D01*
X158680476Y8765714D01*
X158728095Y8860952D01*
X159442380Y7337142D02*
X159442380Y7908571D01*
X159442380Y7622857D02*
X158442380Y7622857D01*
X158585238Y7718095D01*
X158680476Y7813333D01*
X158728095Y7908571D01*
%TO.C,SW1*%
X129394761Y9813333D02*
X129442380Y9670476D01*
X129442380Y9432380D01*
X129394761Y9337142D01*
X129347142Y9289523D01*
X129251904Y9241904D01*
X129156666Y9241904D01*
X129061428Y9289523D01*
X129013809Y9337142D01*
X128966190Y9432380D01*
X128918571Y9622857D01*
X128870952Y9718095D01*
X128823333Y9765714D01*
X128728095Y9813333D01*
X128632857Y9813333D01*
X128537619Y9765714D01*
X128490000Y9718095D01*
X128442380Y9622857D01*
X128442380Y9384761D01*
X128490000Y9241904D01*
X128442380Y8908571D02*
X129442380Y8670476D01*
X128728095Y8480000D01*
X129442380Y8289523D01*
X128442380Y8051428D01*
X129442380Y7146666D02*
X129442380Y7718095D01*
X129442380Y7432380D02*
X128442380Y7432380D01*
X128585238Y7527619D01*
X128680476Y7622857D01*
X128728095Y7718095D01*
D12*
%TO.C,J13*%
X113100000Y15095000D02*
X113100000Y13525000D01*
X113920000Y15095000D02*
X113100000Y15095000D01*
X124520000Y1105000D02*
X124520000Y7105000D01*
X123640000Y1105000D02*
X124520000Y1105000D01*
X123640000Y7105000D02*
X123640000Y1105000D01*
X124520000Y11955000D02*
X124520000Y9845000D01*
X123640000Y11955000D02*
X123640000Y9845000D01*
X121980000Y1105000D02*
X121980000Y7105000D01*
X121100000Y1105000D02*
X121980000Y1105000D01*
X121100000Y7105000D02*
X121100000Y1105000D01*
X121980000Y11955000D02*
X121980000Y9845000D01*
X121100000Y11955000D02*
X121100000Y9845000D01*
X119440000Y1105000D02*
X119440000Y7105000D01*
X118560000Y1105000D02*
X119440000Y1105000D01*
X118560000Y7105000D02*
X118560000Y1105000D01*
X119440000Y11955000D02*
X119440000Y9845000D01*
X118560000Y11955000D02*
X118560000Y9845000D01*
X116900000Y1105000D02*
X116900000Y7105000D01*
X116020000Y1105000D02*
X116900000Y1105000D01*
X116020000Y7105000D02*
X116020000Y1105000D01*
X116900000Y11955000D02*
X116900000Y9845000D01*
X116020000Y11955000D02*
X116020000Y9845000D01*
X114360000Y1105000D02*
X114360000Y7105000D01*
X113480000Y1105000D02*
X114360000Y1105000D01*
X113480000Y7105000D02*
X113480000Y1105000D01*
X114360000Y11955000D02*
X114360000Y9845000D01*
X113480000Y11955000D02*
X113480000Y9845000D01*
X125470000Y9845000D02*
X112530000Y9845000D01*
X125470000Y7105000D02*
X125470000Y9845000D01*
X112530000Y7105000D02*
X125470000Y7105000D01*
X112530000Y9845000D02*
X112530000Y7105000D01*
%TO.C,J12*%
X172530000Y9845000D02*
X172530000Y7105000D01*
X172530000Y7105000D02*
X185470000Y7105000D01*
X185470000Y7105000D02*
X185470000Y9845000D01*
X185470000Y9845000D02*
X172530000Y9845000D01*
X173480000Y11955000D02*
X173480000Y9845000D01*
X174360000Y11955000D02*
X174360000Y9845000D01*
X173480000Y7105000D02*
X173480000Y1105000D01*
X173480000Y1105000D02*
X174360000Y1105000D01*
X174360000Y1105000D02*
X174360000Y7105000D01*
X176020000Y11955000D02*
X176020000Y9845000D01*
X176900000Y11955000D02*
X176900000Y9845000D01*
X176020000Y7105000D02*
X176020000Y1105000D01*
X176020000Y1105000D02*
X176900000Y1105000D01*
X176900000Y1105000D02*
X176900000Y7105000D01*
X178560000Y11955000D02*
X178560000Y9845000D01*
X179440000Y11955000D02*
X179440000Y9845000D01*
X178560000Y7105000D02*
X178560000Y1105000D01*
X178560000Y1105000D02*
X179440000Y1105000D01*
X179440000Y1105000D02*
X179440000Y7105000D01*
X181100000Y11955000D02*
X181100000Y9845000D01*
X181980000Y11955000D02*
X181980000Y9845000D01*
X181100000Y7105000D02*
X181100000Y1105000D01*
X181100000Y1105000D02*
X181980000Y1105000D01*
X181980000Y1105000D02*
X181980000Y7105000D01*
X183640000Y11955000D02*
X183640000Y9845000D01*
X184520000Y11955000D02*
X184520000Y9845000D01*
X183640000Y7105000D02*
X183640000Y1105000D01*
X183640000Y1105000D02*
X184520000Y1105000D01*
X184520000Y1105000D02*
X184520000Y7105000D01*
X173920000Y15095000D02*
X173100000Y15095000D01*
X173100000Y15095000D02*
X173100000Y13525000D01*
%TO.C,G\u002A\u002A\u002A*%
G36*
X148133999Y44326000D02*
G01*
X148233335Y44326493D01*
X148583518Y44341932D01*
X148801135Y44382523D01*
X148915334Y44453000D01*
X148996178Y44516743D01*
X149222539Y44574076D01*
X149479684Y44548028D01*
X149691834Y44439878D01*
X149766156Y44342562D01*
X149838403Y44094149D01*
X149823637Y43825598D01*
X149719166Y43617928D01*
X149523554Y43474831D01*
X149257838Y43437081D01*
X148949899Y43557365D01*
X148857366Y43607201D01*
X148640561Y43683604D01*
X148361488Y43722484D01*
X147967122Y43733334D01*
X147282590Y43733334D01*
X146839513Y44111866D01*
X146396436Y44490399D01*
X145962552Y43991551D01*
X145528667Y43492704D01*
X145528667Y40955628D01*
X144999931Y40444591D01*
X144471194Y39933555D01*
X144724764Y39667696D01*
X144863089Y39535407D01*
X145237435Y39239688D01*
X145691941Y38936990D01*
X146173582Y38661307D01*
X146629334Y38446636D01*
X147179667Y38222902D01*
X147425358Y38501618D01*
X147590450Y38685743D01*
X147834497Y38952980D01*
X148086318Y39224834D01*
X148501587Y39669334D01*
X150100667Y39669334D01*
X150100667Y40854667D01*
X147659725Y40854667D01*
X147313863Y40461747D01*
X147161620Y40269617D01*
X147021896Y40043167D01*
X146968000Y39882203D01*
X146959578Y39794017D01*
X146849322Y39585499D01*
X146646280Y39461903D01*
X146395079Y39431675D01*
X146140344Y39503261D01*
X145926700Y39685108D01*
X145846696Y39803976D01*
X145803517Y39963895D01*
X145860551Y40160959D01*
X145946021Y40301440D01*
X146119851Y40465749D01*
X146308971Y40564110D01*
X146457998Y40559572D01*
X146465723Y40557575D01*
X146567483Y40613429D01*
X146741528Y40764774D01*
X146955067Y40983635D01*
X147382162Y41450944D01*
X149058914Y41427972D01*
X150735667Y41405000D01*
X150761473Y41002834D01*
X150787278Y40600667D01*
X151227139Y40603360D01*
X151357758Y40608731D01*
X151642558Y40653304D01*
X151831349Y40730360D01*
X151951379Y40802104D01*
X152224163Y40851885D01*
X152473338Y40770619D01*
X152655021Y40579453D01*
X152725334Y40299533D01*
X152702791Y40115515D01*
X152572013Y39860972D01*
X152357726Y39708074D01*
X152098111Y39678428D01*
X151831349Y39793641D01*
X151768515Y39828933D01*
X151530642Y39894221D01*
X151227139Y39920641D01*
X150787278Y39923334D01*
X150761473Y39521167D01*
X150735667Y39119000D01*
X149746929Y39095200D01*
X148758191Y39071399D01*
X148327427Y38574162D01*
X147896663Y38076924D01*
X148320088Y38018689D01*
X148546870Y37997133D01*
X148929319Y37983074D01*
X149305061Y37989331D01*
X149866609Y38018209D01*
X150025649Y37613324D01*
X150074782Y37486126D01*
X150128071Y37296279D01*
X150089603Y37191082D01*
X149933779Y37136908D01*
X149635000Y37100127D01*
X149594803Y37096616D01*
X149320570Y37087579D01*
X148958795Y37090935D01*
X148576667Y37106291D01*
X147632732Y37223495D01*
X146587399Y37508384D01*
X145599232Y37947384D01*
X144683055Y38533733D01*
X143853690Y39260669D01*
X143400676Y39764385D01*
X142772014Y40660687D01*
X142293312Y41635121D01*
X141965986Y42685119D01*
X141936404Y42823292D01*
X141842832Y43503023D01*
X141809898Y44248660D01*
X141812243Y44316151D01*
X142676466Y44316151D01*
X142758257Y43329949D01*
X142997752Y42353143D01*
X143393506Y41404621D01*
X143529218Y41152014D01*
X143709079Y40846675D01*
X143860375Y40619630D01*
X144068314Y40342260D01*
X144502157Y40816953D01*
X144640842Y40970330D01*
X144806904Y41174488D01*
X144895038Y41342703D01*
X144929863Y41530355D01*
X144936000Y41792824D01*
X144935079Y41880072D01*
X144905851Y42162199D01*
X144824979Y42290483D01*
X144678164Y42274710D01*
X144451104Y42124667D01*
X144253298Y42005863D01*
X144074067Y41955334D01*
X143928210Y41995906D01*
X143724911Y42148118D01*
X143562840Y42359072D01*
X143496667Y42570520D01*
X143564712Y42816159D01*
X143743217Y43009041D01*
X143983871Y43121107D01*
X144238327Y43130076D01*
X144458239Y43013667D01*
X144555397Y42944760D01*
X144760620Y42886667D01*
X144818263Y42890500D01*
X144894481Y42937401D01*
X144928322Y43070950D01*
X144936000Y43332343D01*
X144940739Y43529744D01*
X144971003Y43704102D01*
X145049432Y43866903D01*
X145198627Y44063129D01*
X145441191Y44337763D01*
X145661109Y44584615D01*
X145808581Y44766962D01*
X145869764Y44882719D01*
X145859932Y44962042D01*
X145794357Y45035088D01*
X145647961Y45121666D01*
X145416167Y45172667D01*
X145190000Y45172667D01*
X145190000Y49358775D01*
X144632559Y48810888D01*
X144555489Y48734039D01*
X144270951Y48432879D01*
X144006458Y48128812D01*
X143786817Y47852612D01*
X143636840Y47635054D01*
X143581334Y47506912D01*
X143609841Y47489552D01*
X143763111Y47467351D01*
X144004667Y47458667D01*
X144428000Y47458667D01*
X144428000Y46241367D01*
X144428087Y46141682D01*
X144432398Y45671732D01*
X144445088Y45340248D01*
X144468746Y45121078D01*
X144505962Y44988072D01*
X144559324Y44915079D01*
X144641009Y44803503D01*
X144667592Y44576935D01*
X144585907Y44332545D01*
X144407004Y44127468D01*
X144321388Y44073326D01*
X144049203Y44012393D01*
X143792703Y44107255D01*
X143583953Y44349271D01*
X143509760Y44506597D01*
X143509616Y44649871D01*
X143602500Y44841848D01*
X143671014Y44999004D01*
X143718509Y45223028D01*
X143743439Y45540542D01*
X143750667Y45989226D01*
X143750667Y46876729D01*
X143475500Y46850198D01*
X143324807Y46823345D01*
X143216669Y46750942D01*
X143125509Y46594720D01*
X143017931Y46315667D01*
X142991770Y46241190D01*
X142753822Y45292861D01*
X142676466Y44316151D01*
X141812243Y44316151D01*
X141836133Y45003670D01*
X141920070Y45711517D01*
X142060241Y46315667D01*
X142468548Y47356260D01*
X143019970Y48318917D01*
X143704788Y49177804D01*
X144520315Y49929564D01*
X145463865Y50570839D01*
X145604712Y50654474D01*
X145869551Y50823135D01*
X146052845Y50956101D01*
X146121334Y51030137D01*
X146123061Y51041325D01*
X146196706Y51157684D01*
X146345364Y51315043D01*
X146642157Y51492541D01*
X146953260Y51515997D01*
X147239529Y51391650D01*
X147462171Y51126067D01*
X147540661Y50915315D01*
X147537567Y50601601D01*
X147399916Y50336021D01*
X147148818Y50152092D01*
X146805388Y50083334D01*
X146779656Y50082951D01*
X146462057Y50037882D01*
X146166540Y49940653D01*
X145867334Y49797971D01*
X145867334Y48644000D01*
X147560667Y48644000D01*
X147560667Y47740501D01*
X147560853Y47645178D01*
X147568811Y47241363D01*
X147591565Y46968195D01*
X147633312Y46793468D01*
X147698250Y46684973D01*
X147812707Y46465816D01*
X147814596Y46184582D01*
X147685128Y45931862D01*
X147633889Y45884476D01*
X147388551Y45780849D01*
X147108282Y45787026D01*
X146868834Y45905456D01*
X146783063Y46025197D01*
X146720536Y46267103D01*
X146738951Y46516445D01*
X146841000Y46696667D01*
X146914444Y46818410D01*
X146955421Y47052666D01*
X146968000Y47426701D01*
X146968000Y48051334D01*
X145867334Y48051334D01*
X145867334Y45786187D01*
X146662699Y45056094D01*
X146851574Y44882719D01*
X147458064Y44326000D01*
X148133999Y44326000D01*
G37*
G36*
X156113067Y33149356D02*
G01*
X156549800Y33145178D01*
X156862171Y33134852D01*
X157075878Y33115807D01*
X157216619Y33085475D01*
X157310094Y33041285D01*
X157382000Y32980667D01*
X157429856Y32925866D01*
X157468221Y32854448D01*
X157497541Y32747995D01*
X157519026Y32587323D01*
X157533887Y32353244D01*
X157543337Y32026575D01*
X157548588Y31588129D01*
X157550849Y31018722D01*
X157551334Y30299167D01*
X157551297Y30124342D01*
X157549953Y29431104D01*
X157545956Y28884348D01*
X157538323Y28465364D01*
X157526071Y28155442D01*
X157508217Y27935871D01*
X157483777Y27787942D01*
X157451770Y27692944D01*
X157411212Y27632167D01*
X157370724Y27593882D01*
X157289182Y27549098D01*
X157160774Y27517392D01*
X156961010Y27496565D01*
X156665398Y27484413D01*
X156249447Y27478737D01*
X155688667Y27477334D01*
X155672066Y27477334D01*
X155119473Y27478424D01*
X154710586Y27483303D01*
X154420434Y27494484D01*
X154224046Y27514477D01*
X154096452Y27545795D01*
X154012682Y27590950D01*
X153947764Y27652453D01*
X153861947Y27759167D01*
X153837757Y27881311D01*
X153916507Y28054620D01*
X153947789Y28108921D01*
X154004780Y28182124D01*
X154089198Y28232849D01*
X154229403Y28266748D01*
X154453759Y28289472D01*
X154790626Y28306672D01*
X155268366Y28324000D01*
X156493000Y28366334D01*
X156493000Y29890334D01*
X155482272Y29914325D01*
X155105359Y29929215D01*
X154747341Y29956489D01*
X154487110Y29991494D01*
X154360439Y30030525D01*
X154315476Y30084253D01*
X154256133Y30286454D01*
X154271121Y30515332D01*
X154360439Y30681476D01*
X154468122Y30716781D01*
X154716786Y30752347D01*
X155066761Y30780548D01*
X155482272Y30797676D01*
X156493000Y30821667D01*
X156542182Y32218667D01*
X155353425Y32218667D01*
X154962419Y32219881D01*
X154597823Y32226877D01*
X154348794Y32243450D01*
X154185354Y32273336D01*
X154077526Y32320274D01*
X153995334Y32388000D01*
X153882048Y32534096D01*
X153826000Y32684334D01*
X153869748Y32813045D01*
X153995334Y32980667D01*
X154048219Y33027751D01*
X154133883Y33075813D01*
X154260380Y33109373D01*
X154453408Y33131002D01*
X154738666Y33143270D01*
X155141853Y33148746D01*
X155688667Y33150000D01*
X156113067Y33149356D01*
G37*
G36*
X148243984Y31841670D02*
G01*
X148694925Y31673751D01*
X149133982Y31356526D01*
X149314008Y31194939D01*
X149440244Y31104841D01*
X149507098Y31109086D01*
X149547797Y31194675D01*
X149610102Y31321556D01*
X149829062Y31551529D01*
X150135377Y31737129D01*
X150475721Y31841201D01*
X150790453Y31856409D01*
X151275908Y31747879D01*
X151715061Y31481189D01*
X151770850Y31435354D01*
X151919770Y31326188D01*
X151988076Y31297965D01*
X152018521Y31353031D01*
X152099104Y31499000D01*
X152146033Y31570081D01*
X152350611Y31728960D01*
X152590423Y31767172D01*
X152807437Y31670654D01*
X152852527Y31625111D01*
X152897246Y31554097D01*
X152930020Y31447319D01*
X152952696Y31282514D01*
X152967119Y31037422D01*
X152975136Y30689781D01*
X152978592Y30217331D01*
X152979334Y29597812D01*
X152978939Y29329856D01*
X152973547Y28699380D01*
X152961350Y28221364D01*
X152941729Y27883494D01*
X152914063Y27673455D01*
X152877734Y27578934D01*
X152765375Y27515289D01*
X152560234Y27478630D01*
X152524090Y27478995D01*
X152369530Y27490597D01*
X152256186Y27535146D01*
X152176637Y27635368D01*
X152123464Y27813989D01*
X152089247Y28093733D01*
X152066566Y28497327D01*
X152048000Y29047496D01*
X152005667Y30454942D01*
X151729165Y30701805D01*
X151629180Y30779995D01*
X151294066Y30927300D01*
X150943785Y30942227D01*
X150630796Y30819171D01*
X150552636Y30752132D01*
X150440604Y30582957D01*
X150360376Y30331827D01*
X150307947Y29977080D01*
X150279314Y29497058D01*
X150270473Y28870100D01*
X150269890Y28645212D01*
X150261800Y28189259D01*
X150238527Y27869467D01*
X150192936Y27662171D01*
X150117891Y27543709D01*
X150006258Y27490417D01*
X149850900Y27478630D01*
X149814757Y27478995D01*
X149660197Y27490597D01*
X149546852Y27535146D01*
X149467303Y27635368D01*
X149414130Y27813989D01*
X149379913Y28093733D01*
X149357232Y28497327D01*
X149338667Y29047496D01*
X149296334Y30454942D01*
X149019831Y30701805D01*
X148747652Y30886288D01*
X148442765Y30948667D01*
X148434063Y30948652D01*
X148154162Y30924825D01*
X147939355Y30843196D01*
X147781612Y30685318D01*
X147672903Y30432743D01*
X147605196Y30067025D01*
X147570461Y29569715D01*
X147560667Y28922365D01*
X147560648Y28849017D01*
X147558555Y28377459D01*
X147550711Y28044796D01*
X147533869Y27824124D01*
X147504785Y27688534D01*
X147460210Y27611121D01*
X147396900Y27564979D01*
X147276844Y27513194D01*
X146992119Y27490910D01*
X146755949Y27616814D01*
X146734498Y27640876D01*
X146690875Y27721520D01*
X146660781Y27850310D01*
X146642633Y28051466D01*
X146634852Y28349207D01*
X146635857Y28767750D01*
X146644068Y29331314D01*
X146649271Y29609730D01*
X146661821Y30108178D01*
X146678315Y30476747D01*
X146701617Y30742517D01*
X146734590Y30932565D01*
X146780096Y31073972D01*
X146841000Y31193817D01*
X147042039Y31465358D01*
X147395322Y31735897D01*
X147803377Y31861860D01*
X148243984Y31841670D01*
G37*
G36*
X173536228Y28853228D02*
G01*
X173317308Y28320293D01*
X172975523Y27888325D01*
X172518074Y27571859D01*
X172395999Y27517218D01*
X171878100Y27395616D01*
X171344159Y27429986D01*
X170831562Y27619276D01*
X170415208Y27845884D01*
X170286137Y27661609D01*
X170205965Y27575952D01*
X169979002Y27480818D01*
X169734008Y27510783D01*
X169536468Y27665506D01*
X169513202Y27704412D01*
X169474100Y27814759D01*
X169445303Y27984542D01*
X169425387Y28235735D01*
X169412926Y28590311D01*
X169406494Y29070244D01*
X169405018Y29577152D01*
X170384083Y29577152D01*
X170384232Y29529167D01*
X170441630Y29105115D01*
X170617100Y28772110D01*
X170933899Y28483905D01*
X171119795Y28374207D01*
X171498512Y28272411D01*
X171865505Y28313926D01*
X172195296Y28482797D01*
X172462405Y28763069D01*
X172641355Y29138788D01*
X172706667Y29594000D01*
X172700717Y29744850D01*
X172596146Y30203050D01*
X172372768Y30564591D01*
X172045668Y30810852D01*
X171629930Y30923210D01*
X171277047Y30908746D01*
X170904915Y30762511D01*
X170624933Y30484152D01*
X170447767Y30085191D01*
X170384083Y29577152D01*
X169405018Y29577152D01*
X169404667Y29697506D01*
X169404884Y30049501D01*
X169407167Y30573659D01*
X169413527Y30963979D01*
X169425893Y31243394D01*
X169446194Y31434837D01*
X169476360Y31561241D01*
X169518319Y31645540D01*
X169574000Y31710667D01*
X169798848Y31855361D01*
X170043372Y31844634D01*
X170288592Y31665809D01*
X170487097Y31451618D01*
X170777661Y31623055D01*
X170929854Y31702648D01*
X171428777Y31845834D01*
X171946279Y31839474D01*
X172444837Y31687636D01*
X172886930Y31394387D01*
X173022051Y31264422D01*
X173338593Y30851237D01*
X173531350Y30375512D01*
X173619485Y29795426D01*
X173622980Y29594000D01*
X173625086Y29472599D01*
X173536228Y28853228D01*
G37*
G36*
X139686667Y37214000D02*
G01*
X120552000Y37214000D01*
X120552000Y38484000D01*
X139686667Y38484000D01*
X139686667Y37214000D01*
G37*
G36*
X140749978Y29358097D02*
G01*
X140687886Y28899808D01*
X140561239Y28535667D01*
X140426041Y28313338D01*
X140032499Y27884145D01*
X139517334Y27568851D01*
X139285171Y27484213D01*
X138860940Y27407267D01*
X138415985Y27403130D01*
X137981650Y27463997D01*
X137589275Y27582061D01*
X137270202Y27749519D01*
X137055775Y27958564D01*
X136977334Y28201392D01*
X136986978Y28311837D01*
X137083193Y28484979D01*
X137289362Y28551857D01*
X137613802Y28513775D01*
X138064827Y28372039D01*
X138389314Y28292104D01*
X138849290Y28310599D01*
X139272341Y28476168D01*
X139621285Y28779085D01*
X139716747Y28931667D01*
X139769451Y29107167D01*
X139767218Y29135854D01*
X139737826Y29182393D01*
X139655742Y29215072D01*
X139497638Y29236298D01*
X139240189Y29248479D01*
X138860070Y29254021D01*
X138333952Y29255334D01*
X138285730Y29255335D01*
X137774139Y29256152D01*
X137403819Y29260806D01*
X137148804Y29272680D01*
X136983128Y29295154D01*
X136880825Y29331610D01*
X136815927Y29385432D01*
X136762469Y29459999D01*
X136686273Y29663858D01*
X136686741Y30002152D01*
X136752294Y30255493D01*
X137739334Y30255493D01*
X137741460Y30224382D01*
X137772057Y30169149D01*
X137861002Y30133485D01*
X138036037Y30113200D01*
X138324900Y30104102D01*
X138755334Y30102000D01*
X138865702Y30102149D01*
X139304215Y30109574D01*
X139591422Y30135613D01*
X139742179Y30190462D01*
X139771338Y30284317D01*
X139693753Y30427375D01*
X139524279Y30629831D01*
X139397345Y30761704D01*
X139252236Y30857312D01*
X139063271Y30897893D01*
X138767838Y30906334D01*
X138581556Y30903525D01*
X138342550Y30875821D01*
X138170187Y30800935D01*
X137998893Y30657660D01*
X137941952Y30599361D01*
X137797290Y30407420D01*
X137739334Y30255493D01*
X136752294Y30255493D01*
X136787272Y30390670D01*
X136976811Y30790360D01*
X137244304Y31162170D01*
X137359865Y31284310D01*
X137806928Y31618133D01*
X138298142Y31805248D01*
X138808871Y31849326D01*
X139314478Y31754041D01*
X139790326Y31523066D01*
X140211777Y31160073D01*
X140554195Y30668735D01*
X140681317Y30307872D01*
X140684720Y30284317D01*
X140747720Y29848222D01*
X140749978Y29358097D01*
G37*
G36*
X130967705Y28926435D02*
G01*
X130903733Y28695948D01*
X130796667Y28459121D01*
X130605383Y28150927D01*
X130221642Y27760269D01*
X129760442Y27505686D01*
X129295277Y27403820D01*
X128753589Y27434813D01*
X128244229Y27619276D01*
X127827874Y27845884D01*
X127698803Y27661609D01*
X127618632Y27575952D01*
X127391669Y27480818D01*
X127146675Y27510783D01*
X126949135Y27665506D01*
X126945702Y27670531D01*
X126908767Y27747620D01*
X126879478Y27867710D01*
X126856995Y28048846D01*
X126840481Y28309074D01*
X126829096Y28666441D01*
X126822002Y29138994D01*
X126819267Y29594000D01*
X127797799Y29594000D01*
X127855006Y29122748D01*
X128034722Y28739604D01*
X128331643Y28472252D01*
X128412940Y28428064D01*
X128835954Y28292660D01*
X129235005Y28308902D01*
X129586481Y28461974D01*
X129866769Y28737058D01*
X130052257Y29119339D01*
X130119334Y29594000D01*
X130113384Y29744850D01*
X130008813Y30203050D01*
X129785435Y30564591D01*
X129458335Y30810852D01*
X129042597Y30923210D01*
X128697814Y30909666D01*
X128323628Y30765142D01*
X128040937Y30489190D01*
X127861680Y30094560D01*
X127797799Y29594000D01*
X126819267Y29594000D01*
X126818361Y29744778D01*
X126817334Y30501839D01*
X126817353Y30702757D01*
X126818095Y31403829D01*
X126820743Y31958862D01*
X126826416Y32386479D01*
X126836234Y32705303D01*
X126851316Y32933957D01*
X126872781Y33091064D01*
X126901748Y33195247D01*
X126939337Y33265129D01*
X126986667Y33319334D01*
X127137066Y33431636D01*
X127304167Y33487371D01*
X127461747Y33463762D01*
X127634647Y33344112D01*
X127749620Y33108601D01*
X127813553Y32740788D01*
X127833334Y32224233D01*
X127834324Y32049226D01*
X127841589Y31745122D01*
X127854370Y31535055D01*
X127870828Y31456667D01*
X127883720Y31459942D01*
X128003577Y31517972D01*
X128194607Y31625580D01*
X128348373Y31705741D01*
X128845159Y31846659D01*
X129361316Y31838954D01*
X129858807Y31686805D01*
X130299597Y31394387D01*
X130431751Y31269770D01*
X130710901Y30941107D01*
X130887183Y30590690D01*
X130979532Y30171453D01*
X131006881Y29636334D01*
X131006914Y29595458D01*
X131006883Y29594000D01*
X130998719Y29207349D01*
X130967705Y28926435D01*
G37*
G36*
X135954560Y28810172D02*
G01*
X135717238Y28280728D01*
X135363597Y27856145D01*
X134903000Y27553184D01*
X134758186Y27495601D01*
X134291530Y27406410D01*
X133803362Y27430212D01*
X133348043Y27560313D01*
X132979932Y27790018D01*
X132879200Y27857733D01*
X132828667Y27835170D01*
X132828517Y27828469D01*
X132750128Y27667143D01*
X132572996Y27533223D01*
X132363000Y27477334D01*
X132341868Y27477371D01*
X132222719Y27482994D01*
X132127021Y27509770D01*
X132052204Y27574163D01*
X131995699Y27692638D01*
X131954937Y27881660D01*
X131927348Y28157691D01*
X131910363Y28537198D01*
X131901411Y29036645D01*
X131898828Y29507754D01*
X132830589Y29507754D01*
X132901480Y29094483D01*
X133075494Y28733101D01*
X133353792Y28463912D01*
X133657898Y28320913D01*
X134035304Y28272919D01*
X134384389Y28356265D01*
X134688044Y28549650D01*
X134929161Y28831771D01*
X135090629Y29181325D01*
X135155340Y29577008D01*
X135106185Y29997519D01*
X134926053Y30421553D01*
X134862562Y30515157D01*
X134564846Y30781790D01*
X134194877Y30927332D01*
X133798413Y30940029D01*
X133421211Y30808126D01*
X133225070Y30655847D01*
X132993544Y30328741D01*
X132861664Y29932608D01*
X132830589Y29507754D01*
X131898828Y29507754D01*
X131897925Y29672496D01*
X131897334Y30461215D01*
X131897593Y30932519D01*
X131899564Y31599781D01*
X131904219Y32126308D01*
X131912431Y32530025D01*
X131925075Y32828857D01*
X131943025Y33040729D01*
X131967156Y33183565D01*
X131998341Y33275292D01*
X132037456Y33333834D01*
X132159584Y33436369D01*
X132380544Y33476765D01*
X132640495Y33356866D01*
X132653013Y33347968D01*
X132733563Y33274806D01*
X132784911Y33172573D01*
X132813549Y33006210D01*
X132825970Y32740661D01*
X132828667Y32340866D01*
X132830722Y32060798D01*
X132838962Y31748552D01*
X132852044Y31535484D01*
X132868393Y31456667D01*
X132894495Y31464280D01*
X133036029Y31527510D01*
X133248122Y31633887D01*
X133694907Y31805664D01*
X134210357Y31861259D01*
X134699503Y31772984D01*
X135143008Y31554421D01*
X135521534Y31219154D01*
X135815744Y30780767D01*
X136006300Y30252843D01*
X136073865Y29648966D01*
X136071372Y29577008D01*
X136066200Y29427716D01*
X135954560Y28810172D01*
G37*
G36*
X125974049Y29059956D02*
G01*
X125863379Y28682134D01*
X125582350Y28180734D01*
X125172091Y27788166D01*
X124636398Y27508831D01*
X124341811Y27434513D01*
X123927976Y27405971D01*
X123490831Y27438238D01*
X123068667Y27523152D01*
X122699775Y27652552D01*
X122422448Y27818275D01*
X122274977Y28012161D01*
X122251856Y28092487D01*
X122246320Y28347225D01*
X122359630Y28513204D01*
X122443645Y28547989D01*
X122644384Y28574479D01*
X122843618Y28558581D01*
X122959743Y28501841D01*
X123001146Y28469642D01*
X123172672Y28397895D01*
X123420230Y28326504D01*
X123513382Y28306359D01*
X124000246Y28284514D01*
X124421543Y28418740D01*
X124777600Y28709127D01*
X124857790Y28801419D01*
X124986385Y28965484D01*
X125038688Y29084353D01*
X124999194Y29165301D01*
X124852396Y29215600D01*
X124582788Y29242523D01*
X124174866Y29253343D01*
X123613123Y29255334D01*
X123332856Y29255620D01*
X122880077Y29258991D01*
X122557120Y29268434D01*
X122337563Y29286759D01*
X122194984Y29316775D01*
X122102960Y29361292D01*
X122035069Y29423118D01*
X121944551Y29612740D01*
X121928056Y29923353D01*
X121962538Y30102000D01*
X122931476Y30102000D01*
X123985405Y30102000D01*
X124027390Y30102030D01*
X124421926Y30105327D01*
X124743513Y30113307D01*
X124960024Y30124846D01*
X125039334Y30138822D01*
X124976846Y30354204D01*
X124813642Y30591974D01*
X124596944Y30778978D01*
X124580330Y30788891D01*
X124222965Y30919000D01*
X123844852Y30928862D01*
X123489313Y30830153D01*
X123199665Y30634548D01*
X123019227Y30353723D01*
X122931476Y30102000D01*
X121962538Y30102000D01*
X121999725Y30294661D01*
X122155545Y30684627D01*
X122413724Y31069064D01*
X122800786Y31430536D01*
X123252945Y31695013D01*
X123732068Y31840828D01*
X124200022Y31846312D01*
X124407802Y31802807D01*
X124938984Y31584581D01*
X125380468Y31241954D01*
X125718486Y30796552D01*
X125939268Y30270001D01*
X125959362Y30138822D01*
X126029045Y29683927D01*
X125974049Y29059956D01*
G37*
G36*
X121200446Y28748466D02*
G01*
X120957302Y28254012D01*
X120611219Y27845538D01*
X120171000Y27553184D01*
X120102493Y27523435D01*
X119597914Y27403926D01*
X119067089Y27430483D01*
X118559286Y27601626D01*
X118553737Y27604435D01*
X118316857Y27720121D01*
X118178438Y27762715D01*
X118087061Y27736051D01*
X117991306Y27643959D01*
X117831378Y27535212D01*
X117595736Y27477334D01*
X117580069Y27477353D01*
X117457721Y27482604D01*
X117359418Y27508608D01*
X117282530Y27571872D01*
X117224426Y27688907D01*
X117182476Y27876221D01*
X117154052Y28150323D01*
X117136522Y28527722D01*
X117127257Y29024927D01*
X117124566Y29494427D01*
X118099273Y29494427D01*
X118171783Y29087141D01*
X118345309Y28730442D01*
X118621792Y28463912D01*
X118857632Y28347742D01*
X119262668Y28280508D01*
X119654621Y28362140D01*
X119999755Y28582995D01*
X120264335Y28933429D01*
X120352158Y29227881D01*
X120377802Y29610118D01*
X120340438Y30002684D01*
X120241277Y30332034D01*
X120183392Y30438752D01*
X119911417Y30735417D01*
X119557049Y30904946D01*
X119154296Y30936341D01*
X118737163Y30818600D01*
X118468449Y30623983D01*
X118249546Y30302430D01*
X118125841Y29912718D01*
X118099273Y29494427D01*
X117124566Y29494427D01*
X117123626Y29658447D01*
X117123000Y30444791D01*
X117123006Y30546703D01*
X117123694Y31275198D01*
X117126260Y31855165D01*
X117131746Y32305108D01*
X117141192Y32643530D01*
X117155641Y32888935D01*
X117176134Y33059826D01*
X117203712Y33174706D01*
X117239417Y33252078D01*
X117284289Y33310445D01*
X117433819Y33436343D01*
X117653226Y33476043D01*
X117908495Y33356866D01*
X117921013Y33347968D01*
X118001563Y33274806D01*
X118052911Y33172573D01*
X118081549Y33006210D01*
X118093970Y32740661D01*
X118096667Y32340866D01*
X118098722Y32060798D01*
X118106962Y31748552D01*
X118120044Y31535484D01*
X118136393Y31456667D01*
X118162495Y31464280D01*
X118304029Y31527510D01*
X118516122Y31633887D01*
X118860131Y31775190D01*
X119389740Y31857345D01*
X119904002Y31786598D01*
X120377724Y31571622D01*
X120785716Y31221085D01*
X121102786Y30743657D01*
X121224224Y30446301D01*
X121342710Y29874750D01*
X121337721Y29610118D01*
X121331850Y29298759D01*
X121200446Y28748466D01*
G37*
G36*
X164759014Y29253565D02*
G01*
X164612078Y28676764D01*
X164330494Y28180577D01*
X163927085Y27784590D01*
X163414672Y27508384D01*
X163188462Y27449231D01*
X162756624Y27410790D01*
X162281074Y27431484D01*
X161829602Y27506974D01*
X161469998Y27632917D01*
X161380104Y27681648D01*
X161093992Y27898088D01*
X160972568Y28127888D01*
X161012141Y28377044D01*
X161024560Y28401838D01*
X161192155Y28549264D01*
X161448171Y28570360D01*
X161767705Y28462316D01*
X161926445Y28392901D01*
X162422602Y28285222D01*
X162920216Y28320301D01*
X163135393Y28399227D01*
X163417687Y28582690D01*
X163638609Y28812427D01*
X163746990Y29043667D01*
X163750102Y29100279D01*
X163722824Y29147061D01*
X163641115Y29180953D01*
X163482005Y29205342D01*
X163222523Y29223612D01*
X162839697Y29239147D01*
X162310557Y29255334D01*
X161925714Y29266865D01*
X161456703Y29286440D01*
X161121720Y29316120D01*
X160899367Y29364949D01*
X160768248Y29441972D01*
X160706966Y29556237D01*
X160694124Y29716786D01*
X160708326Y29932667D01*
X160719438Y30033371D01*
X160751660Y30148538D01*
X161700000Y30148538D01*
X161700982Y30146529D01*
X161796673Y30129162D01*
X162026168Y30115012D01*
X162357407Y30105488D01*
X162758334Y30102000D01*
X162804024Y30102044D01*
X163198967Y30106251D01*
X163520762Y30116343D01*
X163737348Y30130909D01*
X163816667Y30148538D01*
X163816433Y30151805D01*
X163776327Y30260337D01*
X163688234Y30443439D01*
X163606120Y30570035D01*
X163329675Y30800551D01*
X162973542Y30926840D01*
X162583475Y30937276D01*
X162205229Y30820234D01*
X162089507Y30739737D01*
X161905219Y30546781D01*
X161759331Y30328374D01*
X161700000Y30148538D01*
X160751660Y30148538D01*
X160864631Y30552308D01*
X161134634Y31014813D01*
X161503207Y31398329D01*
X161944112Y31680300D01*
X162431110Y31838171D01*
X162937963Y31849384D01*
X163193848Y31799039D01*
X163722641Y31581244D01*
X164159157Y31234642D01*
X164489679Y30776075D01*
X164700489Y30222385D01*
X164709531Y30148538D01*
X164777870Y29590413D01*
X164759014Y29253565D01*
G37*
G36*
X177448000Y37043941D02*
G01*
X167901834Y37065471D01*
X158355667Y37087000D01*
X158330791Y37700834D01*
X158305915Y38314667D01*
X177448000Y38314667D01*
X177448000Y37043941D01*
G37*
G36*
X180734363Y28217704D02*
G01*
X180721211Y27957652D01*
X180702374Y27780775D01*
X180676860Y27669031D01*
X180643678Y27604381D01*
X180601834Y27568782D01*
X180598763Y27567090D01*
X180445132Y27532045D01*
X180160119Y27506148D01*
X179779888Y27489327D01*
X179340604Y27481511D01*
X178878431Y27482626D01*
X178429534Y27492600D01*
X178030075Y27511360D01*
X177716221Y27538834D01*
X177524135Y27574950D01*
X177243888Y27692102D01*
X176853670Y27974374D01*
X176593327Y28357958D01*
X176551064Y28460865D01*
X176450843Y28904242D01*
X176455147Y29289465D01*
X177484105Y29289465D01*
X177511166Y28931161D01*
X177662028Y28635580D01*
X177920218Y28442807D01*
X178079648Y28395468D01*
X178370398Y28350338D01*
X178710762Y28325830D01*
X179057222Y28322089D01*
X179366257Y28339260D01*
X179594348Y28377485D01*
X179697976Y28436911D01*
X179704309Y28462551D01*
X179718602Y28638536D01*
X179723017Y28921047D01*
X179716486Y29262411D01*
X179691667Y29975000D01*
X178929667Y29997640D01*
X178602335Y29999628D01*
X178151044Y29959528D01*
X177831461Y29857708D01*
X177624476Y29686640D01*
X177510979Y29438798D01*
X177484105Y29289465D01*
X176455147Y29289465D01*
X176455967Y29362817D01*
X176557708Y29794292D01*
X176747337Y30156371D01*
X177016126Y30406756D01*
X177052075Y30428478D01*
X177213203Y30540791D01*
X177278667Y30613497D01*
X177277646Y30619521D01*
X177209102Y30716979D01*
X177066049Y30864894D01*
X176857456Y31145910D01*
X176739204Y31529377D01*
X176739190Y31653013D01*
X177792760Y31653013D01*
X177816259Y31362401D01*
X177956000Y31118000D01*
X178000587Y31077378D01*
X178115222Y31011028D01*
X178283145Y30971921D01*
X178542985Y30953365D01*
X178933376Y30948667D01*
X179741419Y30948667D01*
X179716543Y31562500D01*
X179691667Y32176334D01*
X178917154Y32176334D01*
X178857034Y32176247D01*
X178487497Y32168538D01*
X178242065Y32143584D01*
X178081023Y32094662D01*
X177964654Y32015045D01*
X177884832Y31920211D01*
X177792760Y31653013D01*
X176739190Y31653013D01*
X176739157Y31943471D01*
X176851019Y32346945D01*
X177068497Y32698554D01*
X177385298Y32957050D01*
X177430226Y32979654D01*
X177582469Y33033204D01*
X177791658Y33072540D01*
X178085886Y33100689D01*
X178493246Y33120679D01*
X179041832Y33135537D01*
X179086395Y33136472D01*
X179597675Y33145102D01*
X179968637Y33145077D01*
X180226166Y33134339D01*
X180397146Y33110831D01*
X180508462Y33072494D01*
X180586999Y33017270D01*
X180590063Y33014478D01*
X180635376Y32964184D01*
X180671234Y32893441D01*
X180698738Y32783640D01*
X180718990Y32616171D01*
X180733090Y32372421D01*
X180742140Y32033782D01*
X180747241Y31581642D01*
X180749494Y30997391D01*
X180749528Y30948667D01*
X180750000Y30262419D01*
X180749639Y29677328D01*
X180747585Y29059501D01*
X180746213Y28921047D01*
X180742824Y28578974D01*
X180734363Y28217704D01*
G37*
G36*
X145608299Y29013129D02*
G01*
X145600913Y28549893D01*
X145589156Y28200583D01*
X145572184Y27947111D01*
X145549152Y27771389D01*
X145519216Y27655328D01*
X145481533Y27580839D01*
X145398645Y27491267D01*
X145169979Y27395225D01*
X144919049Y27431689D01*
X144701047Y27599350D01*
X144538471Y27806033D01*
X144130220Y27599350D01*
X143753850Y27451757D01*
X143238606Y27382319D01*
X142750559Y27458930D01*
X142308639Y27668090D01*
X141931776Y27996298D01*
X141638900Y28430052D01*
X141448940Y28955853D01*
X141380828Y29560200D01*
X141381266Y29572233D01*
X142313429Y29572233D01*
X142388401Y29139409D01*
X142560290Y28760835D01*
X142819334Y28484692D01*
X143093108Y28342802D01*
X143489381Y28279916D01*
X143875143Y28363526D01*
X144216361Y28584431D01*
X144479002Y28933429D01*
X144566825Y29227881D01*
X144592469Y29610118D01*
X144555104Y30002684D01*
X144455943Y30332034D01*
X144360256Y30495052D01*
X144082491Y30760921D01*
X143738478Y30908538D01*
X143365587Y30938114D01*
X143001188Y30849860D01*
X142682652Y30643986D01*
X142447348Y30320704D01*
X142345136Y30011126D01*
X142313429Y29572233D01*
X141381266Y29572233D01*
X141392685Y29885633D01*
X141427909Y30214826D01*
X141478448Y30449200D01*
X141638884Y30813431D01*
X141955752Y31251729D01*
X142351449Y31579527D01*
X142800713Y31786417D01*
X143278282Y31861990D01*
X143758892Y31795840D01*
X144217282Y31577558D01*
X144297712Y31523887D01*
X144471471Y31415225D01*
X144558760Y31372000D01*
X144571102Y31418944D01*
X144584664Y31603704D01*
X144593913Y31896049D01*
X144597334Y32261000D01*
X144599455Y32589377D01*
X144611569Y32893335D01*
X144639612Y33092164D01*
X144689380Y33222089D01*
X144766667Y33319334D01*
X144992671Y33466033D01*
X145220090Y33450094D01*
X145437855Y33265582D01*
X145453018Y33245960D01*
X145499135Y33175843D01*
X145535448Y33088818D01*
X145563126Y32965831D01*
X145583339Y32787831D01*
X145597254Y32535762D01*
X145606043Y32190574D01*
X145610873Y31733212D01*
X145612913Y31144623D01*
X145613334Y30405755D01*
X145613330Y30353737D01*
X145612159Y29610118D01*
X145612156Y29608381D01*
X145608299Y29013129D01*
G37*
G36*
X155939985Y42335747D02*
G01*
X155585719Y41350272D01*
X155078444Y40412702D01*
X155019653Y40322803D01*
X154345576Y39453805D01*
X153558688Y38709332D01*
X152655286Y38086345D01*
X151631667Y37581801D01*
X151414652Y37495182D01*
X151200970Y37416471D01*
X151092492Y37385343D01*
X151070129Y37400710D01*
X150990137Y37520987D01*
X150888092Y37714905D01*
X150790267Y37927162D01*
X150722936Y38102452D01*
X150712373Y38185471D01*
X150793302Y38218894D01*
X150991027Y38294102D01*
X151261296Y38394155D01*
X151500594Y38489585D01*
X152277933Y38905969D01*
X153014177Y39456323D01*
X153684188Y40113652D01*
X154262824Y40850961D01*
X154724945Y41641253D01*
X155045411Y42457534D01*
X155060695Y42509427D01*
X155147586Y42823668D01*
X155163394Y43011289D01*
X155084253Y43104915D01*
X154886299Y43137166D01*
X154545667Y43140667D01*
X153910667Y43140667D01*
X153910667Y41701334D01*
X151286000Y41701334D01*
X151286000Y42294000D01*
X151878667Y42294000D01*
X153318000Y42294000D01*
X153318000Y43733334D01*
X154290054Y43733334D01*
X154649762Y43734019D01*
X154948786Y43740178D01*
X155134414Y43758112D01*
X155237091Y43794125D01*
X155287266Y43854520D01*
X155315383Y43945598D01*
X155324961Y43995443D01*
X155334781Y44273754D01*
X155307396Y44658843D01*
X155249380Y45106109D01*
X155167307Y45570949D01*
X155067753Y46008761D01*
X154957292Y46374942D01*
X154816405Y46733352D01*
X154641963Y47125442D01*
X154480030Y47444250D01*
X154225551Y47895499D01*
X153729443Y47404567D01*
X153653190Y47328434D01*
X153439005Y47106329D01*
X153289519Y46938590D01*
X153233334Y46856798D01*
X153234875Y46849590D01*
X153296995Y46738958D01*
X153431751Y46537421D01*
X153614159Y46282648D01*
X153622637Y46271154D01*
X153858984Y45977380D01*
X154041278Y45815155D01*
X154190861Y45765334D01*
X154371247Y45720101D01*
X154572036Y45592702D01*
X154578732Y45586364D01*
X154724914Y45348923D01*
X154743394Y45082748D01*
X154651224Y44834656D01*
X154465459Y44651468D01*
X154203152Y44580000D01*
X154040033Y44618205D01*
X153818523Y44758916D01*
X153643258Y44954253D01*
X153572000Y45151878D01*
X153569893Y45170917D01*
X153504113Y45332495D01*
X153364766Y45574027D01*
X153177088Y45850845D01*
X152782176Y46393571D01*
X152330574Y45888952D01*
X151878973Y45384334D01*
X151878667Y42294000D01*
X151286000Y42294000D01*
X151286000Y45688927D01*
X152513667Y47008842D01*
X152641050Y47146268D01*
X152992005Y47530073D01*
X153294441Y47868379D01*
X153531428Y48141777D01*
X153686036Y48330857D01*
X153741334Y48416212D01*
X153728843Y48466188D01*
X153637687Y48611979D01*
X153508406Y48751228D01*
X153401431Y48813334D01*
X153380380Y48799595D01*
X153260042Y48686948D01*
X153050824Y48475435D01*
X152769881Y48182825D01*
X152434368Y47826887D01*
X152061440Y47425389D01*
X150781108Y46037444D01*
X150758388Y44017556D01*
X150735667Y41997667D01*
X148945492Y41974843D01*
X148770914Y41972496D01*
X148193849Y41962019D01*
X147760315Y41948151D01*
X147449801Y41929287D01*
X147241799Y41903823D01*
X147115799Y41870154D01*
X147051291Y41826676D01*
X146982631Y41768133D01*
X146761076Y41706687D01*
X146506827Y41742229D01*
X146290667Y41870667D01*
X146235800Y41933665D01*
X146126966Y42199293D01*
X146164292Y42475976D01*
X146344419Y42711189D01*
X146539732Y42835660D01*
X146778750Y42874742D01*
X147015318Y42762360D01*
X147042818Y42744513D01*
X147162859Y42701340D01*
X147359435Y42670649D01*
X147655725Y42650630D01*
X148074910Y42639471D01*
X148640167Y42635360D01*
X150100667Y42632667D01*
X150100667Y46214639D01*
X150540995Y46680221D01*
X150981324Y47145803D01*
X150477495Y47596514D01*
X150418479Y47648527D01*
X150169193Y47851639D01*
X149963203Y47994637D01*
X149840259Y48049279D01*
X149747111Y48028347D01*
X149563007Y47889089D01*
X149399871Y47660749D01*
X149298117Y47392298D01*
X149253297Y47251625D01*
X149075931Y47017029D01*
X148826845Y46902090D01*
X148549224Y46919973D01*
X148286254Y47083842D01*
X148170233Y47288253D01*
X148165066Y47546646D01*
X148265391Y47793493D01*
X148449849Y47978490D01*
X148697080Y48051334D01*
X148764761Y48060634D01*
X148979288Y48182898D01*
X149246866Y48453500D01*
X149431280Y48668654D01*
X150185334Y48668654D01*
X150770795Y48148327D01*
X150910556Y48024838D01*
X151145424Y47821036D01*
X151313272Y47680444D01*
X151384628Y47628043D01*
X151389122Y47630508D01*
X151474185Y47711119D01*
X151647272Y47888621D01*
X151886161Y48139945D01*
X152168631Y48442017D01*
X152924261Y49255949D01*
X152718964Y49414349D01*
X152716563Y49416197D01*
X152438558Y49600648D01*
X152070273Y49804669D01*
X151651137Y50010785D01*
X151220577Y50201519D01*
X150818022Y50359395D01*
X150482898Y50466936D01*
X150254633Y50506667D01*
X150231114Y50451851D01*
X150207410Y50258743D01*
X150191285Y49959213D01*
X150185334Y49587661D01*
X150185334Y48668654D01*
X149431280Y48668654D01*
X149591574Y48855667D01*
X149592121Y49720204D01*
X149592667Y50584741D01*
X148126283Y50633667D01*
X147996216Y50991019D01*
X147962070Y51095025D01*
X147918861Y51301914D01*
X147932242Y51414353D01*
X147951038Y51426699D01*
X148116969Y51462355D01*
X148406209Y51481635D01*
X148783125Y51485735D01*
X149212082Y51475849D01*
X149657448Y51453172D01*
X150083590Y51418900D01*
X150454874Y51374227D01*
X150735667Y51320347D01*
X151013030Y51238954D01*
X151631698Y51007313D01*
X152274415Y50711502D01*
X152877482Y50382156D01*
X153377201Y50049910D01*
X153636681Y49843363D01*
X154240052Y49255949D01*
X154395223Y49104882D01*
X155025480Y48274253D01*
X155524362Y47368982D01*
X155888779Y46406577D01*
X156115640Y45404544D01*
X156201855Y44380391D01*
X156195893Y44273754D01*
X156144333Y43351623D01*
X155939985Y42335747D01*
G37*
G36*
X175331334Y33319334D02*
G01*
X175347244Y33302947D01*
X175391160Y33246176D01*
X175425796Y33168012D01*
X175452250Y33049963D01*
X175471621Y32873536D01*
X175485007Y32620239D01*
X175493506Y32271580D01*
X175498217Y31809065D01*
X175500238Y31214203D01*
X175500667Y30468501D01*
X175500375Y29962796D01*
X175498360Y29310396D01*
X175493636Y28797368D01*
X175485281Y28405535D01*
X175472374Y28116718D01*
X175453996Y27912741D01*
X175429226Y27775423D01*
X175397143Y27686589D01*
X175356827Y27628059D01*
X175232221Y27535293D01*
X174956591Y27494392D01*
X174846886Y27509811D01*
X174742304Y27546522D01*
X174660140Y27619302D01*
X174597924Y27744805D01*
X174553187Y27939688D01*
X174523456Y28220606D01*
X174506264Y28604215D01*
X174499138Y29107169D01*
X174499609Y29746125D01*
X174505206Y30537738D01*
X174511136Y31190738D01*
X174518424Y31792526D01*
X174527466Y32260374D01*
X174539509Y32613137D01*
X174555796Y32869668D01*
X174577572Y33048823D01*
X174606084Y33169455D01*
X174642574Y33250420D01*
X174688289Y33310571D01*
X174866594Y33448450D01*
X175097347Y33468302D01*
X175331334Y33319334D01*
G37*
G36*
X167129118Y31710504D02*
G01*
X167592376Y31707488D01*
X167923599Y31698362D01*
X168150046Y31680156D01*
X168298978Y31649897D01*
X168397654Y31604614D01*
X168473334Y31541334D01*
X168586619Y31395238D01*
X168642667Y31245000D01*
X168598920Y31116289D01*
X168473334Y30948667D01*
X168430157Y30909200D01*
X168315669Y30842274D01*
X168148259Y30802814D01*
X167889176Y30784081D01*
X167499667Y30779334D01*
X167291790Y30777607D01*
X166984939Y30767520D01*
X166773864Y30750428D01*
X166695334Y30728647D01*
X166696386Y30724420D01*
X166758529Y30625136D01*
X166902550Y30423130D01*
X167108879Y30145284D01*
X167357945Y29818481D01*
X167625647Y29470871D01*
X167908525Y29102842D01*
X168155032Y28781432D01*
X168331611Y28550349D01*
X168427363Y28415309D01*
X168599279Y28075163D01*
X168638578Y27789889D01*
X168541067Y27578934D01*
X168499268Y27555617D01*
X168323676Y27520307D01*
X168012445Y27495962D01*
X167554420Y27481873D01*
X166938448Y27477334D01*
X166433609Y27479093D01*
X166008212Y27486397D01*
X165706610Y27501222D01*
X165504783Y27525524D01*
X165378713Y27561258D01*
X165304381Y27610381D01*
X165249371Y27673838D01*
X165176485Y27893967D01*
X165258979Y28160233D01*
X165262182Y28166114D01*
X165318858Y28236757D01*
X165416361Y28282691D01*
X165586806Y28309092D01*
X165862307Y28321136D01*
X166274979Y28324000D01*
X166560716Y28327393D01*
X166900120Y28343442D01*
X167123129Y28370563D01*
X167203334Y28406412D01*
X167203333Y28406505D01*
X167153296Y28496846D01*
X167014755Y28697715D01*
X166804011Y28986754D01*
X166537365Y29341606D01*
X166231117Y29739912D01*
X166225507Y29747134D01*
X165851801Y30235259D01*
X165578250Y30614006D01*
X165395806Y30903055D01*
X165295420Y31122083D01*
X165268043Y31290770D01*
X165304627Y31428794D01*
X165396123Y31555834D01*
X165405323Y31565690D01*
X165477162Y31621194D01*
X165585957Y31660576D01*
X165758179Y31686525D01*
X166020300Y31701730D01*
X166398791Y31708881D01*
X166920123Y31710667D01*
X167129118Y31710504D01*
G37*
%TO.C,J7*%
X143480000Y1105000D02*
X144360000Y1105000D01*
X154520000Y11955000D02*
X154520000Y9845000D01*
X146900000Y1105000D02*
X146900000Y7105000D01*
X143480000Y7105000D02*
X143480000Y1105000D01*
X154520000Y1105000D02*
X154520000Y7105000D01*
X153640000Y7105000D02*
X153640000Y1105000D01*
X151980000Y11955000D02*
X151980000Y9845000D01*
X153640000Y1105000D02*
X154520000Y1105000D01*
X143100000Y15095000D02*
X143100000Y13525000D01*
X151100000Y1105000D02*
X151980000Y1105000D01*
X143480000Y11955000D02*
X143480000Y9845000D01*
X149440000Y11955000D02*
X149440000Y9845000D01*
X146020000Y7105000D02*
X146020000Y1105000D01*
X144360000Y11955000D02*
X144360000Y9845000D01*
X155470000Y7105000D02*
X155470000Y9845000D01*
X151100000Y11955000D02*
X151100000Y9845000D01*
X153640000Y11955000D02*
X153640000Y9845000D01*
X151100000Y7105000D02*
X151100000Y1105000D01*
X146900000Y11955000D02*
X146900000Y9845000D01*
X148560000Y7105000D02*
X148560000Y1105000D01*
X149440000Y1105000D02*
X149440000Y7105000D01*
X146020000Y11955000D02*
X146020000Y9845000D01*
X142530000Y9845000D02*
X142530000Y7105000D01*
X148560000Y1105000D02*
X149440000Y1105000D01*
X142530000Y7105000D02*
X155470000Y7105000D01*
X144360000Y1105000D02*
X144360000Y7105000D01*
X155470000Y9845000D02*
X142530000Y9845000D01*
X143920000Y15095000D02*
X143100000Y15095000D01*
X151980000Y1105000D02*
X151980000Y7105000D01*
X146020000Y1105000D02*
X146900000Y1105000D01*
X148560000Y11955000D02*
X148560000Y9845000D01*
%TO.C,J11*%
X160070000Y9845000D02*
X160070000Y7105000D01*
X160070000Y7105000D02*
X167930000Y7105000D01*
X167930000Y7105000D02*
X167930000Y9845000D01*
X166100000Y7105000D02*
X166100000Y1105000D01*
X163560000Y7105000D02*
X163560000Y1105000D01*
X166980000Y1105000D02*
X166980000Y7105000D01*
X167930000Y9845000D02*
X160070000Y9845000D01*
X164440000Y11955000D02*
X164440000Y9845000D01*
X161460000Y15095000D02*
X160640000Y15095000D01*
X163560000Y11955000D02*
X163560000Y9845000D01*
X166980000Y11955000D02*
X166980000Y9845000D01*
X161900000Y11955000D02*
X161900000Y9845000D01*
X161020000Y11955000D02*
X161020000Y9845000D01*
X161900000Y1105000D02*
X161900000Y7105000D01*
X164440000Y1105000D02*
X164440000Y7105000D01*
X166100000Y1105000D02*
X166980000Y1105000D01*
X163560000Y1105000D02*
X164440000Y1105000D01*
X161020000Y7105000D02*
X161020000Y1105000D01*
X166100000Y11955000D02*
X166100000Y9845000D01*
X161020000Y1105000D02*
X161900000Y1105000D01*
X160640000Y15095000D02*
X160640000Y13525000D01*
%TO.C,SW1*%
X131460000Y15095000D02*
X130640000Y15095000D01*
X133560000Y11955000D02*
X133560000Y9845000D01*
X130070000Y9845000D02*
X130070000Y7105000D01*
X136980000Y1105000D02*
X136980000Y7105000D01*
X134440000Y11955000D02*
X134440000Y9845000D01*
X137930000Y7105000D02*
X137930000Y9845000D01*
X137930000Y9845000D02*
X130070000Y9845000D01*
X136100000Y7105000D02*
X136100000Y1105000D01*
X131020000Y11955000D02*
X131020000Y9845000D01*
X130070000Y7105000D02*
X137930000Y7105000D01*
X131900000Y11955000D02*
X131900000Y9845000D01*
X130640000Y15095000D02*
X130640000Y13525000D01*
X131020000Y1105000D02*
X131900000Y1105000D01*
X136100000Y11955000D02*
X136100000Y9845000D01*
X131900000Y1105000D02*
X131900000Y7105000D01*
X136100000Y1105000D02*
X136980000Y1105000D01*
X136980000Y11955000D02*
X136980000Y9845000D01*
X134440000Y1105000D02*
X134440000Y7105000D01*
X131020000Y7105000D02*
X131020000Y1105000D01*
X133560000Y1105000D02*
X134440000Y1105000D01*
X133560000Y7105000D02*
X133560000Y1105000D01*
%TD*%
D13*
%TO.C,J13*%
X113920000Y4105000D03*
%TD*%
%TO.C,J12*%
X173920000Y4105000D03*
%TD*%
%TO.C,J7*%
X143920000Y4105000D03*
%TD*%
%TO.C,J11*%
X161460000Y4105000D03*
%TD*%
%TO.C,SW1*%
X131460000Y4105000D03*
%TD*%
M02*
