M48
; DRILL file {KiCad (6.0.0)} date Mon Jun  6 22:40:19 2022
; FORMAT={-:-/ absolute / inch / decimal}
; #@! TF.CreationDate,2022-06-06T22:40:19+03:00
; #@! TF.GenerationSoftware,Kicad,Pcbnew,(6.0.0)
; #@! TF.FileFunction,Plated,1,4,PTH
FMAT,2
INCH
; #@! TA.AperFunction,Plated,PTH,ViaDrill
T1C0.0118
; #@! TA.AperFunction,Plated,PTH,ComponentDrill
T2C0.0394
; #@! TA.AperFunction,Plated,PTH,ComponentDrill
T3C0.0433
; #@! TA.AperFunction,Plated,PTH,ComponentDrill
T4C0.1457
%
G90
G05
T1
X4.1437Y1.3583
X4.1437Y1.3287
X4.2323Y1.7717
X4.2323Y1.6732
X4.2323Y1.5748
X4.2323Y1.4764
X4.2323Y1.378
X4.2323Y0.9843
X4.2323Y0.8858
X4.3307Y1.7717
X4.3307Y1.6732
X4.3307Y1.5748
X4.3307Y1.4764
X4.3307Y1.378
X4.3307Y0.9843
X4.3307Y0.8858
X4.4094Y1.8287
X4.4281Y1.133
X4.4291Y2.5591
X4.4291Y1.6732
X4.4291Y1.378
X4.4291Y0.9843
X4.4291Y0.8858
X4.4587Y1.7913
X4.4685Y1.3189
X4.4882Y1.8307
X4.4882Y0.6014
X4.498Y0.8071
X4.5276Y2.5591
X4.5276Y2.4606
X4.5276Y2.3622
X4.5276Y2.2638
X4.5276Y2.1654
X4.5276Y1.9685
X4.5276Y0.5354
X4.5472Y1.8307
X4.5591Y0.7165
X4.5866Y0.6014
X4.5906Y0.685
X4.626Y2.5591
X4.626Y2.4606
X4.626Y2.3622
X4.626Y2.2638
X4.626Y2.0669
X4.626Y1.9685
X4.628Y1.8425
X4.6378Y0.5433
X4.6535Y1.813
X4.6713Y1.3091
X4.6752Y2.2736
X4.7047Y1.3583
X4.7185Y1.0925
X4.7244Y2.313
X4.7244Y2.2736
X4.7244Y2.0669
X4.7244Y1.9685
X4.7244Y1.6732
X4.7244Y1.5748
X4.7244Y1.4764
X4.7323Y0.5906
X4.7362Y0.937
X4.7441Y1.063
X4.7441Y1.0039
X4.7441Y0.8661
X4.7835Y2.2736
X4.7835Y0.6014
X4.7953Y0.6614
X4.8228Y2.0669
X4.8228Y1.9685
X4.8228Y1.0827
X4.8228Y0.9843
X4.8228Y0.8858
X4.8346Y0.5906
X4.842Y0.9114
X4.8421Y1.0433
X4.8425Y2.2736
X4.8425Y0.9586
X4.8622Y1.122
X4.8819Y0.6014
X4.8898Y0.6772
X4.8917Y2.3228
X4.8917Y2.2736
X4.9016Y1.122
X4.9213Y2.1654
X4.9213Y2.0669
X4.9213Y1.9685
X4.9213Y1.8701
X4.9213Y1.6732
X4.9213Y1.378
X4.9213Y1.2992
X4.9213Y0.689
X4.9409Y2.2736
X4.9409Y1.8996
X4.9409Y1.752
X4.9449Y1.3386
X4.9902Y1.752
X5.0Y0.5906
X5.0197Y2.1654
X5.0197Y2.0669
X5.0197Y1.9685
X5.0197Y1.8701
X5.0197Y0.689
X5.0295Y1.3877
X5.0394Y1.7087
X5.0394Y0.5906
X5.0423Y0.7559
X5.0709Y0.8976
X5.0726Y0.8522
X5.0728Y0.813
X5.0787Y0.5906
X5.0984Y1.565
X5.1181Y2.5591
X5.1181Y0.689
X5.1181Y0.5906
X5.1575Y0.5906
X5.2165Y1.5748
X5.2165Y0.9843
X5.2165Y0.8858
X5.2264Y1.4173
X5.2756Y0.6398
X5.2756Y0.6102
X5.2776Y2.3602
X5.2854Y1.5846
X5.315Y2.0669
X5.315Y1.8701
X5.315Y1.7717
X5.315Y1.6732
X5.315Y1.378
X5.315Y1.2795
X5.315Y1.1811
X5.315Y1.0827
X5.315Y0.9843
X5.315Y0.8858
X5.3839Y0.8661
X5.3839Y0.8268
X5.4134Y2.1654
X5.4134Y2.0669
X5.4134Y1.8701
X5.4134Y1.7717
X5.4134Y1.6732
X5.4134Y1.5748
X5.4134Y1.4764
X5.4134Y1.378
X5.4134Y1.2795
X5.4134Y1.1811
X5.4134Y1.0827
X5.4134Y0.8957
X5.5049Y0.9616
X5.5118Y2.5591
X5.5118Y2.0669
X5.5118Y1.7717
X5.5118Y1.6732
X5.5118Y1.5748
X5.5118Y1.4764
X5.5118Y1.378
X5.5118Y1.2795
X5.5217Y0.6004
X5.5315Y2.4606
X5.561Y2.2638
X5.561Y0.6004
X5.5807Y2.4606
X5.5807Y0.6496
X5.6102Y2.0669
X5.6102Y1.9685
X5.6102Y0.6004
X5.6299Y0.6496
X5.6594Y0.6201
X5.6988Y2.3327
X5.7087Y2.0669
X5.7087Y1.9685
X5.7087Y1.8701
X5.7087Y0.7874
X5.7096Y0.9931
X5.7579Y2.3425
X5.7579Y2.3031
X5.7677Y0.6014
X5.7776Y0.9055
X5.7825Y1.1171
X5.8071Y1.7717
X5.8071Y1.6732
X5.8071Y1.5748
X5.8071Y1.4764
X5.8071Y1.2795
X5.8465Y0.6988
X5.8661Y0.561
X5.8661Y0.5325
X5.9055Y2.0669
X5.9055Y1.5748
X5.9055Y1.4764
X5.9055Y1.2795
X5.935Y2.0079
X5.9547Y0.9252
X6.0039Y2.0669
X6.0039Y1.5748
X6.0039Y1.4764
X6.0039Y0.7874
X6.0207Y0.9911
X6.1024Y1.5748
X6.1024Y1.4764
X6.1024Y0.5906
X6.1417Y0.7579
X6.2008Y1.4764
X6.2008Y1.0827
X6.2008Y0.7874
X6.2008Y0.5906
X6.2274Y0.9085
X6.2992Y1.4764
X6.2992Y1.378
X6.2992Y1.2795
X6.2992Y1.1811
X6.2992Y1.0827
X6.2992Y0.7874
X6.2992Y0.5906
X6.3002Y0.9636
X6.3071Y2.2933
X6.3396Y0.9636
X6.3681Y0.935
X6.3681Y0.6102
X6.3976Y2.2638
X6.3976Y1.7717
X6.3976Y1.6732
X6.3976Y1.5748
X6.3976Y1.4764
X6.3976Y1.378
X6.3976Y1.2795
X6.3976Y1.0827
X6.3976Y0.9843
X6.4862Y2.4055
X6.4961Y2.2638
X6.4961Y1.7717
X6.4961Y1.2795
X6.5157Y0.6102
X6.5256Y2.3327
X6.5256Y1.5453
X6.5748Y1.6339
X6.5846Y0.6299
X6.5945Y2.1654
X6.5945Y1.1811
X6.5945Y1.0827
X6.5945Y0.9843
X6.5945Y0.8858
X6.6093Y2.5344
X6.624Y2.0276
X6.6339Y1.1909
X6.6437Y0.7972
X6.6535Y1.6339
X6.6929Y2.2638
X6.6929Y2.0669
X6.6929Y0.5906
X6.6929Y0.4921
X6.7028Y0.7972
X6.7618Y2.5394
X6.7815Y2.4218
X6.7815Y2.2638
X6.7913Y2.1654
X6.7913Y2.0669
X6.8602Y1.1122
X6.8602Y1.0728
X6.8898Y2.5591
X6.8898Y2.3819
X6.8898Y2.0669
X6.8898Y1.9685
X6.8898Y1.8701
X6.8898Y0.8858
X6.8898Y0.7874
X6.8976Y0.5354
X6.9094Y1.122
X6.9252Y1.2992
X6.9488Y1.3386
X6.9488Y0.8957
X6.9783Y2.2441
X6.9783Y1.8307
X6.9783Y1.1614
X6.9882Y2.5591
X6.9882Y2.0669
X6.9882Y1.9685
X6.9882Y1.6732
X6.9882Y1.5748
X6.9882Y1.4764
X6.9882Y0.8957
X6.998Y2.2047
X6.998Y1.7323
X7.0079Y2.3917
X7.0177Y2.1654
X7.0374Y1.7421
X7.06Y0.8602
X7.0813Y0.8858
X7.0866Y2.5591
X7.0866Y2.1654
X7.0866Y2.0669
X7.0866Y1.9685
X7.0866Y1.7717
X7.0866Y1.6732
X7.0866Y1.5748
X7.0866Y1.4764
X7.0866Y0.8366
X7.1161Y1.3189
X7.1161Y1.0728
X7.1161Y1.0138
X7.126Y1.3976
X7.1358Y1.122
X7.185Y2.2638
X7.185Y2.1654
X7.185Y1.7717
X7.185Y1.4764
X7.185Y1.4173
X7.185Y0.689
X7.2244Y1.3287
X7.2736Y1.437
X7.2835Y2.5591
X7.2835Y1.7717
X7.3012Y1.0157
X7.3022Y1.0915
X7.3819Y1.7717
X7.3819Y1.378
X7.3819Y1.3189
X7.3819Y0.8858
X7.4311Y1.3484
X7.4803Y0.9843
X7.4803Y0.8858
T2
X4.2411Y2.1659
X4.2411Y2.0659
X4.3411Y2.1659
X4.3411Y2.0659
X4.4411Y2.1659
X4.4411Y2.0659
X5.6646Y2.5394
X5.7646Y2.5394
X5.8646Y2.5394
X5.9646Y2.5394
X6.0646Y2.5394
X7.2917Y2.1472
X7.2917Y2.0472
X7.3917Y2.1472
X7.3917Y2.0472
X7.4917Y2.1472
X7.4917Y2.0472
T3
X6.8114Y2.5921
X6.8256Y2.3579
X7.1508Y2.3579
X7.165Y2.5921
T4
X4.3307Y2.4016
X4.3307Y0.7087
X7.4016Y2.4016
X7.4016Y0.7087
T0
M30
