%TF.GenerationSoftware,KiCad,Pcbnew,(6.0.0)*%
%TF.CreationDate,2022-06-06T22:52:27+03:00*%
%TF.ProjectId,link,6c696e6b-2e6b-4696-9361-645f70636258,rev?*%
%TF.SameCoordinates,Original*%
%TF.FileFunction,Legend,Top*%
%TF.FilePolarity,Positive*%
%FSLAX46Y46*%
G04 Gerber Fmt 4.6, Leading zero omitted, Abs format (unit mm)*
G04 Created by KiCad (PCBNEW (6.0.0)) date 2022-06-06 22:52:27*
%MOMM*%
%LPD*%
G01*
G04 APERTURE LIST*
%ADD10C,0.300000*%
%ADD11C,0.150000*%
%ADD12C,0.254000*%
%ADD13C,0.120000*%
%ADD14C,0.100000*%
%ADD15C,0.200000*%
G04 APERTURE END LIST*
D10*
X111423571Y-62399642D02*
X111595000Y-62471071D01*
X111880714Y-62471071D01*
X111995000Y-62399642D01*
X112052142Y-62328214D01*
X112109285Y-62185357D01*
X112109285Y-62042500D01*
X112052142Y-61899642D01*
X111995000Y-61828214D01*
X111880714Y-61756785D01*
X111652142Y-61685357D01*
X111537857Y-61613928D01*
X111480714Y-61542500D01*
X111423571Y-61399642D01*
X111423571Y-61256785D01*
X111480714Y-61113928D01*
X111537857Y-61042500D01*
X111652142Y-60971071D01*
X111937857Y-60971071D01*
X112109285Y-61042500D01*
X113137857Y-62399642D02*
X113023571Y-62471071D01*
X112795000Y-62471071D01*
X112680714Y-62399642D01*
X112623571Y-62328214D01*
X112566428Y-62185357D01*
X112566428Y-61756785D01*
X112623571Y-61613928D01*
X112680714Y-61542500D01*
X112795000Y-61471071D01*
X113023571Y-61471071D01*
X113137857Y-61542500D01*
X113652142Y-62471071D02*
X113652142Y-60971071D01*
X114166428Y-62471071D02*
X114166428Y-61685357D01*
X114109285Y-61542500D01*
X113995000Y-61471071D01*
X113823571Y-61471071D01*
X113709285Y-61542500D01*
X113652142Y-61613928D01*
X114737857Y-62471071D02*
X114737857Y-61471071D01*
X114737857Y-61756785D02*
X114795000Y-61613928D01*
X114852142Y-61542500D01*
X114966428Y-61471071D01*
X115080714Y-61471071D01*
X115652142Y-62471071D02*
X115537857Y-62399642D01*
X115480714Y-62328214D01*
X115423571Y-62185357D01*
X115423571Y-61756785D01*
X115480714Y-61613928D01*
X115537857Y-61542500D01*
X115652142Y-61471071D01*
X115823571Y-61471071D01*
X115937857Y-61542500D01*
X115995000Y-61613928D01*
X116052142Y-61756785D01*
X116052142Y-62185357D01*
X115995000Y-62328214D01*
X115937857Y-62399642D01*
X115823571Y-62471071D01*
X115652142Y-62471071D01*
X115537857Y-60971071D02*
X115595000Y-61042500D01*
X115537857Y-61113928D01*
X115480714Y-61042500D01*
X115537857Y-60971071D01*
X115537857Y-61113928D01*
X115995000Y-60971071D02*
X116052142Y-61042500D01*
X115995000Y-61113928D01*
X115937857Y-61042500D01*
X115995000Y-60971071D01*
X115995000Y-61113928D01*
X117080714Y-62471071D02*
X117080714Y-60971071D01*
X117080714Y-62399642D02*
X116966428Y-62471071D01*
X116737857Y-62471071D01*
X116623571Y-62399642D01*
X116566428Y-62328214D01*
X116509285Y-62185357D01*
X116509285Y-61756785D01*
X116566428Y-61613928D01*
X116623571Y-61542500D01*
X116737857Y-61471071D01*
X116966428Y-61471071D01*
X117080714Y-61542500D01*
X117652142Y-62471071D02*
X117652142Y-61471071D01*
X117652142Y-60971071D02*
X117595000Y-61042500D01*
X117652142Y-61113928D01*
X117709285Y-61042500D01*
X117652142Y-60971071D01*
X117652142Y-61113928D01*
X118223571Y-61471071D02*
X118223571Y-62471071D01*
X118223571Y-61613928D02*
X118280714Y-61542500D01*
X118395000Y-61471071D01*
X118566428Y-61471071D01*
X118680714Y-61542500D01*
X118737857Y-61685357D01*
X118737857Y-62471071D01*
X119823571Y-61471071D02*
X119823571Y-62685357D01*
X119766428Y-62828214D01*
X119709285Y-62899642D01*
X119595000Y-62971071D01*
X119423571Y-62971071D01*
X119309285Y-62899642D01*
X119823571Y-62399642D02*
X119709285Y-62471071D01*
X119480714Y-62471071D01*
X119366428Y-62399642D01*
X119309285Y-62328214D01*
X119252142Y-62185357D01*
X119252142Y-61756785D01*
X119309285Y-61613928D01*
X119366428Y-61542500D01*
X119480714Y-61471071D01*
X119709285Y-61471071D01*
X119823571Y-61542500D01*
X120852142Y-62399642D02*
X120737857Y-62471071D01*
X120509285Y-62471071D01*
X120395000Y-62399642D01*
X120337857Y-62256785D01*
X120337857Y-61685357D01*
X120395000Y-61542500D01*
X120509285Y-61471071D01*
X120737857Y-61471071D01*
X120852142Y-61542500D01*
X120909285Y-61685357D01*
X120909285Y-61828214D01*
X120337857Y-61971071D01*
X121423571Y-62471071D02*
X121423571Y-61471071D01*
X121423571Y-61756785D02*
X121480714Y-61613928D01*
X121537857Y-61542500D01*
X121652142Y-61471071D01*
X121766428Y-61471071D01*
X122166428Y-62328214D02*
X122223571Y-62399642D01*
X122166428Y-62471071D01*
X122109285Y-62399642D01*
X122166428Y-62328214D01*
X122166428Y-62471071D01*
X123309285Y-62471071D02*
X122737857Y-62471071D01*
X122737857Y-60971071D01*
X123709285Y-62471071D02*
X123709285Y-61471071D01*
X123709285Y-60971071D02*
X123652142Y-61042500D01*
X123709285Y-61113928D01*
X123766428Y-61042500D01*
X123709285Y-60971071D01*
X123709285Y-61113928D01*
X124280714Y-61471071D02*
X124280714Y-62471071D01*
X124280714Y-61613928D02*
X124337857Y-61542500D01*
X124452142Y-61471071D01*
X124623571Y-61471071D01*
X124737857Y-61542500D01*
X124795000Y-61685357D01*
X124795000Y-62471071D01*
X125366428Y-62471071D02*
X125366428Y-60971071D01*
X125480714Y-61899642D02*
X125823571Y-62471071D01*
X125823571Y-61471071D02*
X125366428Y-62042500D01*
X111366428Y-63886071D02*
X111652142Y-64886071D01*
X111937857Y-63886071D01*
X113023571Y-64886071D02*
X112337857Y-64886071D01*
X112680714Y-64886071D02*
X112680714Y-63386071D01*
X112566428Y-63600357D01*
X112452142Y-63743214D01*
X112337857Y-63814642D01*
X114452142Y-64886071D02*
X114452142Y-63886071D01*
X114452142Y-64171785D02*
X114509285Y-64028928D01*
X114566428Y-63957500D01*
X114680714Y-63886071D01*
X114795000Y-63886071D01*
X115652142Y-64814642D02*
X115537857Y-64886071D01*
X115309285Y-64886071D01*
X115195000Y-64814642D01*
X115137857Y-64671785D01*
X115137857Y-64100357D01*
X115195000Y-63957500D01*
X115309285Y-63886071D01*
X115537857Y-63886071D01*
X115652142Y-63957500D01*
X115709285Y-64100357D01*
X115709285Y-64243214D01*
X115137857Y-64386071D01*
X116109285Y-63886071D02*
X116395000Y-64886071D01*
X116680714Y-63886071D01*
X117995000Y-64457500D02*
X118566428Y-64457500D01*
X117880714Y-64886071D02*
X118280714Y-63386071D01*
X118680714Y-64886071D01*
%TO.C,G\u002A\u002A\u002A*%
X146657428Y-65238000D02*
X146512285Y-65165428D01*
X146294571Y-65165428D01*
X146076857Y-65238000D01*
X145931714Y-65383142D01*
X145859142Y-65528285D01*
X145786571Y-65818571D01*
X145786571Y-66036285D01*
X145859142Y-66326571D01*
X145931714Y-66471714D01*
X146076857Y-66616857D01*
X146294571Y-66689428D01*
X146439714Y-66689428D01*
X146657428Y-66616857D01*
X146730000Y-66544285D01*
X146730000Y-66036285D01*
X146439714Y-66036285D01*
X147600857Y-65165428D02*
X147600857Y-65528285D01*
X147238000Y-65383142D02*
X147600857Y-65528285D01*
X147963714Y-65383142D01*
X147383142Y-65818571D02*
X147600857Y-65528285D01*
X147818571Y-65818571D01*
X148762000Y-65165428D02*
X148762000Y-65528285D01*
X148399142Y-65383142D02*
X148762000Y-65528285D01*
X149124857Y-65383142D01*
X148544285Y-65818571D02*
X148762000Y-65528285D01*
X148979714Y-65818571D01*
X149923142Y-65165428D02*
X149923142Y-65528285D01*
X149560285Y-65383142D02*
X149923142Y-65528285D01*
X150286000Y-65383142D01*
X149705428Y-65818571D02*
X149923142Y-65528285D01*
X150140857Y-65818571D01*
D11*
%TO.C,J16*%
X139622380Y-79809523D02*
X140336666Y-79809523D01*
X140479523Y-79857142D01*
X140574761Y-79952380D01*
X140622380Y-80095238D01*
X140622380Y-80190476D01*
X140622380Y-78809523D02*
X140622380Y-79380952D01*
X140622380Y-79095238D02*
X139622380Y-79095238D01*
X139765238Y-79190476D01*
X139860476Y-79285714D01*
X139908095Y-79380952D01*
X139622380Y-77952380D02*
X139622380Y-78142857D01*
X139670000Y-78238095D01*
X139717619Y-78285714D01*
X139860476Y-78380952D01*
X140050952Y-78428571D01*
X140431904Y-78428571D01*
X140527142Y-78380952D01*
X140574761Y-78333333D01*
X140622380Y-78238095D01*
X140622380Y-78047619D01*
X140574761Y-77952380D01*
X140527142Y-77904761D01*
X140431904Y-77857142D01*
X140193809Y-77857142D01*
X140098571Y-77904761D01*
X140050952Y-77952380D01*
X140003333Y-78047619D01*
X140003333Y-78238095D01*
X140050952Y-78333333D01*
X140098571Y-78380952D01*
X140193809Y-78428571D01*
%TO.C,J15*%
X136782380Y-79809523D02*
X137496666Y-79809523D01*
X137639523Y-79857142D01*
X137734761Y-79952380D01*
X137782380Y-80095238D01*
X137782380Y-80190476D01*
X137782380Y-78809523D02*
X137782380Y-79380952D01*
X137782380Y-79095238D02*
X136782380Y-79095238D01*
X136925238Y-79190476D01*
X137020476Y-79285714D01*
X137068095Y-79380952D01*
X136782380Y-77904761D02*
X136782380Y-78380952D01*
X137258571Y-78428571D01*
X137210952Y-78380952D01*
X137163333Y-78285714D01*
X137163333Y-78047619D01*
X137210952Y-77952380D01*
X137258571Y-77904761D01*
X137353809Y-77857142D01*
X137591904Y-77857142D01*
X137687142Y-77904761D01*
X137734761Y-77952380D01*
X137782380Y-78047619D01*
X137782380Y-78285714D01*
X137734761Y-78380952D01*
X137687142Y-78428571D01*
%TO.C,D2*%
X109952380Y-63738095D02*
X108952380Y-63738095D01*
X108952380Y-63500000D01*
X109000000Y-63357142D01*
X109095238Y-63261904D01*
X109190476Y-63214285D01*
X109380952Y-63166666D01*
X109523809Y-63166666D01*
X109714285Y-63214285D01*
X109809523Y-63261904D01*
X109904761Y-63357142D01*
X109952380Y-63500000D01*
X109952380Y-63738095D01*
X109047619Y-62785714D02*
X109000000Y-62738095D01*
X108952380Y-62642857D01*
X108952380Y-62404761D01*
X109000000Y-62309523D01*
X109047619Y-62261904D01*
X109142857Y-62214285D01*
X109238095Y-62214285D01*
X109380952Y-62261904D01*
X109952380Y-62833333D01*
X109952380Y-62214285D01*
%TO.C,J14*%
X165057380Y-79809523D02*
X165771666Y-79809523D01*
X165914523Y-79857142D01*
X166009761Y-79952380D01*
X166057380Y-80095238D01*
X166057380Y-80190476D01*
X166057380Y-78809523D02*
X166057380Y-79380952D01*
X166057380Y-79095238D02*
X165057380Y-79095238D01*
X165200238Y-79190476D01*
X165295476Y-79285714D01*
X165343095Y-79380952D01*
X165390714Y-77952380D02*
X166057380Y-77952380D01*
X165009761Y-78190476D02*
X165724047Y-78428571D01*
X165724047Y-77809523D01*
%TO.C,D1*%
X109912380Y-55733095D02*
X108912380Y-55733095D01*
X108912380Y-55495000D01*
X108960000Y-55352142D01*
X109055238Y-55256904D01*
X109150476Y-55209285D01*
X109340952Y-55161666D01*
X109483809Y-55161666D01*
X109674285Y-55209285D01*
X109769523Y-55256904D01*
X109864761Y-55352142D01*
X109912380Y-55495000D01*
X109912380Y-55733095D01*
X109912380Y-54209285D02*
X109912380Y-54780714D01*
X109912380Y-54495000D02*
X108912380Y-54495000D01*
X109055238Y-54590238D01*
X109150476Y-54685476D01*
X109198095Y-54780714D01*
%TO.C,SW1*%
X188904761Y-76583333D02*
X188952380Y-76440476D01*
X188952380Y-76202380D01*
X188904761Y-76107142D01*
X188857142Y-76059523D01*
X188761904Y-76011904D01*
X188666666Y-76011904D01*
X188571428Y-76059523D01*
X188523809Y-76107142D01*
X188476190Y-76202380D01*
X188428571Y-76392857D01*
X188380952Y-76488095D01*
X188333333Y-76535714D01*
X188238095Y-76583333D01*
X188142857Y-76583333D01*
X188047619Y-76535714D01*
X188000000Y-76488095D01*
X187952380Y-76392857D01*
X187952380Y-76154761D01*
X188000000Y-76011904D01*
X187952380Y-75678571D02*
X188952380Y-75440476D01*
X188238095Y-75250000D01*
X188952380Y-75059523D01*
X187952380Y-74821428D01*
X188952380Y-73916666D02*
X188952380Y-74488095D01*
X188952380Y-74202380D02*
X187952380Y-74202380D01*
X188095238Y-74297619D01*
X188190476Y-74392857D01*
X188238095Y-74488095D01*
%TO.C,J5*%
X183666666Y-64452380D02*
X183666666Y-65166666D01*
X183619047Y-65309523D01*
X183523809Y-65404761D01*
X183380952Y-65452380D01*
X183285714Y-65452380D01*
X184619047Y-64452380D02*
X184142857Y-64452380D01*
X184095238Y-64928571D01*
X184142857Y-64880952D01*
X184238095Y-64833333D01*
X184476190Y-64833333D01*
X184571428Y-64880952D01*
X184619047Y-64928571D01*
X184666666Y-65023809D01*
X184666666Y-65261904D01*
X184619047Y-65357142D01*
X184571428Y-65404761D01*
X184476190Y-65452380D01*
X184238095Y-65452380D01*
X184142857Y-65404761D01*
X184095238Y-65357142D01*
%TO.C,J12*%
X123082380Y-79809523D02*
X123796666Y-79809523D01*
X123939523Y-79857142D01*
X124034761Y-79952380D01*
X124082380Y-80095238D01*
X124082380Y-80190476D01*
X124082380Y-78809523D02*
X124082380Y-79380952D01*
X124082380Y-79095238D02*
X123082380Y-79095238D01*
X123225238Y-79190476D01*
X123320476Y-79285714D01*
X123368095Y-79380952D01*
X123177619Y-78428571D02*
X123130000Y-78380952D01*
X123082380Y-78285714D01*
X123082380Y-78047619D01*
X123130000Y-77952380D01*
X123177619Y-77904761D01*
X123272857Y-77857142D01*
X123368095Y-77857142D01*
X123510952Y-77904761D01*
X124082380Y-78476190D01*
X124082380Y-77857142D01*
%TO.C,R1*%
X115333333Y-51452380D02*
X115000000Y-50976190D01*
X114761904Y-51452380D02*
X114761904Y-50452380D01*
X115142857Y-50452380D01*
X115238095Y-50500000D01*
X115285714Y-50547619D01*
X115333333Y-50642857D01*
X115333333Y-50785714D01*
X115285714Y-50880952D01*
X115238095Y-50928571D01*
X115142857Y-50976190D01*
X114761904Y-50976190D01*
X116285714Y-51452380D02*
X115714285Y-51452380D01*
X116000000Y-51452380D02*
X116000000Y-50452380D01*
X115904761Y-50595238D01*
X115809523Y-50690476D01*
X115714285Y-50738095D01*
%TO.C,R2*%
X115333333Y-52952380D02*
X115000000Y-52476190D01*
X114761904Y-52952380D02*
X114761904Y-51952380D01*
X115142857Y-51952380D01*
X115238095Y-52000000D01*
X115285714Y-52047619D01*
X115333333Y-52142857D01*
X115333333Y-52285714D01*
X115285714Y-52380952D01*
X115238095Y-52428571D01*
X115142857Y-52476190D01*
X114761904Y-52476190D01*
X115714285Y-52047619D02*
X115761904Y-52000000D01*
X115857142Y-51952380D01*
X116095238Y-51952380D01*
X116190476Y-52000000D01*
X116238095Y-52047619D01*
X116285714Y-52142857D01*
X116285714Y-52238095D01*
X116238095Y-52380952D01*
X115666666Y-52952380D01*
X116285714Y-52952380D01*
%TO.C,J13*%
X180057380Y-79809523D02*
X180771666Y-79809523D01*
X180914523Y-79857142D01*
X181009761Y-79952380D01*
X181057380Y-80095238D01*
X181057380Y-80190476D01*
X181057380Y-78809523D02*
X181057380Y-79380952D01*
X181057380Y-79095238D02*
X180057380Y-79095238D01*
X180200238Y-79190476D01*
X180295476Y-79285714D01*
X180343095Y-79380952D01*
X180057380Y-78476190D02*
X180057380Y-77857142D01*
X180438333Y-78190476D01*
X180438333Y-78047619D01*
X180485952Y-77952380D01*
X180533571Y-77904761D01*
X180628809Y-77857142D01*
X180866904Y-77857142D01*
X180962142Y-77904761D01*
X181009761Y-77952380D01*
X181057380Y-78047619D01*
X181057380Y-78333333D01*
X181009761Y-78428571D01*
X180962142Y-78476190D01*
D12*
%TO.C,S1*%
X105789047Y-74967619D02*
X105849523Y-74786190D01*
X105849523Y-74483809D01*
X105789047Y-74362857D01*
X105728571Y-74302380D01*
X105607619Y-74241904D01*
X105486666Y-74241904D01*
X105365714Y-74302380D01*
X105305238Y-74362857D01*
X105244761Y-74483809D01*
X105184285Y-74725714D01*
X105123809Y-74846666D01*
X105063333Y-74907142D01*
X104942380Y-74967619D01*
X104821428Y-74967619D01*
X104700476Y-74907142D01*
X104640000Y-74846666D01*
X104579523Y-74725714D01*
X104579523Y-74423333D01*
X104640000Y-74241904D01*
X105849523Y-73032380D02*
X105849523Y-73758095D01*
X105849523Y-73395238D02*
X104579523Y-73395238D01*
X104760952Y-73516190D01*
X104881904Y-73637142D01*
X104942380Y-73758095D01*
%TO.C,G\u002A\u002A\u002A*%
G36*
X139948135Y-68994909D02*
G01*
X140011403Y-68838763D01*
X140115301Y-68703144D01*
X140159651Y-68660486D01*
X140304758Y-68564234D01*
X140468399Y-68514396D01*
X140638257Y-68512309D01*
X140802018Y-68559306D01*
X140851971Y-68585431D01*
X140947342Y-68641701D01*
X141012497Y-68571398D01*
X141092985Y-68512702D01*
X141173245Y-68509181D01*
X141247046Y-68556674D01*
X141265322Y-68578050D01*
X141279094Y-68605720D01*
X141288995Y-68647209D01*
X141295659Y-68710046D01*
X141299718Y-68801758D01*
X141301806Y-68929871D01*
X141302555Y-69101915D01*
X141302626Y-69217449D01*
X141302026Y-69423334D01*
X141299915Y-69580861D01*
X141295825Y-69697242D01*
X141289288Y-69779691D01*
X141279836Y-69835418D01*
X141267002Y-69871637D01*
X141259365Y-69884407D01*
X141194527Y-69935192D01*
X141114113Y-69945027D01*
X141039618Y-69913802D01*
X141013303Y-69885687D01*
X140970939Y-69825202D01*
X140834280Y-69899582D01*
X140666031Y-69961712D01*
X140490777Y-69972993D01*
X140320788Y-69933080D01*
X140280720Y-69915145D01*
X140130572Y-69811272D01*
X140018389Y-69669488D01*
X139946534Y-69494564D01*
X139917368Y-69291270D01*
X139918059Y-69251422D01*
X140218818Y-69251422D01*
X140240256Y-69400836D01*
X140298992Y-69524157D01*
X140386665Y-69616150D01*
X140494911Y-69671578D01*
X140615368Y-69685205D01*
X140739674Y-69651792D01*
X140800690Y-69615786D01*
X140904672Y-69521189D01*
X140962266Y-69411888D01*
X140981106Y-69272702D01*
X140981155Y-69256952D01*
X140960252Y-69090200D01*
X140902101Y-68959250D01*
X140810203Y-68867885D01*
X140688059Y-68819887D01*
X140572233Y-68815139D01*
X140435777Y-68852018D01*
X140328413Y-68932848D01*
X140255094Y-69051516D01*
X140220771Y-69201909D01*
X140218818Y-69251422D01*
X139918059Y-69251422D01*
X139919206Y-69185309D01*
X139948135Y-68994909D01*
G37*
G36*
X142915861Y-68863433D02*
G01*
X143024347Y-68712919D01*
X143167624Y-68599154D01*
X143341188Y-68527668D01*
X143425176Y-68511143D01*
X143591540Y-68514824D01*
X143751386Y-68566641D01*
X143896103Y-68659192D01*
X144017079Y-68785072D01*
X144105701Y-68936879D01*
X144153358Y-69107209D01*
X144157005Y-69140263D01*
X144161666Y-69211121D01*
X144157451Y-69263818D01*
X144137337Y-69301322D01*
X144094300Y-69326604D01*
X144021318Y-69342631D01*
X143911367Y-69352372D01*
X143757424Y-69358797D01*
X143631108Y-69362582D01*
X143457430Y-69367895D01*
X143331776Y-69372994D01*
X143246607Y-69378991D01*
X143194383Y-69386996D01*
X143167564Y-69398120D01*
X143158610Y-69413475D01*
X143159632Y-69432057D01*
X143195205Y-69507956D01*
X143267718Y-69583362D01*
X143360374Y-69643580D01*
X143431002Y-69669486D01*
X143594332Y-69681000D01*
X143757185Y-69645656D01*
X143809287Y-69622872D01*
X143914167Y-69587409D01*
X143998199Y-69594334D01*
X144053208Y-69642723D01*
X144057284Y-69650861D01*
X144070273Y-69732641D01*
X144030418Y-69808068D01*
X143936509Y-69879109D01*
X143907003Y-69895104D01*
X143788971Y-69936442D01*
X143640786Y-69961220D01*
X143484697Y-69968012D01*
X143342956Y-69955395D01*
X143268707Y-69935979D01*
X143100519Y-69845321D01*
X142968109Y-69715347D01*
X142875686Y-69552485D01*
X142827457Y-69363163D01*
X142821268Y-69252600D01*
X142843699Y-69069408D01*
X143136762Y-69069408D01*
X143162796Y-69075194D01*
X143233886Y-69079975D01*
X143339508Y-69083287D01*
X143469139Y-69084669D01*
X143484136Y-69084683D01*
X143615731Y-69083538D01*
X143724453Y-69080412D01*
X143799779Y-69075767D01*
X143831188Y-69070067D01*
X143831510Y-69069408D01*
X143812036Y-69010381D01*
X143764152Y-68938693D01*
X143703663Y-68875360D01*
X143665680Y-68848939D01*
X143541529Y-68810522D01*
X143413499Y-68813948D01*
X143296606Y-68855399D01*
X143205869Y-68931061D01*
X143178917Y-68972613D01*
X143150002Y-69032712D01*
X143136838Y-69068336D01*
X143136762Y-69069408D01*
X142843699Y-69069408D01*
X142846667Y-69045169D01*
X142915861Y-68863433D01*
G37*
G36*
X149111597Y-68984982D02*
G01*
X149111735Y-68742465D01*
X149112405Y-68549274D01*
X149113991Y-68399155D01*
X149116875Y-68285855D01*
X149121443Y-68203119D01*
X149128077Y-68144695D01*
X149137162Y-68104327D01*
X149149081Y-68075763D01*
X149164217Y-68052749D01*
X149169194Y-68046308D01*
X149240671Y-67985746D01*
X149315316Y-67980515D01*
X149389497Y-68028665D01*
X149414865Y-68060584D01*
X149431200Y-68103229D01*
X149440404Y-68168490D01*
X149444381Y-68268257D01*
X149445077Y-68376039D01*
X149446199Y-68495827D01*
X149449235Y-68591782D01*
X149453687Y-68652426D01*
X149457737Y-68667834D01*
X149486388Y-68653646D01*
X149543421Y-68617981D01*
X149569820Y-68600364D01*
X149720276Y-68528718D01*
X149878026Y-68507006D01*
X150034777Y-68531811D01*
X150182238Y-68599718D01*
X150312117Y-68707310D01*
X150416121Y-68851172D01*
X150468781Y-68970722D01*
X150485369Y-69047650D01*
X150496931Y-69155701D01*
X150500823Y-69262517D01*
X150478466Y-69460880D01*
X150416116Y-69633462D01*
X150319986Y-69775832D01*
X150196289Y-69883559D01*
X150051239Y-69952211D01*
X149891049Y-69977357D01*
X149721931Y-69954566D01*
X149598396Y-69906122D01*
X149464397Y-69838283D01*
X149411035Y-69906122D01*
X149339481Y-69961153D01*
X149257119Y-69973121D01*
X149182064Y-69941597D01*
X149154858Y-69912197D01*
X149142490Y-69887748D01*
X149132664Y-69849654D01*
X149125104Y-69791977D01*
X149119533Y-69708780D01*
X149115674Y-69594127D01*
X149113250Y-69442080D01*
X149111984Y-69246702D01*
X149111983Y-69246132D01*
X149446673Y-69246132D01*
X149455090Y-69371593D01*
X149483916Y-69468240D01*
X149570122Y-69582791D01*
X149682120Y-69655298D01*
X149808737Y-69682741D01*
X149938805Y-69662100D01*
X150028665Y-69615528D01*
X150113691Y-69524890D01*
X150170109Y-69400632D01*
X150194717Y-69258567D01*
X150184310Y-69114510D01*
X150150761Y-69012898D01*
X150073528Y-68906788D01*
X149968976Y-68839215D01*
X149849370Y-68810247D01*
X149726977Y-68819955D01*
X149614062Y-68868407D01*
X149522892Y-68955672D01*
X149491485Y-69009179D01*
X149458938Y-69117281D01*
X149446673Y-69246132D01*
X149111983Y-69246132D01*
X149111599Y-69002056D01*
X149111597Y-68984982D01*
G37*
G36*
X150772146Y-68898665D02*
G01*
X150884537Y-68737394D01*
X151022869Y-68618250D01*
X151179055Y-68542437D01*
X151345010Y-68511162D01*
X151512645Y-68525630D01*
X151673875Y-68587046D01*
X151820614Y-68696616D01*
X151858544Y-68736706D01*
X151946342Y-68858744D01*
X152008554Y-68989934D01*
X152041551Y-69117456D01*
X152041705Y-69228493D01*
X152016695Y-69295405D01*
X151999149Y-69319880D01*
X151977848Y-69337546D01*
X151944269Y-69349512D01*
X151889889Y-69356889D01*
X151806187Y-69360786D01*
X151684637Y-69362314D01*
X151516719Y-69362582D01*
X151500891Y-69362582D01*
X151328205Y-69363013D01*
X151203439Y-69364832D01*
X151118937Y-69368830D01*
X151067043Y-69375797D01*
X151040101Y-69386523D01*
X151030454Y-69401799D01*
X151029721Y-69411214D01*
X151047020Y-69468818D01*
X151078353Y-69518900D01*
X151192886Y-69618326D01*
X151331743Y-69672670D01*
X151482720Y-69678741D01*
X151589226Y-69652504D01*
X151737264Y-69605982D01*
X151843754Y-69593483D01*
X151911425Y-69615434D01*
X151943005Y-69672264D01*
X151946171Y-69708515D01*
X151920424Y-69788218D01*
X151850043Y-69856832D01*
X151745315Y-69911796D01*
X151616527Y-69950548D01*
X151473966Y-69970526D01*
X151327919Y-69969169D01*
X151188675Y-69943913D01*
X151112473Y-69916132D01*
X150943381Y-69812644D01*
X150814210Y-69671771D01*
X150769834Y-69598797D01*
X150728265Y-69479276D01*
X150707885Y-69328853D01*
X150708626Y-69167980D01*
X150729304Y-69024841D01*
X151029102Y-69024841D01*
X151038672Y-69055647D01*
X151088155Y-69073650D01*
X151182424Y-69082197D01*
X151326356Y-69084634D01*
X151362582Y-69084683D01*
X151503862Y-69083993D01*
X151598675Y-69081007D01*
X151656126Y-69074349D01*
X151685321Y-69062643D01*
X151695364Y-69044514D01*
X151696061Y-69034302D01*
X151677039Y-68984436D01*
X151629556Y-68921435D01*
X151610867Y-68902300D01*
X151554644Y-68855273D01*
X151498069Y-68830693D01*
X151419621Y-68821600D01*
X151358478Y-68820678D01*
X151261509Y-68823449D01*
X151199485Y-68836769D01*
X151151856Y-68868150D01*
X151110193Y-68911434D01*
X151054567Y-68977886D01*
X151029102Y-69024841D01*
X150729304Y-69024841D01*
X150730421Y-69017110D01*
X150772146Y-68898665D01*
G37*
G36*
X152264891Y-69035172D02*
G01*
X152327436Y-68861893D01*
X152424004Y-68718002D01*
X152548247Y-68607958D01*
X152693818Y-68536220D01*
X152854369Y-68507246D01*
X153023554Y-68525493D01*
X153170201Y-68581876D01*
X153239816Y-68616791D01*
X153286271Y-68637545D01*
X153294838Y-68640044D01*
X153300204Y-68614174D01*
X153304498Y-68544239D01*
X153307203Y-68441751D01*
X153307878Y-68349825D01*
X153308763Y-68218602D01*
X153312840Y-68131441D01*
X153322240Y-68076836D01*
X153339093Y-68043280D01*
X153365532Y-68019267D01*
X153369641Y-68016346D01*
X153454964Y-67976992D01*
X153527489Y-67990251D01*
X153567575Y-68023906D01*
X153580413Y-68043121D01*
X153590649Y-68073228D01*
X153598570Y-68120111D01*
X153604461Y-68189653D01*
X153608611Y-68287738D01*
X153611307Y-68420249D01*
X153612835Y-68593070D01*
X153613482Y-68812084D01*
X153613567Y-68966779D01*
X153613373Y-69225658D01*
X153612228Y-69434362D01*
X153609290Y-69598294D01*
X153603715Y-69722859D01*
X153594660Y-69813460D01*
X153581281Y-69875502D01*
X153562734Y-69914389D01*
X153538177Y-69935524D01*
X153506766Y-69944313D01*
X153467658Y-69946159D01*
X153460722Y-69946171D01*
X153391796Y-69927826D01*
X153333656Y-69883870D01*
X153307927Y-69830919D01*
X153307878Y-69828719D01*
X153291291Y-69821313D01*
X153258228Y-69843539D01*
X153137404Y-69918935D01*
X152987956Y-69961637D01*
X152827726Y-69969450D01*
X152674556Y-69940175D01*
X152627024Y-69921275D01*
X152475844Y-69821835D01*
X152359769Y-69682475D01*
X152281873Y-69508697D01*
X152245230Y-69306002D01*
X152243532Y-69257000D01*
X152544199Y-69257000D01*
X152565439Y-69386874D01*
X152618438Y-69501607D01*
X152697579Y-69594207D01*
X152797247Y-69657681D01*
X152911826Y-69685038D01*
X153035701Y-69669285D01*
X153135517Y-69622349D01*
X153226862Y-69533993D01*
X153283978Y-69415378D01*
X153307247Y-69279731D01*
X153297047Y-69140282D01*
X153253760Y-69010260D01*
X153177767Y-68902895D01*
X153113388Y-68852913D01*
X152989580Y-68809619D01*
X152859450Y-68813786D01*
X152738016Y-68861557D01*
X152640297Y-68949073D01*
X152619458Y-68979797D01*
X152560334Y-69118977D01*
X152544199Y-69257000D01*
X152243532Y-69257000D01*
X152242714Y-69233381D01*
X152264891Y-69035172D01*
G37*
G36*
X153905838Y-69237527D02*
G01*
X153914815Y-69061886D01*
X153945126Y-68924282D01*
X154002987Y-68809265D01*
X154094611Y-68701389D01*
X154137988Y-68660486D01*
X154282667Y-68564506D01*
X154445958Y-68514567D01*
X154615375Y-68512038D01*
X154778434Y-68558291D01*
X154828904Y-68584602D01*
X154891605Y-68619922D01*
X154930945Y-68638969D01*
X154935177Y-68640044D01*
X154940579Y-68614315D01*
X154944774Y-68545365D01*
X154947159Y-68445550D01*
X154947484Y-68388107D01*
X154953976Y-68218560D01*
X154974961Y-68097834D01*
X155012698Y-68020532D01*
X155069449Y-67981260D01*
X155121171Y-67973511D01*
X155176018Y-67991804D01*
X155225383Y-68028665D01*
X155240918Y-68046457D01*
X155253256Y-68069394D01*
X155262764Y-68103590D01*
X155269809Y-68155157D01*
X155274759Y-68230207D01*
X155277982Y-68334854D01*
X155279844Y-68475210D01*
X155280713Y-68657387D01*
X155280957Y-68887498D01*
X155280963Y-68953445D01*
X155280626Y-69201933D01*
X155279430Y-69400768D01*
X155277102Y-69555873D01*
X155273365Y-69673171D01*
X155267945Y-69758585D01*
X155260565Y-69818039D01*
X155250952Y-69857455D01*
X155238829Y-69882758D01*
X155237702Y-69884407D01*
X155172864Y-69935192D01*
X155092450Y-69945027D01*
X155017955Y-69913802D01*
X154991640Y-69885687D01*
X154949276Y-69825202D01*
X154812617Y-69899582D01*
X154645431Y-69960127D01*
X154467634Y-69970300D01*
X154314954Y-69936865D01*
X154163575Y-69853304D01*
X154037621Y-69725079D01*
X153974836Y-69623921D01*
X153939694Y-69546188D01*
X153918697Y-69470536D01*
X153908517Y-69378332D01*
X153905837Y-69251422D01*
X154197155Y-69251422D01*
X154219172Y-69407219D01*
X154280054Y-69532694D01*
X154372053Y-69622985D01*
X154487416Y-69673227D01*
X154618396Y-69678558D01*
X154757241Y-69634115D01*
X154783925Y-69619611D01*
X154881382Y-69531859D01*
X154940370Y-69406100D01*
X154959147Y-69251422D01*
X154938180Y-69087125D01*
X154879343Y-68957596D01*
X154786556Y-68867021D01*
X154663737Y-68819585D01*
X154550570Y-68815139D01*
X154414114Y-68852018D01*
X154306750Y-68932848D01*
X154233431Y-69051516D01*
X154199108Y-69201909D01*
X154197155Y-69251422D01*
X153905837Y-69251422D01*
X153905827Y-69250944D01*
X153905838Y-69237527D01*
G37*
G36*
X155641635Y-68856712D02*
G01*
X155752582Y-68710519D01*
X155897489Y-68598059D01*
X156071838Y-68526431D01*
X156140037Y-68512152D01*
X156293632Y-68513952D01*
X156450894Y-68561812D01*
X156599305Y-68648621D01*
X156726349Y-68767266D01*
X156811091Y-68893449D01*
X156862235Y-69021446D01*
X156885759Y-69143320D01*
X156880345Y-69245271D01*
X156850634Y-69307511D01*
X156828350Y-69327804D01*
X156798146Y-69342415D01*
X156751347Y-69352267D01*
X156679283Y-69358282D01*
X156573279Y-69361382D01*
X156424664Y-69362488D01*
X156332673Y-69362582D01*
X156148294Y-69363235D01*
X156014402Y-69366787D01*
X155925910Y-69375624D01*
X155877727Y-69392133D01*
X155864763Y-69418703D01*
X155881931Y-69457719D01*
X155924139Y-69511569D01*
X155950460Y-69541862D01*
X156067328Y-69637175D01*
X156205609Y-69681232D01*
X156365411Y-69674062D01*
X156395986Y-69667450D01*
X156477242Y-69644017D01*
X156533541Y-69620468D01*
X156547131Y-69609899D01*
X156585246Y-69591275D01*
X156650640Y-69586057D01*
X156716528Y-69594752D01*
X156744104Y-69606170D01*
X156781296Y-69660649D01*
X156779478Y-69744260D01*
X156771890Y-69770626D01*
X156723486Y-69834264D01*
X156632459Y-69888659D01*
X156511379Y-69931132D01*
X156372813Y-69959003D01*
X156229330Y-69969594D01*
X156093498Y-69960226D01*
X155996806Y-69935832D01*
X155820977Y-69844147D01*
X155686318Y-69715295D01*
X155594077Y-69550722D01*
X155557752Y-69426710D01*
X155539701Y-69221906D01*
X155562572Y-69072597D01*
X155864551Y-69072597D01*
X155890583Y-69077184D01*
X155961648Y-69080972D01*
X156067202Y-69083591D01*
X156196699Y-69084673D01*
X156210480Y-69084683D01*
X156556409Y-69084683D01*
X156527606Y-69002060D01*
X156468382Y-68909886D01*
X156373311Y-68845683D01*
X156256613Y-68813284D01*
X156132506Y-68816521D01*
X156015209Y-68859226D01*
X156009756Y-68862480D01*
X155938630Y-68923860D01*
X155885062Y-69001903D01*
X155864551Y-69072597D01*
X155562572Y-69072597D01*
X155569168Y-69029540D01*
X155641635Y-68856712D01*
G37*
G36*
X157116776Y-68971674D02*
G01*
X157156635Y-68874073D01*
X157260706Y-68717368D01*
X157394620Y-68602313D01*
X157550109Y-68531751D01*
X157718904Y-68508530D01*
X157892736Y-68535496D01*
X158005649Y-68581876D01*
X158075264Y-68616791D01*
X158121720Y-68637545D01*
X158130287Y-68640044D01*
X158135653Y-68614174D01*
X158139947Y-68544239D01*
X158142652Y-68441751D01*
X158143326Y-68349825D01*
X158144211Y-68218602D01*
X158148288Y-68131441D01*
X158157688Y-68076836D01*
X158174542Y-68043280D01*
X158200981Y-68019267D01*
X158205089Y-68016346D01*
X158288876Y-67977229D01*
X158360891Y-67990259D01*
X158409971Y-68031583D01*
X158424699Y-68050741D01*
X158436419Y-68076136D01*
X158445470Y-68113843D01*
X158452197Y-68169934D01*
X158456939Y-68250483D01*
X158460040Y-68361562D01*
X158461840Y-68509246D01*
X158462683Y-68699607D01*
X158462908Y-68938719D01*
X158462910Y-68972169D01*
X158462705Y-69230269D01*
X158461513Y-69438208D01*
X158458472Y-69601404D01*
X158452718Y-69725277D01*
X158443389Y-69815245D01*
X158429620Y-69876727D01*
X158410548Y-69915141D01*
X158385312Y-69935906D01*
X158353046Y-69944441D01*
X158312888Y-69946164D01*
X158307746Y-69946171D01*
X158230401Y-69927174D01*
X158177909Y-69891480D01*
X158146479Y-69861253D01*
X158116487Y-69852501D01*
X158071054Y-69866481D01*
X157993303Y-69904453D01*
X157991482Y-69905375D01*
X157824807Y-69961548D01*
X157650575Y-69970265D01*
X157484959Y-69931039D01*
X157462473Y-69921275D01*
X157317981Y-69825316D01*
X157204387Y-69691243D01*
X157124580Y-69528950D01*
X157081450Y-69348329D01*
X157079523Y-69246132D01*
X157394595Y-69246132D01*
X157403012Y-69371593D01*
X157431838Y-69468240D01*
X157518680Y-69583262D01*
X157631963Y-69655753D01*
X157760612Y-69682547D01*
X157893557Y-69660479D01*
X157970966Y-69622349D01*
X158061715Y-69534866D01*
X158118671Y-69417788D01*
X158142471Y-69284105D01*
X158133751Y-69146811D01*
X158093147Y-69018896D01*
X158021297Y-68913354D01*
X157933098Y-68849475D01*
X157796183Y-68810829D01*
X157663988Y-68821134D01*
X157547675Y-68876778D01*
X157458405Y-68974152D01*
X157439406Y-69009179D01*
X157406859Y-69117281D01*
X157394595Y-69246132D01*
X157079523Y-69246132D01*
X157077885Y-69159273D01*
X157116776Y-68971674D01*
G37*
G36*
X137578893Y-69224072D02*
G01*
X137578775Y-69032029D01*
X137578930Y-68806783D01*
X137909819Y-68806783D01*
X138175041Y-68806783D01*
X138303178Y-68805241D01*
X138388465Y-68799151D01*
X138443581Y-68786315D01*
X138481208Y-68764537D01*
X138495843Y-68751204D01*
X138541710Y-68670984D01*
X138549423Y-68575598D01*
X138519202Y-68487896D01*
X138493002Y-68456769D01*
X138454807Y-68430636D01*
X138401948Y-68414579D01*
X138321391Y-68406388D01*
X138200098Y-68403858D01*
X138180365Y-68403829D01*
X137926149Y-68403829D01*
X137909819Y-68806783D01*
X137578930Y-68806783D01*
X137578941Y-68790791D01*
X137579680Y-68599024D01*
X137581355Y-68450619D01*
X137584325Y-68339468D01*
X137588953Y-68259463D01*
X137595600Y-68204495D01*
X137604628Y-68168455D01*
X137616398Y-68145235D01*
X137631271Y-68128727D01*
X137632276Y-68127811D01*
X137658054Y-68109685D01*
X137694591Y-68097102D01*
X137750712Y-68089386D01*
X137835240Y-68085861D01*
X137957000Y-68085853D01*
X138124816Y-68088686D01*
X138139443Y-68088992D01*
X138319504Y-68093869D01*
X138453211Y-68100430D01*
X138549784Y-68109670D01*
X138618446Y-68122581D01*
X138668416Y-68140157D01*
X138683163Y-68147577D01*
X138787146Y-68232422D01*
X138858528Y-68347830D01*
X138895244Y-68480261D01*
X138895229Y-68616178D01*
X138856415Y-68742043D01*
X138787949Y-68834280D01*
X138740995Y-68882830D01*
X138718497Y-68914818D01*
X138718162Y-68916796D01*
X138739649Y-68940660D01*
X138792536Y-68977524D01*
X138804335Y-68984654D01*
X138892559Y-69066837D01*
X138954801Y-69185681D01*
X138988195Y-69327303D01*
X138989877Y-69477820D01*
X138956981Y-69623349D01*
X138943109Y-69657126D01*
X138857658Y-69783029D01*
X138729577Y-69875678D01*
X138637593Y-69914130D01*
X138574545Y-69925985D01*
X138471529Y-69935002D01*
X138340416Y-69941160D01*
X138193075Y-69944434D01*
X138041377Y-69944800D01*
X137897192Y-69942234D01*
X137772390Y-69936713D01*
X137678841Y-69928213D01*
X137628415Y-69916710D01*
X137627407Y-69916155D01*
X137613673Y-69904470D01*
X137602781Y-69883250D01*
X137594407Y-69846573D01*
X137588224Y-69788517D01*
X137583907Y-69703161D01*
X137581130Y-69584582D01*
X137580017Y-69472304D01*
X137915859Y-69472304D01*
X137917308Y-69565032D01*
X137921999Y-69622795D01*
X137924078Y-69631211D01*
X137958092Y-69650716D01*
X138032957Y-69663263D01*
X138134391Y-69668899D01*
X138248109Y-69667671D01*
X138359826Y-69659627D01*
X138455258Y-69644814D01*
X138507587Y-69629276D01*
X138592333Y-69566002D01*
X138641849Y-69468985D01*
X138650732Y-69351379D01*
X138641911Y-69302364D01*
X138604658Y-69221015D01*
X138536720Y-69164866D01*
X138431824Y-69131446D01*
X138283698Y-69118284D01*
X138176258Y-69118937D01*
X137926149Y-69126368D01*
X137918003Y-69360259D01*
X137915859Y-69472304D01*
X137580017Y-69472304D01*
X137579567Y-69426860D01*
X137578893Y-69224072D01*
G37*
G36*
X139509871Y-67986286D02*
G01*
X139568395Y-68031541D01*
X139583400Y-68051285D01*
X139595378Y-68077860D01*
X139604736Y-68117455D01*
X139611883Y-68176258D01*
X139617229Y-68260459D01*
X139621182Y-68376245D01*
X139624150Y-68529806D01*
X139626542Y-68727329D01*
X139628488Y-68941662D01*
X139630326Y-69201491D01*
X139630480Y-69411214D01*
X139628141Y-69576297D01*
X139622498Y-69702208D01*
X139612740Y-69794413D01*
X139598056Y-69858379D01*
X139577635Y-69899573D01*
X139550666Y-69923461D01*
X139516339Y-69935511D01*
X139480331Y-69940572D01*
X139389862Y-69927147D01*
X139348963Y-69896699D01*
X139335730Y-69877487D01*
X139325200Y-69848330D01*
X139317069Y-69803258D01*
X139311037Y-69736307D01*
X139306801Y-69641510D01*
X139304058Y-69512899D01*
X139302508Y-69344509D01*
X139301847Y-69130373D01*
X139301751Y-68964387D01*
X139301892Y-68719627D01*
X139302555Y-68524377D01*
X139304101Y-68372567D01*
X139306891Y-68258127D01*
X139311284Y-68174988D01*
X139317642Y-68117080D01*
X139326325Y-68078333D01*
X139337694Y-68052678D01*
X139352108Y-68034044D01*
X139357330Y-68028665D01*
X139434131Y-67979770D01*
X139509871Y-67986286D01*
G37*
G36*
X142289237Y-68557260D02*
G01*
X142413468Y-68559607D01*
X142499504Y-68564598D01*
X142556032Y-68573115D01*
X142591741Y-68586042D01*
X142615321Y-68604260D01*
X142618341Y-68607495D01*
X142648372Y-68649193D01*
X142660380Y-68694496D01*
X142651394Y-68749864D01*
X142618445Y-68821755D01*
X142558562Y-68916628D01*
X142468775Y-69040944D01*
X142346114Y-69201160D01*
X142344272Y-69203530D01*
X142243753Y-69334265D01*
X142156233Y-69450737D01*
X142087061Y-69545608D01*
X142041588Y-69611539D01*
X142025164Y-69641191D01*
X142025164Y-69641222D01*
X142051490Y-69652988D01*
X142124687Y-69661890D01*
X142236089Y-69667158D01*
X142329876Y-69668271D01*
X142465326Y-69669212D01*
X142555753Y-69673165D01*
X142611698Y-69681830D01*
X142643701Y-69696907D01*
X142662304Y-69720094D01*
X142663355Y-69722024D01*
X142690432Y-69809420D01*
X142666509Y-69881673D01*
X142648453Y-69902501D01*
X142624055Y-69918624D01*
X142582675Y-69930353D01*
X142516430Y-69938330D01*
X142417436Y-69943196D01*
X142277809Y-69945593D01*
X142112107Y-69946171D01*
X141909928Y-69944681D01*
X141759592Y-69940057D01*
X141657437Y-69932066D01*
X141599803Y-69920476D01*
X141586083Y-69912823D01*
X141554077Y-69843581D01*
X141566976Y-69749947D01*
X141623404Y-69638302D01*
X141654832Y-69593978D01*
X141712790Y-69518130D01*
X141793701Y-69412634D01*
X141886549Y-69291837D01*
X141974417Y-69177742D01*
X142056167Y-69070476D01*
X142123890Y-68979279D01*
X142171161Y-68912975D01*
X142191558Y-68880388D01*
X142191904Y-68879000D01*
X142166128Y-68871851D01*
X142096847Y-68866241D01*
X141996131Y-68862930D01*
X141927899Y-68862363D01*
X141800052Y-68860805D01*
X141715014Y-68854656D01*
X141660065Y-68841704D01*
X141622487Y-68819738D01*
X141608315Y-68806783D01*
X141567094Y-68751765D01*
X141552735Y-68709519D01*
X141571132Y-68660207D01*
X141608315Y-68612254D01*
X141633155Y-68591484D01*
X141665544Y-68576620D01*
X141714427Y-68566689D01*
X141788753Y-68560713D01*
X141897470Y-68557718D01*
X142049524Y-68556727D01*
X142118122Y-68556674D01*
X142289237Y-68557260D01*
G37*
G36*
X145984075Y-68084657D02*
G01*
X146116412Y-68086454D01*
X146210041Y-68090481D01*
X146273399Y-68097580D01*
X146314918Y-68108596D01*
X146343035Y-68124371D01*
X146360394Y-68139825D01*
X146401615Y-68194843D01*
X146415974Y-68237090D01*
X146397577Y-68286402D01*
X146360394Y-68334355D01*
X146333416Y-68356584D01*
X146298024Y-68371991D01*
X146244379Y-68381800D01*
X146162640Y-68387240D01*
X146042970Y-68389536D01*
X145914631Y-68389934D01*
X145524448Y-68389934D01*
X145532519Y-68619201D01*
X145540591Y-68848468D01*
X145872340Y-68856343D01*
X146008722Y-68861965D01*
X146123593Y-68871221D01*
X146205212Y-68882895D01*
X146240556Y-68894483D01*
X146269873Y-68949016D01*
X146274792Y-69024140D01*
X146255315Y-69090508D01*
X146240556Y-69108143D01*
X146198979Y-69120954D01*
X146113564Y-69132444D01*
X145996053Y-69141396D01*
X145872340Y-69146283D01*
X145540591Y-69154158D01*
X145540591Y-69654376D01*
X145942550Y-69668271D01*
X146099357Y-69673959D01*
X146209926Y-69679605D01*
X146283566Y-69687063D01*
X146329585Y-69698190D01*
X146357293Y-69714839D01*
X146376000Y-69738866D01*
X146386267Y-69756690D01*
X146412115Y-69813574D01*
X146404175Y-69853665D01*
X146376008Y-69888692D01*
X146354700Y-69908879D01*
X146327204Y-69923700D01*
X146285324Y-69933979D01*
X146220864Y-69940542D01*
X146125628Y-69944211D01*
X145991420Y-69945813D01*
X145810044Y-69946171D01*
X145804595Y-69946171D01*
X145620532Y-69945710D01*
X145484005Y-69943847D01*
X145386977Y-69939859D01*
X145321409Y-69933022D01*
X145279262Y-69922616D01*
X145252498Y-69907916D01*
X145239209Y-69895350D01*
X145225896Y-69875401D01*
X145215391Y-69844221D01*
X145207369Y-69795666D01*
X145201509Y-69723597D01*
X145197487Y-69621872D01*
X145194982Y-69484350D01*
X145193670Y-69304889D01*
X145193229Y-69077350D01*
X145193217Y-69019967D01*
X145193376Y-68783790D01*
X145194118Y-68596894D01*
X145195841Y-68452984D01*
X145198943Y-68345763D01*
X145203821Y-68268932D01*
X145210873Y-68216194D01*
X145220496Y-68181254D01*
X145233089Y-68157812D01*
X145248797Y-68139825D01*
X145272398Y-68119929D01*
X145303079Y-68105424D01*
X145349274Y-68095468D01*
X145419419Y-68089217D01*
X145521948Y-68085828D01*
X145665296Y-68084457D01*
X145804595Y-68084245D01*
X145984075Y-68084657D01*
G37*
G36*
X148526700Y-68548393D02*
G01*
X148642657Y-68637191D01*
X148708643Y-68726319D01*
X148728634Y-68765655D01*
X148743570Y-68812068D01*
X148754393Y-68874448D01*
X148762041Y-68961681D01*
X148767455Y-69082655D01*
X148771574Y-69246259D01*
X148773282Y-69337643D01*
X148775977Y-69522621D01*
X148776307Y-69659998D01*
X148773753Y-69757725D01*
X148767797Y-69823750D01*
X148757919Y-69866022D01*
X148743601Y-69892492D01*
X148736560Y-69900390D01*
X148659042Y-69941715D01*
X148565587Y-69934400D01*
X148526182Y-69917403D01*
X148505402Y-69902258D01*
X148490771Y-69876849D01*
X148481225Y-69832345D01*
X148475697Y-69759914D01*
X148473122Y-69650725D01*
X148472435Y-69495947D01*
X148472429Y-69471872D01*
X148469214Y-69259394D01*
X148457813Y-69096163D01*
X148435590Y-68976124D01*
X148399909Y-68893222D01*
X148348133Y-68841402D01*
X148277628Y-68814609D01*
X148185756Y-68806788D01*
X148182900Y-68806783D01*
X148082828Y-68827258D01*
X147993491Y-68887811D01*
X147902735Y-68968838D01*
X147888840Y-69430800D01*
X147882747Y-69611381D01*
X147875302Y-69743852D01*
X147864071Y-69835671D01*
X147846618Y-69894299D01*
X147820508Y-69927195D01*
X147783305Y-69941817D01*
X147732574Y-69945626D01*
X147720711Y-69945745D01*
X147669719Y-69941877D01*
X147633078Y-69924384D01*
X147608446Y-69885502D01*
X147593482Y-69817462D01*
X147585843Y-69712497D01*
X147583187Y-69562841D01*
X147582996Y-69489026D01*
X147580094Y-69283241D01*
X147570696Y-69125685D01*
X147553487Y-69009247D01*
X147527154Y-68926820D01*
X147490382Y-68871292D01*
X147464728Y-68849288D01*
X147361997Y-68808897D01*
X147247024Y-68813797D01*
X147137031Y-68862146D01*
X147104213Y-68887811D01*
X147013457Y-68968838D01*
X146999562Y-69430800D01*
X146993469Y-69611381D01*
X146986024Y-69743852D01*
X146974793Y-69835671D01*
X146957340Y-69894299D01*
X146931230Y-69927195D01*
X146894028Y-69941817D01*
X146843297Y-69945626D01*
X146831433Y-69945745D01*
X146764100Y-69933713D01*
X146727221Y-69912823D01*
X146715297Y-69881798D01*
X146706216Y-69812858D01*
X146699776Y-69701959D01*
X146695773Y-69545061D01*
X146694003Y-69338122D01*
X146693873Y-69250171D01*
X146694117Y-69046828D01*
X146695251Y-68891757D01*
X146697882Y-68777652D01*
X146702616Y-68697206D01*
X146710059Y-68643112D01*
X146720817Y-68608064D01*
X146735495Y-68584756D01*
X146750295Y-68569807D01*
X146821524Y-68538128D01*
X146900237Y-68550670D01*
X146967385Y-68602818D01*
X146982789Y-68626149D01*
X147009238Y-68674060D01*
X147019231Y-68692134D01*
X147041651Y-68682871D01*
X147090531Y-68647040D01*
X147108842Y-68631995D01*
X147252984Y-68544460D01*
X147412324Y-68508838D01*
X147515628Y-68513829D01*
X147627338Y-68547989D01*
X147727879Y-68608908D01*
X147799748Y-68684391D01*
X147820198Y-68726037D01*
X147833557Y-68754130D01*
X147855500Y-68755523D01*
X147896934Y-68725950D01*
X147956024Y-68672913D01*
X148100134Y-68568791D01*
X148248146Y-68513675D01*
X148392765Y-68507048D01*
X148526700Y-68548393D01*
G37*
G36*
X144929212Y-66792013D02*
G01*
X138662582Y-66806147D01*
X138662582Y-66389059D01*
X144945542Y-66389059D01*
X144929212Y-66792013D01*
G37*
G36*
X149028228Y-63193217D02*
G01*
X148666958Y-63193217D01*
X148666958Y-63398238D01*
X148671088Y-63521007D01*
X148684537Y-63597896D01*
X148708643Y-63637856D01*
X148742139Y-63697010D01*
X148748183Y-63778851D01*
X148727660Y-63858251D01*
X148699508Y-63897553D01*
X148620914Y-63936425D01*
X148528922Y-63938452D01*
X148448396Y-63904439D01*
X148431577Y-63888886D01*
X148389083Y-63805936D01*
X148389703Y-63713627D01*
X148427270Y-63641694D01*
X148448585Y-63606083D01*
X148462287Y-63548733D01*
X148469756Y-63459072D01*
X148472368Y-63326528D01*
X148472429Y-63295241D01*
X148472429Y-62998687D01*
X149028228Y-62998687D01*
X149028228Y-62619922D01*
X148930020Y-62573090D01*
X148833023Y-62541177D01*
X148728778Y-62526384D01*
X148720332Y-62526258D01*
X148607609Y-62503690D01*
X148525192Y-62443320D01*
X148480011Y-62356149D01*
X148478996Y-62253179D01*
X148504758Y-62184005D01*
X148577835Y-62096833D01*
X148671797Y-62056019D01*
X148773909Y-62063718D01*
X148871325Y-62121977D01*
X148920119Y-62173627D01*
X148944291Y-62211819D01*
X148944858Y-62215491D01*
X148967338Y-62239792D01*
X149027500Y-62283435D01*
X149114427Y-62338794D01*
X149160657Y-62366246D01*
X149470356Y-62576730D01*
X149738035Y-62823478D01*
X149962811Y-63105389D01*
X150143803Y-63421359D01*
X150277820Y-63762910D01*
X150323828Y-63961209D01*
X150351379Y-64193544D01*
X150359990Y-64441359D01*
X150349180Y-64686098D01*
X150318467Y-64909204D01*
X150308758Y-64954556D01*
X150201320Y-65299194D01*
X150044197Y-65619031D01*
X149837853Y-65913222D01*
X149689161Y-66078555D01*
X149416941Y-66317156D01*
X149116226Y-66509612D01*
X148791882Y-66653703D01*
X148448775Y-66747212D01*
X148138950Y-66785681D01*
X148013525Y-66790722D01*
X147894780Y-66791823D01*
X147804769Y-66788857D01*
X147791576Y-66787705D01*
X147693508Y-66775632D01*
X147642362Y-66757851D01*
X147629736Y-66723322D01*
X147647227Y-66661009D01*
X147663354Y-66619259D01*
X147715555Y-66486365D01*
X147899871Y-66495843D01*
X148023200Y-66497897D01*
X148148730Y-66493283D01*
X148223166Y-66486207D01*
X148362146Y-66467093D01*
X148220757Y-66303886D01*
X148079369Y-66140679D01*
X147754837Y-66132867D01*
X147430306Y-66125055D01*
X147421836Y-65993053D01*
X147413366Y-65861050D01*
X147268992Y-65861934D01*
X147169374Y-65870606D01*
X147091297Y-65892035D01*
X147070673Y-65903619D01*
X146983115Y-65941435D01*
X146897902Y-65931705D01*
X146827567Y-65881519D01*
X146784642Y-65797971D01*
X146777243Y-65737571D01*
X146800321Y-65645694D01*
X146859955Y-65582948D01*
X146941741Y-65556274D01*
X147031276Y-65572614D01*
X147070673Y-65596162D01*
X147132640Y-65621454D01*
X147226119Y-65636084D01*
X147268992Y-65637847D01*
X147413366Y-65638731D01*
X147430306Y-65374727D01*
X147980663Y-65367187D01*
X148531019Y-65359647D01*
X148671204Y-65513030D01*
X148741293Y-65584866D01*
X148798419Y-65634542D01*
X148831820Y-65652875D01*
X148834355Y-65652220D01*
X148883270Y-65650730D01*
X148945344Y-65683015D01*
X149002400Y-65736945D01*
X149030454Y-65783055D01*
X149049174Y-65847737D01*
X149035002Y-65900227D01*
X149008742Y-65939243D01*
X148938618Y-65998930D01*
X148855007Y-66022426D01*
X148772556Y-66012505D01*
X148705912Y-65971937D01*
X148669723Y-65903496D01*
X148666958Y-65874551D01*
X148649268Y-65821718D01*
X148603407Y-65747391D01*
X148553437Y-65684328D01*
X148439915Y-65555361D01*
X147638731Y-65555361D01*
X147638731Y-65944420D01*
X148163593Y-65944420D01*
X148299896Y-66090317D01*
X148382551Y-66179547D01*
X148462653Y-66267262D01*
X148516841Y-66327697D01*
X148597484Y-66419179D01*
X148778118Y-66345743D01*
X148927709Y-66275282D01*
X149085796Y-66184796D01*
X149234978Y-66085442D01*
X149357849Y-65988379D01*
X149403251Y-65944958D01*
X149486479Y-65857696D01*
X149312933Y-65689959D01*
X149139387Y-65522223D01*
X149139387Y-64689485D01*
X148996975Y-64525749D01*
X148854562Y-64362014D01*
X148709132Y-64486259D01*
X148563701Y-64610503D01*
X148339019Y-64610503D01*
X148209578Y-64614065D01*
X148117978Y-64626826D01*
X148046817Y-64651904D01*
X148016445Y-64668261D01*
X147915371Y-64707742D01*
X147828155Y-64695351D01*
X147763950Y-64648383D01*
X147729660Y-64580220D01*
X147724813Y-64492074D01*
X147748527Y-64410538D01*
X147772921Y-64378596D01*
X147842555Y-64343098D01*
X147926957Y-64334548D01*
X148001255Y-64353367D01*
X148027790Y-64374289D01*
X148065273Y-64397422D01*
X148136701Y-64410745D01*
X148251641Y-64415812D01*
X148284246Y-64415974D01*
X148506106Y-64415974D01*
X148705173Y-64233243D01*
X149027430Y-64233243D01*
X149047512Y-64271238D01*
X149095916Y-64331089D01*
X149168099Y-64412113D01*
X149247716Y-64502255D01*
X149296686Y-64566662D01*
X149322428Y-64620098D01*
X149332362Y-64677327D01*
X149333917Y-64742120D01*
X149336437Y-64827916D01*
X149347545Y-64871750D01*
X149372561Y-64887145D01*
X149391482Y-64888403D01*
X149458841Y-64869335D01*
X149490732Y-64846718D01*
X149562913Y-64808509D01*
X149646432Y-64811453D01*
X149725421Y-64848236D01*
X149784011Y-64911545D01*
X149806346Y-64992171D01*
X149784626Y-65061574D01*
X149731430Y-65130815D01*
X149664701Y-65180775D01*
X149616827Y-65194092D01*
X149557999Y-65177507D01*
X149493073Y-65138512D01*
X149418546Y-65089264D01*
X149370357Y-65084087D01*
X149343813Y-65126193D01*
X149334219Y-65218795D01*
X149333917Y-65247432D01*
X149335931Y-65333582D01*
X149347362Y-65395174D01*
X149376290Y-65450387D01*
X149430796Y-65517397D01*
X149476316Y-65567740D01*
X149618715Y-65723547D01*
X149686967Y-65632507D01*
X149736626Y-65557984D01*
X149795662Y-65457764D01*
X149840206Y-65374851D01*
X149970103Y-65063520D01*
X150048712Y-64742905D01*
X150075558Y-64419207D01*
X150050168Y-64098624D01*
X149972067Y-63787356D01*
X149963480Y-63762910D01*
X149928170Y-63671318D01*
X149898249Y-63620041D01*
X149862755Y-63596276D01*
X149813293Y-63587463D01*
X149722976Y-63578754D01*
X149722976Y-63870057D01*
X149725349Y-64017328D01*
X149733531Y-64121545D01*
X149749120Y-64195075D01*
X149771608Y-64246659D01*
X149802096Y-64309671D01*
X149802048Y-64356697D01*
X149777696Y-64408336D01*
X149709179Y-64487772D01*
X149624988Y-64518908D01*
X149535650Y-64498908D01*
X149507548Y-64481138D01*
X149448827Y-64413826D01*
X149422016Y-64333610D01*
X149430741Y-64259244D01*
X149457553Y-64222622D01*
X149475067Y-64198664D01*
X149487283Y-64155007D01*
X149495048Y-64083070D01*
X149499213Y-63974268D01*
X149500628Y-63820017D01*
X149500657Y-63787298D01*
X149500657Y-63387746D01*
X149639606Y-63387746D01*
X149718892Y-63384896D01*
X149769199Y-63377609D01*
X149778556Y-63371911D01*
X149760337Y-63329851D01*
X149711110Y-63258443D01*
X149639018Y-63167786D01*
X149552204Y-63067983D01*
X149458811Y-62969134D01*
X149433515Y-62943910D01*
X149250547Y-62764078D01*
X149250547Y-64138074D01*
X149176313Y-64138074D01*
X149100232Y-64154814D01*
X149052180Y-64183232D01*
X149030657Y-64207207D01*
X149027430Y-64233243D01*
X148705173Y-64233243D01*
X149028228Y-63936700D01*
X149028228Y-63193217D01*
G37*
G36*
X157337418Y-66750328D02*
G01*
X151056893Y-66750328D01*
X151056893Y-66333479D01*
X157337418Y-66333479D01*
X157337418Y-66750328D01*
G37*
G36*
X145664451Y-64061966D02*
G01*
X145738913Y-63733071D01*
X145858525Y-63417183D01*
X146022272Y-63120048D01*
X146229139Y-62847413D01*
X146280070Y-62797829D01*
X146711949Y-62797829D01*
X146959968Y-63064984D01*
X147052683Y-63164132D01*
X147131093Y-63246623D01*
X147187904Y-63304885D01*
X147215824Y-63331343D01*
X147217300Y-63332152D01*
X147240721Y-63314953D01*
X147295813Y-63268807D01*
X147372903Y-63201913D01*
X147418777Y-63161381D01*
X147610941Y-62990595D01*
X147610941Y-62688952D01*
X147608988Y-62566998D01*
X147603695Y-62468684D01*
X147595915Y-62405301D01*
X147588195Y-62387309D01*
X147513272Y-62400349D01*
X147403275Y-62435647D01*
X147271146Y-62487467D01*
X147129824Y-62550071D01*
X146992252Y-62617724D01*
X146871371Y-62684689D01*
X146780122Y-62745231D01*
X146779334Y-62745838D01*
X146711949Y-62797829D01*
X146280070Y-62797829D01*
X146478114Y-62605023D01*
X146563282Y-62537229D01*
X146727304Y-62428177D01*
X146925247Y-62320076D01*
X147136204Y-62222983D01*
X147339268Y-62146952D01*
X147430306Y-62120236D01*
X147522470Y-62102552D01*
X147644336Y-62087889D01*
X147784208Y-62076639D01*
X147930389Y-62069196D01*
X148071185Y-62065952D01*
X148194899Y-62067297D01*
X148289835Y-62073626D01*
X148344299Y-62085329D01*
X148350468Y-62089381D01*
X148354860Y-62126287D01*
X148340677Y-62194193D01*
X148329470Y-62228331D01*
X148286778Y-62345624D01*
X148046124Y-62353653D01*
X147805471Y-62361683D01*
X147805650Y-62645447D01*
X147805829Y-62929212D01*
X147918972Y-63061214D01*
X148006799Y-63150034D01*
X148077212Y-63190164D01*
X148099427Y-63193217D01*
X148180575Y-63217126D01*
X148241119Y-63277847D01*
X148274049Y-63358869D01*
X148272353Y-63443681D01*
X148234271Y-63510774D01*
X148147957Y-63564560D01*
X148056835Y-63570430D01*
X147975078Y-63532704D01*
X147916861Y-63455703D01*
X147902150Y-63409530D01*
X147868751Y-63321418D01*
X147815206Y-63246470D01*
X147754778Y-63200761D01*
X147724204Y-63193891D01*
X147683850Y-63211826D01*
X147616239Y-63258762D01*
X147534416Y-63325429D01*
X147515045Y-63342501D01*
X147349675Y-63490437D01*
X147638731Y-63796071D01*
X147638731Y-64971772D01*
X148118107Y-64970889D01*
X148303640Y-64969539D01*
X148441228Y-64965877D01*
X148538479Y-64959306D01*
X148603001Y-64949232D01*
X148642401Y-64935062D01*
X148651428Y-64929204D01*
X148729076Y-64892317D01*
X148807528Y-64905145D01*
X148871635Y-64946000D01*
X148930758Y-65023203D01*
X148943009Y-65114018D01*
X148907287Y-65201204D01*
X148889278Y-65221882D01*
X148818328Y-65264039D01*
X148734877Y-65275705D01*
X148662156Y-65255536D01*
X148639620Y-65236321D01*
X148618447Y-65222050D01*
X148577090Y-65210999D01*
X148508818Y-65202641D01*
X148406899Y-65196449D01*
X148264601Y-65191898D01*
X148075193Y-65188459D01*
X148017891Y-65187689D01*
X147430306Y-65180197D01*
X147422849Y-64517214D01*
X147415391Y-63854231D01*
X146995151Y-63398669D01*
X146872746Y-63266886D01*
X146762621Y-63150058D01*
X146670408Y-63054015D01*
X146601737Y-62984591D01*
X146562239Y-62947617D01*
X146555329Y-62943107D01*
X146520217Y-62963492D01*
X146477783Y-63009198D01*
X146447863Y-63057050D01*
X146443764Y-63073454D01*
X146461914Y-63101469D01*
X146512661Y-63163531D01*
X146590446Y-63253267D01*
X146689714Y-63364309D01*
X146804907Y-63490284D01*
X146846718Y-63535391D01*
X147249672Y-63968624D01*
X147249672Y-65277462D01*
X146388184Y-65277462D01*
X146388184Y-64805033D01*
X146179759Y-64805033D01*
X146067954Y-64806182D01*
X146002981Y-64816768D01*
X145977005Y-64847498D01*
X145982193Y-64909081D01*
X146010713Y-65012223D01*
X146015730Y-65029256D01*
X146120915Y-65297182D01*
X146272596Y-65556578D01*
X146462521Y-65798583D01*
X146682437Y-66014336D01*
X146924092Y-66194978D01*
X147179236Y-66331646D01*
X147257780Y-66362969D01*
X147346490Y-66395809D01*
X147411389Y-66420494D01*
X147437952Y-66431465D01*
X147434485Y-66458714D01*
X147412385Y-66516249D01*
X147380276Y-66585917D01*
X147346782Y-66649567D01*
X147320527Y-66689045D01*
X147313187Y-66694089D01*
X147277581Y-66683872D01*
X147207445Y-66658037D01*
X147136215Y-66629606D01*
X146800235Y-66464001D01*
X146503713Y-66259519D01*
X146245435Y-66015163D01*
X146024184Y-65729934D01*
X146004887Y-65700426D01*
X145838386Y-65392690D01*
X145722106Y-65069230D01*
X145655033Y-64735791D01*
X145638110Y-64433123D01*
X145920750Y-64433123D01*
X145923974Y-64524472D01*
X145927117Y-64540832D01*
X145936346Y-64570727D01*
X145952815Y-64590550D01*
X145986517Y-64602370D01*
X146047445Y-64608257D01*
X146145593Y-64610279D01*
X146263659Y-64610503D01*
X146582713Y-64610503D01*
X146582713Y-65082932D01*
X147055142Y-65082932D01*
X147055042Y-64068600D01*
X146758586Y-63737340D01*
X146628965Y-63915478D01*
X146567364Y-64006337D01*
X146521626Y-64085614D01*
X146500035Y-64138649D01*
X146499344Y-64144898D01*
X146475955Y-64209764D01*
X146418428Y-64273879D01*
X146345722Y-64320064D01*
X146292182Y-64332604D01*
X146206086Y-64309147D01*
X146145113Y-64249019D01*
X146114860Y-64167588D01*
X146120925Y-64080222D01*
X146168907Y-64002288D01*
X146171104Y-64000207D01*
X146237009Y-63958392D01*
X146296217Y-63943545D01*
X146345314Y-63927192D01*
X146405148Y-63873945D01*
X146482723Y-63777521D01*
X146485506Y-63773748D01*
X146545377Y-63690125D01*
X146589608Y-63623975D01*
X146609998Y-63587662D01*
X146610503Y-63585296D01*
X146592062Y-63558450D01*
X146542996Y-63503393D01*
X146472695Y-63430492D01*
X146447667Y-63405503D01*
X146284830Y-63244366D01*
X146201303Y-63392478D01*
X146148152Y-63497120D01*
X146090896Y-63625815D01*
X146044653Y-63743455D01*
X146008396Y-63863645D01*
X145975720Y-64007347D01*
X145948782Y-64159921D01*
X145929739Y-64306726D01*
X145920750Y-64433123D01*
X145638110Y-64433123D01*
X145636153Y-64398121D01*
X145664451Y-64061966D01*
G37*
D13*
%TO.C,J16*%
X146370000Y-80330000D02*
X146370000Y-77670000D01*
X143770000Y-80330000D02*
X146370000Y-80330000D01*
X143770000Y-77670000D02*
X146370000Y-77670000D01*
X143770000Y-80330000D02*
X143770000Y-77670000D01*
X142500000Y-80330000D02*
X141170000Y-80330000D01*
X141170000Y-80330000D02*
X141170000Y-79000000D01*
%TO.C,J15*%
X126050000Y-77670000D02*
X126050000Y-80330000D01*
X133730000Y-77670000D02*
X126050000Y-77670000D01*
X133730000Y-80330000D02*
X126050000Y-80330000D01*
X133730000Y-77670000D02*
X133730000Y-80330000D01*
X135000000Y-77670000D02*
X136330000Y-77670000D01*
X136330000Y-77670000D02*
X136330000Y-79000000D01*
%TO.C,D2*%
X103955000Y-65290000D02*
X107045000Y-65290000D01*
X107044830Y-65290000D02*
G75*
G03*
X105499538Y-59740000I-1544830J2560000D01*
G01*
X105500462Y-59740000D02*
G75*
G03*
X103955170Y-65290000I-462J-2990000D01*
G01*
X108000000Y-62730000D02*
G75*
G03*
X108000000Y-62730000I-2500000J0D01*
G01*
%TO.C,J14*%
X162005000Y-77670000D02*
X159405000Y-77670000D01*
X164605000Y-77670000D02*
X164605000Y-79000000D01*
X163275000Y-77670000D02*
X164605000Y-77670000D01*
X162005000Y-77670000D02*
X162005000Y-80330000D01*
X162005000Y-80330000D02*
X159405000Y-80330000D01*
X159405000Y-77670000D02*
X159405000Y-80330000D01*
%TO.C,D1*%
X107045000Y-52435000D02*
X103955000Y-52435000D01*
X103955170Y-52435000D02*
G75*
G03*
X105500462Y-57985000I1544830J-2560000D01*
G01*
X105499538Y-57985000D02*
G75*
G03*
X107044830Y-52435000I462J2990000D01*
G01*
X108000000Y-54995000D02*
G75*
G03*
X108000000Y-54995000I-2500000J0D01*
G01*
%TO.C,SW1*%
X186880000Y-79120000D02*
X186880000Y-78230000D01*
X186880000Y-72270000D02*
X187230000Y-72270000D01*
X189820000Y-79120000D02*
X193670000Y-79120000D01*
X189430000Y-72760000D02*
X189430000Y-77740000D01*
X186880000Y-78230000D02*
X187230000Y-78230000D01*
X186880000Y-72270000D02*
X186880000Y-71380000D01*
X187180000Y-71380000D02*
X186880000Y-71380000D01*
X193670000Y-79120000D02*
X193670000Y-71380000D01*
X187180000Y-79120000D02*
X186880000Y-79120000D01*
X193670000Y-71380000D02*
X189820000Y-71380000D01*
%TO.C,J5*%
X191100000Y-61130000D02*
X185900000Y-61130000D01*
X188500000Y-66270000D02*
X185900000Y-66270000D01*
X191100000Y-68870000D02*
X191100000Y-61130000D01*
X191100000Y-68870000D02*
X188500000Y-68870000D01*
X185900000Y-68870000D02*
X185900000Y-67540000D01*
X188500000Y-68870000D02*
X188500000Y-66270000D01*
X185900000Y-66270000D02*
X185900000Y-61130000D01*
X187230000Y-68870000D02*
X185900000Y-68870000D01*
%TO.C,J12*%
X112350000Y-77670000D02*
X112350000Y-80330000D01*
X121300000Y-77670000D02*
X122630000Y-77670000D01*
X120030000Y-77670000D02*
X120030000Y-80330000D01*
X122630000Y-77670000D02*
X122630000Y-79000000D01*
X120030000Y-80330000D02*
X112350000Y-80330000D01*
X120030000Y-77670000D02*
X112350000Y-77670000D01*
%TO.C,R1*%
X112262742Y-50477500D02*
X112737258Y-50477500D01*
X112262742Y-51522500D02*
X112737258Y-51522500D01*
%TO.C,R2*%
X112262742Y-53022500D02*
X112737258Y-53022500D01*
X112262742Y-51977500D02*
X112737258Y-51977500D01*
%TO.C,J13*%
X177005000Y-77670000D02*
X177005000Y-80330000D01*
X178275000Y-77670000D02*
X179605000Y-77670000D01*
X177005000Y-77670000D02*
X174405000Y-77670000D01*
X177005000Y-80330000D02*
X174405000Y-80330000D01*
X179605000Y-77670000D02*
X179605000Y-79000000D01*
X174405000Y-77670000D02*
X174405000Y-80330000D01*
D14*
%TO.C,S1*%
X103150000Y-76500000D02*
X103150000Y-76500000D01*
D15*
X107500000Y-71700000D02*
X107500000Y-71700000D01*
D14*
X103150000Y-71500000D02*
X103150000Y-71500000D01*
X103150000Y-71500000D02*
X103150000Y-76500000D01*
X105850000Y-73750000D02*
X105850000Y-72750000D01*
D15*
X107600000Y-71700000D02*
X107600000Y-71700000D01*
D14*
X105850000Y-72750000D02*
X105850000Y-72750000D01*
X105850000Y-73750000D02*
X105850000Y-73750000D01*
X103150000Y-76500000D02*
X103150000Y-71500000D01*
X105850000Y-72750000D02*
X105850000Y-73750000D01*
D15*
X107500000Y-71700000D02*
X107500000Y-71700000D01*
X107600000Y-71700000D02*
G75*
G03*
X107500000Y-71700000I-50000J0D01*
G01*
X107500000Y-71700000D02*
G75*
G03*
X107600000Y-71700000I50000J0D01*
G01*
X107500000Y-71700000D02*
G75*
G03*
X107600000Y-71700000I50000J0D01*
G01*
%TD*%
M02*
