%TF.GenerationSoftware,KiCad,Pcbnew,(6.0.0)*%
%TF.CreationDate,2022-06-06T22:52:27+03:00*%
%TF.ProjectId,link,6c696e6b-2e6b-4696-9361-645f70636258,rev?*%
%TF.SameCoordinates,Original*%
%TF.FileFunction,Legend,Bot*%
%TF.FilePolarity,Positive*%
%FSLAX46Y46*%
G04 Gerber Fmt 4.6, Leading zero omitted, Abs format (unit mm)*
G04 Created by KiCad (PCBNEW (6.0.0)) date 2022-06-06 22:52:27*
%MOMM*%
%LPD*%
G01*
G04 APERTURE LIST*
%ADD10C,0.150000*%
%ADD11C,0.120000*%
G04 APERTURE END LIST*
D10*
%TO.C,J10*%
X157142380Y-72690476D02*
X157856666Y-72690476D01*
X157999523Y-72642857D01*
X158094761Y-72547619D01*
X158142380Y-72404761D01*
X158142380Y-72309523D01*
X158142380Y-73690476D02*
X158142380Y-73119047D01*
X158142380Y-73404761D02*
X157142380Y-73404761D01*
X157285238Y-73309523D01*
X157380476Y-73214285D01*
X157428095Y-73119047D01*
X157142380Y-74309523D02*
X157142380Y-74404761D01*
X157190000Y-74500000D01*
X157237619Y-74547619D01*
X157332857Y-74595238D01*
X157523333Y-74642857D01*
X157761428Y-74642857D01*
X157951904Y-74595238D01*
X158047142Y-74547619D01*
X158094761Y-74500000D01*
X158142380Y-74404761D01*
X158142380Y-74309523D01*
X158094761Y-74214285D01*
X158047142Y-74166666D01*
X157951904Y-74119047D01*
X157761428Y-74071428D01*
X157523333Y-74071428D01*
X157332857Y-74119047D01*
X157237619Y-74166666D01*
X157190000Y-74214285D01*
X157142380Y-74309523D01*
%TO.C,J9*%
X172142380Y-73166666D02*
X172856666Y-73166666D01*
X172999523Y-73119047D01*
X173094761Y-73023809D01*
X173142380Y-72880952D01*
X173142380Y-72785714D01*
X173142380Y-73690476D02*
X173142380Y-73880952D01*
X173094761Y-73976190D01*
X173047142Y-74023809D01*
X172904285Y-74119047D01*
X172713809Y-74166666D01*
X172332857Y-74166666D01*
X172237619Y-74119047D01*
X172190000Y-74071428D01*
X172142380Y-73976190D01*
X172142380Y-73785714D01*
X172190000Y-73690476D01*
X172237619Y-73642857D01*
X172332857Y-73595238D01*
X172570952Y-73595238D01*
X172666190Y-73642857D01*
X172713809Y-73690476D01*
X172761428Y-73785714D01*
X172761428Y-73976190D01*
X172713809Y-74071428D01*
X172666190Y-74119047D01*
X172570952Y-74166666D01*
%TO.C,J2*%
X142142380Y-73166666D02*
X142856666Y-73166666D01*
X142999523Y-73119047D01*
X143094761Y-73023809D01*
X143142380Y-72880952D01*
X143142380Y-72785714D01*
X142237619Y-73595238D02*
X142190000Y-73642857D01*
X142142380Y-73738095D01*
X142142380Y-73976190D01*
X142190000Y-74071428D01*
X142237619Y-74119047D01*
X142332857Y-74166666D01*
X142428095Y-74166666D01*
X142570952Y-74119047D01*
X143142380Y-73547619D01*
X143142380Y-74166666D01*
%TO.C,J11*%
X139602380Y-55690476D02*
X140316666Y-55690476D01*
X140459523Y-55642857D01*
X140554761Y-55547619D01*
X140602380Y-55404761D01*
X140602380Y-55309523D01*
X140602380Y-56690476D02*
X140602380Y-56119047D01*
X140602380Y-56404761D02*
X139602380Y-56404761D01*
X139745238Y-56309523D01*
X139840476Y-56214285D01*
X139888095Y-56119047D01*
X140602380Y-57642857D02*
X140602380Y-57071428D01*
X140602380Y-57357142D02*
X139602380Y-57357142D01*
X139745238Y-57261904D01*
X139840476Y-57166666D01*
X139888095Y-57071428D01*
%TO.C,J7*%
X112142380Y-73166666D02*
X112856666Y-73166666D01*
X112999523Y-73119047D01*
X113094761Y-73023809D01*
X113142380Y-72880952D01*
X113142380Y-72785714D01*
X112142380Y-73547619D02*
X112142380Y-74214285D01*
X113142380Y-73785714D01*
%TO.C,J8*%
X123332380Y-73166666D02*
X124046666Y-73166666D01*
X124189523Y-73119047D01*
X124284761Y-73023809D01*
X124332380Y-72880952D01*
X124332380Y-72785714D01*
X123760952Y-73785714D02*
X123713333Y-73690476D01*
X123665714Y-73642857D01*
X123570476Y-73595238D01*
X123522857Y-73595238D01*
X123427619Y-73642857D01*
X123380000Y-73690476D01*
X123332380Y-73785714D01*
X123332380Y-73976190D01*
X123380000Y-74071428D01*
X123427619Y-74119047D01*
X123522857Y-74166666D01*
X123570476Y-74166666D01*
X123665714Y-74119047D01*
X123713333Y-74071428D01*
X123760952Y-73976190D01*
X123760952Y-73785714D01*
X123808571Y-73690476D01*
X123856190Y-73642857D01*
X123951428Y-73595238D01*
X124141904Y-73595238D01*
X124237142Y-73642857D01*
X124284761Y-73690476D01*
X124332380Y-73785714D01*
X124332380Y-73976190D01*
X124284761Y-74071428D01*
X124237142Y-74119047D01*
X124141904Y-74166666D01*
X123951428Y-74166666D01*
X123856190Y-74119047D01*
X123808571Y-74071428D01*
X123760952Y-73976190D01*
%TO.C,J1*%
X157142380Y-56166666D02*
X157856666Y-56166666D01*
X157999523Y-56119047D01*
X158094761Y-56023809D01*
X158142380Y-55880952D01*
X158142380Y-55785714D01*
X158142380Y-57166666D02*
X158142380Y-56595238D01*
X158142380Y-56880952D02*
X157142380Y-56880952D01*
X157285238Y-56785714D01*
X157380476Y-56690476D01*
X157428095Y-56595238D01*
%TO.C,J6*%
X169602380Y-56166666D02*
X170316666Y-56166666D01*
X170459523Y-56119047D01*
X170554761Y-56023809D01*
X170602380Y-55880952D01*
X170602380Y-55785714D01*
X169602380Y-57071428D02*
X169602380Y-56880952D01*
X169650000Y-56785714D01*
X169697619Y-56738095D01*
X169840476Y-56642857D01*
X170030952Y-56595238D01*
X170411904Y-56595238D01*
X170507142Y-56642857D01*
X170554761Y-56690476D01*
X170602380Y-56785714D01*
X170602380Y-56976190D01*
X170554761Y-57071428D01*
X170507142Y-57119047D01*
X170411904Y-57166666D01*
X170173809Y-57166666D01*
X170078571Y-57119047D01*
X170030952Y-57071428D01*
X169983333Y-56976190D01*
X169983333Y-56785714D01*
X170030952Y-56690476D01*
X170078571Y-56642857D01*
X170173809Y-56595238D01*
%TO.C,J4*%
X137762380Y-56166666D02*
X138476666Y-56166666D01*
X138619523Y-56119047D01*
X138714761Y-56023809D01*
X138762380Y-55880952D01*
X138762380Y-55785714D01*
X138095714Y-57071428D02*
X138762380Y-57071428D01*
X137714761Y-56833333D02*
X138429047Y-56595238D01*
X138429047Y-57214285D01*
%TO.C,J3*%
X109602380Y-56166666D02*
X110316666Y-56166666D01*
X110459523Y-56119047D01*
X110554761Y-56023809D01*
X110602380Y-55880952D01*
X110602380Y-55785714D01*
X109602380Y-56547619D02*
X109602380Y-57166666D01*
X109983333Y-56833333D01*
X109983333Y-56976190D01*
X110030952Y-57071428D01*
X110078571Y-57119047D01*
X110173809Y-57166666D01*
X110411904Y-57166666D01*
X110507142Y-57119047D01*
X110554761Y-57071428D01*
X110602380Y-56976190D01*
X110602380Y-56690476D01*
X110554761Y-56595238D01*
X110507142Y-56547619D01*
D11*
%TO.C,J10*%
X159130000Y-70900000D02*
X166870000Y-70900000D01*
X166870000Y-70900000D02*
X166870000Y-76100000D01*
X161730000Y-73500000D02*
X161730000Y-76100000D01*
X159130000Y-73500000D02*
X161730000Y-73500000D01*
X159130000Y-76100000D02*
X160460000Y-76100000D01*
X159130000Y-74770000D02*
X159130000Y-76100000D01*
X159130000Y-70900000D02*
X159130000Y-73500000D01*
X161730000Y-76100000D02*
X166870000Y-76100000D01*
%TO.C,J9*%
X174130000Y-70900000D02*
X181870000Y-70900000D01*
X174130000Y-70900000D02*
X174130000Y-73500000D01*
X181870000Y-70900000D02*
X181870000Y-76100000D01*
X174130000Y-74770000D02*
X174130000Y-76100000D01*
X176730000Y-76100000D02*
X181870000Y-76100000D01*
X176730000Y-73500000D02*
X176730000Y-76100000D01*
X174130000Y-76100000D02*
X175460000Y-76100000D01*
X174130000Y-73500000D02*
X176730000Y-73500000D01*
%TO.C,J2*%
X144130000Y-70900000D02*
X151870000Y-70900000D01*
X144130000Y-70900000D02*
X144130000Y-73500000D01*
X151870000Y-70900000D02*
X151870000Y-76100000D01*
X144130000Y-73500000D02*
X146730000Y-73500000D01*
X144130000Y-74770000D02*
X144130000Y-76100000D01*
X146730000Y-76100000D02*
X151870000Y-76100000D01*
X144130000Y-76100000D02*
X145460000Y-76100000D01*
X146730000Y-73500000D02*
X146730000Y-76100000D01*
%TO.C,J11*%
X141590000Y-53900000D02*
X154410000Y-53900000D01*
X154410000Y-53900000D02*
X154410000Y-59100000D01*
X144190000Y-59100000D02*
X154410000Y-59100000D01*
X144190000Y-56500000D02*
X144190000Y-59100000D01*
X141590000Y-53900000D02*
X141590000Y-56500000D01*
X141590000Y-59100000D02*
X142920000Y-59100000D01*
X141590000Y-57770000D02*
X141590000Y-59100000D01*
X141590000Y-56500000D02*
X144190000Y-56500000D01*
%TO.C,J7*%
X114130000Y-76100000D02*
X115460000Y-76100000D01*
X116730000Y-76100000D02*
X121870000Y-76100000D01*
X114130000Y-70900000D02*
X121870000Y-70900000D01*
X121870000Y-70900000D02*
X121870000Y-76100000D01*
X114130000Y-74770000D02*
X114130000Y-76100000D01*
X114130000Y-70900000D02*
X114130000Y-73500000D01*
X116730000Y-73500000D02*
X116730000Y-76100000D01*
X114130000Y-73500000D02*
X116730000Y-73500000D01*
%TO.C,J8*%
X125320000Y-70900000D02*
X140680000Y-70900000D01*
X127920000Y-73500000D02*
X127920000Y-76100000D01*
X125320000Y-76100000D02*
X126650000Y-76100000D01*
X125320000Y-74770000D02*
X125320000Y-76100000D01*
X140680000Y-70900000D02*
X140680000Y-76100000D01*
X127920000Y-76100000D02*
X140680000Y-76100000D01*
X125320000Y-70900000D02*
X125320000Y-73500000D01*
X125320000Y-73500000D02*
X127920000Y-73500000D01*
%TO.C,J1*%
X159130000Y-53900000D02*
X159130000Y-56500000D01*
X159130000Y-57770000D02*
X159130000Y-59100000D01*
X166870000Y-53900000D02*
X166870000Y-59100000D01*
X159130000Y-59100000D02*
X160460000Y-59100000D01*
X159130000Y-53900000D02*
X166870000Y-53900000D01*
X159130000Y-56500000D02*
X161730000Y-56500000D01*
X161730000Y-56500000D02*
X161730000Y-59100000D01*
X161730000Y-59100000D02*
X166870000Y-59100000D01*
%TO.C,J6*%
X174190000Y-56500000D02*
X174190000Y-59100000D01*
X171590000Y-53900000D02*
X184410000Y-53900000D01*
X171590000Y-57770000D02*
X171590000Y-59100000D01*
X171590000Y-59100000D02*
X172920000Y-59100000D01*
X174190000Y-59100000D02*
X184410000Y-59100000D01*
X171590000Y-56500000D02*
X174190000Y-56500000D01*
X171590000Y-53900000D02*
X171590000Y-56500000D01*
X184410000Y-53900000D02*
X184410000Y-59100000D01*
%TO.C,J4*%
X136870000Y-59100000D02*
X136870000Y-56500000D01*
X136870000Y-56500000D02*
X134270000Y-56500000D01*
X134270000Y-53900000D02*
X129130000Y-53900000D01*
X134270000Y-56500000D02*
X134270000Y-53900000D01*
X136870000Y-59100000D02*
X129130000Y-59100000D01*
X136870000Y-53900000D02*
X135540000Y-53900000D01*
X129130000Y-59100000D02*
X129130000Y-53900000D01*
X136870000Y-55230000D02*
X136870000Y-53900000D01*
%TO.C,J3*%
X124410000Y-53900000D02*
X124410000Y-59100000D01*
X111590000Y-53900000D02*
X124410000Y-53900000D01*
X114190000Y-56500000D02*
X114190000Y-59100000D01*
X111590000Y-57770000D02*
X111590000Y-59100000D01*
X111590000Y-59100000D02*
X112920000Y-59100000D01*
X111590000Y-53900000D02*
X111590000Y-56500000D01*
X114190000Y-59100000D02*
X124410000Y-59100000D01*
X111590000Y-56500000D02*
X114190000Y-56500000D01*
%TD*%
M02*
