%TF.GenerationSoftware,KiCad,Pcbnew,(6.0.0)*%
%TF.CreationDate,2022-06-06T22:52:27+03:00*%
%TF.ProjectId,link,6c696e6b-2e6b-4696-9361-645f70636258,rev?*%
%TF.SameCoordinates,Original*%
%TF.FileFunction,Soldermask,Bot*%
%TF.FilePolarity,Negative*%
%FSLAX46Y46*%
G04 Gerber Fmt 4.6, Leading zero omitted, Abs format (unit mm)*
G04 Created by KiCad (PCBNEW (6.0.0)) date 2022-06-06 22:52:27*
%MOMM*%
%LPD*%
G01*
G04 APERTURE LIST*
%ADD10R,1.700000X1.700000*%
%ADD11O,1.700000X1.700000*%
%ADD12R,1.800000X1.800000*%
%ADD13C,1.800000*%
%ADD14C,2.200000*%
%ADD15C,1.700000*%
%ADD16C,1.200000*%
G04 APERTURE END LIST*
D10*
%TO.C,J16*%
X142500000Y-79000000D03*
D11*
X145040000Y-79000000D03*
%TD*%
D10*
%TO.C,J15*%
X135000000Y-79000000D03*
D11*
X132460000Y-79000000D03*
X129920000Y-79000000D03*
X127380000Y-79000000D03*
%TD*%
D12*
%TO.C,D2*%
X105500000Y-64000000D03*
D13*
X105500000Y-61460000D03*
%TD*%
D10*
%TO.C,J14*%
X163275000Y-79000000D03*
D11*
X160735000Y-79000000D03*
%TD*%
D12*
%TO.C,D1*%
X105500000Y-53725000D03*
D13*
X105500000Y-56265000D03*
%TD*%
D14*
%TO.C,SW1*%
X188500000Y-71750000D03*
X188500000Y-78750000D03*
D15*
X191000000Y-73000000D03*
X191000000Y-77500000D03*
%TD*%
D10*
%TO.C,J5*%
X187230000Y-67540000D03*
D11*
X189770000Y-67540000D03*
X187230000Y-65000000D03*
X189770000Y-65000000D03*
X187230000Y-62460000D03*
X189770000Y-62460000D03*
%TD*%
D10*
%TO.C,J12*%
X121300000Y-79000000D03*
D11*
X118760000Y-79000000D03*
X116220000Y-79000000D03*
X113680000Y-79000000D03*
%TD*%
D10*
%TO.C,J13*%
X178275000Y-79000000D03*
D11*
X175735000Y-79000000D03*
%TD*%
D16*
%TO.C,S1*%
X104500000Y-75500000D03*
X104500000Y-72500000D03*
%TD*%
D10*
%TO.C,J10*%
X160460000Y-74770000D03*
D11*
X160460000Y-72230000D03*
X163000000Y-74770000D03*
X163000000Y-72230000D03*
X165540000Y-74770000D03*
X165540000Y-72230000D03*
%TD*%
D10*
%TO.C,J9*%
X175460000Y-74770000D03*
D11*
X175460000Y-72230000D03*
X178000000Y-74770000D03*
X178000000Y-72230000D03*
X180540000Y-74770000D03*
X180540000Y-72230000D03*
%TD*%
D10*
%TO.C,J2*%
X145460000Y-74770000D03*
D11*
X145460000Y-72230000D03*
X148000000Y-74770000D03*
X148000000Y-72230000D03*
X150540000Y-74770000D03*
X150540000Y-72230000D03*
%TD*%
D10*
%TO.C,J11*%
X142920000Y-57770000D03*
D11*
X142920000Y-55230000D03*
X145460000Y-57770000D03*
X145460000Y-55230000D03*
X148000000Y-57770000D03*
X148000000Y-55230000D03*
X150540000Y-57770000D03*
X150540000Y-55230000D03*
X153080000Y-57770000D03*
X153080000Y-55230000D03*
%TD*%
D10*
%TO.C,J7*%
X115460000Y-74770000D03*
D11*
X115460000Y-72230000D03*
X118000000Y-74770000D03*
X118000000Y-72230000D03*
X120540000Y-74770000D03*
X120540000Y-72230000D03*
%TD*%
D10*
%TO.C,J8*%
X126650000Y-74770000D03*
D11*
X126650000Y-72230000D03*
X129190000Y-74770000D03*
X129190000Y-72230000D03*
X131730000Y-74770000D03*
X131730000Y-72230000D03*
X134270000Y-74770000D03*
X134270000Y-72230000D03*
X136810000Y-74770000D03*
X136810000Y-72230000D03*
X139350000Y-74770000D03*
X139350000Y-72230000D03*
%TD*%
D10*
%TO.C,J1*%
X160460000Y-57770000D03*
D11*
X160460000Y-55230000D03*
X163000000Y-57770000D03*
X163000000Y-55230000D03*
X165540000Y-57770000D03*
X165540000Y-55230000D03*
%TD*%
D10*
%TO.C,J6*%
X172920000Y-57770000D03*
D11*
X172920000Y-55230000D03*
X175460000Y-57770000D03*
X175460000Y-55230000D03*
X178000000Y-57770000D03*
X178000000Y-55230000D03*
X180540000Y-57770000D03*
X180540000Y-55230000D03*
X183080000Y-57770000D03*
X183080000Y-55230000D03*
%TD*%
D10*
%TO.C,J4*%
X135540000Y-55230000D03*
D11*
X135540000Y-57770000D03*
X133000000Y-55230000D03*
X133000000Y-57770000D03*
X130460000Y-55230000D03*
X130460000Y-57770000D03*
%TD*%
D10*
%TO.C,J3*%
X112920000Y-57770000D03*
D11*
X112920000Y-55230000D03*
X115460000Y-57770000D03*
X115460000Y-55230000D03*
X118000000Y-57770000D03*
X118000000Y-55230000D03*
X120540000Y-57770000D03*
X120540000Y-55230000D03*
X123080000Y-57770000D03*
X123080000Y-55230000D03*
%TD*%
M02*
