M48
; DRILL file {KiCad (6.0.0)} date Mon Jun  6 22:52:29 2022
; FORMAT={-:-/ absolute / inch / decimal}
; #@! TF.CreationDate,2022-06-06T22:52:29+03:00
; #@! TF.GenerationSoftware,Kicad,Pcbnew,(6.0.0)
; #@! TF.FileFunction,Plated,1,2,PTH
FMAT,2
INCH
; #@! TA.AperFunction,Plated,PTH,ViaDrill
T1C0.0157
; #@! TA.AperFunction,Plated,PTH,ComponentDrill
T2C0.0354
; #@! TA.AperFunction,Plated,PTH,ComponentDrill
T3C0.0394
; #@! TA.AperFunction,Plated,PTH,ComponentDrill
T4C0.0512
%
G90
G05
T1
X4.1339Y-2.6575
X4.2323Y-2.6575
X4.3307Y-2.4606
X4.3307Y-2.5591
X4.3307Y-2.6575
X4.3307Y-2.9528
X4.3307Y-3.0512
X4.3307Y-3.1496
X4.9213Y-2.1654
X4.9213Y-2.2638
X5.0197Y-2.1654
X5.0197Y-2.2638
X5.0197Y-2.5591
X5.1181Y-2.4606
X5.1181Y-2.5591
X5.1181Y-2.6575
X5.2165Y-2.3622
X5.2165Y-2.4606
X5.2165Y-2.5591
X5.2165Y-2.6575
X5.2165Y-2.7559
X5.315Y-2.3622
X5.315Y-2.4606
X5.315Y-2.5591
X5.315Y-2.6575
X5.315Y-2.7559
X5.5118Y-2.6575
X5.5118Y-2.7559
X5.7087Y-2.4606
X5.9055Y-2.6575
X6.0039Y-2.3622
X6.0039Y-2.4606
X6.1013Y-2.7546
X6.1013Y-3.1483
X6.1024Y-2.1654
X6.1024Y-2.2638
X6.1024Y-2.3622
X6.1024Y-2.4606
X6.1024Y-2.5591
X6.1024Y-2.6575
X6.1024Y-2.8543
X6.1024Y-2.9528
X6.1024Y-3.0512
X6.1997Y-2.7546
X6.1997Y-3.1483
X6.2008Y-2.2638
X6.2008Y-2.3622
X6.2008Y-2.4606
X6.2008Y-2.5591
X6.2008Y-2.6575
X6.2008Y-2.8543
X6.2008Y-2.9528
X6.2008Y-3.0512
X6.2981Y-2.7546
X6.2992Y-2.3622
X6.2992Y-2.4606
X6.2992Y-2.5591
X6.2992Y-2.6575
X6.3966Y-2.7546
X6.3976Y-2.3622
X6.3976Y-2.4606
X6.3976Y-2.5591
X6.3976Y-2.6575
X6.495Y-2.7546
X6.4961Y-2.3622
X6.4961Y-2.4606
X6.4961Y-2.5591
X6.4961Y-2.6575
X6.5934Y-2.7546
X6.5934Y-3.1483
X6.5945Y-2.1654
X6.5945Y-2.2638
X6.5945Y-2.3622
X6.5945Y-2.4606
X6.5945Y-2.5591
X6.5945Y-2.6575
X6.5945Y-2.8543
X6.5945Y-2.9528
X6.5945Y-3.0512
X6.6918Y-2.7546
X6.6918Y-3.1483
X6.6929Y-2.1654
X6.6929Y-2.2638
X6.6929Y-2.3622
X6.6929Y-2.4606
X6.6929Y-2.5591
X6.6929Y-2.6575
X6.6929Y-2.8543
X6.6929Y-2.9528
X6.6929Y-3.0512
X6.7903Y-2.7546
X6.7903Y-3.1483
X6.7913Y-2.3622
X6.7913Y-2.4606
X6.7913Y-2.5591
X6.7913Y-2.6575
X6.7913Y-2.8543
X6.7913Y-2.9528
X6.7913Y-3.0512
X6.8898Y-2.3622
X6.8898Y-2.4606
X6.8898Y-2.5591
X6.8898Y-2.6575
X6.8898Y-2.7559
X6.9882Y-2.3622
X6.9882Y-2.4606
X6.9882Y-2.5591
X6.9882Y-2.6575
X6.9882Y-2.7559
X7.0866Y-2.3622
X7.0866Y-2.4606
X7.0866Y-2.5591
X7.0866Y-2.6575
X7.0866Y-2.7559
X7.184Y-3.1483
X7.185Y-2.3622
X7.185Y-2.4606
X7.185Y-2.5591
X7.185Y-2.6575
X7.185Y-2.7559
X7.185Y-2.8543
X7.185Y-2.9528
X7.185Y-3.0512
X7.2813Y-3.148
X7.2824Y-2.854
X7.2824Y-2.9525
X7.2824Y-3.0509
X7.2835Y-2.3622
X7.2835Y-2.4606
X7.2835Y-2.5591
X7.2835Y-2.6575
X7.2835Y-2.7559
T2
X4.1535Y-2.1152
X4.1535Y-2.2152
X4.1535Y-2.4197
X4.1535Y-2.5197
T3
X4.4457Y-2.1744
X4.4457Y-2.2744
X4.4756Y-3.1102
X4.5457Y-2.1744
X4.5457Y-2.2744
X4.5457Y-2.8437
X4.5457Y-2.9437
X4.5756Y-3.1102
X4.6457Y-2.1744
X4.6457Y-2.2744
X4.6457Y-2.8437
X4.6457Y-2.9437
X4.6756Y-3.1102
X4.7457Y-2.1744
X4.7457Y-2.2744
X4.7457Y-2.8437
X4.7457Y-2.9437
X4.7756Y-3.1102
X4.8457Y-2.1744
X4.8457Y-2.2744
X4.9862Y-2.8437
X4.9862Y-2.9437
X5.015Y-3.1102
X5.0862Y-2.8437
X5.0862Y-2.9437
X5.115Y-3.1102
X5.1362Y-2.1744
X5.1362Y-2.2744
X5.1862Y-2.8437
X5.1862Y-2.9437
X5.215Y-3.1102
X5.2362Y-2.1744
X5.2362Y-2.2744
X5.2862Y-2.8437
X5.2862Y-2.9437
X5.315Y-3.1102
X5.3362Y-2.1744
X5.3362Y-2.2744
X5.3862Y-2.8437
X5.3862Y-2.9437
X5.4862Y-2.8437
X5.4862Y-2.9437
X5.6102Y-3.1102
X5.6268Y-2.1744
X5.6268Y-2.2744
X5.7102Y-3.1102
X5.7268Y-2.1744
X5.7268Y-2.2744
X5.7268Y-2.8437
X5.7268Y-2.9437
X5.8268Y-2.1744
X5.8268Y-2.2744
X5.8268Y-2.8437
X5.8268Y-2.9437
X5.9268Y-2.1744
X5.9268Y-2.2744
X5.9268Y-2.8437
X5.9268Y-2.9437
X6.0268Y-2.1744
X6.0268Y-2.2744
X6.3173Y-2.1744
X6.3173Y-2.2744
X6.3173Y-2.8437
X6.3173Y-2.9437
X6.3281Y-3.1102
X6.4173Y-2.1744
X6.4173Y-2.2744
X6.4173Y-2.8437
X6.4173Y-2.9437
X6.4281Y-3.1102
X6.5173Y-2.1744
X6.5173Y-2.2744
X6.5173Y-2.8437
X6.5173Y-2.9437
X6.8079Y-2.1744
X6.8079Y-2.2744
X6.9079Y-2.1744
X6.9079Y-2.2744
X6.9079Y-2.8437
X6.9079Y-2.9437
X6.9187Y-3.1102
X7.0079Y-2.1744
X7.0079Y-2.2744
X7.0079Y-2.8437
X7.0079Y-2.9437
X7.0187Y-3.1102
X7.1079Y-2.1744
X7.1079Y-2.2744
X7.1079Y-2.8437
X7.1079Y-2.9437
X7.2079Y-2.1744
X7.2079Y-2.2744
X7.3713Y-2.4591
X7.3713Y-2.5591
X7.3713Y-2.6591
X7.4713Y-2.4591
X7.4713Y-2.5591
X7.4713Y-2.6591
X7.5197Y-2.874
X7.5197Y-3.0512
T4
X7.4213Y-2.8248
X7.4213Y-3.1004
T0
M30
