M48
; DRILL file {KiCad (6.0.0)} date Mon Jun  6 22:40:41 2022
; FORMAT={-:-/ absolute / inch / decimal}
; #@! TF.CreationDate,2022-06-06T22:40:41+03:00
; #@! TF.GenerationSoftware,Kicad,Pcbnew,(6.0.0)
; #@! TF.FileFunction,Plated,1,4,PTH
FMAT,2
INCH
; #@! TA.AperFunction,Plated,PTH,ViaDrill
T1C0.0118
; #@! TA.AperFunction,Plated,PTH,ViaDrill
T2C0.0157
; #@! TA.AperFunction,Plated,PTH,ComponentDrill
T3C0.0354
; #@! TA.AperFunction,Plated,PTH,ComponentDrill
T4C0.0394
; #@! TA.AperFunction,Plated,PTH,ComponentDrill
T5C0.1457
%
G90
G05
T1
X4.9606Y-3.7106
X5.0197Y-3.8189
X5.0984Y-3.7697
X5.1575Y-3.75
T2
X4.872Y-4.9705
X4.9252Y-3.0118
X5.0689Y-4.9705
X5.2047Y-4.8976
X5.2598Y-4.8976
X5.3622Y-4.8976
X5.4567Y-4.8976
X5.5591Y-4.8976
X5.6614Y-4.8976
X5.7165Y-4.8976
X5.8873Y-4.8268
X5.9921Y-4.6142
X6.0236Y-3.9469
X6.0236Y-4.0256
X6.0236Y-4.1831
X6.0276Y-4.6142
X6.063Y-4.6142
X6.1398Y-4.6142
X6.1614Y-4.4094
X6.1752Y-4.6142
X6.2106Y-4.6142
X6.3228Y-4.8268
X6.3465Y-4.5591
X6.4961Y-4.498
X6.5118Y-4.5591
X6.5433Y-4.8425
X6.6437Y-4.0059
X6.6437Y-4.065
X6.6437Y-4.124
X6.6929Y-4.8425
X6.748Y-4.2677
X6.7717Y-3.9469
X6.7717Y-4.0256
X6.7717Y-4.1831
X6.8898Y-4.4094
X7.0709Y-4.5591
X7.1319Y-4.8425
X7.2244Y-4.498
X7.2362Y-4.5591
X7.2835Y-4.8425
X7.3524Y-4.0059
X7.3524Y-4.065
X7.3524Y-4.124
X7.4882Y-4.2815
T3
X6.4961Y-3.5925
X6.4961Y-3.7894
X6.6929Y-3.6909
X7.3228Y-3.5925
X7.3228Y-3.7894
X7.5197Y-3.6909
T4
X6.5748Y-2.9738
X6.5748Y-3.0738
X6.5748Y-3.248
X6.5748Y-3.348
X7.3917Y-2.9724
X7.3917Y-3.0724
X7.3917Y-3.248
X7.3917Y-3.348
T5
X4.5669Y-3.1102
X4.5669Y-4.8031
X7.6378Y-3.1102
X7.6378Y-4.8031
T0
M30
