%TF.GenerationSoftware,KiCad,Pcbnew,(6.0.0)*%
%TF.CreationDate,2022-06-06T22:40:39+03:00*%
%TF.ProjectId,analog_board,616e616c-6f67-45f6-926f-6172642e6b69,rev?*%
%TF.SameCoordinates,Original*%
%TF.FileFunction,Copper,L1,Top*%
%TF.FilePolarity,Positive*%
%FSLAX46Y46*%
G04 Gerber Fmt 4.6, Leading zero omitted, Abs format (unit mm)*
G04 Created by KiCad (PCBNEW (6.0.0)) date 2022-06-06 22:40:39*
%MOMM*%
%LPD*%
G01*
G04 APERTURE LIST*
G04 Aperture macros list*
%AMRoundRect*
0 Rectangle with rounded corners*
0 $1 Rounding radius*
0 $2 $3 $4 $5 $6 $7 $8 $9 X,Y pos of 4 corners*
0 Add a 4 corners polygon primitive as box body*
4,1,4,$2,$3,$4,$5,$6,$7,$8,$9,$2,$3,0*
0 Add four circle primitives for the rounded corners*
1,1,$1+$1,$2,$3*
1,1,$1+$1,$4,$5*
1,1,$1+$1,$6,$7*
1,1,$1+$1,$8,$9*
0 Add four rect primitives between the rounded corners*
20,1,$1+$1,$2,$3,$4,$5,0*
20,1,$1+$1,$4,$5,$6,$7,0*
20,1,$1+$1,$6,$7,$8,$9,0*
20,1,$1+$1,$8,$9,$2,$3,0*%
G04 Aperture macros list end*
%TA.AperFunction,SMDPad,CuDef*%
%ADD10RoundRect,0.237500X-0.237500X0.250000X-0.237500X-0.250000X0.237500X-0.250000X0.237500X0.250000X0*%
%TD*%
%TA.AperFunction,SMDPad,CuDef*%
%ADD11RoundRect,0.237500X-0.250000X-0.237500X0.250000X-0.237500X0.250000X0.237500X-0.250000X0.237500X0*%
%TD*%
%TA.AperFunction,SMDPad,CuDef*%
%ADD12RoundRect,0.237500X0.250000X0.237500X-0.250000X0.237500X-0.250000X-0.237500X0.250000X-0.237500X0*%
%TD*%
%TA.AperFunction,SMDPad,CuDef*%
%ADD13R,1.000000X2.500000*%
%TD*%
%TA.AperFunction,SMDPad,CuDef*%
%ADD14RoundRect,0.150000X-0.825000X-0.150000X0.825000X-0.150000X0.825000X0.150000X-0.825000X0.150000X0*%
%TD*%
%TA.AperFunction,SMDPad,CuDef*%
%ADD15RoundRect,0.237500X0.300000X0.237500X-0.300000X0.237500X-0.300000X-0.237500X0.300000X-0.237500X0*%
%TD*%
%TA.AperFunction,SMDPad,CuDef*%
%ADD16R,0.900000X0.800000*%
%TD*%
%TA.AperFunction,ComponentPad*%
%ADD17C,7.400000*%
%TD*%
%TA.AperFunction,SMDPad,CuDef*%
%ADD18RoundRect,0.250000X-1.950000X-1.000000X1.950000X-1.000000X1.950000X1.000000X-1.950000X1.000000X0*%
%TD*%
%TA.AperFunction,SMDPad,CuDef*%
%ADD19RoundRect,0.237500X0.237500X-0.250000X0.237500X0.250000X-0.237500X0.250000X-0.237500X-0.250000X0*%
%TD*%
%TA.AperFunction,SMDPad,CuDef*%
%ADD20RoundRect,0.237500X-0.300000X-0.237500X0.300000X-0.237500X0.300000X0.237500X-0.300000X0.237500X0*%
%TD*%
%TA.AperFunction,SMDPad,CuDef*%
%ADD21RoundRect,0.237500X0.237500X-0.300000X0.237500X0.300000X-0.237500X0.300000X-0.237500X-0.300000X0*%
%TD*%
%TA.AperFunction,SMDPad,CuDef*%
%ADD22R,2.800000X2.200000*%
%TD*%
%TA.AperFunction,SMDPad,CuDef*%
%ADD23R,2.600000X2.800000*%
%TD*%
%TA.AperFunction,SMDPad,CuDef*%
%ADD24RoundRect,0.150000X-0.587500X-0.150000X0.587500X-0.150000X0.587500X0.150000X-0.587500X0.150000X0*%
%TD*%
%TA.AperFunction,SMDPad,CuDef*%
%ADD25RoundRect,0.237500X-0.237500X0.300000X-0.237500X-0.300000X0.237500X-0.300000X0.237500X0.300000X0*%
%TD*%
%TA.AperFunction,SMDPad,CuDef*%
%ADD26RoundRect,0.150000X0.587500X0.150000X-0.587500X0.150000X-0.587500X-0.150000X0.587500X-0.150000X0*%
%TD*%
%TA.AperFunction,SMDPad,CuDef*%
%ADD27RoundRect,0.250000X0.450000X-0.350000X0.450000X0.350000X-0.450000X0.350000X-0.450000X-0.350000X0*%
%TD*%
%TA.AperFunction,SMDPad,CuDef*%
%ADD28RoundRect,0.250000X-0.450000X0.350000X-0.450000X-0.350000X0.450000X-0.350000X0.450000X0.350000X0*%
%TD*%
%TA.AperFunction,ComponentPad*%
%ADD29C,1.620000*%
%TD*%
%TA.AperFunction,ComponentPad*%
%ADD30R,1.700000X1.700000*%
%TD*%
%TA.AperFunction,ComponentPad*%
%ADD31O,1.700000X1.700000*%
%TD*%
%TA.AperFunction,ViaPad*%
%ADD32C,0.800000*%
%TD*%
%TA.AperFunction,ViaPad*%
%ADD33C,0.600000*%
%TD*%
%TA.AperFunction,Conductor*%
%ADD34C,1.000000*%
%TD*%
%TA.AperFunction,Conductor*%
%ADD35C,0.200000*%
%TD*%
%TA.AperFunction,Conductor*%
%ADD36C,0.250000*%
%TD*%
G04 APERTURE END LIST*
D10*
%TO.P,R37,1*%
%TO.N,Net-(R35-Pad1)*%
X132150000Y-102612980D03*
%TO.P,R37,2*%
%TO.N,Net-(C23-Pad2)*%
X132150000Y-104437980D03*
%TD*%
%TO.P,R38,1*%
%TO.N,Net-(R35-Pad1)*%
X129150000Y-102612980D03*
%TO.P,R38,2*%
%TO.N,Net-(C24-Pad2)*%
X129150000Y-104437980D03*
%TD*%
%TO.P,R39,1*%
%TO.N,Net-(R35-Pad1)*%
X124650000Y-102612980D03*
%TO.P,R39,2*%
%TO.N,Net-(C25-Pad2)*%
X124650000Y-104437980D03*
%TD*%
%TO.P,R40,1*%
%TO.N,Net-(R35-Pad1)*%
X123150000Y-102612980D03*
%TO.P,R40,2*%
%TO.N,Net-(C26-Pad2)*%
X123150000Y-104437980D03*
%TD*%
D11*
%TO.P,R47,1*%
%TO.N,/MIXER_L*%
X123337500Y-91500000D03*
%TO.P,R47,2*%
%TO.N,Net-(R47-Pad2)*%
X125162500Y-91500000D03*
%TD*%
D12*
%TO.P,R48,1*%
%TO.N,/MIXER_R*%
X136512500Y-92900000D03*
%TO.P,R48,2*%
%TO.N,Net-(R48-Pad2)*%
X134687500Y-92900000D03*
%TD*%
D10*
%TO.P,R41,1*%
%TO.N,Net-(R41-Pad1)*%
X121650000Y-102612980D03*
%TO.P,R41,2*%
%TO.N,Net-(C27-Pad2)*%
X121650000Y-104437980D03*
%TD*%
%TO.P,R42,1*%
%TO.N,Net-(R41-Pad1)*%
X126150000Y-102612980D03*
%TO.P,R42,2*%
%TO.N,Net-(C28-Pad2)*%
X126150000Y-104437980D03*
%TD*%
%TO.P,R43,1*%
%TO.N,Net-(R41-Pad1)*%
X127650000Y-102612980D03*
%TO.P,R43,2*%
%TO.N,Net-(C29-Pad2)*%
X127650000Y-104437980D03*
%TD*%
%TO.P,R44,1*%
%TO.N,Net-(R41-Pad1)*%
X130650000Y-102612980D03*
%TO.P,R44,2*%
%TO.N,Net-(C30-Pad2)*%
X130650000Y-104437980D03*
%TD*%
D13*
%TO.P,RV2,1,1*%
%TO.N,unconnected-(RV2-Pad1)*%
X187540000Y-126475000D03*
%TO.P,RV2,2,2*%
%TO.N,Net-(R17-Pad2)*%
X185000000Y-126475000D03*
%TO.P,RV2,3,3*%
%TO.N,Net-(R16-Pad1)*%
X182460000Y-126475000D03*
%TD*%
D14*
%TO.P,U3,1*%
%TO.N,Net-(R47-Pad2)*%
X127525000Y-91595000D03*
%TO.P,U3,2,-*%
%TO.N,Net-(R35-Pad1)*%
X127525000Y-92865000D03*
%TO.P,U3,3,+*%
%TO.N,GND*%
X127525000Y-94135000D03*
%TO.P,U3,4,V-*%
%TO.N,-VDC*%
X127525000Y-95405000D03*
%TO.P,U3,5,+*%
%TO.N,GND*%
X132475000Y-95405000D03*
%TO.P,U3,6,-*%
%TO.N,Net-(R41-Pad1)*%
X132475000Y-94135000D03*
%TO.P,U3,7*%
%TO.N,Net-(R48-Pad2)*%
X132475000Y-92865000D03*
%TO.P,U3,8,V+*%
%TO.N,+VDC*%
X132475000Y-91595000D03*
%TD*%
D15*
%TO.P,C33,1*%
%TO.N,+VDC*%
X130612500Y-97250000D03*
%TO.P,C33,2*%
%TO.N,-VDC*%
X128887500Y-97250000D03*
%TD*%
D16*
%TO.P,Q1,1,B*%
%TO.N,/Amp1/IN-*%
X182250000Y-102200000D03*
%TO.P,Q1,2,E*%
%TO.N,Net-(Q1-Pad2)*%
X182250000Y-100300000D03*
%TO.P,Q1,3,C*%
%TO.N,Net-(Q1-Pad3)*%
X180250000Y-101250000D03*
%TD*%
%TO.P,Q4,1,B*%
%TO.N,/Amp1/IN+*%
X176500000Y-100300000D03*
%TO.P,Q4,2,E*%
%TO.N,Net-(Q3-Pad1)*%
X176500000Y-102200000D03*
%TO.P,Q4,3,C*%
%TO.N,Net-(C7-Pad1)*%
X178500000Y-101250000D03*
%TD*%
D11*
%TO.P,R7,1*%
%TO.N,+VDC*%
X173087500Y-102250000D03*
%TO.P,R7,2*%
%TO.N,Net-(C7-Pad1)*%
X174912500Y-102250000D03*
%TD*%
D12*
%TO.P,R8,1*%
%TO.N,Net-(Q3-Pad1)*%
X174912500Y-104250000D03*
%TO.P,R8,2*%
%TO.N,/Amp1/DIFF+*%
X173087500Y-104250000D03*
%TD*%
%TO.P,R10,1*%
%TO.N,/Amp1/IN+*%
X174912500Y-100250000D03*
%TO.P,R10,2*%
%TO.N,GND*%
X173087500Y-100250000D03*
%TD*%
%TO.P,R9,1*%
%TO.N,/Amp1/DIFF+*%
X174912500Y-106250000D03*
%TO.P,R9,2*%
%TO.N,-VDC*%
X173087500Y-106250000D03*
%TD*%
%TO.P,R2,1*%
%TO.N,+VDC*%
X185662500Y-101750000D03*
%TO.P,R2,2*%
%TO.N,Net-(Q1-Pad3)*%
X183837500Y-101750000D03*
%TD*%
D11*
%TO.P,R5,1*%
%TO.N,Net-(Q1-Pad3)*%
X183837500Y-100250000D03*
%TO.P,R5,2*%
%TO.N,Net-(R5-Pad2)*%
X185662500Y-100250000D03*
%TD*%
%TO.P,R1,1*%
%TO.N,/Amp1/IN-*%
X183837500Y-103250000D03*
%TO.P,R1,2*%
%TO.N,GND*%
X185662500Y-103250000D03*
%TD*%
%TO.P,R4,1*%
%TO.N,/Amp1/DIFF-*%
X183837500Y-104750000D03*
%TO.P,R4,2*%
%TO.N,-VDC*%
X185662500Y-104750000D03*
%TD*%
D17*
%TO.P,H1,1,1*%
%TO.N,unconnected-(H1-Pad1)*%
X116000000Y-79000000D03*
%TD*%
%TO.P,H2,1,1*%
%TO.N,unconnected-(H2-Pad1)*%
X194000000Y-122000000D03*
%TD*%
%TO.P,H3,1,1*%
%TO.N,unconnected-(H3-Pad1)*%
X194000000Y-79000000D03*
%TD*%
%TO.P,H4,1,1*%
%TO.N,unconnected-(H4-Pad1)*%
X116000000Y-122000000D03*
%TD*%
D18*
%TO.P,C7,1*%
%TO.N,Net-(C7-Pad1)*%
X174050000Y-94750000D03*
%TO.P,C7,2*%
%TO.N,Net-(C7-Pad2)*%
X181450000Y-94750000D03*
%TD*%
D10*
%TO.P,R14,1*%
%TO.N,Net-(C11-Pad1)*%
X177975000Y-108587500D03*
%TO.P,R14,2*%
%TO.N,Net-(R12-Pad2)*%
X177975000Y-110412500D03*
%TD*%
%TO.P,R6,1*%
%TO.N,Net-(R5-Pad2)*%
X188500000Y-92837500D03*
%TO.P,R6,2*%
%TO.N,Net-(C7-Pad2)*%
X188500000Y-94662500D03*
%TD*%
D12*
%TO.P,R13,1*%
%TO.N,Net-(R11-Pad2)*%
X178137500Y-112000000D03*
%TO.P,R13,2*%
%TO.N,GND*%
X176312500Y-112000000D03*
%TD*%
D11*
%TO.P,R3,1*%
%TO.N,Net-(Q1-Pad2)*%
X183837500Y-106250000D03*
%TO.P,R3,2*%
%TO.N,/Amp1/DIFF-*%
X185662500Y-106250000D03*
%TD*%
%TO.P,R11,1*%
%TO.N,Net-(C8-Pad2)*%
X176312500Y-113750000D03*
%TO.P,R11,2*%
%TO.N,Net-(R11-Pad2)*%
X178137500Y-113750000D03*
%TD*%
D19*
%TO.P,R16,1*%
%TO.N,Net-(R16-Pad1)*%
X187600000Y-112512500D03*
%TO.P,R16,2*%
%TO.N,Net-(C12-Pad1)*%
X187600000Y-110687500D03*
%TD*%
D10*
%TO.P,R12,1*%
%TO.N,Net-(C9-Pad2)*%
X176250000Y-108587500D03*
%TO.P,R12,2*%
%TO.N,Net-(R12-Pad2)*%
X176250000Y-110412500D03*
%TD*%
D15*
%TO.P,C10,1*%
%TO.N,+VDC*%
X182462500Y-115800000D03*
%TO.P,C10,2*%
%TO.N,-VDC*%
X180737500Y-115800000D03*
%TD*%
D20*
%TO.P,C11,1*%
%TO.N,Net-(C11-Pad1)*%
X179862500Y-108750000D03*
%TO.P,C11,2*%
%TO.N,Net-(C11-Pad2)*%
X181587500Y-108750000D03*
%TD*%
D16*
%TO.P,Q2,1,B*%
%TO.N,Net-(Q1-Pad2)*%
X182250000Y-106200000D03*
%TO.P,Q2,2,E*%
%TO.N,/Amp1/DIFF-*%
X182250000Y-104300000D03*
%TO.P,Q2,3,C*%
%TO.N,Net-(Q1-Pad3)*%
X180250000Y-105250000D03*
%TD*%
%TO.P,Q3,1,B*%
%TO.N,Net-(Q3-Pad1)*%
X176500000Y-104300000D03*
%TO.P,Q3,2,E*%
%TO.N,/Amp1/DIFF+*%
X176500000Y-106200000D03*
%TO.P,Q3,3,C*%
%TO.N,Net-(C7-Pad1)*%
X178500000Y-105250000D03*
%TD*%
D20*
%TO.P,C9,1*%
%TO.N,/Amp1/DIFF+*%
X172887500Y-108500000D03*
%TO.P,C9,2*%
%TO.N,Net-(C9-Pad2)*%
X174612500Y-108500000D03*
%TD*%
D15*
%TO.P,C8,1*%
%TO.N,/Amp1/DIFF-*%
X174612500Y-110250000D03*
%TO.P,C8,2*%
%TO.N,Net-(C8-Pad2)*%
X172887500Y-110250000D03*
%TD*%
D14*
%TO.P,U1,1*%
%TO.N,Net-(C11-Pad1)*%
X180250000Y-110345000D03*
%TO.P,U1,2,-*%
%TO.N,Net-(R12-Pad2)*%
X180250000Y-111615000D03*
%TO.P,U1,3,+*%
%TO.N,Net-(R11-Pad2)*%
X180250000Y-112885000D03*
%TO.P,U1,4,V-*%
%TO.N,-VDC*%
X180250000Y-114155000D03*
%TO.P,U1,5,+*%
%TO.N,GND*%
X185200000Y-114155000D03*
%TO.P,U1,6,-*%
%TO.N,Net-(R16-Pad1)*%
X185200000Y-112885000D03*
%TO.P,U1,7*%
%TO.N,Net-(R17-Pad2)*%
X185200000Y-111615000D03*
%TO.P,U1,8,V+*%
%TO.N,+VDC*%
X185200000Y-110345000D03*
%TD*%
D21*
%TO.P,C35,1*%
%TO.N,/IN7_R*%
X139650000Y-107775480D03*
%TO.P,C35,2*%
%TO.N,Net-(C35-Pad2)*%
X139650000Y-106050480D03*
%TD*%
D12*
%TO.P,R32,1*%
%TO.N,Net-(C19-Pad1)*%
X166562500Y-108500000D03*
%TO.P,R32,2*%
%TO.N,Net-(C18-Pad2)*%
X164737500Y-108500000D03*
%TD*%
D13*
%TO.P,RV4,1,1*%
%TO.N,unconnected-(RV4-Pad1)*%
X172540000Y-126475000D03*
%TO.P,RV4,2,2*%
%TO.N,Net-(R34-Pad2)*%
X170000000Y-126475000D03*
%TO.P,RV4,3,3*%
%TO.N,Net-(R33-Pad1)*%
X167460000Y-126475000D03*
%TD*%
D22*
%TO.P,J4,1,SLEEVE*%
%TO.N,GND*%
X125850000Y-74400000D03*
D23*
%TO.P,J4,2,TIP*%
%TO.N,/MIXER_L*%
X125750000Y-83800000D03*
D22*
%TO.P,J4,3,RING*%
%TO.N,/MIXER_R*%
X133250000Y-76400000D03*
%TD*%
D15*
%TO.P,C13,1*%
%TO.N,/IN1_MONO*%
X184162500Y-123000000D03*
%TO.P,C13,2*%
%TO.N,GND*%
X182437500Y-123000000D03*
%TD*%
D12*
%TO.P,R15,1*%
%TO.N,Net-(C12-Pad1)*%
X185312500Y-108750000D03*
%TO.P,R15,2*%
%TO.N,Net-(C11-Pad2)*%
X183487500Y-108750000D03*
%TD*%
D15*
%TO.P,C20,1*%
%TO.N,/IN2_MONO*%
X169162500Y-123000000D03*
%TO.P,C20,2*%
%TO.N,GND*%
X167437500Y-123000000D03*
%TD*%
D10*
%TO.P,R29,1*%
%TO.N,Net-(C16-Pad2)*%
X157750000Y-108587500D03*
%TO.P,R29,2*%
%TO.N,Net-(R29-Pad2)*%
X157750000Y-110412500D03*
%TD*%
D11*
%TO.P,R28,1*%
%TO.N,Net-(C15-Pad2)*%
X157837500Y-113750000D03*
%TO.P,R28,2*%
%TO.N,Net-(R28-Pad2)*%
X159662500Y-113750000D03*
%TD*%
D20*
%TO.P,C18,1*%
%TO.N,Net-(C18-Pad1)*%
X161387500Y-108500000D03*
%TO.P,C18,2*%
%TO.N,Net-(C18-Pad2)*%
X163112500Y-108500000D03*
%TD*%
D13*
%TO.P,RV5,1,1*%
%TO.N,Net-(R35-Pad1)*%
X127540000Y-126475000D03*
%TO.P,RV5,2,2*%
%TO.N,Net-(R47-Pad2)*%
X125000000Y-126475000D03*
%TO.P,RV5,3,3*%
%TO.N,unconnected-(RV5-Pad3)*%
X122460000Y-126475000D03*
%TD*%
D11*
%TO.P,R17,1*%
%TO.N,/IN1_MONO*%
X185837500Y-123000000D03*
%TO.P,R17,2*%
%TO.N,Net-(R17-Pad2)*%
X187662500Y-123000000D03*
%TD*%
D12*
%TO.P,R26,1*%
%TO.N,/Amp2/DIFF+*%
X155912500Y-106250000D03*
%TO.P,R26,2*%
%TO.N,-VDC*%
X154087500Y-106250000D03*
%TD*%
D21*
%TO.P,C25,1*%
%TO.N,/IN2_MONO*%
X124650000Y-107775480D03*
%TO.P,C25,2*%
%TO.N,Net-(C25-Pad2)*%
X124650000Y-106050480D03*
%TD*%
D11*
%TO.P,R21,1*%
%TO.N,/Amp2/DIFF-*%
X165837500Y-104750000D03*
%TO.P,R21,2*%
%TO.N,-VDC*%
X167662500Y-104750000D03*
%TD*%
D14*
%TO.P,U2,1*%
%TO.N,Net-(C18-Pad1)*%
X161775000Y-110345000D03*
%TO.P,U2,2,-*%
%TO.N,Net-(R29-Pad2)*%
X161775000Y-111615000D03*
%TO.P,U2,3,+*%
%TO.N,Net-(R28-Pad2)*%
X161775000Y-112885000D03*
%TO.P,U2,4,V-*%
%TO.N,-VDC*%
X161775000Y-114155000D03*
%TO.P,U2,5,+*%
%TO.N,GND*%
X166725000Y-114155000D03*
%TO.P,U2,6,-*%
%TO.N,Net-(R33-Pad1)*%
X166725000Y-112885000D03*
%TO.P,U2,7*%
%TO.N,Net-(R34-Pad2)*%
X166725000Y-111615000D03*
%TO.P,U2,8,V+*%
%TO.N,+VDC*%
X166725000Y-110345000D03*
%TD*%
D11*
%TO.P,R34,1*%
%TO.N,/IN2_MONO*%
X170837500Y-123000000D03*
%TO.P,R34,2*%
%TO.N,Net-(R34-Pad2)*%
X172662500Y-123000000D03*
%TD*%
D21*
%TO.P,C30,1*%
%TO.N,/IN4_MONO*%
X130650000Y-107775480D03*
%TO.P,C30,2*%
%TO.N,Net-(C30-Pad2)*%
X130650000Y-106050480D03*
%TD*%
D13*
%TO.P,J10,1,Pin_1*%
%TO.N,Net-(C6-Pad1)*%
X157540000Y-126475000D03*
%TO.P,J10,2,Pin_2*%
%TO.N,unconnected-(J10-Pad2)*%
X155000000Y-126475000D03*
%TO.P,J10,3,Pin_3*%
%TO.N,Net-(C2-Pad2)*%
X152460000Y-126475000D03*
%TD*%
D20*
%TO.P,C2,1*%
%TO.N,GND*%
X150475000Y-122600000D03*
%TO.P,C2,2*%
%TO.N,Net-(C2-Pad2)*%
X152200000Y-122600000D03*
%TD*%
%TO.P,C12,1*%
%TO.N,Net-(C12-Pad1)*%
X187087500Y-108750000D03*
%TO.P,C12,2*%
%TO.N,GND*%
X188812500Y-108750000D03*
%TD*%
D11*
%TO.P,R20,1*%
%TO.N,Net-(Q5-Pad2)*%
X165837500Y-106250000D03*
%TO.P,R20,2*%
%TO.N,/Amp2/DIFF-*%
X167662500Y-106250000D03*
%TD*%
D21*
%TO.P,C1,1*%
%TO.N,GND*%
X150337500Y-120562500D03*
%TO.P,C1,2*%
%TO.N,+VDC*%
X150337500Y-118837500D03*
%TD*%
D24*
%TO.P,Q7,1,B*%
%TO.N,Net-(Q7-Pad1)*%
X157812500Y-104300000D03*
%TO.P,Q7,2,E*%
%TO.N,/Amp2/DIFF+*%
X157812500Y-106200000D03*
%TO.P,Q7,3,C*%
%TO.N,Net-(C14-Pad1)*%
X159687500Y-105250000D03*
%TD*%
D21*
%TO.P,C26,1*%
%TO.N,/IN1_MONO*%
X123150000Y-107775480D03*
%TO.P,C26,2*%
%TO.N,Net-(C26-Pad2)*%
X123150000Y-106050480D03*
%TD*%
D10*
%TO.P,R36,1*%
%TO.N,Net-(R35-Pad1)*%
X135150000Y-102612980D03*
%TO.P,R36,2*%
%TO.N,Net-(C22-Pad2)*%
X135150000Y-104437980D03*
%TD*%
D24*
%TO.P,Q8,1,B*%
%TO.N,/Amp2/IN+*%
X157812500Y-100300000D03*
%TO.P,Q8,2,E*%
%TO.N,Net-(Q7-Pad1)*%
X157812500Y-102200000D03*
%TO.P,Q8,3,C*%
%TO.N,Net-(C14-Pad1)*%
X159687500Y-101250000D03*
%TD*%
D12*
%TO.P,R25,1*%
%TO.N,Net-(Q7-Pad1)*%
X155912500Y-104250000D03*
%TO.P,R25,2*%
%TO.N,/Amp2/DIFF+*%
X154087500Y-104250000D03*
%TD*%
D11*
%TO.P,R24,1*%
%TO.N,+VDC*%
X154087500Y-102250000D03*
%TO.P,R24,2*%
%TO.N,Net-(C14-Pad1)*%
X155912500Y-102250000D03*
%TD*%
%TO.P,R22,1*%
%TO.N,Net-(Q5-Pad3)*%
X165837500Y-100250000D03*
%TO.P,R22,2*%
%TO.N,Net-(R22-Pad2)*%
X167662500Y-100250000D03*
%TD*%
D10*
%TO.P,R49,1*%
%TO.N,Net-(R35-Pad1)*%
X141150000Y-102612980D03*
%TO.P,R49,2*%
%TO.N,Net-(C34-Pad2)*%
X141150000Y-104437980D03*
%TD*%
D25*
%TO.P,C5,1*%
%TO.N,-VDC*%
X159537500Y-118837500D03*
%TO.P,C5,2*%
%TO.N,GND*%
X159537500Y-120562500D03*
%TD*%
D18*
%TO.P,C14,1*%
%TO.N,Net-(C14-Pad1)*%
X153300000Y-94750000D03*
%TO.P,C14,2*%
%TO.N,Net-(C14-Pad2)*%
X160700000Y-94750000D03*
%TD*%
D19*
%TO.P,R33,1*%
%TO.N,Net-(R33-Pad1)*%
X169000000Y-112512500D03*
%TO.P,R33,2*%
%TO.N,Net-(C19-Pad1)*%
X169000000Y-110687500D03*
%TD*%
D10*
%TO.P,R23,1*%
%TO.N,Net-(R22-Pad2)*%
X167500000Y-92837500D03*
%TO.P,R23,2*%
%TO.N,Net-(C14-Pad2)*%
X167500000Y-94662500D03*
%TD*%
D12*
%TO.P,R30,1*%
%TO.N,Net-(R28-Pad2)*%
X159662500Y-112000000D03*
%TO.P,R30,2*%
%TO.N,GND*%
X157837500Y-112000000D03*
%TD*%
D20*
%TO.P,C6,1*%
%TO.N,Net-(C6-Pad1)*%
X157775000Y-122600000D03*
%TO.P,C6,2*%
%TO.N,GND*%
X159500000Y-122600000D03*
%TD*%
D15*
%TO.P,C15,1*%
%TO.N,/Amp2/DIFF-*%
X156112500Y-110250000D03*
%TO.P,C15,2*%
%TO.N,Net-(C15-Pad2)*%
X154387500Y-110250000D03*
%TD*%
D21*
%TO.P,C24,1*%
%TO.N,/IN3_MONO*%
X129150000Y-107775480D03*
%TO.P,C24,2*%
%TO.N,Net-(C24-Pad2)*%
X129150000Y-106050480D03*
%TD*%
%TO.P,C31,1*%
%TO.N,/IN5_R*%
X133650000Y-107775480D03*
%TO.P,C31,2*%
%TO.N,Net-(C31-Pad2)*%
X133650000Y-106050480D03*
%TD*%
D26*
%TO.P,Q5,1,B*%
%TO.N,/Amp2/IN-*%
X163937500Y-102200000D03*
%TO.P,Q5,2,E*%
%TO.N,Net-(Q5-Pad2)*%
X163937500Y-100300000D03*
%TO.P,Q5,3,C*%
%TO.N,Net-(Q5-Pad3)*%
X162062500Y-101250000D03*
%TD*%
D22*
%TO.P,J8,1,SLEEVE*%
%TO.N,Net-(J3-Pad1)*%
X154800000Y-74400000D03*
D23*
%TO.P,J8,2,TIP*%
%TO.N,/Amp2/IN+*%
X154700000Y-83800000D03*
D22*
%TO.P,J8,3,RING*%
%TO.N,/Amp2/IN-*%
X162200000Y-76400000D03*
%TD*%
D10*
%TO.P,R35,1*%
%TO.N,Net-(R35-Pad1)*%
X138150000Y-102612980D03*
%TO.P,R35,2*%
%TO.N,Net-(C21-Pad2)*%
X138150000Y-104437980D03*
%TD*%
D12*
%TO.P,R27,1*%
%TO.N,/Amp2/IN+*%
X155912500Y-100250000D03*
%TO.P,R27,2*%
%TO.N,GND*%
X154087500Y-100250000D03*
%TD*%
D20*
%TO.P,C3,1*%
%TO.N,+VDC*%
X154075000Y-120200000D03*
%TO.P,C3,2*%
%TO.N,-VDC*%
X155800000Y-120200000D03*
%TD*%
D21*
%TO.P,C22,1*%
%TO.N,/IN5_L*%
X135150000Y-107775480D03*
%TO.P,C22,2*%
%TO.N,Net-(C22-Pad2)*%
X135150000Y-106050480D03*
%TD*%
%TO.P,C29,1*%
%TO.N,/IN3_MONO*%
X127650000Y-107775480D03*
%TO.P,C29,2*%
%TO.N,Net-(C29-Pad2)*%
X127650000Y-106050480D03*
%TD*%
%TO.P,C27,1*%
%TO.N,/IN1_MONO*%
X121650000Y-107775480D03*
%TO.P,C27,2*%
%TO.N,Net-(C27-Pad2)*%
X121650000Y-106050480D03*
%TD*%
D27*
%TO.P,FB2,1*%
%TO.N,Net-(C6-Pad1)*%
X157737500Y-120900000D03*
%TO.P,FB2,2*%
%TO.N,-VDC*%
X157737500Y-118900000D03*
%TD*%
D13*
%TO.P,J1,1,Pin_1*%
%TO.N,/MIXER_R*%
X146350000Y-126475000D03*
%TO.P,J1,2,Pin_2*%
%TO.N,/IN7_R*%
X143810000Y-126475000D03*
%TO.P,J1,3,Pin_3*%
%TO.N,/IN6_R*%
X141270000Y-126475000D03*
%TO.P,J1,4,Pin_4*%
%TO.N,/IN5_R*%
X138730000Y-126475000D03*
%TO.P,J1,5,Pin_5*%
%TO.N,/IN3_MONO*%
X136190000Y-126475000D03*
%TO.P,J1,6,Pin_6*%
%TO.N,/IN1_MONO*%
X133650000Y-126475000D03*
%TD*%
D20*
%TO.P,C19,1*%
%TO.N,Net-(C19-Pad1)*%
X168187500Y-108500000D03*
%TO.P,C19,2*%
%TO.N,GND*%
X169912500Y-108500000D03*
%TD*%
D10*
%TO.P,R45,1*%
%TO.N,Net-(R41-Pad1)*%
X133650000Y-102612980D03*
%TO.P,R45,2*%
%TO.N,Net-(C31-Pad2)*%
X133650000Y-104437980D03*
%TD*%
D21*
%TO.P,C32,1*%
%TO.N,/IN6_R*%
X136650000Y-107775480D03*
%TO.P,C32,2*%
%TO.N,Net-(C32-Pad2)*%
X136650000Y-106050480D03*
%TD*%
D15*
%TO.P,C17,1*%
%TO.N,+VDC*%
X164062500Y-115800000D03*
%TO.P,C17,2*%
%TO.N,-VDC*%
X162337500Y-115800000D03*
%TD*%
D10*
%TO.P,R31,1*%
%TO.N,Net-(C18-Pad1)*%
X159500000Y-108587500D03*
%TO.P,R31,2*%
%TO.N,Net-(R29-Pad2)*%
X159500000Y-110412500D03*
%TD*%
D11*
%TO.P,R18,1*%
%TO.N,/Amp2/IN-*%
X165837500Y-103250000D03*
%TO.P,R18,2*%
%TO.N,GND*%
X167662500Y-103250000D03*
%TD*%
D21*
%TO.P,C34,1*%
%TO.N,/IN7_L*%
X141150000Y-107775480D03*
%TO.P,C34,2*%
%TO.N,Net-(C34-Pad2)*%
X141150000Y-106050480D03*
%TD*%
%TO.P,C28,1*%
%TO.N,/IN2_MONO*%
X126150000Y-107775480D03*
%TO.P,C28,2*%
%TO.N,Net-(C28-Pad2)*%
X126150000Y-106050480D03*
%TD*%
D28*
%TO.P,FB1,1*%
%TO.N,+VDC*%
X152137500Y-118900000D03*
%TO.P,FB1,2*%
%TO.N,Net-(C2-Pad2)*%
X152137500Y-120900000D03*
%TD*%
D20*
%TO.P,C16,1*%
%TO.N,/Amp2/DIFF+*%
X154387500Y-108500000D03*
%TO.P,C16,2*%
%TO.N,Net-(C16-Pad2)*%
X156112500Y-108500000D03*
%TD*%
D12*
%TO.P,R19,1*%
%TO.N,+VDC*%
X167662500Y-101750000D03*
%TO.P,R19,2*%
%TO.N,Net-(Q5-Pad3)*%
X165837500Y-101750000D03*
%TD*%
D21*
%TO.P,C21,1*%
%TO.N,/IN6_L*%
X138150000Y-107775480D03*
%TO.P,C21,2*%
%TO.N,Net-(C21-Pad2)*%
X138150000Y-106050480D03*
%TD*%
D26*
%TO.P,Q6,1,B*%
%TO.N,Net-(Q5-Pad2)*%
X163937500Y-106200000D03*
%TO.P,Q6,2,E*%
%TO.N,/Amp2/DIFF-*%
X163937500Y-104300000D03*
%TO.P,Q6,3,C*%
%TO.N,Net-(Q5-Pad3)*%
X162062500Y-105250000D03*
%TD*%
D21*
%TO.P,C23,1*%
%TO.N,/IN4_MONO*%
X132150000Y-107775480D03*
%TO.P,C23,2*%
%TO.N,Net-(C23-Pad2)*%
X132150000Y-106050480D03*
%TD*%
D20*
%TO.P,C4,1*%
%TO.N,+VDC*%
X154075000Y-118700000D03*
%TO.P,C4,2*%
%TO.N,-VDC*%
X155800000Y-118700000D03*
%TD*%
D22*
%TO.P,J7,1,SLEEVE*%
%TO.N,Net-(J2-Pad1)*%
X175550000Y-74400000D03*
D23*
%TO.P,J7,2,TIP*%
%TO.N,/Amp1/IN+*%
X175450000Y-83800000D03*
D22*
%TO.P,J7,3,RING*%
%TO.N,/Amp1/IN-*%
X182950000Y-76400000D03*
%TD*%
D10*
%TO.P,R50,1*%
%TO.N,Net-(R41-Pad1)*%
X139650000Y-102612980D03*
%TO.P,R50,2*%
%TO.N,Net-(C35-Pad2)*%
X139650000Y-104437980D03*
%TD*%
%TO.P,R46,1*%
%TO.N,Net-(R41-Pad1)*%
X136650000Y-102612980D03*
%TO.P,R46,2*%
%TO.N,Net-(C32-Pad2)*%
X136650000Y-104437980D03*
%TD*%
D29*
%TO.P,RV1,1,1*%
%TO.N,Net-(R5-Pad2)*%
X186000000Y-91250000D03*
%TO.P,RV1,2,2*%
X191000000Y-93750000D03*
%TO.P,RV1,3,3*%
%TO.N,Net-(C7-Pad2)*%
X186000000Y-96250000D03*
%TD*%
%TO.P,RV3,1,1*%
%TO.N,Net-(R22-Pad2)*%
X165000000Y-91250000D03*
%TO.P,RV3,2,2*%
X170000000Y-93750000D03*
%TO.P,RV3,3,3*%
%TO.N,Net-(C14-Pad2)*%
X165000000Y-96250000D03*
%TD*%
D30*
%TO.P,J2,1,Pin_1*%
%TO.N,Net-(J2-Pad1)*%
X187750000Y-82500000D03*
D31*
%TO.P,J2,2,Pin_2*%
%TO.N,/Amp1/IN-*%
X187750000Y-85040000D03*
%TD*%
D30*
%TO.P,J6,1,Pin_1*%
%TO.N,Net-(J3-Pad1)*%
X167000000Y-78075000D03*
D31*
%TO.P,J6,2,Pin_2*%
%TO.N,GND*%
X167000000Y-75535000D03*
%TD*%
D30*
%TO.P,J3,1,Pin_1*%
%TO.N,Net-(J3-Pad1)*%
X167000000Y-82500000D03*
D31*
%TO.P,J3,2,Pin_2*%
%TO.N,/Amp2/IN-*%
X167000000Y-85040000D03*
%TD*%
D30*
%TO.P,J5,1,Pin_1*%
%TO.N,Net-(J2-Pad1)*%
X187750000Y-78040000D03*
D31*
%TO.P,J5,2,Pin_2*%
%TO.N,GND*%
X187750000Y-75500000D03*
%TD*%
D32*
%TO.N,GND*%
X156500000Y-112000000D03*
X181150000Y-123000000D03*
X171400000Y-108400000D03*
D33*
X126000000Y-94250000D03*
D32*
X166200000Y-123000000D03*
X125100000Y-76500000D03*
X183500000Y-114250000D03*
X168750000Y-103250000D03*
X172000000Y-100250000D03*
D33*
X131000000Y-95250000D03*
D32*
X160600000Y-122600000D03*
X165000000Y-114250000D03*
X153000000Y-100250000D03*
X175000000Y-112000000D03*
X186750000Y-103250000D03*
X149537500Y-122600000D03*
X190200000Y-108750000D03*
%TO.N,/IN6_L*%
X141200000Y-124400000D03*
%TO.N,/IN5_L*%
X138600000Y-124400000D03*
%TO.N,/MIXER_L*%
X145200000Y-124400000D03*
%TO.N,/IN1_MONO*%
X132200000Y-124400000D03*
X185000000Y-123000000D03*
%TO.N,/IN2_MONO*%
X133600000Y-124400000D03*
X170000000Y-123000000D03*
%TO.N,+VDC*%
X186750000Y-101750000D03*
X153000000Y-102250000D03*
X168750000Y-101750000D03*
X153100000Y-117200000D03*
X172000000Y-102250000D03*
X152200000Y-117200000D03*
X165400000Y-115800000D03*
D33*
X129500000Y-95750000D03*
D32*
X183800000Y-115800000D03*
X154000000Y-117200000D03*
%TO.N,-VDC*%
X161200000Y-115800000D03*
X156850000Y-117200000D03*
X186750000Y-104750000D03*
X153000000Y-106250000D03*
X157750000Y-117200000D03*
D33*
X127500000Y-97000000D03*
D32*
X155950000Y-117200000D03*
X168750000Y-104750000D03*
X172000000Y-106250000D03*
X179600000Y-115800000D03*
%TO.N,Net-(R41-Pad1)*%
X128750000Y-126250000D03*
%TO.N,Net-(R48-Pad2)*%
X123750000Y-126250000D03*
%TO.N,/IN4_MONO*%
X136200000Y-124400000D03*
%TO.N,/IN7_L*%
X143800000Y-124400000D03*
%TD*%
D34*
%TO.N,GND*%
X183595000Y-114155000D02*
X183500000Y-114250000D01*
X159500000Y-122600000D02*
X160600000Y-122600000D01*
X173087500Y-100250000D02*
X172000000Y-100250000D01*
X150475000Y-122600000D02*
X150475000Y-120700000D01*
X182437500Y-123000000D02*
X181150000Y-123000000D01*
X166200000Y-123000000D02*
X167437500Y-123000000D01*
X159537500Y-122562500D02*
X159500000Y-122600000D01*
X131155000Y-95405000D02*
X131000000Y-95250000D01*
X176312500Y-112000000D02*
X175000000Y-112000000D01*
X185200000Y-114155000D02*
X183595000Y-114155000D01*
X154087500Y-100250000D02*
X153000000Y-100250000D01*
X165095000Y-114155000D02*
X165000000Y-114250000D01*
X171400000Y-108400000D02*
X170012500Y-108400000D01*
X132475000Y-95405000D02*
X131155000Y-95405000D01*
X125100000Y-75150000D02*
X125100000Y-76500000D01*
X188812500Y-108750000D02*
X190200000Y-108750000D01*
X150475000Y-120700000D02*
X150337500Y-120562500D01*
X159537500Y-120562500D02*
X159537500Y-122562500D01*
X170012500Y-108400000D02*
X169912500Y-108500000D01*
X126115000Y-94135000D02*
X126000000Y-94250000D01*
X150475000Y-122600000D02*
X149537500Y-122600000D01*
X167662500Y-103250000D02*
X168750000Y-103250000D01*
X127525000Y-94135000D02*
X126115000Y-94135000D01*
X125850000Y-74400000D02*
X125100000Y-75150000D01*
X157837500Y-112000000D02*
X156500000Y-112000000D01*
X166725000Y-114155000D02*
X165095000Y-114155000D01*
X185662500Y-103250000D02*
X186750000Y-103250000D01*
D35*
%TO.N,/Amp1/DIFF-*%
X183837500Y-104750000D02*
X184162500Y-104750000D01*
X183387500Y-104300000D02*
X183837500Y-104750000D01*
X176624520Y-109625480D02*
X177024520Y-109225480D01*
X175237020Y-109625480D02*
X176624520Y-109625480D01*
X184162500Y-104750000D02*
X185662500Y-106250000D01*
X185250000Y-107500000D02*
X185662500Y-107087500D01*
X182250000Y-104300000D02*
X183387500Y-104300000D01*
X185662500Y-107087500D02*
X185662500Y-106250000D01*
X177024520Y-109225480D02*
X177024520Y-107975480D01*
X177500000Y-107500000D02*
X185250000Y-107500000D01*
X177024520Y-107975480D02*
X177500000Y-107500000D01*
X174612500Y-110250000D02*
X175237020Y-109625480D01*
%TO.N,/Amp1/DIFF+*%
X174912500Y-106250000D02*
X176450000Y-106250000D01*
X174912500Y-106250000D02*
X174912500Y-106075000D01*
X176450000Y-106250000D02*
X176500000Y-106200000D01*
X174912500Y-106075000D02*
X173087500Y-104250000D01*
X172887500Y-108500000D02*
X172887500Y-108275000D01*
X172887500Y-108275000D02*
X174912500Y-106250000D01*
%TO.N,/Amp2/DIFF-*%
X156112500Y-110250000D02*
X156737020Y-109625480D01*
X159500000Y-107250000D02*
X167500000Y-107250000D01*
X167337500Y-106250000D02*
X165837500Y-104750000D01*
X165387500Y-104300000D02*
X165837500Y-104750000D01*
X167500000Y-107250000D02*
X167662500Y-107087500D01*
X158725480Y-108024520D02*
X159500000Y-107250000D01*
X163937500Y-104300000D02*
X165387500Y-104300000D01*
X167662500Y-107087500D02*
X167662500Y-106250000D01*
X156737020Y-109625480D02*
X158124520Y-109625480D01*
X167662500Y-106250000D02*
X167337500Y-106250000D01*
X158124520Y-109625480D02*
X158725480Y-109024520D01*
X158725480Y-109024520D02*
X158725480Y-108024520D01*
%TO.N,/Amp2/DIFF+*%
X154087500Y-104425000D02*
X154087500Y-104250000D01*
X155962500Y-106200000D02*
X155912500Y-106250000D01*
X157812500Y-106200000D02*
X155962500Y-106200000D01*
X154387500Y-107775000D02*
X155912500Y-106250000D01*
X155912500Y-106250000D02*
X154087500Y-104425000D01*
X154387500Y-108500000D02*
X154387500Y-107775000D01*
%TO.N,/IN6_L*%
X141000000Y-124200000D02*
X141000000Y-112400000D01*
X141200000Y-124400000D02*
X141000000Y-124200000D01*
X141000000Y-112400000D02*
X138150000Y-109550000D01*
X138150000Y-109550000D02*
X138150000Y-107775480D01*
%TO.N,/IN5_L*%
X138600000Y-124400000D02*
X138600000Y-113200000D01*
X138600000Y-113200000D02*
X135150000Y-109750000D01*
X135150000Y-109750000D02*
X135150000Y-107775480D01*
%TO.N,/MIXER_L*%
X128200000Y-83800000D02*
X135600000Y-91200000D01*
X145200000Y-100200000D02*
X145200000Y-124400000D01*
X123337500Y-88412500D02*
X123337500Y-91500000D01*
X135600000Y-91200000D02*
X135600000Y-93500000D01*
X125750000Y-83800000D02*
X125750000Y-86000000D01*
X139200000Y-94200000D02*
X145200000Y-100200000D01*
X125750000Y-83800000D02*
X128200000Y-83800000D01*
X135600000Y-93500000D02*
X136300000Y-94200000D01*
X136300000Y-94200000D02*
X139200000Y-94200000D01*
X125750000Y-86000000D02*
X123337500Y-88412500D01*
%TO.N,/MIXER_R*%
X133250000Y-81650000D02*
X133250000Y-76400000D01*
X133942500Y-88342500D02*
X133942500Y-82342500D01*
X146350000Y-126475000D02*
X146350000Y-99950000D01*
X146350000Y-99950000D02*
X139800000Y-93400000D01*
X136512500Y-90912500D02*
X133942500Y-88342500D01*
X137012500Y-93400000D02*
X136512500Y-92900000D01*
X133942500Y-82342500D02*
X133250000Y-81650000D01*
X136512500Y-92900000D02*
X136512500Y-90912500D01*
X139800000Y-93400000D02*
X137012500Y-93400000D01*
%TO.N,/Amp1/IN+*%
X174962500Y-100300000D02*
X174912500Y-100250000D01*
X177250000Y-99550000D02*
X177250000Y-89500000D01*
X177250000Y-89500000D02*
X176200000Y-88450000D01*
X176200000Y-88450000D02*
X176200000Y-83800000D01*
X176500000Y-100300000D02*
X177250000Y-99550000D01*
X176500000Y-100300000D02*
X174962500Y-100300000D01*
%TO.N,/Amp1/IN-*%
X183837500Y-103250000D02*
X184862980Y-102224520D01*
X184862980Y-102224520D02*
X184862980Y-99612980D01*
X180000000Y-98750000D02*
X178250000Y-97000000D01*
X182285000Y-84865000D02*
X187400000Y-84865000D01*
X182285000Y-84865000D02*
X183700000Y-83450000D01*
X178250000Y-88900000D02*
X182285000Y-84865000D01*
X183837500Y-103250000D02*
X183300000Y-103250000D01*
X184862980Y-99612980D02*
X184000000Y-98750000D01*
X183700000Y-83450000D02*
X183700000Y-76400000D01*
X184000000Y-98750000D02*
X180000000Y-98750000D01*
X183300000Y-103250000D02*
X182250000Y-102200000D01*
X178250000Y-97000000D02*
X178250000Y-88900000D01*
%TO.N,/Amp2/IN+*%
X156500000Y-87650000D02*
X154700000Y-85850000D01*
X155912500Y-100250000D02*
X157762500Y-100250000D01*
X156500000Y-98581250D02*
X156500000Y-87650000D01*
X154700000Y-85850000D02*
X154700000Y-83800000D01*
X155912500Y-100250000D02*
X155912500Y-99168750D01*
X155912500Y-99168750D02*
X156500000Y-98581250D01*
X157762500Y-100250000D02*
X157812500Y-100300000D01*
%TO.N,/Amp2/IN-*%
X166750000Y-99500000D02*
X166250000Y-99000000D01*
X163937500Y-102200000D02*
X164787500Y-102200000D01*
X160085000Y-84865000D02*
X162200000Y-82750000D01*
X157500000Y-87450000D02*
X160085000Y-84865000D01*
X160085000Y-84865000D02*
X167000000Y-84865000D01*
X166250000Y-99000000D02*
X159450000Y-99000000D01*
X166750000Y-103000000D02*
X166750000Y-99500000D01*
X157500000Y-97050000D02*
X157500000Y-87450000D01*
X166500000Y-103250000D02*
X166750000Y-103000000D01*
X165837500Y-103250000D02*
X166500000Y-103250000D01*
X164787500Y-102200000D02*
X165837500Y-103250000D01*
X159450000Y-99000000D02*
X157500000Y-97050000D01*
X162200000Y-82750000D02*
X162200000Y-76400000D01*
%TO.N,/IN1_MONO*%
X133650000Y-126475000D02*
X132675000Y-126475000D01*
X185837500Y-123000000D02*
X184162500Y-123000000D01*
X123150000Y-109150000D02*
X124200000Y-110200000D01*
X124200000Y-110200000D02*
X127600000Y-110200000D01*
X132200000Y-126000000D02*
X132200000Y-124400000D01*
X132600000Y-124000000D02*
X132200000Y-124400000D01*
X132675000Y-126475000D02*
X132200000Y-126000000D01*
X123150000Y-107775480D02*
X123150000Y-109150000D01*
X132600000Y-115200000D02*
X132600000Y-124000000D01*
X121650000Y-107775480D02*
X123150000Y-107775480D01*
X127600000Y-110200000D02*
X132600000Y-115200000D01*
%TO.N,/IN2_MONO*%
X170000000Y-123000000D02*
X169162500Y-123000000D01*
X126800000Y-109400000D02*
X126150000Y-108750000D01*
X133800000Y-124200000D02*
X133800000Y-114800000D01*
X128400000Y-109400000D02*
X126800000Y-109400000D01*
X126150000Y-108750000D02*
X126150000Y-107775480D01*
X124650000Y-107775480D02*
X126150000Y-107775480D01*
X170837500Y-123000000D02*
X170000000Y-123000000D01*
X133800000Y-114800000D02*
X128400000Y-109400000D01*
X133600000Y-124400000D02*
X133800000Y-124200000D01*
%TO.N,/IN5_R*%
X138730000Y-126475000D02*
X137875000Y-126475000D01*
X137400000Y-113600000D02*
X133650000Y-109850000D01*
X137400000Y-126000000D02*
X137400000Y-113600000D01*
X133650000Y-109850000D02*
X133650000Y-107775480D01*
X137875000Y-126475000D02*
X137400000Y-126000000D01*
%TO.N,/IN6_R*%
X140275000Y-126475000D02*
X139800000Y-126000000D01*
X136650000Y-109650000D02*
X136650000Y-107775480D01*
X139800000Y-126000000D02*
X139800000Y-112800000D01*
X141270000Y-126475000D02*
X140275000Y-126475000D01*
X139800000Y-112800000D02*
X136650000Y-109650000D01*
D34*
%TO.N,+VDC*%
X132475000Y-91595000D02*
X130655000Y-91595000D01*
D35*
X182462500Y-111537500D02*
X182462500Y-115800000D01*
X164062500Y-111537500D02*
X164062500Y-115800000D01*
D34*
X173087500Y-102250000D02*
X172000000Y-102250000D01*
X153100000Y-117200000D02*
X152200000Y-117200000D01*
D35*
X165255000Y-110345000D02*
X164062500Y-111537500D01*
D34*
X130655000Y-91595000D02*
X129500000Y-92750000D01*
D35*
X166725000Y-110345000D02*
X165255000Y-110345000D01*
D34*
X185662500Y-101750000D02*
X186750000Y-101750000D01*
D35*
X183655000Y-110345000D02*
X182462500Y-111537500D01*
D34*
X165400000Y-115800000D02*
X164062500Y-115800000D01*
X167662500Y-101750000D02*
X168750000Y-101750000D01*
D35*
X185200000Y-110345000D02*
X183655000Y-110345000D01*
D34*
X154000000Y-117200000D02*
X153100000Y-117200000D01*
X130612500Y-96862500D02*
X129500000Y-95750000D01*
X130612500Y-97250000D02*
X130612500Y-96862500D01*
X183800000Y-115800000D02*
X182462500Y-115800000D01*
X129500000Y-92750000D02*
X129500000Y-95750000D01*
X154087500Y-102250000D02*
X153000000Y-102250000D01*
%TO.N,-VDC*%
X173087500Y-106250000D02*
X172000000Y-106250000D01*
X127750000Y-97250000D02*
X127500000Y-97000000D01*
X127525000Y-95405000D02*
X127525000Y-96975000D01*
X128887500Y-97250000D02*
X127750000Y-97250000D01*
D35*
X162337500Y-114717500D02*
X162337500Y-115800000D01*
D34*
X127525000Y-96975000D02*
X127500000Y-97000000D01*
D35*
X180737500Y-114642500D02*
X180737500Y-115800000D01*
D34*
X162337500Y-115800000D02*
X161200000Y-115800000D01*
X156850000Y-117200000D02*
X155950000Y-117200000D01*
X180737500Y-115800000D02*
X179600000Y-115800000D01*
X167662500Y-104750000D02*
X168750000Y-104750000D01*
D35*
X161775000Y-114155000D02*
X162337500Y-114717500D01*
X180250000Y-114155000D02*
X180737500Y-114642500D01*
D34*
X157750000Y-117200000D02*
X156850000Y-117200000D01*
X185662500Y-104750000D02*
X186750000Y-104750000D01*
X154087500Y-106250000D02*
X153000000Y-106250000D01*
%TO.N,Net-(C2-Pad2)*%
X152200000Y-122600000D02*
X152460000Y-122860000D01*
X152137500Y-122537500D02*
X152200000Y-122600000D01*
X152460000Y-122860000D02*
X152460000Y-126475000D01*
X152137500Y-120900000D02*
X152137500Y-122537500D01*
%TO.N,Net-(C6-Pad1)*%
X157775000Y-122600000D02*
X157540000Y-122835000D01*
X157540000Y-122835000D02*
X157540000Y-126475000D01*
X157737500Y-121000000D02*
X157737500Y-122562500D01*
X157737500Y-122562500D02*
X157775000Y-122600000D01*
D35*
%TO.N,Net-(C7-Pad1)*%
X174912500Y-102250000D02*
X175000978Y-102250000D01*
X174000000Y-94800000D02*
X174050000Y-94750000D01*
X178500000Y-105250000D02*
X178500000Y-101250000D01*
X175000978Y-102250000D02*
X176000978Y-101250000D01*
X174912500Y-102250000D02*
X174000000Y-101337500D01*
X174000000Y-101337500D02*
X174000000Y-94800000D01*
X176000978Y-101250000D02*
X178500000Y-101250000D01*
%TO.N,Net-(C7-Pad2)*%
X188500000Y-94662500D02*
X187587500Y-94662500D01*
X187587500Y-94662500D02*
X186000000Y-96250000D01*
X186000000Y-96250000D02*
X184200000Y-96250000D01*
X184200000Y-96250000D02*
X182700000Y-94750000D01*
X182700000Y-94750000D02*
X181450000Y-94750000D01*
%TO.N,Net-(C8-Pad2)*%
X176312500Y-113750000D02*
X174500000Y-113750000D01*
X172887500Y-112137500D02*
X172887500Y-110250000D01*
X174500000Y-113750000D02*
X172887500Y-112137500D01*
%TO.N,Net-(C9-Pad2)*%
X176162500Y-108500000D02*
X176250000Y-108587500D01*
X174612500Y-108500000D02*
X176162500Y-108500000D01*
%TO.N,Net-(C11-Pad1)*%
X179862500Y-108750000D02*
X179862500Y-109957500D01*
X179862500Y-109957500D02*
X180250000Y-110345000D01*
X178137500Y-108750000D02*
X177975000Y-108587500D01*
X179862500Y-108750000D02*
X178137500Y-108750000D01*
D36*
%TO.N,Net-(C11-Pad2)*%
X181587500Y-108750000D02*
X183487500Y-108750000D01*
%TO.N,Net-(C12-Pad1)*%
X185312500Y-108750000D02*
X187087500Y-108750000D01*
X187087500Y-108750000D02*
X187087500Y-109487500D01*
X187600000Y-110000000D02*
X187600000Y-110687500D01*
X187087500Y-109487500D02*
X187600000Y-110000000D01*
D35*
%TO.N,Net-(C14-Pad1)*%
X155912500Y-102250000D02*
X155125480Y-101462980D01*
X155125480Y-101462980D02*
X155125480Y-99125480D01*
X159687500Y-105250000D02*
X159687500Y-101250000D01*
X156912500Y-101250000D02*
X155912500Y-102250000D01*
X155125480Y-99125480D02*
X153300000Y-97300000D01*
X153300000Y-97300000D02*
X153300000Y-94750000D01*
X159687500Y-101250000D02*
X156912500Y-101250000D01*
%TO.N,Net-(C14-Pad2)*%
X165000000Y-96250000D02*
X166587500Y-94662500D01*
X163200000Y-96250000D02*
X165000000Y-96250000D01*
X166587500Y-94662500D02*
X167500000Y-94662500D01*
X160700000Y-93750000D02*
X163200000Y-96250000D01*
%TO.N,Net-(C15-Pad2)*%
X156550000Y-113750000D02*
X154387500Y-111587500D01*
X154387500Y-111587500D02*
X154387500Y-110250000D01*
X157837500Y-113750000D02*
X156550000Y-113750000D01*
%TO.N,Net-(C16-Pad2)*%
X157750000Y-108587500D02*
X157662500Y-108500000D01*
X157662500Y-108500000D02*
X156112500Y-108500000D01*
%TO.N,Net-(C18-Pad1)*%
X161387500Y-108500000D02*
X161387500Y-109957500D01*
X161387500Y-109957500D02*
X161775000Y-110345000D01*
X159500000Y-108587500D02*
X161300000Y-108587500D01*
X161300000Y-108587500D02*
X161387500Y-108500000D01*
%TO.N,Net-(C18-Pad2)*%
X164737500Y-108500000D02*
X163112500Y-108500000D01*
%TO.N,Net-(C19-Pad1)*%
X169000000Y-110000000D02*
X168187500Y-109187500D01*
X168187500Y-109187500D02*
X168187500Y-108500000D01*
X169000000Y-110687500D02*
X169000000Y-110000000D01*
X168187500Y-108500000D02*
X166562500Y-108500000D01*
%TO.N,Net-(C21-Pad2)*%
X138150000Y-104437980D02*
X138150000Y-106050480D01*
%TO.N,Net-(C22-Pad2)*%
X135150000Y-104437980D02*
X135150000Y-106050480D01*
%TO.N,Net-(C23-Pad2)*%
X132150000Y-104437980D02*
X132150000Y-106050480D01*
%TO.N,Net-(C24-Pad2)*%
X129150000Y-104437980D02*
X129150000Y-106050480D01*
%TO.N,Net-(C25-Pad2)*%
X124650000Y-104437980D02*
X124650000Y-106050480D01*
%TO.N,Net-(C26-Pad2)*%
X123150000Y-106050480D02*
X123150000Y-104437980D01*
%TO.N,Net-(C27-Pad2)*%
X121650000Y-104437980D02*
X121650000Y-106050480D01*
%TO.N,Net-(C28-Pad2)*%
X126150000Y-104437980D02*
X126150000Y-106050480D01*
%TO.N,Net-(C29-Pad2)*%
X127650000Y-104437980D02*
X127650000Y-106050480D01*
%TO.N,Net-(C30-Pad2)*%
X130650000Y-104437980D02*
X130650000Y-106050480D01*
%TO.N,Net-(C31-Pad2)*%
X133650000Y-104437980D02*
X133650000Y-106050480D01*
%TO.N,Net-(C32-Pad2)*%
X136650000Y-104437980D02*
X136650000Y-106050480D01*
%TO.N,Net-(J2-Pad1)*%
X187750000Y-82500000D02*
X187750000Y-78040000D01*
X185750000Y-75500000D02*
X185750000Y-77500000D01*
X175649521Y-74300479D02*
X184550479Y-74300479D01*
X186290000Y-78040000D02*
X187750000Y-78040000D01*
X175550000Y-74400000D02*
X175649521Y-74300479D01*
X185750000Y-77500000D02*
X186290000Y-78040000D01*
X184550479Y-74300479D02*
X185750000Y-75500000D01*
%TO.N,Net-(J3-Pad1)*%
X165000000Y-77500000D02*
X165000000Y-75450000D01*
X165575000Y-78075000D02*
X165000000Y-77500000D01*
X167000000Y-78075000D02*
X167000000Y-82500000D01*
X154899521Y-74300479D02*
X154800000Y-74400000D01*
X163850479Y-74300479D02*
X154899521Y-74300479D01*
X167000000Y-78075000D02*
X165575000Y-78075000D01*
X165000000Y-75450000D02*
X163850479Y-74300479D01*
%TO.N,Net-(Q1-Pad2)*%
X183787500Y-106200000D02*
X183837500Y-106250000D01*
X179750978Y-106200000D02*
X179250000Y-105699022D01*
X182250000Y-106200000D02*
X179750978Y-106200000D01*
X182250000Y-106200000D02*
X183787500Y-106200000D01*
X179750978Y-100300000D02*
X182250000Y-100300000D01*
X179250000Y-105699022D02*
X179250000Y-100800978D01*
X179250000Y-100800978D02*
X179750978Y-100300000D01*
%TO.N,Net-(Q1-Pad3)*%
X183337500Y-101250000D02*
X180250000Y-101250000D01*
X183837500Y-101750000D02*
X183337500Y-101250000D01*
X180250000Y-101250000D02*
X180250000Y-105250000D01*
X183837500Y-100250000D02*
X183837500Y-101750000D01*
%TO.N,Net-(Q3-Pad1)*%
X174962500Y-104300000D02*
X174912500Y-104250000D01*
X176500000Y-102200000D02*
X176500000Y-104300000D01*
X176500000Y-104300000D02*
X174962500Y-104300000D01*
%TO.N,Net-(Q5-Pad2)*%
X160750000Y-105750000D02*
X160750000Y-100844641D01*
X163937500Y-106200000D02*
X165787500Y-106200000D01*
X161200000Y-106200000D02*
X160750000Y-105750000D01*
X163937500Y-106200000D02*
X161200000Y-106200000D01*
X161294641Y-100300000D02*
X163937500Y-100300000D01*
X165787500Y-106200000D02*
X165837500Y-106250000D01*
X160750000Y-100844641D02*
X161294641Y-100300000D01*
%TO.N,Net-(Q5-Pad3)*%
X165837500Y-100250000D02*
X165837500Y-101750000D01*
X162062500Y-101250000D02*
X162062500Y-105250000D01*
X162062500Y-101250000D02*
X165337500Y-101250000D01*
X165337500Y-101250000D02*
X165837500Y-101750000D01*
%TO.N,Net-(Q7-Pad1)*%
X157812500Y-104300000D02*
X155962500Y-104300000D01*
X155962500Y-104300000D02*
X155912500Y-104250000D01*
X157812500Y-102200000D02*
X157812500Y-104300000D01*
%TO.N,Net-(R5-Pad2)*%
X191000000Y-97250000D02*
X191000000Y-93750000D01*
X185662500Y-100250000D02*
X188000000Y-100250000D01*
X190087500Y-92837500D02*
X191000000Y-93750000D01*
X188500000Y-92837500D02*
X187587500Y-92837500D01*
X188500000Y-92837500D02*
X190087500Y-92837500D01*
X188000000Y-100250000D02*
X191000000Y-97250000D01*
X187587500Y-92837500D02*
X186000000Y-91250000D01*
%TO.N,Net-(R11-Pad2)*%
X179002500Y-112885000D02*
X178137500Y-113750000D01*
X180250000Y-112885000D02*
X179002500Y-112885000D01*
X178137500Y-113750000D02*
X178137500Y-112000000D01*
%TO.N,Net-(R12-Pad2)*%
X179177500Y-111615000D02*
X177975000Y-110412500D01*
X180250000Y-111615000D02*
X179177500Y-111615000D01*
X176250000Y-110412500D02*
X177975000Y-110412500D01*
%TO.N,Net-(R16-Pad1)*%
X183325480Y-125609520D02*
X182460000Y-126475000D01*
X186475000Y-112885000D02*
X186847500Y-112512500D01*
X187600000Y-112512500D02*
X187600000Y-115400000D01*
X183325480Y-119674520D02*
X183325480Y-125609520D01*
X186847500Y-112512500D02*
X187600000Y-112512500D01*
X187600000Y-115400000D02*
X183325480Y-119674520D01*
X185200000Y-112885000D02*
X186475000Y-112885000D01*
%TO.N,Net-(R17-Pad2)*%
X187662500Y-123937500D02*
X187662500Y-123000000D01*
X188600000Y-112000000D02*
X188600000Y-115800000D01*
X188600000Y-115800000D02*
X187662500Y-116737500D01*
X185600000Y-124200000D02*
X187400000Y-124200000D01*
X185000000Y-126475000D02*
X185000000Y-124800000D01*
X187400000Y-124200000D02*
X187662500Y-123937500D01*
X187662500Y-116737500D02*
X187662500Y-123000000D01*
X185200000Y-111615000D02*
X188215000Y-111615000D01*
X188215000Y-111615000D02*
X188600000Y-112000000D01*
X185000000Y-124800000D02*
X185600000Y-124200000D01*
%TO.N,Net-(R22-Pad2)*%
X165000000Y-91250000D02*
X166587500Y-92837500D01*
X169087500Y-92837500D02*
X170000000Y-93750000D01*
X170000000Y-97912500D02*
X167662500Y-100250000D01*
X167500000Y-92837500D02*
X169087500Y-92837500D01*
X166587500Y-92837500D02*
X167500000Y-92837500D01*
X170000000Y-93750000D02*
X170000000Y-97912500D01*
%TO.N,Net-(R28-Pad2)*%
X159662500Y-112000000D02*
X159662500Y-113750000D01*
X160527500Y-112885000D02*
X161775000Y-112885000D01*
X159662500Y-113750000D02*
X160527500Y-112885000D01*
%TO.N,Net-(R29-Pad2)*%
X157750000Y-110412500D02*
X159500000Y-110412500D01*
X160702500Y-111615000D02*
X159500000Y-110412500D01*
X161775000Y-111615000D02*
X160702500Y-111615000D01*
%TO.N,Net-(R33-Pad1)*%
X168325480Y-125609520D02*
X168325480Y-118004520D01*
X166725000Y-112885000D02*
X167915000Y-112885000D01*
X168325480Y-118004520D02*
X168465000Y-117865000D01*
X167460000Y-126475000D02*
X168325480Y-125609520D01*
X167915000Y-112885000D02*
X168287500Y-112512500D01*
X169000000Y-112512500D02*
X169000000Y-117330000D01*
X169000000Y-117330000D02*
X168465000Y-117865000D01*
X168287500Y-112512500D02*
X169000000Y-112512500D01*
%TO.N,Net-(R34-Pad2)*%
X172662500Y-123000000D02*
X172662500Y-121462500D01*
X169615000Y-111615000D02*
X166725000Y-111615000D01*
X172662500Y-121462500D02*
X170200000Y-119000000D01*
X170200000Y-119000000D02*
X170200000Y-112200000D01*
X172400000Y-124200000D02*
X172662500Y-123937500D01*
X172662500Y-123937500D02*
X172662500Y-123000000D01*
X170000000Y-124800000D02*
X170600000Y-124200000D01*
X170000000Y-126475000D02*
X170000000Y-124800000D01*
X170600000Y-124200000D02*
X172400000Y-124200000D01*
X170200000Y-112200000D02*
X169615000Y-111615000D01*
%TO.N,Net-(R35-Pad1)*%
X125000000Y-96100000D02*
X125000000Y-93600000D01*
X131312500Y-101775480D02*
X133812500Y-101775480D01*
X123812500Y-101775480D02*
X122312500Y-101775480D01*
X128987500Y-102612980D02*
X128150000Y-101775480D01*
X133812500Y-101775480D02*
X137262500Y-101775480D01*
X137262500Y-101775480D02*
X140312500Y-101775480D01*
X125000000Y-93600000D02*
X125735000Y-92865000D01*
X127540000Y-125290000D02*
X127540000Y-126475000D01*
X128150000Y-101775480D02*
X123812500Y-101775480D01*
X119324520Y-101775480D02*
X122312500Y-101775480D01*
X124650000Y-102612980D02*
X123812500Y-101775480D01*
X131312500Y-101775480D02*
X128150000Y-101775480D01*
X117250000Y-109000000D02*
X123500000Y-115250000D01*
X117250000Y-103850000D02*
X119250000Y-101850000D01*
X137312500Y-101775480D02*
X138150000Y-102612980D01*
X133812500Y-101775480D02*
X134312500Y-101775480D01*
X122312500Y-101775480D02*
X123150000Y-102612980D01*
X125735000Y-92865000D02*
X127525000Y-92865000D01*
X117250000Y-103850000D02*
X117250000Y-109000000D01*
X119250000Y-101850000D02*
X119324520Y-101775480D01*
X134312500Y-101775480D02*
X135150000Y-102612980D01*
X137262500Y-101775480D02*
X137312500Y-101775480D01*
X123500000Y-121250000D02*
X127540000Y-125290000D01*
X129150000Y-102612980D02*
X128987500Y-102612980D01*
X132150000Y-102612980D02*
X131312500Y-101775480D01*
X119250000Y-101850000D02*
X125000000Y-96100000D01*
X140312500Y-101775480D02*
X141150000Y-102612980D01*
X123500000Y-115250000D02*
X123500000Y-121250000D01*
%TO.N,Net-(R41-Pad1)*%
X119587020Y-102612980D02*
X121650000Y-102612980D01*
X138962980Y-103400000D02*
X139650000Y-102712980D01*
X124500000Y-121000000D02*
X124500000Y-114700000D01*
X138600000Y-95000000D02*
X134500000Y-95000000D01*
X128750000Y-126250000D02*
X128750000Y-125250000D01*
X127650000Y-102612980D02*
X127650000Y-102774520D01*
X131524520Y-103400000D02*
X128275480Y-103400000D01*
X122437020Y-103400000D02*
X121650000Y-102612980D01*
X133635000Y-94135000D02*
X132475000Y-94135000D01*
X126937020Y-103400000D02*
X126150000Y-102612980D01*
X128750000Y-125250000D02*
X124500000Y-121000000D01*
X131524520Y-103400000D02*
X134637020Y-103400000D01*
X142200000Y-102809940D02*
X142200000Y-98600000D01*
X138962980Y-103400000D02*
X141609940Y-103400000D01*
X139650000Y-102712980D02*
X139650000Y-102612980D01*
X137437020Y-103400000D02*
X136650000Y-102612980D01*
X127025480Y-103400000D02*
X122437020Y-103400000D01*
X142200000Y-98600000D02*
X138600000Y-95000000D01*
X134637020Y-103400000D02*
X134437020Y-103400000D01*
X134437020Y-103400000D02*
X133650000Y-102612980D01*
X118000000Y-104200000D02*
X119587020Y-102612980D01*
X127650000Y-102774520D02*
X128275480Y-103400000D01*
X134637020Y-103400000D02*
X137662980Y-103400000D01*
X127025480Y-103400000D02*
X126937020Y-103400000D01*
X134500000Y-95000000D02*
X133635000Y-94135000D01*
X128275480Y-103400000D02*
X127025480Y-103400000D01*
X130650000Y-102612980D02*
X130737500Y-102612980D01*
X141609940Y-103400000D02*
X142200000Y-102809940D01*
X130737500Y-102612980D02*
X131524520Y-103400000D01*
X137662980Y-103400000D02*
X138962980Y-103400000D01*
X137662980Y-103400000D02*
X137437020Y-103400000D01*
X118000000Y-108200000D02*
X118000000Y-104200000D01*
X124500000Y-114700000D02*
X118000000Y-108200000D01*
%TO.N,Net-(R47-Pad2)*%
X122600000Y-121775000D02*
X122600000Y-115850000D01*
X122600000Y-115850000D02*
X116500000Y-109750000D01*
X116500000Y-109750000D02*
X116500000Y-103300000D01*
X125257500Y-91595000D02*
X125162500Y-91500000D01*
X124200000Y-93200000D02*
X125162500Y-92237500D01*
X125000000Y-126475000D02*
X125000000Y-124175000D01*
X125000000Y-124175000D02*
X122600000Y-121775000D01*
X124200000Y-95600000D02*
X124200000Y-93200000D01*
X127525000Y-91595000D02*
X125257500Y-91595000D01*
X125162500Y-92237500D02*
X125162500Y-91500000D01*
X116500000Y-103300000D02*
X124200000Y-95600000D01*
%TO.N,Net-(R48-Pad2)*%
X134687500Y-91587500D02*
X133500000Y-90400000D01*
X123400000Y-95200000D02*
X115800000Y-102800000D01*
X134652500Y-92865000D02*
X134687500Y-92900000D01*
X125000000Y-90400000D02*
X124200000Y-91200000D01*
X124200000Y-92200000D02*
X123400000Y-93000000D01*
X123750000Y-126250000D02*
X123750000Y-124500000D01*
X124200000Y-91200000D02*
X124200000Y-92200000D01*
X115800000Y-110550000D02*
X115925000Y-110675000D01*
X123400000Y-93000000D02*
X123400000Y-95200000D01*
X134687500Y-92900000D02*
X134687500Y-91587500D01*
X115800000Y-102800000D02*
X115800000Y-110550000D01*
X121600000Y-116350000D02*
X115925000Y-110675000D01*
X121600000Y-122350000D02*
X121600000Y-116350000D01*
X123750000Y-124500000D02*
X121600000Y-122350000D01*
X132475000Y-92865000D02*
X134652500Y-92865000D01*
X133500000Y-90400000D02*
X125000000Y-90400000D01*
%TO.N,/IN7_R*%
X142200000Y-112000000D02*
X139650000Y-109450000D01*
X143810000Y-126475000D02*
X142875000Y-126475000D01*
X142200000Y-125800000D02*
X142200000Y-112000000D01*
X142875000Y-126475000D02*
X142200000Y-125800000D01*
X139650000Y-109450000D02*
X139650000Y-107775480D01*
%TO.N,/IN3_MONO*%
X129150000Y-108550000D02*
X129150000Y-107775480D01*
X136190000Y-126475000D02*
X135475000Y-126475000D01*
X135475000Y-126475000D02*
X135000000Y-126000000D01*
X127650000Y-107775480D02*
X129150000Y-107775480D01*
X135000000Y-114400000D02*
X129150000Y-108550000D01*
X135000000Y-126000000D02*
X135000000Y-114400000D01*
%TO.N,/IN4_MONO*%
X130650000Y-107775480D02*
X132150000Y-107775480D01*
X136200000Y-114000000D02*
X132150000Y-109950000D01*
X132150000Y-109950000D02*
X132150000Y-107775480D01*
X136200000Y-124400000D02*
X136200000Y-114000000D01*
%TO.N,/IN7_L*%
X143800000Y-124400000D02*
X143400000Y-124000000D01*
X143400000Y-124000000D02*
X143400000Y-111600000D01*
X143400000Y-111600000D02*
X141150000Y-109350000D01*
X141150000Y-109350000D02*
X141150000Y-107775480D01*
%TO.N,Net-(C34-Pad2)*%
X141150000Y-106050480D02*
X141150000Y-104437980D01*
%TO.N,Net-(C35-Pad2)*%
X139650000Y-106050480D02*
X139650000Y-104437980D01*
%TD*%
%TA.AperFunction,Conductor*%
%TO.N,-VDC*%
G36*
X158215931Y-116620002D02*
G01*
X158236905Y-116636905D01*
X160163095Y-118563095D01*
X160197121Y-118625407D01*
X160200000Y-118652190D01*
X160200000Y-119147810D01*
X160179998Y-119215931D01*
X160163095Y-119236905D01*
X159836905Y-119563095D01*
X159774593Y-119597121D01*
X159747810Y-119600000D01*
X157000000Y-119600000D01*
X156600000Y-120000000D01*
X156600000Y-120547810D01*
X156579998Y-120615931D01*
X156563095Y-120636905D01*
X156236905Y-120963095D01*
X156174593Y-120997121D01*
X156147810Y-121000000D01*
X155452190Y-121000000D01*
X155384069Y-120979998D01*
X155363095Y-120963095D01*
X155036905Y-120636905D01*
X155002879Y-120574593D01*
X155000000Y-120547810D01*
X155000000Y-117052190D01*
X155020002Y-116984069D01*
X155036905Y-116963095D01*
X155363095Y-116636905D01*
X155425407Y-116602879D01*
X155452190Y-116600000D01*
X158147810Y-116600000D01*
X158215931Y-116620002D01*
G37*
%TD.AperFunction*%
%TD*%
%TA.AperFunction,Conductor*%
%TO.N,+VDC*%
G36*
X154415931Y-116620002D02*
G01*
X154436905Y-116636905D01*
X154763095Y-116963095D01*
X154797121Y-117025407D01*
X154800000Y-117052190D01*
X154800000Y-120547810D01*
X154779998Y-120615931D01*
X154763095Y-120636905D01*
X154436905Y-120963095D01*
X154374593Y-120997121D01*
X154347810Y-121000000D01*
X153652190Y-121000000D01*
X153584069Y-120979998D01*
X153563095Y-120963095D01*
X153236905Y-120636905D01*
X153202879Y-120574593D01*
X153200000Y-120547810D01*
X153200000Y-120000000D01*
X152800000Y-119600000D01*
X150052190Y-119600000D01*
X149984069Y-119579998D01*
X149963095Y-119563095D01*
X149636905Y-119236905D01*
X149602879Y-119174593D01*
X149600000Y-119147810D01*
X149600000Y-118652190D01*
X149620002Y-118584069D01*
X149636905Y-118563095D01*
X151563095Y-116636905D01*
X151625407Y-116602879D01*
X151652190Y-116600000D01*
X154347810Y-116600000D01*
X154415931Y-116620002D01*
G37*
%TD.AperFunction*%
%TD*%
M02*
