%TF.GenerationSoftware,KiCad,Pcbnew,(6.0.0)*%
%TF.CreationDate,2022-11-26T21:53:31+02:00*%
%TF.ProjectId,mood,6d6f6f64-2e6b-4696-9361-645f70636258,rev?*%
%TF.SameCoordinates,Original*%
%TF.FileFunction,Copper,L2,Bot*%
%TF.FilePolarity,Positive*%
%FSLAX46Y46*%
G04 Gerber Fmt 4.6, Leading zero omitted, Abs format (unit mm)*
G04 Created by KiCad (PCBNEW (6.0.0)) date 2022-11-26 21:53:31*
%MOMM*%
%LPD*%
G01*
G04 APERTURE LIST*
%TA.AperFunction,ComponentPad*%
%ADD10C,1.400000*%
%TD*%
%TA.AperFunction,ComponentPad*%
%ADD11C,5.600000*%
%TD*%
%TA.AperFunction,ComponentPad*%
%ADD12C,2.000000*%
%TD*%
%TA.AperFunction,ComponentPad*%
%ADD13R,1.700000X1.700000*%
%TD*%
%TA.AperFunction,ComponentPad*%
%ADD14O,1.700000X1.700000*%
%TD*%
%TA.AperFunction,ViaPad*%
%ADD15C,0.600000*%
%TD*%
%TA.AperFunction,Conductor*%
%ADD16C,0.300000*%
%TD*%
%TA.AperFunction,Conductor*%
%ADD17C,0.200000*%
%TD*%
%TA.AperFunction,Conductor*%
%ADD18C,0.600000*%
%TD*%
G04 APERTURE END LIST*
D10*
%TO.P,J2,S1,SHIELD*%
%TO.N,GND*%
X108260000Y-91210000D03*
X114210000Y-91570000D03*
X114210000Y-99830000D03*
X108260000Y-100190000D03*
%TD*%
D11*
%TO.P,H2,1,1*%
%TO.N,GND*%
X134100000Y-109500000D03*
%TD*%
D12*
%TO.P,SW2,1,A*%
%TO.N,GND*%
X122600000Y-106900000D03*
X129100000Y-106900000D03*
%TO.P,SW2,2,B*%
%TO.N,Net-(IC1-Pad16)*%
X129100000Y-102400000D03*
X122600000Y-102400000D03*
%TD*%
%TO.P,SW1,1,A*%
%TO.N,Net-(IC1-Pad15)*%
X112250000Y-102400000D03*
X118750000Y-102400000D03*
%TO.P,SW1,2,B*%
%TO.N,GND*%
X112250000Y-106900000D03*
X118750000Y-106900000D03*
%TD*%
D11*
%TO.P,H1,1,1*%
%TO.N,GND*%
X165100000Y-109500000D03*
%TD*%
D13*
%TO.P,J1,1,Pin_1*%
%TO.N,+3V0*%
X122825000Y-119025000D03*
D14*
%TO.P,J1,2,Pin_2*%
%TO.N,/rx*%
X125365000Y-119025000D03*
%TO.P,J1,3,Pin_3*%
%TO.N,/tx*%
X122825000Y-116485000D03*
%TO.P,J1,4,Pin_4*%
%TO.N,/boot*%
X125365000Y-116485000D03*
%TO.P,J1,5,Pin_5*%
%TO.N,GND*%
X122825000Y-113945000D03*
%TO.P,J1,6,Pin_6*%
%TO.N,/esp_en*%
X125365000Y-113945000D03*
%TD*%
D15*
%TO.N,GND*%
X111100000Y-93500000D03*
X111100000Y-91500000D03*
X113100000Y-93500000D03*
X138100000Y-120500000D03*
X138100000Y-118500000D03*
X140100000Y-120500000D03*
X140100000Y-118500000D03*
X146100000Y-120500000D03*
X148100000Y-120500000D03*
X156100000Y-120500000D03*
X156100000Y-118500000D03*
X158100000Y-120500000D03*
X158100000Y-118500000D03*
X164100000Y-120500000D03*
X164100000Y-118500000D03*
X166100000Y-120500000D03*
X166100000Y-118500000D03*
X172100000Y-120500000D03*
X172100000Y-118500000D03*
X174100000Y-120500000D03*
X174100000Y-118500000D03*
X147100000Y-98500000D03*
X149100000Y-98500000D03*
X151100000Y-98500000D03*
X156100000Y-100500000D03*
X158100000Y-100500000D03*
X158100000Y-98500000D03*
X156100000Y-98500000D03*
X164100000Y-100500000D03*
X166100000Y-100500000D03*
X166100000Y-98500000D03*
X164100000Y-98500000D03*
X174100000Y-100500000D03*
X172100000Y-100500000D03*
X172100000Y-98500000D03*
X174100000Y-98500000D03*
X178100000Y-109500000D03*
X176100000Y-109500000D03*
X174100000Y-109500000D03*
X172100000Y-109500000D03*
X170100000Y-109500000D03*
X160100000Y-109500000D03*
X158100000Y-109500000D03*
X156100000Y-109500000D03*
X154100000Y-109500000D03*
X150100000Y-109500000D03*
X146100000Y-109500000D03*
X144100000Y-109500000D03*
X142100000Y-109500000D03*
X140100000Y-109500000D03*
X131100000Y-104500000D03*
X131100000Y-102500000D03*
X113100000Y-104500000D03*
X115100000Y-103500000D03*
X125100000Y-106500000D03*
X127100000Y-106500000D03*
X127100000Y-104500000D03*
X125100000Y-104500000D03*
X120100000Y-113500000D03*
X118100000Y-113500000D03*
X120100000Y-119500000D03*
X118100000Y-119500000D03*
X116100000Y-119500000D03*
%TO.N,Net-(J2-PadA5)*%
X117093344Y-95106655D03*
X119900000Y-96900000D03*
%TO.N,Net-(J2-PadB5)*%
X117100000Y-97900000D03*
X112700000Y-96300000D03*
%TO.N,+3V0*%
X138500000Y-101500000D03*
X134587500Y-104787500D03*
%TO.N,+BATT*%
X131900000Y-95100000D03*
X132797512Y-116671830D03*
%TO.N,+3V0*%
X132900000Y-113100000D03*
X132800000Y-121100000D03*
X107900000Y-121500000D03*
%TO.N,/G*%
X179000000Y-116300000D03*
X178850000Y-96250000D03*
X148600000Y-116300000D03*
X181299980Y-105700000D03*
X163700000Y-116300000D03*
X181300000Y-115700000D03*
X181300000Y-126300000D03*
X178900000Y-126300000D03*
X148600000Y-126300000D03*
X163600000Y-96250000D03*
X163700000Y-126300000D03*
X148600000Y-96250000D03*
X148600000Y-106300000D03*
X163600000Y-106300000D03*
X178800000Y-106300000D03*
%TO.N,/R*%
X180550460Y-103700000D03*
X178900000Y-124500000D03*
X179000000Y-114500000D03*
X148600000Y-104500000D03*
X163600000Y-94500000D03*
X163700000Y-124500000D03*
X180400000Y-124500000D03*
X163600000Y-104500000D03*
X148600000Y-124500000D03*
X148600000Y-114500000D03*
X163800000Y-114500000D03*
X180800000Y-94500000D03*
X178850000Y-104500000D03*
X180550480Y-114049520D03*
X148600000Y-94500000D03*
X178850000Y-94500000D03*
%TO.N,/B*%
X178850000Y-102750000D03*
X163600000Y-102750000D03*
X148600000Y-102750000D03*
X178900000Y-122700000D03*
X163700000Y-122700000D03*
X178900000Y-112700000D03*
X179600000Y-122700000D03*
X148600000Y-92750000D03*
X148600000Y-122700000D03*
X178850000Y-92750000D03*
X148600000Y-112700000D03*
X163800000Y-113100000D03*
X163600000Y-92750000D03*
%TO.N,/rx*%
X115200000Y-113000000D03*
%TO.N,/tx*%
X115200000Y-115000000D03*
%TO.N,Net-(IC1-Pad15)*%
X113100000Y-117200000D03*
%TO.N,Net-(IC1-Pad16)*%
X114100000Y-117800000D03*
%TO.N,Net-(J2-PadA7)*%
X112900000Y-94900000D03*
X113500000Y-96900000D03*
X117900000Y-96100000D03*
%TD*%
D16*
%TO.N,Net-(J2-PadA5)*%
X119100000Y-95100000D02*
X117099999Y-95100000D01*
X117099999Y-95100000D02*
X117093344Y-95106655D01*
X119900000Y-95900000D02*
X119100000Y-95100000D01*
X119900000Y-96900000D02*
X119900000Y-95900000D01*
%TO.N,Net-(J2-PadB5)*%
X113300000Y-97900000D02*
X117100000Y-97900000D01*
X112700000Y-96300000D02*
X112700000Y-97300000D01*
X112700000Y-97300000D02*
X113300000Y-97900000D01*
%TO.N,Net-(J2-PadA7)*%
X114700000Y-96900000D02*
X115500000Y-96100000D01*
X113500000Y-96900000D02*
X114700000Y-96900000D01*
D17*
%TO.N,+3V0*%
X122825000Y-119575000D02*
X122825000Y-119025000D01*
X120900000Y-121500000D02*
X122825000Y-119575000D01*
X107900000Y-121500000D02*
X120900000Y-121500000D01*
D18*
X135000000Y-119000000D02*
X132900000Y-121100000D01*
X132900000Y-121100000D02*
X132800000Y-121100000D01*
X132900000Y-113100000D02*
X135000000Y-115200000D01*
X135000000Y-115200000D02*
X135000000Y-119000000D01*
D17*
%TO.N,+BATT*%
X130500000Y-114500000D02*
X130500000Y-96500000D01*
X132671830Y-116671830D02*
X130500000Y-114500000D01*
X130500000Y-96500000D02*
X131900000Y-95100000D01*
X132797512Y-116671830D02*
X132671830Y-116671830D01*
%TO.N,+3V0*%
X138500000Y-103700000D02*
X138500000Y-101500000D01*
X137412500Y-104787500D02*
X138500000Y-103700000D01*
X134587500Y-104787500D02*
X137412500Y-104787500D01*
%TO.N,/tx*%
X116685000Y-116485000D02*
X122825000Y-116485000D01*
X115200000Y-115000000D02*
X116685000Y-116485000D01*
%TO.N,/rx*%
X124875000Y-119025000D02*
X125365000Y-119025000D01*
X124100000Y-118250000D02*
X124875000Y-119025000D01*
X124100000Y-115750000D02*
X124100000Y-118250000D01*
X123600000Y-115250000D02*
X124100000Y-115750000D01*
X121100000Y-115750000D02*
X121600000Y-115250000D01*
X115200000Y-113000000D02*
X117950000Y-115750000D01*
X117950000Y-115750000D02*
X121100000Y-115750000D01*
X121600000Y-115250000D02*
X123600000Y-115250000D01*
D18*
%TO.N,/G*%
X148600000Y-116300000D02*
X163700000Y-116300000D01*
X178750489Y-106250489D02*
X178800000Y-106300000D01*
X148600000Y-96250000D02*
X163600000Y-96250000D01*
X163700000Y-126300000D02*
X178900000Y-126300000D01*
X181300000Y-105699980D02*
X181300000Y-97000000D01*
X148600000Y-106300000D02*
X163600000Y-106300000D01*
X163600000Y-106300000D02*
X163649511Y-106250489D01*
X179000000Y-116300000D02*
X180700000Y-116300000D01*
X181299980Y-105700000D02*
X180699980Y-106300000D01*
X181299980Y-105700000D02*
X181300000Y-105699980D01*
X163649511Y-106250489D02*
X178750489Y-106250489D01*
X148600000Y-126300000D02*
X163700000Y-126300000D01*
X163600000Y-96250000D02*
X178850000Y-96250000D01*
X181300000Y-97000000D02*
X180550000Y-96250000D01*
X163700000Y-116300000D02*
X179000000Y-116300000D01*
X178900000Y-126300000D02*
X181300000Y-126300000D01*
X180699980Y-106300000D02*
X178800000Y-106300000D01*
X180550000Y-96250000D02*
X178850000Y-96250000D01*
X180700000Y-116300000D02*
X181300000Y-115700000D01*
%TO.N,/R*%
X179000000Y-114500000D02*
X180100000Y-114500000D01*
X180100000Y-114500000D02*
X180550480Y-114049520D01*
X148600000Y-104500000D02*
X163600000Y-104500000D01*
X163600000Y-94500000D02*
X178850000Y-94500000D01*
X180550460Y-103700000D02*
X179750460Y-104500000D01*
X148600000Y-124500000D02*
X163700000Y-124500000D01*
X148600000Y-114500000D02*
X163800000Y-114500000D01*
X163800000Y-114500000D02*
X179000000Y-114500000D01*
X180800000Y-94500000D02*
X178850000Y-94500000D01*
X179750460Y-104500000D02*
X178850000Y-104500000D01*
X178900000Y-124500000D02*
X180400000Y-124500000D01*
X148600000Y-94500000D02*
X163600000Y-94500000D01*
X163700000Y-124500000D02*
X178900000Y-124500000D01*
X163600000Y-104500000D02*
X178850000Y-104500000D01*
%TO.N,/B*%
X163400000Y-112700000D02*
X163800000Y-113100000D01*
X148600000Y-112700000D02*
X163400000Y-112700000D01*
X178900000Y-122700000D02*
X179600000Y-122700000D01*
X178500000Y-113100000D02*
X178900000Y-112700000D01*
X163800000Y-113100000D02*
X178500000Y-113100000D01*
X163700000Y-122700000D02*
X178900000Y-122700000D01*
X163600000Y-102750000D02*
X178850000Y-102750000D01*
X148600000Y-92750000D02*
X163600000Y-92750000D01*
X163600000Y-92750000D02*
X178850000Y-92750000D01*
X148600000Y-122700000D02*
X163700000Y-122700000D01*
X148600000Y-102750000D02*
X163600000Y-102750000D01*
D16*
%TO.N,Net-(IC1-Pad15)*%
X112250000Y-102400000D02*
X118750000Y-102400000D01*
X114300000Y-104450000D02*
X112250000Y-102400000D01*
X114300000Y-108000000D02*
X114300000Y-104450000D01*
X113100000Y-109200000D02*
X114300000Y-108000000D01*
X113100000Y-117200000D02*
X113100000Y-109200000D01*
%TO.N,Net-(IC1-Pad16)*%
X116500000Y-104100000D02*
X120900000Y-104100000D01*
X122600000Y-102400000D02*
X129100000Y-102400000D01*
X114100000Y-117800000D02*
X114100000Y-109700000D01*
X120900000Y-104100000D02*
X122600000Y-102400000D01*
X115300000Y-108500000D02*
X115300000Y-105300000D01*
X115300000Y-105300000D02*
X116500000Y-104100000D01*
X114100000Y-109700000D02*
X115300000Y-108500000D01*
%TO.N,Net-(J2-PadA7)*%
X114300000Y-94900000D02*
X115500000Y-96100000D01*
X115500000Y-96100000D02*
X117900000Y-96100000D01*
X112900000Y-94900000D02*
X114300000Y-94900000D01*
%TD*%
%TA.AperFunction,Conductor*%
%TO.N,GND*%
G36*
X180088227Y-89702518D02*
G01*
X180099642Y-89705143D01*
X180110517Y-89702682D01*
X180121664Y-89702702D01*
X180121664Y-89702863D01*
X180131669Y-89702076D01*
X180203759Y-89706801D01*
X180328475Y-89714975D01*
X180341302Y-89716663D01*
X180559516Y-89760068D01*
X180572016Y-89763418D01*
X180782691Y-89834933D01*
X180794653Y-89839889D01*
X180876954Y-89880475D01*
X180994180Y-89938284D01*
X181005386Y-89944753D01*
X181190385Y-90068365D01*
X181200639Y-90076233D01*
X181367914Y-90222930D01*
X181377069Y-90232085D01*
X181523767Y-90399361D01*
X181531635Y-90409615D01*
X181655247Y-90594614D01*
X181661716Y-90605820D01*
X181760111Y-90805346D01*
X181765067Y-90817309D01*
X181836581Y-91027980D01*
X181839933Y-91040489D01*
X181883336Y-91258691D01*
X181885026Y-91271530D01*
X181897891Y-91467816D01*
X181897101Y-91477628D01*
X181897375Y-91477628D01*
X181897355Y-91488778D01*
X181894857Y-91499642D01*
X181897317Y-91510514D01*
X181897317Y-91510516D01*
X181897559Y-91511583D01*
X181900000Y-91533432D01*
X181900000Y-96662976D01*
X181881093Y-96721167D01*
X181831593Y-96757131D01*
X181770407Y-96757131D01*
X181727694Y-96726098D01*
X181725984Y-96727572D01*
X181694907Y-96691505D01*
X181689967Y-96685284D01*
X181689140Y-96684152D01*
X181681478Y-96673664D01*
X181670014Y-96662200D01*
X181665019Y-96656819D01*
X181637005Y-96624307D01*
X181637004Y-96624306D01*
X181632400Y-96618963D01*
X181625189Y-96614289D01*
X181609032Y-96601218D01*
X180951395Y-95943581D01*
X180943421Y-95933601D01*
X180943404Y-95933616D01*
X180938834Y-95928246D01*
X180935070Y-95922280D01*
X180929785Y-95917612D01*
X180929782Y-95917609D01*
X180894792Y-95886708D01*
X180890322Y-95882508D01*
X180878494Y-95870680D01*
X180869447Y-95863900D01*
X180863301Y-95858896D01*
X180827612Y-95827377D01*
X180818329Y-95823018D01*
X180801034Y-95812627D01*
X180792824Y-95806474D01*
X180763346Y-95795423D01*
X180748254Y-95789765D01*
X180740934Y-95786680D01*
X180704226Y-95769446D01*
X180704222Y-95769445D01*
X180697837Y-95766447D01*
X180690869Y-95765362D01*
X180690865Y-95765361D01*
X180687708Y-95764870D01*
X180668180Y-95759747D01*
X180665180Y-95758622D01*
X180665178Y-95758622D01*
X180658580Y-95756148D01*
X180611092Y-95752619D01*
X180603207Y-95751713D01*
X180592772Y-95750088D01*
X180592764Y-95750087D01*
X180588991Y-95749500D01*
X180572791Y-95749500D01*
X180565455Y-95749228D01*
X180562165Y-95748984D01*
X180515608Y-95745524D01*
X180508713Y-95746996D01*
X180508711Y-95746996D01*
X180507199Y-95747319D01*
X180486532Y-95749500D01*
X178858409Y-95749500D01*
X178857804Y-95749498D01*
X178856942Y-95749493D01*
X178781376Y-95749031D01*
X178780100Y-95749396D01*
X178778571Y-95749500D01*
X163608409Y-95749500D01*
X163607804Y-95749498D01*
X163606942Y-95749493D01*
X163531376Y-95749031D01*
X163530100Y-95749396D01*
X163528571Y-95749500D01*
X148608409Y-95749500D01*
X148607804Y-95749498D01*
X148538432Y-95749074D01*
X148538431Y-95749074D01*
X148531376Y-95749031D01*
X148501747Y-95757500D01*
X148488582Y-95760309D01*
X148458082Y-95764677D01*
X148451662Y-95767596D01*
X148451658Y-95767597D01*
X148433381Y-95775907D01*
X148419616Y-95780972D01*
X148393529Y-95788428D01*
X148387564Y-95792192D01*
X148387563Y-95792192D01*
X148367474Y-95804867D01*
X148355622Y-95811262D01*
X148333992Y-95821096D01*
X148333987Y-95821099D01*
X148327572Y-95824016D01*
X148322229Y-95828620D01*
X148307022Y-95841723D01*
X148295227Y-95850451D01*
X148278249Y-95861163D01*
X148278245Y-95861167D01*
X148272280Y-95864930D01*
X148251877Y-95888033D01*
X148242308Y-95897485D01*
X148218963Y-95917600D01*
X148212798Y-95927112D01*
X148204206Y-95940367D01*
X148195341Y-95952048D01*
X148177377Y-95972388D01*
X148164280Y-96000283D01*
X148157745Y-96012047D01*
X148140985Y-96037905D01*
X148138963Y-96044667D01*
X148133211Y-96063899D01*
X148127981Y-96077597D01*
X148116447Y-96102163D01*
X148115361Y-96109138D01*
X148111707Y-96132604D01*
X148108735Y-96145738D01*
X148101928Y-96168499D01*
X148101927Y-96168507D01*
X148099907Y-96175261D01*
X148099864Y-96182314D01*
X148099741Y-96202389D01*
X148098565Y-96217013D01*
X148094391Y-96243823D01*
X148096518Y-96260082D01*
X148098386Y-96274368D01*
X148099220Y-96287809D01*
X148099193Y-96292204D01*
X148099079Y-96310843D01*
X148099031Y-96318624D01*
X148100970Y-96325408D01*
X148100970Y-96325409D01*
X148106487Y-96344711D01*
X148109463Y-96359082D01*
X148112065Y-96378986D01*
X148112066Y-96378990D01*
X148112980Y-96385979D01*
X148115820Y-96392433D01*
X148115820Y-96392434D01*
X148125389Y-96414181D01*
X148129958Y-96426836D01*
X148138428Y-96456471D01*
X148142190Y-96462434D01*
X148142192Y-96462438D01*
X148152909Y-96479424D01*
X148159793Y-96492369D01*
X148170720Y-96517203D01*
X148175260Y-96522604D01*
X148190544Y-96540787D01*
X148198486Y-96551657D01*
X148214930Y-96577720D01*
X148220214Y-96582387D01*
X148220216Y-96582389D01*
X148235269Y-96595684D01*
X148245513Y-96606182D01*
X148253032Y-96615126D01*
X148262970Y-96626948D01*
X148268841Y-96630856D01*
X148268842Y-96630857D01*
X148288621Y-96644023D01*
X148299297Y-96652230D01*
X148322388Y-96672623D01*
X148328770Y-96675619D01*
X148328774Y-96675622D01*
X148346944Y-96684152D01*
X148359722Y-96691352D01*
X148382313Y-96706390D01*
X148389042Y-96708492D01*
X148389046Y-96708494D01*
X148411720Y-96715577D01*
X148424268Y-96720456D01*
X148452163Y-96733553D01*
X148478982Y-96737729D01*
X148493261Y-96741051D01*
X148519157Y-96749142D01*
X148539335Y-96749512D01*
X148553093Y-96749764D01*
X148557695Y-96749984D01*
X148561009Y-96750500D01*
X148592340Y-96750500D01*
X148594155Y-96750517D01*
X148655447Y-96751641D01*
X148655449Y-96751641D01*
X148662499Y-96751770D01*
X148666100Y-96750788D01*
X148670746Y-96750500D01*
X163592340Y-96750500D01*
X163594155Y-96750517D01*
X163655447Y-96751641D01*
X163655449Y-96751641D01*
X163662499Y-96751770D01*
X163666100Y-96750788D01*
X163670746Y-96750500D01*
X178842340Y-96750500D01*
X178844155Y-96750517D01*
X178905447Y-96751641D01*
X178905449Y-96751641D01*
X178912499Y-96751770D01*
X178916100Y-96750788D01*
X178920746Y-96750500D01*
X180301678Y-96750500D01*
X180359869Y-96769407D01*
X180371682Y-96779496D01*
X180770504Y-97178318D01*
X180798281Y-97232835D01*
X180799500Y-97248322D01*
X180799500Y-103119095D01*
X180780593Y-103177286D01*
X180731093Y-103213250D01*
X180672135Y-103213944D01*
X180625199Y-103199907D01*
X180618145Y-103199864D01*
X180616574Y-103199629D01*
X180599459Y-103197663D01*
X180597889Y-103197537D01*
X180591013Y-103195981D01*
X180568458Y-103197380D01*
X180539835Y-103199156D01*
X180533101Y-103199344D01*
X180488889Y-103199074D01*
X180488888Y-103199074D01*
X180481836Y-103199031D01*
X180475052Y-103200970D01*
X180473488Y-103201184D01*
X180456519Y-103204100D01*
X180454965Y-103204422D01*
X180447922Y-103204859D01*
X180412656Y-103217590D01*
X180399700Y-103222267D01*
X180393291Y-103224337D01*
X180350772Y-103236489D01*
X180350770Y-103236490D01*
X180343989Y-103238428D01*
X180338024Y-103242192D01*
X180336561Y-103242846D01*
X180321113Y-103250397D01*
X180319704Y-103251146D01*
X180313073Y-103253540D01*
X180307380Y-103257699D01*
X180307378Y-103257700D01*
X180271678Y-103283781D01*
X180266107Y-103287567D01*
X180222740Y-103314930D01*
X180218073Y-103320214D01*
X180218071Y-103320216D01*
X180187168Y-103355208D01*
X180182968Y-103359678D01*
X179572142Y-103970504D01*
X179517625Y-103998281D01*
X179502138Y-103999500D01*
X178858409Y-103999500D01*
X178857804Y-103999498D01*
X178856942Y-103999493D01*
X178781376Y-103999031D01*
X178780100Y-103999396D01*
X178778571Y-103999500D01*
X163608409Y-103999500D01*
X163607804Y-103999498D01*
X163606942Y-103999493D01*
X163531376Y-103999031D01*
X163530100Y-103999396D01*
X163528571Y-103999500D01*
X148608409Y-103999500D01*
X148607804Y-103999498D01*
X148538432Y-103999074D01*
X148538431Y-103999074D01*
X148531376Y-103999031D01*
X148501747Y-104007500D01*
X148488582Y-104010309D01*
X148458082Y-104014677D01*
X148451662Y-104017596D01*
X148451658Y-104017597D01*
X148433381Y-104025907D01*
X148419616Y-104030972D01*
X148393529Y-104038428D01*
X148387564Y-104042192D01*
X148387563Y-104042192D01*
X148367474Y-104054867D01*
X148355622Y-104061262D01*
X148333992Y-104071096D01*
X148333987Y-104071099D01*
X148327572Y-104074016D01*
X148322229Y-104078620D01*
X148307022Y-104091723D01*
X148295227Y-104100451D01*
X148278249Y-104111163D01*
X148278245Y-104111167D01*
X148272280Y-104114930D01*
X148251877Y-104138033D01*
X148242308Y-104147485D01*
X148218963Y-104167600D01*
X148215126Y-104173520D01*
X148204206Y-104190367D01*
X148195341Y-104202048D01*
X148177377Y-104222388D01*
X148164280Y-104250283D01*
X148157745Y-104262047D01*
X148140985Y-104287905D01*
X148138963Y-104294667D01*
X148133211Y-104313899D01*
X148127981Y-104327597D01*
X148116447Y-104352163D01*
X148115361Y-104359138D01*
X148111707Y-104382604D01*
X148108735Y-104395738D01*
X148101928Y-104418499D01*
X148101927Y-104418507D01*
X148099907Y-104425261D01*
X148099832Y-104437577D01*
X148099741Y-104452389D01*
X148098565Y-104467013D01*
X148094391Y-104493823D01*
X148095306Y-104500817D01*
X148098386Y-104524368D01*
X148099220Y-104537809D01*
X148099031Y-104568624D01*
X148100970Y-104575408D01*
X148100970Y-104575409D01*
X148106487Y-104594711D01*
X148109463Y-104609082D01*
X148112065Y-104628986D01*
X148112066Y-104628990D01*
X148112980Y-104635979D01*
X148115820Y-104642433D01*
X148115820Y-104642434D01*
X148125389Y-104664181D01*
X148129958Y-104676836D01*
X148138428Y-104706471D01*
X148142190Y-104712434D01*
X148142192Y-104712438D01*
X148152909Y-104729424D01*
X148159793Y-104742369D01*
X148170720Y-104767203D01*
X148175260Y-104772604D01*
X148190544Y-104790787D01*
X148198486Y-104801657D01*
X148214930Y-104827720D01*
X148220214Y-104832387D01*
X148220216Y-104832389D01*
X148235269Y-104845684D01*
X148245513Y-104856182D01*
X148254963Y-104867423D01*
X148262970Y-104876948D01*
X148268841Y-104880856D01*
X148268842Y-104880857D01*
X148288621Y-104894023D01*
X148299297Y-104902230D01*
X148315435Y-104916482D01*
X148322388Y-104922623D01*
X148328770Y-104925619D01*
X148328774Y-104925622D01*
X148346944Y-104934152D01*
X148359722Y-104941352D01*
X148382313Y-104956390D01*
X148389042Y-104958492D01*
X148389046Y-104958494D01*
X148411720Y-104965577D01*
X148424268Y-104970456D01*
X148452163Y-104983553D01*
X148478982Y-104987729D01*
X148493261Y-104991051D01*
X148519157Y-104999142D01*
X148539335Y-104999512D01*
X148553093Y-104999764D01*
X148557695Y-104999984D01*
X148561009Y-105000500D01*
X148592340Y-105000500D01*
X148594155Y-105000517D01*
X148655447Y-105001641D01*
X148655449Y-105001641D01*
X148662499Y-105001770D01*
X148666100Y-105000788D01*
X148670746Y-105000500D01*
X163592340Y-105000500D01*
X163594155Y-105000517D01*
X163655447Y-105001641D01*
X163655449Y-105001641D01*
X163662499Y-105001770D01*
X163666100Y-105000788D01*
X163670746Y-105000500D01*
X178842340Y-105000500D01*
X178844155Y-105000517D01*
X178905447Y-105001641D01*
X178905449Y-105001641D01*
X178912499Y-105001770D01*
X178916100Y-105000788D01*
X178920746Y-105000500D01*
X179683294Y-105000500D01*
X179695995Y-105001919D01*
X179695997Y-105001897D01*
X179703029Y-105002463D01*
X179709907Y-105004019D01*
X179763561Y-105000690D01*
X179769693Y-105000500D01*
X179786400Y-105000500D01*
X179789887Y-105000001D01*
X179789895Y-105000000D01*
X179797581Y-104998899D01*
X179805484Y-104998089D01*
X179845961Y-104995578D01*
X179845964Y-104995577D01*
X179852998Y-104995141D01*
X179859627Y-104992748D01*
X179859631Y-104992747D01*
X179862647Y-104991658D01*
X179882223Y-104986777D01*
X179883415Y-104986606D01*
X179885396Y-104986323D01*
X179885397Y-104986323D01*
X179892378Y-104985323D01*
X179898797Y-104982404D01*
X179898802Y-104982403D01*
X179935717Y-104965619D01*
X179943075Y-104962623D01*
X179971163Y-104952483D01*
X179987847Y-104946460D01*
X179996132Y-104940408D01*
X180013546Y-104930232D01*
X180022888Y-104925984D01*
X180050456Y-104902230D01*
X180058955Y-104894907D01*
X180065176Y-104889967D01*
X180065606Y-104889653D01*
X180076796Y-104881478D01*
X180088260Y-104870014D01*
X180093641Y-104865019D01*
X180126153Y-104837005D01*
X180126154Y-104837004D01*
X180131497Y-104832400D01*
X180136171Y-104825189D01*
X180149242Y-104809033D01*
X180630496Y-104327778D01*
X180685013Y-104300000D01*
X180745445Y-104309571D01*
X180788710Y-104352836D01*
X180799500Y-104397781D01*
X180799500Y-105451658D01*
X180780593Y-105509849D01*
X180770504Y-105521662D01*
X180521662Y-105770504D01*
X180467145Y-105798281D01*
X180451658Y-105799500D01*
X178991353Y-105799500D01*
X178956596Y-105793198D01*
X178948739Y-105790252D01*
X178941423Y-105787169D01*
X178904715Y-105769935D01*
X178904711Y-105769934D01*
X178898326Y-105766936D01*
X178891358Y-105765851D01*
X178891354Y-105765850D01*
X178888197Y-105765359D01*
X178868669Y-105760236D01*
X178865669Y-105759111D01*
X178865667Y-105759111D01*
X178859069Y-105756637D01*
X178811581Y-105753108D01*
X178803696Y-105752202D01*
X178793261Y-105750577D01*
X178793253Y-105750576D01*
X178789480Y-105749989D01*
X178773280Y-105749989D01*
X178765944Y-105749717D01*
X178762654Y-105749473D01*
X178716097Y-105746013D01*
X178709202Y-105747485D01*
X178709200Y-105747485D01*
X178707688Y-105747808D01*
X178687021Y-105749989D01*
X163716676Y-105749989D01*
X163703975Y-105748570D01*
X163703973Y-105748592D01*
X163696941Y-105748026D01*
X163690063Y-105746470D01*
X163638903Y-105749644D01*
X163636408Y-105749799D01*
X163630277Y-105749989D01*
X163613571Y-105749989D01*
X163610084Y-105750488D01*
X163610076Y-105750489D01*
X163602390Y-105751590D01*
X163594487Y-105752400D01*
X163554010Y-105754911D01*
X163554007Y-105754912D01*
X163546973Y-105755348D01*
X163540344Y-105757741D01*
X163540340Y-105757742D01*
X163537324Y-105758831D01*
X163517748Y-105763712D01*
X163517146Y-105763798D01*
X163514575Y-105764166D01*
X163514574Y-105764166D01*
X163507593Y-105765166D01*
X163501174Y-105768085D01*
X163501169Y-105768086D01*
X163464254Y-105784870D01*
X163456897Y-105787865D01*
X163440965Y-105793617D01*
X163407347Y-105799500D01*
X148608409Y-105799500D01*
X148607804Y-105799498D01*
X148538432Y-105799074D01*
X148538431Y-105799074D01*
X148531376Y-105799031D01*
X148501747Y-105807500D01*
X148488582Y-105810309D01*
X148458082Y-105814677D01*
X148451662Y-105817596D01*
X148451658Y-105817597D01*
X148433381Y-105825907D01*
X148419616Y-105830972D01*
X148393529Y-105838428D01*
X148387564Y-105842192D01*
X148387563Y-105842192D01*
X148367474Y-105854867D01*
X148355622Y-105861262D01*
X148333992Y-105871096D01*
X148333987Y-105871099D01*
X148327572Y-105874016D01*
X148322229Y-105878620D01*
X148307022Y-105891723D01*
X148295227Y-105900451D01*
X148278249Y-105911163D01*
X148278245Y-105911167D01*
X148272280Y-105914930D01*
X148251877Y-105938033D01*
X148242308Y-105947485D01*
X148218963Y-105967600D01*
X148212039Y-105978283D01*
X148204206Y-105990367D01*
X148195341Y-106002048D01*
X148177377Y-106022388D01*
X148164280Y-106050283D01*
X148157745Y-106062047D01*
X148140985Y-106087905D01*
X148138963Y-106094667D01*
X148133211Y-106113899D01*
X148127981Y-106127597D01*
X148116447Y-106152163D01*
X148115361Y-106159138D01*
X148111707Y-106182604D01*
X148108735Y-106195738D01*
X148101928Y-106218499D01*
X148101927Y-106218507D01*
X148099907Y-106225261D01*
X148099864Y-106232314D01*
X148099741Y-106252389D01*
X148098565Y-106267013D01*
X148094391Y-106293823D01*
X148095306Y-106300817D01*
X148098386Y-106324368D01*
X148099220Y-106337809D01*
X148099031Y-106368624D01*
X148100970Y-106375408D01*
X148100970Y-106375409D01*
X148106487Y-106394711D01*
X148109463Y-106409082D01*
X148112065Y-106428986D01*
X148112066Y-106428990D01*
X148112980Y-106435979D01*
X148115820Y-106442433D01*
X148115820Y-106442434D01*
X148125389Y-106464181D01*
X148129958Y-106476836D01*
X148138428Y-106506471D01*
X148142190Y-106512434D01*
X148142192Y-106512438D01*
X148152909Y-106529424D01*
X148159793Y-106542369D01*
X148170720Y-106567203D01*
X148175260Y-106572604D01*
X148190544Y-106590787D01*
X148198486Y-106601657D01*
X148214930Y-106627720D01*
X148220214Y-106632387D01*
X148220216Y-106632389D01*
X148235269Y-106645684D01*
X148245513Y-106656182D01*
X148254963Y-106667423D01*
X148262970Y-106676948D01*
X148268841Y-106680856D01*
X148268842Y-106680857D01*
X148288621Y-106694023D01*
X148299297Y-106702230D01*
X148322388Y-106722623D01*
X148328770Y-106725619D01*
X148328774Y-106725622D01*
X148346944Y-106734152D01*
X148359722Y-106741352D01*
X148382313Y-106756390D01*
X148389042Y-106758492D01*
X148389046Y-106758494D01*
X148411720Y-106765577D01*
X148424268Y-106770456D01*
X148452163Y-106783553D01*
X148478982Y-106787729D01*
X148493261Y-106791051D01*
X148519157Y-106799142D01*
X148539335Y-106799512D01*
X148553093Y-106799764D01*
X148557695Y-106799984D01*
X148561009Y-106800500D01*
X148592340Y-106800500D01*
X148594155Y-106800517D01*
X148655447Y-106801641D01*
X148655449Y-106801641D01*
X148662499Y-106801770D01*
X148666100Y-106800788D01*
X148670746Y-106800500D01*
X163532834Y-106800500D01*
X163545535Y-106801919D01*
X163545537Y-106801897D01*
X163552569Y-106802463D01*
X163559447Y-106804019D01*
X163599907Y-106801509D01*
X163606969Y-106801071D01*
X163614913Y-106800898D01*
X163655446Y-106801641D01*
X163655448Y-106801641D01*
X163662499Y-106801770D01*
X163672400Y-106799071D01*
X163692304Y-106795776D01*
X163695500Y-106795578D01*
X163695502Y-106795578D01*
X163702538Y-106795141D01*
X163709167Y-106792748D01*
X163709171Y-106792747D01*
X163712187Y-106791658D01*
X163731763Y-106786777D01*
X163732955Y-106786606D01*
X163734936Y-106786323D01*
X163734937Y-106786323D01*
X163741918Y-106785323D01*
X163748336Y-106782405D01*
X163748339Y-106782404D01*
X163763261Y-106775619D01*
X163778197Y-106770227D01*
X163794013Y-106765915D01*
X163800817Y-106764060D01*
X163806826Y-106760370D01*
X163809690Y-106759131D01*
X163849007Y-106750989D01*
X178550911Y-106750989D01*
X178581815Y-106757981D01*
X178582312Y-106756390D01*
X178611720Y-106765577D01*
X178624268Y-106770456D01*
X178652163Y-106783553D01*
X178662300Y-106785131D01*
X178681816Y-106790252D01*
X178691419Y-106793852D01*
X178698451Y-106794375D01*
X178705341Y-106795890D01*
X178705281Y-106796164D01*
X178705419Y-106796190D01*
X178705464Y-106795912D01*
X178712424Y-106797039D01*
X178719157Y-106799142D01*
X178738798Y-106799502D01*
X178753093Y-106799764D01*
X178757695Y-106799984D01*
X178761009Y-106800500D01*
X178777208Y-106800500D01*
X178784544Y-106800772D01*
X178786240Y-106800898D01*
X178834391Y-106804476D01*
X178841292Y-106803003D01*
X178848326Y-106802523D01*
X178848345Y-106802806D01*
X178848483Y-106802793D01*
X178848448Y-106802512D01*
X178855447Y-106801640D01*
X178862499Y-106801770D01*
X178866100Y-106800788D01*
X178870744Y-106800500D01*
X180632814Y-106800500D01*
X180645515Y-106801919D01*
X180645517Y-106801897D01*
X180652549Y-106802463D01*
X180659427Y-106804019D01*
X180713081Y-106800690D01*
X180719213Y-106800500D01*
X180735920Y-106800500D01*
X180739407Y-106800001D01*
X180739415Y-106800000D01*
X180747101Y-106798899D01*
X180755004Y-106798089D01*
X180795481Y-106795578D01*
X180795484Y-106795577D01*
X180802518Y-106795141D01*
X180809147Y-106792748D01*
X180809151Y-106792747D01*
X180812167Y-106791658D01*
X180831743Y-106786777D01*
X180832935Y-106786606D01*
X180834916Y-106786323D01*
X180834917Y-106786323D01*
X180841898Y-106785323D01*
X180848317Y-106782404D01*
X180848322Y-106782403D01*
X180885237Y-106765619D01*
X180892595Y-106762623D01*
X180909860Y-106756390D01*
X180937367Y-106746460D01*
X180945652Y-106740408D01*
X180963066Y-106730232D01*
X180972408Y-106725984D01*
X180999976Y-106702230D01*
X181008475Y-106694907D01*
X181014696Y-106689967D01*
X181015126Y-106689653D01*
X181026316Y-106681478D01*
X181037780Y-106670014D01*
X181043161Y-106665019D01*
X181075673Y-106637005D01*
X181075674Y-106637004D01*
X181081017Y-106632400D01*
X181085691Y-106625189D01*
X181098762Y-106609032D01*
X181603781Y-106104013D01*
X181611861Y-106097638D01*
X181611533Y-106097242D01*
X181616499Y-106093119D01*
X181617391Y-106092471D01*
X181622971Y-106089045D01*
X181625078Y-106086717D01*
X181627720Y-106085050D01*
X181663292Y-106044772D01*
X181667492Y-106040302D01*
X181679320Y-106028474D01*
X181683906Y-106022355D01*
X181689724Y-106015297D01*
X181719180Y-105982754D01*
X181720240Y-105980566D01*
X181721955Y-105978349D01*
X181722629Y-105977586D01*
X181723418Y-105978283D01*
X181766008Y-105944164D01*
X181827126Y-105941283D01*
X181878264Y-105974877D01*
X181900000Y-106036774D01*
X181900000Y-115362976D01*
X181881093Y-115421167D01*
X181831593Y-115457131D01*
X181770407Y-115457131D01*
X181727697Y-115426100D01*
X181725987Y-115427574D01*
X181721710Y-115422611D01*
X181710779Y-115406736D01*
X181709816Y-115405435D01*
X181706468Y-115399229D01*
X181670437Y-115362755D01*
X181665868Y-115357804D01*
X181637002Y-115324303D01*
X181636999Y-115324300D01*
X181632400Y-115318963D01*
X181626482Y-115315127D01*
X181625285Y-115314083D01*
X181611933Y-115303213D01*
X181610672Y-115302256D01*
X181605714Y-115297237D01*
X181561364Y-115272602D01*
X181560889Y-115272338D01*
X181555134Y-115268881D01*
X181512095Y-115240985D01*
X181505338Y-115238965D01*
X181503885Y-115238293D01*
X181488020Y-115231608D01*
X181486548Y-115231046D01*
X181480384Y-115227622D01*
X181430363Y-115216303D01*
X181423851Y-115214594D01*
X181381497Y-115201928D01*
X181374739Y-115199907D01*
X181367688Y-115199864D01*
X181366117Y-115199629D01*
X181348998Y-115197663D01*
X181347428Y-115197537D01*
X181340552Y-115195981D01*
X181317997Y-115197380D01*
X181289374Y-115199156D01*
X181282640Y-115199344D01*
X181238429Y-115199074D01*
X181238428Y-115199074D01*
X181231376Y-115199031D01*
X181224592Y-115200970D01*
X181223028Y-115201184D01*
X181206059Y-115204100D01*
X181204505Y-115204422D01*
X181197462Y-115204859D01*
X181190825Y-115207255D01*
X181149240Y-115222267D01*
X181142831Y-115224337D01*
X181100312Y-115236489D01*
X181100310Y-115236490D01*
X181093529Y-115238428D01*
X181087564Y-115242192D01*
X181086101Y-115242846D01*
X181070653Y-115250397D01*
X181069244Y-115251146D01*
X181062613Y-115253540D01*
X181056920Y-115257699D01*
X181056918Y-115257700D01*
X181021218Y-115283781D01*
X181015647Y-115287567D01*
X180972280Y-115314930D01*
X180967613Y-115320214D01*
X180967611Y-115320216D01*
X180936708Y-115355208D01*
X180932508Y-115359678D01*
X180521682Y-115770504D01*
X180467165Y-115798281D01*
X180451678Y-115799500D01*
X179008409Y-115799500D01*
X179007804Y-115799498D01*
X179006942Y-115799493D01*
X178931376Y-115799031D01*
X178930100Y-115799396D01*
X178928571Y-115799500D01*
X163708409Y-115799500D01*
X163707804Y-115799498D01*
X163706942Y-115799493D01*
X163631376Y-115799031D01*
X163630100Y-115799396D01*
X163628571Y-115799500D01*
X148608409Y-115799500D01*
X148607804Y-115799498D01*
X148538432Y-115799074D01*
X148538431Y-115799074D01*
X148531376Y-115799031D01*
X148501747Y-115807500D01*
X148488582Y-115810309D01*
X148458082Y-115814677D01*
X148451662Y-115817596D01*
X148451658Y-115817597D01*
X148433381Y-115825907D01*
X148419616Y-115830972D01*
X148393529Y-115838428D01*
X148387564Y-115842192D01*
X148387563Y-115842192D01*
X148367474Y-115854867D01*
X148355622Y-115861262D01*
X148333992Y-115871096D01*
X148333987Y-115871099D01*
X148327572Y-115874016D01*
X148322229Y-115878620D01*
X148307022Y-115891723D01*
X148295227Y-115900451D01*
X148278249Y-115911163D01*
X148278245Y-115911167D01*
X148272280Y-115914930D01*
X148251877Y-115938033D01*
X148242308Y-115947485D01*
X148218963Y-115967600D01*
X148215126Y-115973520D01*
X148204206Y-115990367D01*
X148195341Y-116002048D01*
X148177377Y-116022388D01*
X148164280Y-116050283D01*
X148157745Y-116062047D01*
X148140985Y-116087905D01*
X148138963Y-116094667D01*
X148133211Y-116113899D01*
X148127981Y-116127597D01*
X148116447Y-116152163D01*
X148115361Y-116159138D01*
X148111707Y-116182604D01*
X148108735Y-116195738D01*
X148101928Y-116218499D01*
X148101927Y-116218507D01*
X148099907Y-116225261D01*
X148099864Y-116232314D01*
X148099741Y-116252389D01*
X148098565Y-116267013D01*
X148094391Y-116293823D01*
X148095306Y-116300817D01*
X148098386Y-116324368D01*
X148099220Y-116337809D01*
X148099031Y-116368624D01*
X148100970Y-116375408D01*
X148100970Y-116375409D01*
X148106487Y-116394711D01*
X148109463Y-116409082D01*
X148112065Y-116428986D01*
X148112066Y-116428990D01*
X148112980Y-116435979D01*
X148115820Y-116442433D01*
X148115820Y-116442434D01*
X148125389Y-116464181D01*
X148129958Y-116476836D01*
X148138428Y-116506471D01*
X148142190Y-116512434D01*
X148142192Y-116512438D01*
X148152909Y-116529424D01*
X148159793Y-116542369D01*
X148170720Y-116567203D01*
X148175260Y-116572604D01*
X148190544Y-116590787D01*
X148198486Y-116601657D01*
X148214930Y-116627720D01*
X148220214Y-116632387D01*
X148220216Y-116632389D01*
X148235269Y-116645684D01*
X148245513Y-116656182D01*
X148258429Y-116671546D01*
X148262970Y-116676948D01*
X148268841Y-116680856D01*
X148268842Y-116680857D01*
X148288621Y-116694023D01*
X148299297Y-116702230D01*
X148322388Y-116722623D01*
X148328770Y-116725619D01*
X148328774Y-116725622D01*
X148346944Y-116734152D01*
X148359722Y-116741352D01*
X148382313Y-116756390D01*
X148389042Y-116758492D01*
X148389046Y-116758494D01*
X148411720Y-116765577D01*
X148424268Y-116770456D01*
X148452163Y-116783553D01*
X148478982Y-116787729D01*
X148493261Y-116791051D01*
X148519157Y-116799142D01*
X148539335Y-116799512D01*
X148553093Y-116799764D01*
X148557695Y-116799984D01*
X148561009Y-116800500D01*
X148592340Y-116800500D01*
X148594155Y-116800517D01*
X148655447Y-116801641D01*
X148655449Y-116801641D01*
X148662499Y-116801770D01*
X148666100Y-116800788D01*
X148670746Y-116800500D01*
X163692340Y-116800500D01*
X163694155Y-116800517D01*
X163755447Y-116801641D01*
X163755449Y-116801641D01*
X163762499Y-116801770D01*
X163766100Y-116800788D01*
X163770746Y-116800500D01*
X178992340Y-116800500D01*
X178994155Y-116800517D01*
X179055447Y-116801641D01*
X179055449Y-116801641D01*
X179062499Y-116801770D01*
X179066100Y-116800788D01*
X179070746Y-116800500D01*
X180632834Y-116800500D01*
X180645535Y-116801919D01*
X180645537Y-116801897D01*
X180652569Y-116802463D01*
X180659447Y-116804019D01*
X180713101Y-116800690D01*
X180719233Y-116800500D01*
X180735940Y-116800500D01*
X180739427Y-116800001D01*
X180739435Y-116800000D01*
X180747121Y-116798899D01*
X180755024Y-116798089D01*
X180795501Y-116795578D01*
X180795504Y-116795577D01*
X180802538Y-116795141D01*
X180809167Y-116792748D01*
X180809171Y-116792747D01*
X180812187Y-116791658D01*
X180831763Y-116786777D01*
X180832955Y-116786606D01*
X180834936Y-116786323D01*
X180834937Y-116786323D01*
X180841918Y-116785323D01*
X180848337Y-116782404D01*
X180848342Y-116782403D01*
X180885257Y-116765619D01*
X180892615Y-116762623D01*
X180922736Y-116751749D01*
X180937387Y-116746460D01*
X180945672Y-116740408D01*
X180963086Y-116730232D01*
X180972428Y-116725984D01*
X181000060Y-116702175D01*
X181008495Y-116694907D01*
X181014716Y-116689967D01*
X181017471Y-116687954D01*
X181026336Y-116681478D01*
X181037800Y-116670014D01*
X181043181Y-116665019D01*
X181075693Y-116637005D01*
X181075694Y-116637004D01*
X181081037Y-116632400D01*
X181085711Y-116625189D01*
X181098782Y-116609032D01*
X181603801Y-116104013D01*
X181611883Y-116097636D01*
X181611554Y-116097240D01*
X181616978Y-116092737D01*
X181622991Y-116089045D01*
X181632558Y-116078476D01*
X181661620Y-116046368D01*
X181665014Y-116042800D01*
X181679320Y-116028494D01*
X181683897Y-116022387D01*
X181689715Y-116015329D01*
X181714466Y-115987985D01*
X181714468Y-115987982D01*
X181719200Y-115982754D01*
X181720444Y-115980186D01*
X181767142Y-115943704D01*
X181828290Y-115941570D01*
X181879014Y-115975785D01*
X181900000Y-116036734D01*
X181900000Y-125962976D01*
X181881093Y-126021167D01*
X181831593Y-126057131D01*
X181770407Y-126057131D01*
X181728856Y-126025095D01*
X181725983Y-126027571D01*
X181708277Y-126007022D01*
X181699549Y-125995227D01*
X181688837Y-125978249D01*
X181688833Y-125978245D01*
X181685070Y-125972280D01*
X181661967Y-125951877D01*
X181652511Y-125942304D01*
X181632400Y-125918963D01*
X181609633Y-125904206D01*
X181597952Y-125895341D01*
X181577612Y-125877377D01*
X181549717Y-125864280D01*
X181537953Y-125857745D01*
X181518018Y-125844824D01*
X181512095Y-125840985D01*
X181494279Y-125835657D01*
X181486101Y-125833211D01*
X181472403Y-125827981D01*
X181447837Y-125816447D01*
X181417397Y-125811707D01*
X181404262Y-125808735D01*
X181381501Y-125801928D01*
X181381493Y-125801927D01*
X181374739Y-125799907D01*
X181340997Y-125799701D01*
X181340019Y-125799660D01*
X181338991Y-125799500D01*
X181308409Y-125799500D01*
X181307804Y-125799498D01*
X181306942Y-125799493D01*
X181231376Y-125799031D01*
X181230100Y-125799396D01*
X181228571Y-125799500D01*
X178908409Y-125799500D01*
X178907804Y-125799498D01*
X178906942Y-125799493D01*
X178831376Y-125799031D01*
X178830100Y-125799396D01*
X178828571Y-125799500D01*
X163708409Y-125799500D01*
X163707804Y-125799498D01*
X163706942Y-125799493D01*
X163631376Y-125799031D01*
X163630100Y-125799396D01*
X163628571Y-125799500D01*
X148608409Y-125799500D01*
X148607804Y-125799498D01*
X148538432Y-125799074D01*
X148538431Y-125799074D01*
X148531376Y-125799031D01*
X148501747Y-125807500D01*
X148488582Y-125810309D01*
X148458082Y-125814677D01*
X148451662Y-125817596D01*
X148451658Y-125817597D01*
X148433381Y-125825907D01*
X148419616Y-125830972D01*
X148393529Y-125838428D01*
X148387564Y-125842192D01*
X148387563Y-125842192D01*
X148367474Y-125854867D01*
X148355622Y-125861262D01*
X148333992Y-125871096D01*
X148333987Y-125871099D01*
X148327572Y-125874016D01*
X148322229Y-125878620D01*
X148307022Y-125891723D01*
X148295227Y-125900451D01*
X148278249Y-125911163D01*
X148278245Y-125911167D01*
X148272280Y-125914930D01*
X148251877Y-125938033D01*
X148242308Y-125947485D01*
X148218963Y-125967600D01*
X148215126Y-125973520D01*
X148204206Y-125990367D01*
X148195341Y-126002048D01*
X148177377Y-126022388D01*
X148164280Y-126050283D01*
X148157745Y-126062047D01*
X148140985Y-126087905D01*
X148138963Y-126094667D01*
X148133211Y-126113899D01*
X148127981Y-126127597D01*
X148116447Y-126152163D01*
X148115361Y-126159138D01*
X148111707Y-126182604D01*
X148108735Y-126195738D01*
X148101928Y-126218499D01*
X148101927Y-126218507D01*
X148099907Y-126225261D01*
X148099864Y-126232314D01*
X148099741Y-126252389D01*
X148098565Y-126267013D01*
X148094391Y-126293823D01*
X148096815Y-126312354D01*
X148098386Y-126324368D01*
X148099220Y-126337809D01*
X148099031Y-126368624D01*
X148100970Y-126375408D01*
X148100970Y-126375409D01*
X148106487Y-126394711D01*
X148109463Y-126409082D01*
X148112065Y-126428986D01*
X148112066Y-126428990D01*
X148112980Y-126435979D01*
X148115820Y-126442433D01*
X148115820Y-126442434D01*
X148125389Y-126464181D01*
X148129958Y-126476836D01*
X148138428Y-126506471D01*
X148142190Y-126512434D01*
X148142192Y-126512438D01*
X148152909Y-126529424D01*
X148159793Y-126542369D01*
X148170720Y-126567203D01*
X148175260Y-126572604D01*
X148190544Y-126590787D01*
X148198486Y-126601657D01*
X148214930Y-126627720D01*
X148220214Y-126632387D01*
X148220216Y-126632389D01*
X148235269Y-126645684D01*
X148245513Y-126656182D01*
X148258429Y-126671546D01*
X148262970Y-126676948D01*
X148268841Y-126680856D01*
X148268842Y-126680857D01*
X148288621Y-126694023D01*
X148299297Y-126702230D01*
X148322388Y-126722623D01*
X148328770Y-126725619D01*
X148328774Y-126725622D01*
X148346944Y-126734152D01*
X148359722Y-126741352D01*
X148382313Y-126756390D01*
X148389042Y-126758492D01*
X148389046Y-126758494D01*
X148411720Y-126765577D01*
X148424268Y-126770456D01*
X148452163Y-126783553D01*
X148478982Y-126787729D01*
X148493261Y-126791051D01*
X148519157Y-126799142D01*
X148539335Y-126799512D01*
X148553093Y-126799764D01*
X148557695Y-126799984D01*
X148561009Y-126800500D01*
X148592340Y-126800500D01*
X148594155Y-126800517D01*
X148655447Y-126801641D01*
X148655449Y-126801641D01*
X148662499Y-126801770D01*
X148666100Y-126800788D01*
X148670746Y-126800500D01*
X163692340Y-126800500D01*
X163694155Y-126800517D01*
X163755447Y-126801641D01*
X163755449Y-126801641D01*
X163762499Y-126801770D01*
X163766100Y-126800788D01*
X163770746Y-126800500D01*
X178892340Y-126800500D01*
X178894155Y-126800517D01*
X178955447Y-126801641D01*
X178955449Y-126801641D01*
X178962499Y-126801770D01*
X178966100Y-126800788D01*
X178970746Y-126800500D01*
X181292340Y-126800500D01*
X181294155Y-126800517D01*
X181355445Y-126801641D01*
X181355447Y-126801641D01*
X181362499Y-126801770D01*
X181369302Y-126799915D01*
X181369305Y-126799915D01*
X181395773Y-126792699D01*
X181407776Y-126790213D01*
X181417229Y-126788859D01*
X181441918Y-126785323D01*
X181463261Y-126775619D01*
X181478197Y-126770227D01*
X181482343Y-126769097D01*
X181500817Y-126764060D01*
X181530209Y-126746013D01*
X181541030Y-126740260D01*
X181566004Y-126728905D01*
X181566005Y-126728904D01*
X181572428Y-126725984D01*
X181590190Y-126710679D01*
X181603012Y-126701312D01*
X181616978Y-126692737D01*
X181622991Y-126689045D01*
X181646135Y-126663475D01*
X181654911Y-126654911D01*
X181675693Y-126637005D01*
X181675694Y-126637003D01*
X181681037Y-126632400D01*
X181693794Y-126612719D01*
X181703466Y-126600137D01*
X181714465Y-126587986D01*
X181714467Y-126587983D01*
X181719200Y-126582754D01*
X181720444Y-126580186D01*
X181767138Y-126543704D01*
X181828286Y-126541568D01*
X181879012Y-126575781D01*
X181900000Y-126636733D01*
X181900000Y-127466040D01*
X181897482Y-127488227D01*
X181894857Y-127499642D01*
X181897318Y-127510517D01*
X181897298Y-127521664D01*
X181897137Y-127521664D01*
X181897924Y-127531669D01*
X181885026Y-127728469D01*
X181883336Y-127741309D01*
X181839933Y-127959511D01*
X181836581Y-127972020D01*
X181765067Y-128182691D01*
X181760111Y-128194654D01*
X181661716Y-128394180D01*
X181655247Y-128405386D01*
X181531635Y-128590385D01*
X181523767Y-128600639D01*
X181391003Y-128752027D01*
X181377070Y-128767914D01*
X181367915Y-128777069D01*
X181200639Y-128923767D01*
X181190385Y-128931635D01*
X181005386Y-129055247D01*
X180994180Y-129061716D01*
X180815697Y-129149734D01*
X180794654Y-129160111D01*
X180782692Y-129165067D01*
X180572016Y-129236582D01*
X180559516Y-129239932D01*
X180341302Y-129283337D01*
X180328477Y-129285025D01*
X180132181Y-129297891D01*
X180122372Y-129297101D01*
X180122372Y-129297375D01*
X180111222Y-129297355D01*
X180100358Y-129294857D01*
X180089486Y-129297317D01*
X180089484Y-129297317D01*
X180088417Y-129297559D01*
X180066568Y-129300000D01*
X137133960Y-129300000D01*
X137111773Y-129297482D01*
X137100358Y-129294857D01*
X137089483Y-129297318D01*
X137078336Y-129297298D01*
X137078336Y-129297137D01*
X137068331Y-129297924D01*
X136996241Y-129293199D01*
X136871525Y-129285025D01*
X136858698Y-129283337D01*
X136640484Y-129239932D01*
X136627984Y-129236582D01*
X136417308Y-129165067D01*
X136405346Y-129160111D01*
X136384304Y-129149734D01*
X136205820Y-129061716D01*
X136194614Y-129055247D01*
X136009615Y-128931635D01*
X135999361Y-128923767D01*
X135832085Y-128777069D01*
X135822930Y-128767914D01*
X135808997Y-128752027D01*
X135676233Y-128600639D01*
X135668365Y-128590385D01*
X135544753Y-128405386D01*
X135538284Y-128394180D01*
X135439889Y-128194654D01*
X135434933Y-128182691D01*
X135363419Y-127972020D01*
X135360067Y-127959511D01*
X135316664Y-127741309D01*
X135314974Y-127728470D01*
X135302109Y-127532184D01*
X135302899Y-127522372D01*
X135302625Y-127522372D01*
X135302645Y-127511222D01*
X135305143Y-127500358D01*
X135302683Y-127489486D01*
X135302683Y-127489484D01*
X135302441Y-127488417D01*
X135300000Y-127466568D01*
X135300000Y-125334222D01*
X135302557Y-125311867D01*
X135303875Y-125306181D01*
X135305142Y-125300716D01*
X135305143Y-125300000D01*
X135303902Y-125294558D01*
X135303726Y-125292989D01*
X135303293Y-125287961D01*
X135288132Y-125037325D01*
X135288132Y-125037323D01*
X135287951Y-125034335D01*
X135279617Y-124988859D01*
X135240515Y-124775483D01*
X135240514Y-124775479D01*
X135239976Y-124772543D01*
X135160796Y-124518443D01*
X135156336Y-124508533D01*
X135149716Y-124493823D01*
X148094391Y-124493823D01*
X148097255Y-124515718D01*
X148098386Y-124524368D01*
X148099220Y-124537809D01*
X148099031Y-124568624D01*
X148100970Y-124575408D01*
X148100970Y-124575409D01*
X148106487Y-124594711D01*
X148109463Y-124609082D01*
X148112065Y-124628986D01*
X148112066Y-124628990D01*
X148112980Y-124635979D01*
X148115820Y-124642433D01*
X148115820Y-124642434D01*
X148125389Y-124664181D01*
X148129958Y-124676836D01*
X148138428Y-124706471D01*
X148142190Y-124712434D01*
X148142192Y-124712438D01*
X148152909Y-124729424D01*
X148159793Y-124742369D01*
X148170720Y-124767203D01*
X148175260Y-124772604D01*
X148190544Y-124790787D01*
X148198486Y-124801657D01*
X148214930Y-124827720D01*
X148220214Y-124832387D01*
X148220216Y-124832389D01*
X148235269Y-124845684D01*
X148245513Y-124856182D01*
X148258429Y-124871546D01*
X148262970Y-124876948D01*
X148268841Y-124880856D01*
X148268842Y-124880857D01*
X148288621Y-124894023D01*
X148299297Y-124902230D01*
X148322388Y-124922623D01*
X148328770Y-124925619D01*
X148328774Y-124925622D01*
X148346944Y-124934152D01*
X148359722Y-124941352D01*
X148382313Y-124956390D01*
X148389042Y-124958492D01*
X148389046Y-124958494D01*
X148411720Y-124965577D01*
X148424268Y-124970456D01*
X148452163Y-124983553D01*
X148478982Y-124987729D01*
X148493261Y-124991051D01*
X148519157Y-124999142D01*
X148539335Y-124999512D01*
X148553093Y-124999764D01*
X148557695Y-124999984D01*
X148561009Y-125000500D01*
X148592340Y-125000500D01*
X148594155Y-125000517D01*
X148655447Y-125001641D01*
X148655449Y-125001641D01*
X148662499Y-125001770D01*
X148666100Y-125000788D01*
X148670746Y-125000500D01*
X163692340Y-125000500D01*
X163694155Y-125000517D01*
X163755447Y-125001641D01*
X163755449Y-125001641D01*
X163762499Y-125001770D01*
X163766100Y-125000788D01*
X163770746Y-125000500D01*
X178892340Y-125000500D01*
X178894155Y-125000517D01*
X178955447Y-125001641D01*
X178955449Y-125001641D01*
X178962499Y-125001770D01*
X178966100Y-125000788D01*
X178970746Y-125000500D01*
X180392340Y-125000500D01*
X180394155Y-125000517D01*
X180455445Y-125001641D01*
X180455447Y-125001641D01*
X180462499Y-125001770D01*
X180469302Y-124999915D01*
X180469305Y-124999915D01*
X180495773Y-124992699D01*
X180507776Y-124990213D01*
X180517229Y-124988859D01*
X180541918Y-124985323D01*
X180563261Y-124975619D01*
X180578197Y-124970227D01*
X180582343Y-124969097D01*
X180600817Y-124964060D01*
X180630209Y-124946013D01*
X180641030Y-124940260D01*
X180666004Y-124928905D01*
X180666005Y-124928904D01*
X180672428Y-124925984D01*
X180690190Y-124910679D01*
X180703012Y-124901312D01*
X180716978Y-124892737D01*
X180722991Y-124889045D01*
X180746135Y-124863475D01*
X180754911Y-124854911D01*
X180775693Y-124837005D01*
X180775694Y-124837003D01*
X180781037Y-124832400D01*
X180793794Y-124812719D01*
X180803466Y-124800137D01*
X180814465Y-124787985D01*
X180819200Y-124782754D01*
X180834237Y-124751718D01*
X180840253Y-124741041D01*
X180843754Y-124735639D01*
X180859015Y-124712095D01*
X180865736Y-124689622D01*
X180871488Y-124674830D01*
X180878635Y-124660080D01*
X180878635Y-124660079D01*
X180881710Y-124653733D01*
X180887431Y-124619728D01*
X180890210Y-124607787D01*
X180898071Y-124581502D01*
X180898072Y-124581498D01*
X180900093Y-124574739D01*
X180900236Y-124551290D01*
X180901605Y-124535480D01*
X180905496Y-124512354D01*
X180905647Y-124500000D01*
X180901801Y-124473145D01*
X180900803Y-124458505D01*
X180900926Y-124438428D01*
X180900926Y-124438427D01*
X180900969Y-124431376D01*
X180892500Y-124401741D01*
X180889691Y-124388581D01*
X180886323Y-124365064D01*
X180885323Y-124358082D01*
X180882404Y-124351661D01*
X180874093Y-124333381D01*
X180869028Y-124319616D01*
X180863510Y-124300310D01*
X180861572Y-124293529D01*
X180848733Y-124273179D01*
X180845133Y-124267474D01*
X180838738Y-124255622D01*
X180828904Y-124233992D01*
X180828901Y-124233987D01*
X180825984Y-124227572D01*
X180808277Y-124207022D01*
X180799549Y-124195227D01*
X180788837Y-124178249D01*
X180788833Y-124178245D01*
X180785070Y-124172280D01*
X180761967Y-124151877D01*
X180752511Y-124142304D01*
X180732400Y-124118963D01*
X180709633Y-124104206D01*
X180697952Y-124095341D01*
X180677612Y-124077377D01*
X180649717Y-124064280D01*
X180637953Y-124057745D01*
X180618018Y-124044824D01*
X180612095Y-124040985D01*
X180594279Y-124035657D01*
X180586101Y-124033211D01*
X180572403Y-124027981D01*
X180547837Y-124016447D01*
X180517397Y-124011707D01*
X180504262Y-124008735D01*
X180481501Y-124001928D01*
X180481493Y-124001927D01*
X180474739Y-123999907D01*
X180440997Y-123999701D01*
X180440019Y-123999660D01*
X180438991Y-123999500D01*
X180408409Y-123999500D01*
X180407804Y-123999498D01*
X180406942Y-123999493D01*
X180331376Y-123999031D01*
X180330100Y-123999396D01*
X180328571Y-123999500D01*
X178908409Y-123999500D01*
X178907804Y-123999498D01*
X178906942Y-123999493D01*
X178831376Y-123999031D01*
X178830100Y-123999396D01*
X178828571Y-123999500D01*
X163708409Y-123999500D01*
X163707804Y-123999498D01*
X163706942Y-123999493D01*
X163631376Y-123999031D01*
X163630100Y-123999396D01*
X163628571Y-123999500D01*
X148608409Y-123999500D01*
X148607804Y-123999498D01*
X148538432Y-123999074D01*
X148538431Y-123999074D01*
X148531376Y-123999031D01*
X148501747Y-124007500D01*
X148488582Y-124010309D01*
X148458082Y-124014677D01*
X148451662Y-124017596D01*
X148451658Y-124017597D01*
X148433381Y-124025907D01*
X148419616Y-124030972D01*
X148393529Y-124038428D01*
X148387564Y-124042192D01*
X148387563Y-124042192D01*
X148367474Y-124054867D01*
X148355622Y-124061262D01*
X148333992Y-124071096D01*
X148333987Y-124071099D01*
X148327572Y-124074016D01*
X148322229Y-124078620D01*
X148307022Y-124091723D01*
X148295227Y-124100451D01*
X148278249Y-124111163D01*
X148278245Y-124111167D01*
X148272280Y-124114930D01*
X148251877Y-124138033D01*
X148242308Y-124147485D01*
X148218963Y-124167600D01*
X148215126Y-124173520D01*
X148204206Y-124190367D01*
X148195341Y-124202048D01*
X148177377Y-124222388D01*
X148164280Y-124250283D01*
X148157745Y-124262047D01*
X148150530Y-124273179D01*
X148140985Y-124287905D01*
X148138963Y-124294667D01*
X148133211Y-124313899D01*
X148127981Y-124327597D01*
X148116447Y-124352163D01*
X148115361Y-124359138D01*
X148111707Y-124382604D01*
X148108735Y-124395738D01*
X148101928Y-124418499D01*
X148101927Y-124418507D01*
X148099907Y-124425261D01*
X148099761Y-124449151D01*
X148099741Y-124452389D01*
X148098565Y-124467013D01*
X148094391Y-124493823D01*
X135149716Y-124493823D01*
X135052791Y-124278465D01*
X135052787Y-124278457D01*
X135051564Y-124275740D01*
X135039864Y-124256385D01*
X134970899Y-124142304D01*
X134913874Y-124047973D01*
X134749734Y-123838463D01*
X134561537Y-123650266D01*
X134352027Y-123486126D01*
X134124260Y-123348436D01*
X134121543Y-123347213D01*
X134121535Y-123347209D01*
X133884282Y-123240430D01*
X133884276Y-123240428D01*
X133881557Y-123239204D01*
X133627457Y-123160024D01*
X133624521Y-123159486D01*
X133624517Y-123159485D01*
X133368612Y-123112589D01*
X133368611Y-123112589D01*
X133365665Y-123112049D01*
X133362675Y-123111868D01*
X133362674Y-123111868D01*
X133113054Y-123096768D01*
X133107719Y-123096300D01*
X133106171Y-123096122D01*
X133100716Y-123094858D01*
X133100000Y-123094857D01*
X133094551Y-123096100D01*
X133088321Y-123097521D01*
X133066304Y-123100000D01*
X109133960Y-123100000D01*
X109111773Y-123097482D01*
X109100358Y-123094857D01*
X109089483Y-123097318D01*
X109078336Y-123097298D01*
X109078336Y-123097137D01*
X109068331Y-123097924D01*
X108989187Y-123092737D01*
X108871525Y-123085025D01*
X108858698Y-123083337D01*
X108640484Y-123039932D01*
X108627984Y-123036582D01*
X108417308Y-122965067D01*
X108405346Y-122960111D01*
X108384304Y-122949734D01*
X108223340Y-122870356D01*
X108205820Y-122861716D01*
X108194614Y-122855247D01*
X108009615Y-122731635D01*
X107999361Y-122723767D01*
X107965217Y-122693823D01*
X148094391Y-122693823D01*
X148096815Y-122712354D01*
X148098386Y-122724368D01*
X148099220Y-122737809D01*
X148099031Y-122768624D01*
X148100970Y-122775408D01*
X148100970Y-122775409D01*
X148106487Y-122794711D01*
X148109463Y-122809082D01*
X148112065Y-122828986D01*
X148112066Y-122828990D01*
X148112980Y-122835979D01*
X148115820Y-122842433D01*
X148115820Y-122842434D01*
X148125389Y-122864181D01*
X148129958Y-122876836D01*
X148138428Y-122906471D01*
X148142190Y-122912434D01*
X148142192Y-122912438D01*
X148152909Y-122929424D01*
X148159793Y-122942369D01*
X148170720Y-122967203D01*
X148175260Y-122972604D01*
X148190544Y-122990787D01*
X148198486Y-123001657D01*
X148214930Y-123027720D01*
X148220214Y-123032387D01*
X148220216Y-123032389D01*
X148235269Y-123045684D01*
X148245513Y-123056182D01*
X148258429Y-123071546D01*
X148262970Y-123076948D01*
X148268841Y-123080856D01*
X148268842Y-123080857D01*
X148288621Y-123094023D01*
X148299297Y-123102230D01*
X148312482Y-123113874D01*
X148322388Y-123122623D01*
X148328770Y-123125619D01*
X148328774Y-123125622D01*
X148346944Y-123134152D01*
X148359722Y-123141352D01*
X148382313Y-123156390D01*
X148389042Y-123158492D01*
X148389046Y-123158494D01*
X148411720Y-123165577D01*
X148424268Y-123170456D01*
X148452163Y-123183553D01*
X148478982Y-123187729D01*
X148493261Y-123191051D01*
X148519157Y-123199142D01*
X148539335Y-123199512D01*
X148553093Y-123199764D01*
X148557695Y-123199984D01*
X148561009Y-123200500D01*
X148592340Y-123200500D01*
X148594155Y-123200517D01*
X148655447Y-123201641D01*
X148655449Y-123201641D01*
X148662499Y-123201770D01*
X148666100Y-123200788D01*
X148670746Y-123200500D01*
X163692340Y-123200500D01*
X163694155Y-123200517D01*
X163755447Y-123201641D01*
X163755449Y-123201641D01*
X163762499Y-123201770D01*
X163766100Y-123200788D01*
X163770746Y-123200500D01*
X178892340Y-123200500D01*
X178894155Y-123200517D01*
X178955447Y-123201641D01*
X178955449Y-123201641D01*
X178962499Y-123201770D01*
X178966100Y-123200788D01*
X178970746Y-123200500D01*
X179592340Y-123200500D01*
X179594155Y-123200517D01*
X179655445Y-123201641D01*
X179655447Y-123201641D01*
X179662499Y-123201770D01*
X179669302Y-123199915D01*
X179669305Y-123199915D01*
X179695773Y-123192699D01*
X179707776Y-123190213D01*
X179717229Y-123188859D01*
X179741918Y-123185323D01*
X179763261Y-123175619D01*
X179778197Y-123170227D01*
X179782343Y-123169097D01*
X179800817Y-123164060D01*
X179830209Y-123146013D01*
X179841030Y-123140260D01*
X179866004Y-123128905D01*
X179866005Y-123128904D01*
X179872428Y-123125984D01*
X179890190Y-123110679D01*
X179903012Y-123101312D01*
X179916978Y-123092737D01*
X179922991Y-123089045D01*
X179928159Y-123083336D01*
X179946134Y-123063476D01*
X179954911Y-123054911D01*
X179975693Y-123037005D01*
X179975694Y-123037003D01*
X179981037Y-123032400D01*
X179993794Y-123012719D01*
X180003466Y-123000137D01*
X180014465Y-122987985D01*
X180019200Y-122982754D01*
X180034237Y-122951718D01*
X180040253Y-122941041D01*
X180043754Y-122935639D01*
X180059015Y-122912095D01*
X180065736Y-122889622D01*
X180071488Y-122874830D01*
X180078635Y-122860080D01*
X180078635Y-122860079D01*
X180081710Y-122853733D01*
X180087431Y-122819728D01*
X180090210Y-122807787D01*
X180098071Y-122781502D01*
X180098072Y-122781498D01*
X180100093Y-122774739D01*
X180100236Y-122751290D01*
X180101605Y-122735480D01*
X180105496Y-122712354D01*
X180105647Y-122700000D01*
X180101801Y-122673145D01*
X180100803Y-122658505D01*
X180100926Y-122638428D01*
X180100926Y-122638427D01*
X180100969Y-122631376D01*
X180092500Y-122601741D01*
X180089691Y-122588581D01*
X180088043Y-122577070D01*
X180085323Y-122558082D01*
X180082404Y-122551661D01*
X180074093Y-122533381D01*
X180069028Y-122519616D01*
X180063510Y-122500310D01*
X180061572Y-122493529D01*
X180045133Y-122467474D01*
X180038738Y-122455622D01*
X180028904Y-122433992D01*
X180028901Y-122433987D01*
X180025984Y-122427572D01*
X180008277Y-122407022D01*
X179999549Y-122395227D01*
X179988837Y-122378249D01*
X179988833Y-122378245D01*
X179985070Y-122372280D01*
X179961967Y-122351877D01*
X179952511Y-122342304D01*
X179932400Y-122318963D01*
X179909633Y-122304206D01*
X179897952Y-122295341D01*
X179877612Y-122277377D01*
X179849717Y-122264280D01*
X179837953Y-122257745D01*
X179818018Y-122244824D01*
X179812095Y-122240985D01*
X179794279Y-122235657D01*
X179786101Y-122233211D01*
X179772403Y-122227981D01*
X179747837Y-122216447D01*
X179717397Y-122211707D01*
X179704262Y-122208735D01*
X179681501Y-122201928D01*
X179681493Y-122201927D01*
X179674739Y-122199907D01*
X179640997Y-122199701D01*
X179640019Y-122199660D01*
X179638991Y-122199500D01*
X179608409Y-122199500D01*
X179607804Y-122199498D01*
X179606942Y-122199493D01*
X179531376Y-122199031D01*
X179530100Y-122199396D01*
X179528571Y-122199500D01*
X178908409Y-122199500D01*
X178907804Y-122199498D01*
X178906942Y-122199493D01*
X178831376Y-122199031D01*
X178830100Y-122199396D01*
X178828571Y-122199500D01*
X163708409Y-122199500D01*
X163707804Y-122199498D01*
X163706942Y-122199493D01*
X163631376Y-122199031D01*
X163630100Y-122199396D01*
X163628571Y-122199500D01*
X148608409Y-122199500D01*
X148607804Y-122199498D01*
X148538432Y-122199074D01*
X148538431Y-122199074D01*
X148531376Y-122199031D01*
X148501747Y-122207500D01*
X148488582Y-122210309D01*
X148458082Y-122214677D01*
X148451662Y-122217596D01*
X148451658Y-122217597D01*
X148433381Y-122225907D01*
X148419616Y-122230972D01*
X148393529Y-122238428D01*
X148387564Y-122242192D01*
X148387563Y-122242192D01*
X148367474Y-122254867D01*
X148355622Y-122261262D01*
X148333992Y-122271096D01*
X148333987Y-122271099D01*
X148327572Y-122274016D01*
X148322229Y-122278620D01*
X148307022Y-122291723D01*
X148295227Y-122300451D01*
X148278249Y-122311163D01*
X148278245Y-122311167D01*
X148272280Y-122314930D01*
X148251877Y-122338033D01*
X148242308Y-122347485D01*
X148218963Y-122367600D01*
X148215126Y-122373520D01*
X148204206Y-122390367D01*
X148195341Y-122402048D01*
X148177377Y-122422388D01*
X148164280Y-122450283D01*
X148157745Y-122462047D01*
X148144824Y-122481982D01*
X148140985Y-122487905D01*
X148138963Y-122494667D01*
X148133211Y-122513899D01*
X148127981Y-122527597D01*
X148116447Y-122552163D01*
X148115361Y-122559138D01*
X148111707Y-122582604D01*
X148108735Y-122595738D01*
X148101928Y-122618499D01*
X148101927Y-122618507D01*
X148099907Y-122625261D01*
X148099761Y-122649151D01*
X148099741Y-122652389D01*
X148098565Y-122667013D01*
X148094391Y-122693823D01*
X107965217Y-122693823D01*
X107832085Y-122577069D01*
X107822930Y-122567914D01*
X107815234Y-122559138D01*
X107676233Y-122400639D01*
X107668365Y-122390385D01*
X107544753Y-122205386D01*
X107538284Y-122194181D01*
X107456173Y-122027674D01*
X107447393Y-121967125D01*
X107475882Y-121912976D01*
X107530757Y-121885915D01*
X107591059Y-121896276D01*
X107599820Y-121901478D01*
X107647484Y-121933206D01*
X107682313Y-121956390D01*
X107782920Y-121987821D01*
X107812425Y-121997039D01*
X107812426Y-121997039D01*
X107819157Y-121999142D01*
X107890828Y-122000456D01*
X107955445Y-122001641D01*
X107955447Y-122001641D01*
X107962499Y-122001770D01*
X107969302Y-121999915D01*
X107969304Y-121999915D01*
X108044503Y-121979413D01*
X108100817Y-121964060D01*
X108222991Y-121889045D01*
X108273662Y-121833064D01*
X108326730Y-121802610D01*
X108347060Y-121800500D01*
X120846492Y-121800500D01*
X120850617Y-121800803D01*
X120855342Y-121802425D01*
X120904761Y-121800570D01*
X120908474Y-121800500D01*
X120927948Y-121800500D01*
X120932378Y-121799675D01*
X120937571Y-121799339D01*
X120953602Y-121798737D01*
X120958075Y-121798569D01*
X120967208Y-121798226D01*
X120975602Y-121794620D01*
X120975605Y-121794619D01*
X120977783Y-121793683D01*
X120998734Y-121787317D01*
X121010053Y-121785209D01*
X121032729Y-121771232D01*
X121045596Y-121764548D01*
X121063642Y-121756795D01*
X121063643Y-121756794D01*
X121070063Y-121754036D01*
X121074949Y-121750022D01*
X121079313Y-121745658D01*
X121097368Y-121731387D01*
X121105348Y-121726468D01*
X121123018Y-121703231D01*
X121131810Y-121693161D01*
X121731148Y-121093823D01*
X132294391Y-121093823D01*
X132297152Y-121114930D01*
X132298386Y-121124368D01*
X132299220Y-121137809D01*
X132299031Y-121168624D01*
X132300970Y-121175408D01*
X132300970Y-121175409D01*
X132306487Y-121194711D01*
X132309463Y-121209082D01*
X132312065Y-121228986D01*
X132312066Y-121228990D01*
X132312980Y-121235979D01*
X132315820Y-121242433D01*
X132315820Y-121242434D01*
X132325389Y-121264181D01*
X132329958Y-121276836D01*
X132338428Y-121306471D01*
X132342190Y-121312434D01*
X132342192Y-121312438D01*
X132352909Y-121329424D01*
X132359793Y-121342369D01*
X132370720Y-121367203D01*
X132375260Y-121372604D01*
X132390544Y-121390787D01*
X132398486Y-121401657D01*
X132414930Y-121427720D01*
X132420214Y-121432387D01*
X132420216Y-121432389D01*
X132435269Y-121445684D01*
X132445513Y-121456182D01*
X132454963Y-121467423D01*
X132462970Y-121476948D01*
X132468841Y-121480856D01*
X132468842Y-121480857D01*
X132488621Y-121494023D01*
X132499297Y-121502230D01*
X132522388Y-121522623D01*
X132528770Y-121525619D01*
X132528774Y-121525622D01*
X132546944Y-121534152D01*
X132559722Y-121541352D01*
X132582313Y-121556390D01*
X132589042Y-121558492D01*
X132589046Y-121558494D01*
X132611720Y-121565577D01*
X132624268Y-121570456D01*
X132652163Y-121583553D01*
X132678982Y-121587729D01*
X132693261Y-121591051D01*
X132719157Y-121599142D01*
X132739335Y-121599512D01*
X132753093Y-121599764D01*
X132757695Y-121599984D01*
X132761009Y-121600500D01*
X132792340Y-121600500D01*
X132794155Y-121600517D01*
X132838220Y-121601325D01*
X132845512Y-121602207D01*
X132845537Y-121601897D01*
X132852569Y-121602463D01*
X132859447Y-121604019D01*
X132913101Y-121600690D01*
X132919233Y-121600500D01*
X132935940Y-121600500D01*
X132939427Y-121600001D01*
X132939435Y-121600000D01*
X132947121Y-121598899D01*
X132955024Y-121598089D01*
X132995501Y-121595578D01*
X132995504Y-121595577D01*
X133002538Y-121595141D01*
X133009167Y-121592748D01*
X133009171Y-121592747D01*
X133012187Y-121591658D01*
X133031763Y-121586777D01*
X133032955Y-121586606D01*
X133034936Y-121586323D01*
X133034937Y-121586323D01*
X133041918Y-121585323D01*
X133048337Y-121582404D01*
X133048342Y-121582403D01*
X133085257Y-121565619D01*
X133092615Y-121562623D01*
X133120703Y-121552483D01*
X133137387Y-121546460D01*
X133145672Y-121540408D01*
X133163086Y-121530232D01*
X133172428Y-121525984D01*
X133199996Y-121502230D01*
X133208495Y-121494907D01*
X133214716Y-121489967D01*
X133215146Y-121489653D01*
X133226336Y-121481478D01*
X133237800Y-121470014D01*
X133243181Y-121465019D01*
X133275693Y-121437005D01*
X133275694Y-121437004D01*
X133281037Y-121432400D01*
X133285711Y-121425189D01*
X133298782Y-121409032D01*
X135306419Y-119401395D01*
X135316399Y-119393421D01*
X135316384Y-119393404D01*
X135321754Y-119388834D01*
X135327720Y-119385070D01*
X135332388Y-119379785D01*
X135332391Y-119379782D01*
X135363292Y-119344792D01*
X135367492Y-119340322D01*
X135379320Y-119328494D01*
X135386100Y-119319447D01*
X135391104Y-119313301D01*
X135422623Y-119277612D01*
X135426982Y-119268329D01*
X135437373Y-119251034D01*
X135443526Y-119242824D01*
X135452007Y-119220202D01*
X135460237Y-119198248D01*
X135463323Y-119190926D01*
X135480554Y-119154225D01*
X135480554Y-119154224D01*
X135483553Y-119147837D01*
X135485131Y-119137700D01*
X135490252Y-119118184D01*
X135491377Y-119115184D01*
X135491377Y-119115182D01*
X135493852Y-119108581D01*
X135497381Y-119061096D01*
X135498287Y-119053208D01*
X135499912Y-119042772D01*
X135499913Y-119042764D01*
X135500500Y-119038991D01*
X135500500Y-119022792D01*
X135500772Y-119015456D01*
X135503953Y-118972642D01*
X135504476Y-118965609D01*
X135502681Y-118957200D01*
X135500500Y-118936533D01*
X135500500Y-115267161D01*
X135501919Y-115254464D01*
X135501896Y-115254462D01*
X135502462Y-115247430D01*
X135504018Y-115240552D01*
X135500690Y-115186906D01*
X135500500Y-115180777D01*
X135500500Y-115164060D01*
X135500002Y-115160580D01*
X135500001Y-115160570D01*
X135498898Y-115152864D01*
X135498089Y-115144968D01*
X135495578Y-115104501D01*
X135495578Y-115104500D01*
X135495141Y-115097461D01*
X135491657Y-115087809D01*
X135486777Y-115068234D01*
X135486323Y-115065065D01*
X135485323Y-115058082D01*
X135482405Y-115051663D01*
X135482403Y-115051658D01*
X135465616Y-115014738D01*
X135462619Y-115007376D01*
X135461338Y-115003826D01*
X135446460Y-114962613D01*
X135440408Y-114954328D01*
X135430232Y-114936914D01*
X135425984Y-114927572D01*
X135394893Y-114891489D01*
X135389957Y-114885272D01*
X135383734Y-114876753D01*
X135383732Y-114876751D01*
X135381477Y-114873664D01*
X135370020Y-114862207D01*
X135365025Y-114856826D01*
X135337005Y-114824307D01*
X135337004Y-114824306D01*
X135332400Y-114818963D01*
X135325182Y-114814284D01*
X135309029Y-114801216D01*
X135001636Y-114493823D01*
X148094391Y-114493823D01*
X148097399Y-114516818D01*
X148098386Y-114524368D01*
X148099220Y-114537809D01*
X148099193Y-114542191D01*
X148099096Y-114558075D01*
X148099031Y-114568624D01*
X148100970Y-114575408D01*
X148100970Y-114575409D01*
X148106487Y-114594711D01*
X148109463Y-114609082D01*
X148112065Y-114628986D01*
X148112066Y-114628990D01*
X148112980Y-114635979D01*
X148115820Y-114642433D01*
X148115820Y-114642434D01*
X148125389Y-114664181D01*
X148129958Y-114676836D01*
X148138428Y-114706471D01*
X148142190Y-114712434D01*
X148142192Y-114712438D01*
X148152909Y-114729424D01*
X148159793Y-114742369D01*
X148170720Y-114767203D01*
X148175260Y-114772604D01*
X148190544Y-114790787D01*
X148198486Y-114801657D01*
X148214930Y-114827720D01*
X148220214Y-114832387D01*
X148220216Y-114832389D01*
X148235269Y-114845684D01*
X148245513Y-114856182D01*
X148254963Y-114867423D01*
X148262970Y-114876948D01*
X148268841Y-114880856D01*
X148268842Y-114880857D01*
X148288621Y-114894023D01*
X148299297Y-114902230D01*
X148312388Y-114913791D01*
X148322388Y-114922623D01*
X148328770Y-114925619D01*
X148328774Y-114925622D01*
X148346944Y-114934152D01*
X148359722Y-114941352D01*
X148382313Y-114956390D01*
X148389042Y-114958492D01*
X148389046Y-114958494D01*
X148411720Y-114965577D01*
X148424268Y-114970456D01*
X148452163Y-114983553D01*
X148478982Y-114987729D01*
X148493261Y-114991051D01*
X148519157Y-114999142D01*
X148539335Y-114999512D01*
X148553093Y-114999764D01*
X148557695Y-114999984D01*
X148561009Y-115000500D01*
X148592340Y-115000500D01*
X148594155Y-115000517D01*
X148655447Y-115001641D01*
X148655449Y-115001641D01*
X148662499Y-115001770D01*
X148666100Y-115000788D01*
X148670746Y-115000500D01*
X163792340Y-115000500D01*
X163794155Y-115000517D01*
X163855447Y-115001641D01*
X163855449Y-115001641D01*
X163862499Y-115001770D01*
X163866100Y-115000788D01*
X163870746Y-115000500D01*
X178992340Y-115000500D01*
X178994155Y-115000517D01*
X179055447Y-115001641D01*
X179055449Y-115001641D01*
X179062499Y-115001770D01*
X179066100Y-115000788D01*
X179070746Y-115000500D01*
X180032834Y-115000500D01*
X180045535Y-115001919D01*
X180045537Y-115001897D01*
X180052569Y-115002463D01*
X180059447Y-115004019D01*
X180113101Y-115000690D01*
X180119233Y-115000500D01*
X180135940Y-115000500D01*
X180139427Y-115000001D01*
X180139435Y-115000000D01*
X180147121Y-114998899D01*
X180155024Y-114998089D01*
X180195501Y-114995578D01*
X180195504Y-114995577D01*
X180202538Y-114995141D01*
X180209167Y-114992748D01*
X180209171Y-114992747D01*
X180212187Y-114991658D01*
X180231763Y-114986777D01*
X180232955Y-114986606D01*
X180234936Y-114986323D01*
X180234937Y-114986323D01*
X180241918Y-114985323D01*
X180248337Y-114982404D01*
X180248342Y-114982403D01*
X180285257Y-114965619D01*
X180292615Y-114962623D01*
X180309880Y-114956390D01*
X180337387Y-114946460D01*
X180345672Y-114940408D01*
X180363086Y-114930232D01*
X180372428Y-114925984D01*
X180388341Y-114912272D01*
X180408495Y-114894907D01*
X180414716Y-114889967D01*
X180416740Y-114888488D01*
X180426336Y-114881478D01*
X180437800Y-114870014D01*
X180443181Y-114865019D01*
X180475693Y-114837005D01*
X180475694Y-114837004D01*
X180481037Y-114832400D01*
X180485716Y-114825182D01*
X180498784Y-114809030D01*
X180854275Y-114453538D01*
X180862362Y-114447157D01*
X180862033Y-114446761D01*
X180867459Y-114442256D01*
X180873471Y-114438565D01*
X180912109Y-114395878D01*
X180915503Y-114392310D01*
X180929800Y-114378013D01*
X180934371Y-114371914D01*
X180940193Y-114364851D01*
X180964948Y-114337502D01*
X180964948Y-114337501D01*
X180969680Y-114332274D01*
X180975169Y-114320945D01*
X180975765Y-114319716D01*
X180985637Y-114303511D01*
X180989775Y-114297990D01*
X180989776Y-114297988D01*
X180994006Y-114292344D01*
X180996482Y-114285740D01*
X180996484Y-114285736D01*
X181009431Y-114251198D01*
X181013029Y-114242801D01*
X181032190Y-114203253D01*
X181034506Y-114189489D01*
X181039430Y-114171175D01*
X181044332Y-114158100D01*
X181047589Y-114114276D01*
X181048689Y-114105190D01*
X181053933Y-114074016D01*
X181055976Y-114061874D01*
X181056127Y-114049520D01*
X181055199Y-114043041D01*
X181054543Y-114023775D01*
X181054433Y-114022162D01*
X181054956Y-114015128D01*
X181053484Y-114008234D01*
X181053484Y-114008229D01*
X181044253Y-113964985D01*
X181043072Y-113958355D01*
X181036802Y-113914578D01*
X181035803Y-113907602D01*
X181032887Y-113901188D01*
X181032448Y-113899687D01*
X181027045Y-113883304D01*
X181026499Y-113881819D01*
X181025026Y-113874921D01*
X181021677Y-113868714D01*
X181000681Y-113829799D01*
X180997686Y-113823767D01*
X180976464Y-113777092D01*
X180971863Y-113771753D01*
X180970993Y-113770392D01*
X180961259Y-113756256D01*
X180960296Y-113754955D01*
X180956948Y-113748749D01*
X180943704Y-113735342D01*
X180920917Y-113712275D01*
X180916348Y-113707324D01*
X180887482Y-113673823D01*
X180887479Y-113673820D01*
X180882880Y-113668483D01*
X180876962Y-113664647D01*
X180875765Y-113663603D01*
X180862413Y-113652733D01*
X180861152Y-113651776D01*
X180856194Y-113646757D01*
X180831969Y-113633301D01*
X180811369Y-113621858D01*
X180805614Y-113618401D01*
X180762575Y-113590505D01*
X180755818Y-113588485D01*
X180754365Y-113587813D01*
X180738500Y-113581128D01*
X180737027Y-113580566D01*
X180730864Y-113577142D01*
X180723989Y-113575586D01*
X180723988Y-113575586D01*
X180680846Y-113565824D01*
X180674329Y-113564114D01*
X180631974Y-113551447D01*
X180631973Y-113551447D01*
X180625219Y-113549427D01*
X180618165Y-113549384D01*
X180616594Y-113549149D01*
X180599479Y-113547183D01*
X180597909Y-113547057D01*
X180591033Y-113545501D01*
X180568478Y-113546900D01*
X180539855Y-113548676D01*
X180533121Y-113548864D01*
X180488909Y-113548594D01*
X180488908Y-113548594D01*
X180481856Y-113548551D01*
X180475072Y-113550490D01*
X180473508Y-113550704D01*
X180456539Y-113553620D01*
X180454985Y-113553942D01*
X180447942Y-113554379D01*
X180441305Y-113556775D01*
X180399720Y-113571787D01*
X180393311Y-113573857D01*
X180350792Y-113586009D01*
X180350790Y-113586010D01*
X180344009Y-113587948D01*
X180338044Y-113591712D01*
X180336581Y-113592366D01*
X180321133Y-113599917D01*
X180319724Y-113600666D01*
X180313093Y-113603060D01*
X180307400Y-113607219D01*
X180307398Y-113607220D01*
X180271698Y-113633301D01*
X180266127Y-113637087D01*
X180222760Y-113664450D01*
X180218093Y-113669734D01*
X180218091Y-113669736D01*
X180187188Y-113704728D01*
X180182988Y-113709198D01*
X179921682Y-113970504D01*
X179867165Y-113998281D01*
X179851678Y-113999500D01*
X179008409Y-113999500D01*
X179007804Y-113999498D01*
X179006942Y-113999493D01*
X178931376Y-113999031D01*
X178930100Y-113999396D01*
X178928571Y-113999500D01*
X163808409Y-113999500D01*
X163807804Y-113999498D01*
X163806942Y-113999493D01*
X163731376Y-113999031D01*
X163730100Y-113999396D01*
X163728571Y-113999500D01*
X148608409Y-113999500D01*
X148607804Y-113999498D01*
X148538432Y-113999074D01*
X148538431Y-113999074D01*
X148531376Y-113999031D01*
X148501747Y-114007500D01*
X148488582Y-114010309D01*
X148458082Y-114014677D01*
X148451662Y-114017596D01*
X148451658Y-114017597D01*
X148433381Y-114025907D01*
X148419616Y-114030972D01*
X148393529Y-114038428D01*
X148387564Y-114042192D01*
X148387563Y-114042192D01*
X148367474Y-114054867D01*
X148355622Y-114061262D01*
X148333992Y-114071096D01*
X148333987Y-114071099D01*
X148327572Y-114074016D01*
X148322229Y-114078620D01*
X148307022Y-114091723D01*
X148295227Y-114100451D01*
X148278249Y-114111163D01*
X148278245Y-114111167D01*
X148272280Y-114114930D01*
X148251877Y-114138033D01*
X148242308Y-114147485D01*
X148218963Y-114167600D01*
X148209426Y-114182314D01*
X148204206Y-114190367D01*
X148195341Y-114202048D01*
X148177377Y-114222388D01*
X148164280Y-114250283D01*
X148157745Y-114262047D01*
X148140985Y-114287905D01*
X148138963Y-114294667D01*
X148133211Y-114313899D01*
X148127981Y-114327597D01*
X148116447Y-114352163D01*
X148115361Y-114359138D01*
X148111707Y-114382604D01*
X148108735Y-114395738D01*
X148101928Y-114418499D01*
X148101927Y-114418507D01*
X148099907Y-114425261D01*
X148099864Y-114432314D01*
X148099741Y-114452389D01*
X148098565Y-114467013D01*
X148094391Y-114493823D01*
X135001636Y-114493823D01*
X134291323Y-113783509D01*
X133270014Y-112762200D01*
X133265019Y-112756819D01*
X133237003Y-112724305D01*
X133232400Y-112718963D01*
X133226486Y-112715129D01*
X133226484Y-112715128D01*
X133193615Y-112693823D01*
X148094391Y-112693823D01*
X148098378Y-112724305D01*
X148098386Y-112724368D01*
X148099220Y-112737814D01*
X148099083Y-112760191D01*
X148099031Y-112768624D01*
X148106366Y-112794286D01*
X148106487Y-112794711D01*
X148109463Y-112809082D01*
X148112065Y-112828986D01*
X148112066Y-112828990D01*
X148112980Y-112835979D01*
X148115820Y-112842433D01*
X148115820Y-112842434D01*
X148125389Y-112864181D01*
X148129958Y-112876836D01*
X148138428Y-112906471D01*
X148142190Y-112912434D01*
X148142192Y-112912438D01*
X148152909Y-112929424D01*
X148159793Y-112942369D01*
X148170720Y-112967203D01*
X148175260Y-112972604D01*
X148190544Y-112990787D01*
X148198486Y-113001657D01*
X148214930Y-113027720D01*
X148220214Y-113032387D01*
X148220216Y-113032389D01*
X148235269Y-113045684D01*
X148245513Y-113056182D01*
X148250174Y-113061726D01*
X148262970Y-113076948D01*
X148268841Y-113080856D01*
X148268842Y-113080857D01*
X148288621Y-113094023D01*
X148299297Y-113102230D01*
X148322388Y-113122623D01*
X148328770Y-113125619D01*
X148328774Y-113125622D01*
X148346944Y-113134152D01*
X148359722Y-113141352D01*
X148382313Y-113156390D01*
X148389042Y-113158492D01*
X148389046Y-113158494D01*
X148411720Y-113165577D01*
X148424268Y-113170456D01*
X148452163Y-113183553D01*
X148478982Y-113187729D01*
X148493261Y-113191051D01*
X148519157Y-113199142D01*
X148539335Y-113199512D01*
X148553093Y-113199764D01*
X148557695Y-113199984D01*
X148561009Y-113200500D01*
X148592340Y-113200500D01*
X148594155Y-113200517D01*
X148655447Y-113201641D01*
X148655449Y-113201641D01*
X148662499Y-113201770D01*
X148666100Y-113200788D01*
X148670746Y-113200500D01*
X163151678Y-113200500D01*
X163209869Y-113219407D01*
X163221682Y-113229496D01*
X163398605Y-113406419D01*
X163406580Y-113416400D01*
X163406597Y-113416386D01*
X163411168Y-113421758D01*
X163414930Y-113427720D01*
X163420209Y-113432383D01*
X163420214Y-113432388D01*
X163435269Y-113445684D01*
X163445513Y-113456182D01*
X163454963Y-113467423D01*
X163462970Y-113476948D01*
X163468841Y-113480856D01*
X163468842Y-113480857D01*
X163488621Y-113494023D01*
X163499297Y-113502230D01*
X163522388Y-113522623D01*
X163531671Y-113526982D01*
X163548966Y-113537373D01*
X163557176Y-113543526D01*
X163563777Y-113546001D01*
X163569966Y-113549389D01*
X163569830Y-113549638D01*
X163569953Y-113549701D01*
X163570075Y-113549445D01*
X163576441Y-113552482D01*
X163582313Y-113556390D01*
X163589045Y-113558493D01*
X163589049Y-113558495D01*
X163611720Y-113565577D01*
X163624268Y-113570456D01*
X163652163Y-113583553D01*
X163662300Y-113585131D01*
X163681816Y-113590252D01*
X163691419Y-113593852D01*
X163698451Y-113594375D01*
X163705341Y-113595890D01*
X163705281Y-113596164D01*
X163705419Y-113596190D01*
X163705464Y-113595912D01*
X163712424Y-113597039D01*
X163719157Y-113599142D01*
X163738798Y-113599502D01*
X163753093Y-113599764D01*
X163757695Y-113599984D01*
X163761009Y-113600500D01*
X163777208Y-113600500D01*
X163784545Y-113600772D01*
X163834391Y-113604476D01*
X163841292Y-113603003D01*
X163848326Y-113602523D01*
X163848345Y-113602806D01*
X163848483Y-113602793D01*
X163848448Y-113602512D01*
X163855447Y-113601640D01*
X163862499Y-113601770D01*
X163866100Y-113600788D01*
X163870744Y-113600500D01*
X178432834Y-113600500D01*
X178445535Y-113601919D01*
X178445537Y-113601897D01*
X178452569Y-113602463D01*
X178459447Y-113604019D01*
X178513101Y-113600690D01*
X178519233Y-113600500D01*
X178535940Y-113600500D01*
X178539427Y-113600001D01*
X178539435Y-113600000D01*
X178547121Y-113598899D01*
X178555024Y-113598089D01*
X178595501Y-113595578D01*
X178595504Y-113595577D01*
X178602538Y-113595141D01*
X178609167Y-113592748D01*
X178609171Y-113592747D01*
X178612187Y-113591658D01*
X178631763Y-113586777D01*
X178632955Y-113586606D01*
X178634936Y-113586323D01*
X178634937Y-113586323D01*
X178641918Y-113585323D01*
X178648337Y-113582404D01*
X178648342Y-113582403D01*
X178685257Y-113565619D01*
X178692615Y-113562623D01*
X178718420Y-113553307D01*
X178737387Y-113546460D01*
X178745672Y-113540408D01*
X178763086Y-113530232D01*
X178772428Y-113525984D01*
X178800530Y-113501770D01*
X178808495Y-113494907D01*
X178814716Y-113489967D01*
X178815738Y-113489220D01*
X178826336Y-113481478D01*
X178837800Y-113470014D01*
X178843181Y-113465019D01*
X178875693Y-113437005D01*
X178875694Y-113437004D01*
X178881037Y-113432400D01*
X178885711Y-113425189D01*
X178898782Y-113409032D01*
X179203801Y-113104013D01*
X179211883Y-113097636D01*
X179211554Y-113097240D01*
X179216978Y-113092737D01*
X179222991Y-113089045D01*
X179230403Y-113080857D01*
X179261620Y-113046368D01*
X179265014Y-113042800D01*
X179279320Y-113028494D01*
X179283897Y-113022387D01*
X179289715Y-113015329D01*
X179295866Y-113008534D01*
X179319200Y-112982754D01*
X179325287Y-112970192D01*
X179335155Y-112953994D01*
X179339296Y-112948468D01*
X179343526Y-112942824D01*
X179358949Y-112901682D01*
X179362555Y-112893269D01*
X179378635Y-112860081D01*
X179378636Y-112860077D01*
X179381710Y-112853733D01*
X179382879Y-112846783D01*
X179382881Y-112846778D01*
X179384024Y-112839981D01*
X179388952Y-112821652D01*
X179391377Y-112815184D01*
X179391377Y-112815182D01*
X179393852Y-112808581D01*
X179394915Y-112794286D01*
X179397109Y-112764757D01*
X179398209Y-112755671D01*
X179404861Y-112716127D01*
X179405496Y-112712354D01*
X179405647Y-112700000D01*
X179405106Y-112696222D01*
X179405105Y-112696206D01*
X179404718Y-112693503D01*
X179404062Y-112674236D01*
X179403953Y-112672644D01*
X179404476Y-112665609D01*
X179401835Y-112653234D01*
X179394519Y-112618963D01*
X179393772Y-112615463D01*
X179392591Y-112608833D01*
X179392561Y-112608623D01*
X179385323Y-112558082D01*
X179382407Y-112551668D01*
X179381968Y-112550167D01*
X179376573Y-112533807D01*
X179376019Y-112532302D01*
X179374546Y-112525401D01*
X179350207Y-112480293D01*
X179347211Y-112474258D01*
X179328903Y-112433992D01*
X179325984Y-112427572D01*
X179321380Y-112422228D01*
X179320543Y-112420920D01*
X179310766Y-112406720D01*
X179309815Y-112405435D01*
X179306467Y-112399230D01*
X179270437Y-112362756D01*
X179265870Y-112357806D01*
X179237003Y-112324305D01*
X179232400Y-112318963D01*
X179226481Y-112315127D01*
X179225288Y-112314086D01*
X179211923Y-112303205D01*
X179210669Y-112302253D01*
X179205714Y-112297237D01*
X179160904Y-112272348D01*
X179155129Y-112268879D01*
X179135991Y-112256474D01*
X179112095Y-112240985D01*
X179105340Y-112238965D01*
X179103925Y-112238311D01*
X179088025Y-112231612D01*
X179086552Y-112231049D01*
X179080383Y-112227623D01*
X179073504Y-112226067D01*
X179073503Y-112226066D01*
X179030383Y-112216309D01*
X179023866Y-112214599D01*
X178981494Y-112201927D01*
X178981493Y-112201927D01*
X178974739Y-112199907D01*
X178967690Y-112199864D01*
X178966132Y-112199631D01*
X178949004Y-112197665D01*
X178947431Y-112197538D01*
X178940552Y-112195982D01*
X178915025Y-112197566D01*
X178889384Y-112199156D01*
X178882651Y-112199344D01*
X178838429Y-112199074D01*
X178838428Y-112199074D01*
X178831376Y-112199031D01*
X178824592Y-112200970D01*
X178823028Y-112201184D01*
X178806050Y-112204101D01*
X178804499Y-112204422D01*
X178797461Y-112204859D01*
X178749239Y-112222267D01*
X178742835Y-112224336D01*
X178700305Y-112236491D01*
X178700303Y-112236492D01*
X178693529Y-112238428D01*
X178687567Y-112242189D01*
X178686122Y-112242836D01*
X178670661Y-112250393D01*
X178669246Y-112251145D01*
X178662613Y-112253540D01*
X178621210Y-112283787D01*
X178615664Y-112287557D01*
X178572280Y-112314930D01*
X178567613Y-112320214D01*
X178567611Y-112320216D01*
X178536693Y-112355225D01*
X178532492Y-112359695D01*
X178321682Y-112570504D01*
X178267166Y-112598281D01*
X178251679Y-112599500D01*
X164048321Y-112599500D01*
X163990130Y-112580593D01*
X163978317Y-112570504D01*
X163801396Y-112393583D01*
X163793423Y-112383603D01*
X163793405Y-112383618D01*
X163788836Y-112378249D01*
X163785070Y-112372280D01*
X163752011Y-112343083D01*
X163744791Y-112336707D01*
X163740321Y-112332507D01*
X163728494Y-112320680D01*
X163719447Y-112313900D01*
X163713301Y-112308896D01*
X163677612Y-112277377D01*
X163668329Y-112273018D01*
X163651034Y-112262627D01*
X163642824Y-112256474D01*
X163619321Y-112247663D01*
X163598254Y-112239765D01*
X163590934Y-112236680D01*
X163554226Y-112219446D01*
X163554222Y-112219445D01*
X163547837Y-112216447D01*
X163540869Y-112215362D01*
X163540865Y-112215361D01*
X163537708Y-112214870D01*
X163518180Y-112209747D01*
X163515180Y-112208622D01*
X163515178Y-112208622D01*
X163508580Y-112206148D01*
X163461092Y-112202619D01*
X163453207Y-112201713D01*
X163442772Y-112200088D01*
X163442764Y-112200087D01*
X163438991Y-112199500D01*
X163422791Y-112199500D01*
X163415455Y-112199228D01*
X163412165Y-112198984D01*
X163365608Y-112195524D01*
X163358713Y-112196996D01*
X163358711Y-112196996D01*
X163357199Y-112197319D01*
X163336532Y-112199500D01*
X148608409Y-112199500D01*
X148607804Y-112199498D01*
X148538432Y-112199074D01*
X148538431Y-112199074D01*
X148531376Y-112199031D01*
X148501747Y-112207500D01*
X148488582Y-112210309D01*
X148458082Y-112214677D01*
X148451662Y-112217596D01*
X148451658Y-112217597D01*
X148433381Y-112225907D01*
X148419616Y-112230972D01*
X148393529Y-112238428D01*
X148387564Y-112242192D01*
X148387563Y-112242192D01*
X148367474Y-112254867D01*
X148355622Y-112261262D01*
X148333992Y-112271096D01*
X148333987Y-112271099D01*
X148327572Y-112274016D01*
X148322229Y-112278620D01*
X148307022Y-112291723D01*
X148295227Y-112300451D01*
X148278249Y-112311163D01*
X148278245Y-112311167D01*
X148272280Y-112314930D01*
X148251877Y-112338033D01*
X148242308Y-112347485D01*
X148218963Y-112367600D01*
X148215126Y-112373520D01*
X148204206Y-112390367D01*
X148195341Y-112402048D01*
X148177377Y-112422388D01*
X148164280Y-112450283D01*
X148157745Y-112462047D01*
X148140985Y-112487905D01*
X148138963Y-112494667D01*
X148133211Y-112513899D01*
X148127981Y-112527597D01*
X148116447Y-112552163D01*
X148115361Y-112559138D01*
X148111707Y-112582604D01*
X148108735Y-112595738D01*
X148101928Y-112618499D01*
X148101927Y-112618507D01*
X148099907Y-112625261D01*
X148099823Y-112638967D01*
X148099741Y-112652389D01*
X148098565Y-112667013D01*
X148096097Y-112682868D01*
X148094391Y-112693823D01*
X133193615Y-112693823D01*
X133189371Y-112691072D01*
X133183848Y-112687219D01*
X133159790Y-112669189D01*
X133142824Y-112656474D01*
X133136220Y-112653998D01*
X133134824Y-112653234D01*
X133119449Y-112645484D01*
X133118011Y-112644820D01*
X133112095Y-112640985D01*
X133062950Y-112626288D01*
X133056612Y-112624155D01*
X133008580Y-112606148D01*
X133001549Y-112605625D01*
X133000019Y-112605289D01*
X132983076Y-112602164D01*
X132981498Y-112601928D01*
X132974739Y-112599907D01*
X132923464Y-112599594D01*
X132916755Y-112599325D01*
X132865608Y-112595524D01*
X132858708Y-112596997D01*
X132857109Y-112597106D01*
X132840009Y-112598858D01*
X132838431Y-112599074D01*
X132831376Y-112599031D01*
X132824592Y-112600970D01*
X132824591Y-112600970D01*
X132809480Y-112605289D01*
X132782080Y-112613120D01*
X132775550Y-112614749D01*
X132762786Y-112617474D01*
X132732300Y-112623981D01*
X132732298Y-112623982D01*
X132725401Y-112625454D01*
X132719190Y-112628805D01*
X132717702Y-112629353D01*
X132701744Y-112635849D01*
X132700312Y-112636490D01*
X132693529Y-112638428D01*
X132664927Y-112656474D01*
X132650162Y-112665790D01*
X132644344Y-112669189D01*
X132605438Y-112690181D01*
X132605434Y-112690184D01*
X132599229Y-112693532D01*
X132594212Y-112698488D01*
X132592955Y-112699418D01*
X132579461Y-112710132D01*
X132578249Y-112711164D01*
X132572280Y-112714930D01*
X132558033Y-112731062D01*
X132538349Y-112753350D01*
X132533720Y-112758246D01*
X132497237Y-112794286D01*
X132493811Y-112800453D01*
X132492858Y-112801709D01*
X132482926Y-112815761D01*
X132482045Y-112817102D01*
X132477377Y-112822388D01*
X132455578Y-112868818D01*
X132452526Y-112874781D01*
X132439969Y-112897388D01*
X132432421Y-112910977D01*
X132427622Y-112919616D01*
X132426067Y-112926488D01*
X132425504Y-112927962D01*
X132419916Y-112944236D01*
X132419444Y-112945779D01*
X132416447Y-112952163D01*
X132408556Y-113002843D01*
X132407303Y-113009409D01*
X132395981Y-113059447D01*
X132396418Y-113066484D01*
X132396291Y-113068058D01*
X132395496Y-113085243D01*
X132395476Y-113086852D01*
X132394391Y-113093823D01*
X132395993Y-113106077D01*
X132401037Y-113144650D01*
X132401683Y-113151355D01*
X132404146Y-113191052D01*
X132404859Y-113202538D01*
X132407252Y-113209166D01*
X132407572Y-113210712D01*
X132411634Y-113227437D01*
X132412065Y-113228981D01*
X132412980Y-113235979D01*
X132415822Y-113242438D01*
X132433629Y-113282907D01*
X132436130Y-113289160D01*
X132453540Y-113337387D01*
X132457697Y-113343078D01*
X132458437Y-113344469D01*
X132467028Y-113359379D01*
X132467878Y-113360745D01*
X132470720Y-113367203D01*
X132503685Y-113406419D01*
X132503714Y-113406454D01*
X132507860Y-113411742D01*
X132518522Y-113426336D01*
X132527447Y-113435261D01*
X132533226Y-113441563D01*
X132558431Y-113471549D01*
X132558434Y-113471551D01*
X132562970Y-113476948D01*
X132568841Y-113480856D01*
X132568842Y-113480857D01*
X132573214Y-113483767D01*
X132588360Y-113496174D01*
X134470504Y-115378318D01*
X134498281Y-115432835D01*
X134499500Y-115448322D01*
X134499500Y-118751679D01*
X134480593Y-118809870D01*
X134470504Y-118821683D01*
X132701973Y-120590213D01*
X132661519Y-120614185D01*
X132658082Y-120614677D01*
X132651658Y-120617598D01*
X132651657Y-120617598D01*
X132633381Y-120625907D01*
X132619616Y-120630972D01*
X132593529Y-120638428D01*
X132587564Y-120642192D01*
X132587563Y-120642192D01*
X132567474Y-120654867D01*
X132555622Y-120661262D01*
X132533992Y-120671096D01*
X132533987Y-120671099D01*
X132527572Y-120674016D01*
X132522229Y-120678620D01*
X132507022Y-120691723D01*
X132495227Y-120700451D01*
X132478249Y-120711163D01*
X132478245Y-120711167D01*
X132472280Y-120714930D01*
X132451877Y-120738033D01*
X132442308Y-120747485D01*
X132418963Y-120767600D01*
X132415126Y-120773520D01*
X132404206Y-120790367D01*
X132395341Y-120802048D01*
X132377377Y-120822388D01*
X132364280Y-120850283D01*
X132357745Y-120862047D01*
X132340985Y-120887905D01*
X132338963Y-120894667D01*
X132333211Y-120913899D01*
X132327981Y-120927597D01*
X132316447Y-120952163D01*
X132315361Y-120959138D01*
X132311707Y-120982604D01*
X132308735Y-120995738D01*
X132301928Y-121018499D01*
X132301927Y-121018507D01*
X132299907Y-121025261D01*
X132299823Y-121038964D01*
X132299741Y-121052389D01*
X132298565Y-121067013D01*
X132294391Y-121093823D01*
X121731148Y-121093823D01*
X122720475Y-120104496D01*
X122774992Y-120076719D01*
X122790479Y-120075500D01*
X123694748Y-120075500D01*
X123720995Y-120070279D01*
X123743666Y-120065770D01*
X123743668Y-120065769D01*
X123753231Y-120063867D01*
X123819552Y-120019552D01*
X123863867Y-119953231D01*
X123875500Y-119894748D01*
X123875500Y-118689479D01*
X123894407Y-118631288D01*
X123943907Y-118595324D01*
X124005093Y-118595324D01*
X124044504Y-118619475D01*
X124288515Y-118863486D01*
X124316292Y-118918003D01*
X124316894Y-118944524D01*
X124309520Y-119010262D01*
X124326759Y-119215553D01*
X124328092Y-119220201D01*
X124328092Y-119220202D01*
X124377807Y-119393577D01*
X124383544Y-119413586D01*
X124477712Y-119596818D01*
X124605677Y-119758270D01*
X124609357Y-119761402D01*
X124609359Y-119761404D01*
X124722017Y-119857283D01*
X124762564Y-119891791D01*
X124766787Y-119894151D01*
X124766791Y-119894154D01*
X124806342Y-119916258D01*
X124942398Y-119992297D01*
X124946996Y-119993791D01*
X125133724Y-120054463D01*
X125133726Y-120054464D01*
X125138329Y-120055959D01*
X125342894Y-120080351D01*
X125347716Y-120079980D01*
X125347719Y-120079980D01*
X125418259Y-120074552D01*
X125548300Y-120064546D01*
X125746725Y-120009145D01*
X125751038Y-120006966D01*
X125751044Y-120006964D01*
X125926289Y-119918441D01*
X125926291Y-119918440D01*
X125930610Y-119916258D01*
X125965943Y-119888653D01*
X126089135Y-119792406D01*
X126089139Y-119792402D01*
X126092951Y-119789424D01*
X126227564Y-119633472D01*
X126246231Y-119600613D01*
X126326934Y-119458550D01*
X126326935Y-119458547D01*
X126329323Y-119454344D01*
X126342882Y-119413586D01*
X126392824Y-119263454D01*
X126392824Y-119263452D01*
X126394351Y-119258863D01*
X126395665Y-119248467D01*
X126414224Y-119101550D01*
X126420171Y-119054474D01*
X126420583Y-119025000D01*
X126418667Y-119005455D01*
X126400952Y-118824780D01*
X126400951Y-118824776D01*
X126400480Y-118819970D01*
X126340935Y-118622749D01*
X126244218Y-118440849D01*
X126114011Y-118281200D01*
X126101458Y-118270815D01*
X125959002Y-118152965D01*
X125959000Y-118152964D01*
X125955275Y-118149882D01*
X125774055Y-118051897D01*
X125704764Y-118030448D01*
X125581875Y-117992407D01*
X125581871Y-117992406D01*
X125577254Y-117990977D01*
X125572446Y-117990472D01*
X125572443Y-117990471D01*
X125377185Y-117969949D01*
X125377183Y-117969949D01*
X125372369Y-117969443D01*
X125316800Y-117974500D01*
X125172022Y-117987675D01*
X125172017Y-117987676D01*
X125167203Y-117988114D01*
X124969572Y-118046280D01*
X124965288Y-118048519D01*
X124965287Y-118048520D01*
X124954428Y-118054197D01*
X124787002Y-118141726D01*
X124783232Y-118144757D01*
X124783226Y-118144761D01*
X124650961Y-118251104D01*
X124593764Y-118272831D01*
X124534719Y-118256788D01*
X124518924Y-118243953D01*
X124429496Y-118154525D01*
X124401719Y-118100008D01*
X124400500Y-118084521D01*
X124400500Y-117243691D01*
X124419407Y-117185500D01*
X124468907Y-117149536D01*
X124530093Y-117149536D01*
X124577086Y-117182198D01*
X124602671Y-117214479D01*
X124602675Y-117214483D01*
X124605677Y-117218270D01*
X124609357Y-117221402D01*
X124609359Y-117221404D01*
X124722017Y-117317283D01*
X124762564Y-117351791D01*
X124766787Y-117354151D01*
X124766791Y-117354154D01*
X124806342Y-117376258D01*
X124942398Y-117452297D01*
X124946996Y-117453791D01*
X125133724Y-117514463D01*
X125133726Y-117514464D01*
X125138329Y-117515959D01*
X125342894Y-117540351D01*
X125347716Y-117539980D01*
X125347719Y-117539980D01*
X125425485Y-117533996D01*
X125548300Y-117524546D01*
X125746725Y-117469145D01*
X125751038Y-117466966D01*
X125751044Y-117466964D01*
X125926289Y-117378441D01*
X125926291Y-117378440D01*
X125930610Y-117376258D01*
X125965943Y-117348653D01*
X126089135Y-117252406D01*
X126089139Y-117252402D01*
X126092951Y-117249424D01*
X126123115Y-117214479D01*
X126188498Y-117138731D01*
X126227564Y-117093472D01*
X126229957Y-117089260D01*
X126326934Y-116918550D01*
X126326935Y-116918547D01*
X126329323Y-116914344D01*
X126331907Y-116906579D01*
X126392824Y-116723454D01*
X126392824Y-116723452D01*
X126394351Y-116718863D01*
X126397378Y-116694907D01*
X126419823Y-116517228D01*
X126420171Y-116514474D01*
X126420583Y-116485000D01*
X126418542Y-116464181D01*
X126400952Y-116284780D01*
X126400951Y-116284776D01*
X126400480Y-116279970D01*
X126371594Y-116184294D01*
X126359965Y-116145779D01*
X126340935Y-116082749D01*
X126244218Y-115900849D01*
X126114011Y-115741200D01*
X126096376Y-115726611D01*
X125959002Y-115612965D01*
X125959000Y-115612964D01*
X125955275Y-115609882D01*
X125774055Y-115511897D01*
X125662345Y-115477317D01*
X125581875Y-115452407D01*
X125581871Y-115452406D01*
X125577254Y-115450977D01*
X125572446Y-115450472D01*
X125572443Y-115450471D01*
X125377185Y-115429949D01*
X125377183Y-115429949D01*
X125372369Y-115429443D01*
X125312354Y-115434905D01*
X125172022Y-115447675D01*
X125172017Y-115447676D01*
X125167203Y-115448114D01*
X124969572Y-115506280D01*
X124965288Y-115508519D01*
X124965287Y-115508520D01*
X124923657Y-115530284D01*
X124787002Y-115601726D01*
X124783231Y-115604758D01*
X124630220Y-115727781D01*
X124630217Y-115727783D01*
X124626447Y-115730815D01*
X124623333Y-115734526D01*
X124623332Y-115734527D01*
X124575338Y-115791724D01*
X124523450Y-115824147D01*
X124462414Y-115819879D01*
X124415543Y-115780550D01*
X124401366Y-115731110D01*
X124400919Y-115731151D01*
X124400701Y-115728789D01*
X124400500Y-115728088D01*
X124400500Y-115722052D01*
X124399675Y-115717622D01*
X124399338Y-115712417D01*
X124398569Y-115691925D01*
X124398226Y-115682792D01*
X124394620Y-115674398D01*
X124394619Y-115674395D01*
X124393683Y-115672217D01*
X124387317Y-115651266D01*
X124385209Y-115639947D01*
X124371232Y-115617271D01*
X124364548Y-115604404D01*
X124363398Y-115601726D01*
X124354036Y-115579937D01*
X124350023Y-115575051D01*
X124345657Y-115570685D01*
X124331385Y-115552629D01*
X124331264Y-115552432D01*
X124331263Y-115552431D01*
X124326468Y-115544652D01*
X124303239Y-115526988D01*
X124293161Y-115518189D01*
X123850324Y-115075353D01*
X123847619Y-115072220D01*
X123845425Y-115067731D01*
X123809178Y-115034107D01*
X123806502Y-115031531D01*
X123792723Y-115017752D01*
X123789013Y-115015207D01*
X123785100Y-115011771D01*
X123772456Y-115000042D01*
X123763354Y-114991599D01*
X123752664Y-114987334D01*
X123733348Y-114977020D01*
X123731393Y-114975679D01*
X123731390Y-114975678D01*
X123723854Y-114970508D01*
X123697941Y-114964359D01*
X123684116Y-114959986D01*
X123665868Y-114952706D01*
X123665866Y-114952706D01*
X123659378Y-114950117D01*
X123653085Y-114949500D01*
X123646916Y-114949500D01*
X123624057Y-114946825D01*
X123623827Y-114946770D01*
X123623825Y-114946770D01*
X123614934Y-114944660D01*
X123587174Y-114948438D01*
X123586013Y-114948596D01*
X123572663Y-114949500D01*
X121653508Y-114949500D01*
X121649383Y-114949197D01*
X121644658Y-114947575D01*
X121595239Y-114949430D01*
X121591526Y-114949500D01*
X121572052Y-114949500D01*
X121567622Y-114950325D01*
X121562429Y-114950661D01*
X121546398Y-114951263D01*
X121541925Y-114951431D01*
X121532792Y-114951774D01*
X121524398Y-114955380D01*
X121524395Y-114955381D01*
X121522217Y-114956317D01*
X121501266Y-114962683D01*
X121489947Y-114964791D01*
X121470108Y-114977020D01*
X121467272Y-114978768D01*
X121454405Y-114985451D01*
X121451320Y-114986777D01*
X121436353Y-114993207D01*
X121436351Y-114993208D01*
X121429937Y-114995964D01*
X121425051Y-114999977D01*
X121420685Y-115004343D01*
X121402629Y-115018615D01*
X121402432Y-115018736D01*
X121402431Y-115018737D01*
X121394652Y-115023532D01*
X121389120Y-115030808D01*
X121389119Y-115030808D01*
X121376989Y-115046760D01*
X121368189Y-115056839D01*
X121174632Y-115250397D01*
X121004526Y-115420503D01*
X120950009Y-115448281D01*
X120934522Y-115449500D01*
X118115479Y-115449500D01*
X118057288Y-115430593D01*
X118045475Y-115420504D01*
X116555233Y-113930262D01*
X124309520Y-113930262D01*
X124316854Y-114017597D01*
X124321592Y-114074016D01*
X124326759Y-114135553D01*
X124328092Y-114140201D01*
X124328092Y-114140202D01*
X124381830Y-114327607D01*
X124383544Y-114333586D01*
X124477712Y-114516818D01*
X124605677Y-114678270D01*
X124609357Y-114681402D01*
X124609359Y-114681404D01*
X124665783Y-114729424D01*
X124762564Y-114811791D01*
X124766787Y-114814151D01*
X124766791Y-114814154D01*
X124882425Y-114878779D01*
X124942398Y-114912297D01*
X124946996Y-114913791D01*
X125133724Y-114974463D01*
X125133726Y-114974464D01*
X125138329Y-114975959D01*
X125342894Y-115000351D01*
X125347716Y-114999980D01*
X125347719Y-114999980D01*
X125415541Y-114994761D01*
X125548300Y-114984546D01*
X125746725Y-114929145D01*
X125751038Y-114926966D01*
X125751044Y-114926964D01*
X125926289Y-114838441D01*
X125926291Y-114838440D01*
X125930610Y-114836258D01*
X125941538Y-114827720D01*
X126089135Y-114712406D01*
X126089139Y-114712402D01*
X126092951Y-114709424D01*
X126096470Y-114705348D01*
X126166421Y-114624307D01*
X126227564Y-114553472D01*
X126229957Y-114549260D01*
X126326934Y-114378550D01*
X126326935Y-114378547D01*
X126329323Y-114374344D01*
X126334382Y-114359138D01*
X126392824Y-114183454D01*
X126392824Y-114183452D01*
X126394351Y-114178863D01*
X126395324Y-114171165D01*
X126416824Y-114000970D01*
X126420171Y-113974474D01*
X126420227Y-113970504D01*
X126420544Y-113947776D01*
X126420583Y-113945000D01*
X126413712Y-113874921D01*
X126400952Y-113744780D01*
X126400951Y-113744776D01*
X126400480Y-113739970D01*
X126392119Y-113712275D01*
X126357888Y-113598899D01*
X126340935Y-113542749D01*
X126244218Y-113360849D01*
X126114011Y-113201200D01*
X126093990Y-113184637D01*
X125959002Y-113072965D01*
X125959000Y-113072964D01*
X125955275Y-113069882D01*
X125818544Y-112995952D01*
X125778309Y-112974197D01*
X125778308Y-112974197D01*
X125774055Y-112971897D01*
X125684697Y-112944236D01*
X125581875Y-112912407D01*
X125581871Y-112912406D01*
X125577254Y-112910977D01*
X125572446Y-112910472D01*
X125572443Y-112910471D01*
X125377185Y-112889949D01*
X125377183Y-112889949D01*
X125372369Y-112889443D01*
X125312354Y-112894905D01*
X125172022Y-112907675D01*
X125172017Y-112907676D01*
X125167203Y-112908114D01*
X124969572Y-112966280D01*
X124965288Y-112968519D01*
X124965287Y-112968520D01*
X124905072Y-113000000D01*
X124787002Y-113061726D01*
X124783231Y-113064758D01*
X124630220Y-113187781D01*
X124630217Y-113187783D01*
X124626447Y-113190815D01*
X124623333Y-113194526D01*
X124623332Y-113194527D01*
X124497516Y-113344469D01*
X124494024Y-113348630D01*
X124491689Y-113352878D01*
X124491688Y-113352879D01*
X124484955Y-113365126D01*
X124394776Y-113529162D01*
X124393313Y-113533775D01*
X124393311Y-113533779D01*
X124365890Y-113620223D01*
X124332484Y-113725532D01*
X124331944Y-113730344D01*
X124331944Y-113730345D01*
X124312062Y-113907602D01*
X124309520Y-113930262D01*
X116555233Y-113930262D01*
X115731771Y-113106800D01*
X115703994Y-113052283D01*
X115704148Y-113020366D01*
X115704862Y-113016125D01*
X115704863Y-113016119D01*
X115705496Y-113012354D01*
X115705647Y-113000000D01*
X115685323Y-112858082D01*
X115641728Y-112762200D01*
X115628905Y-112733996D01*
X115628904Y-112733995D01*
X115625984Y-112727572D01*
X115552415Y-112642191D01*
X115537005Y-112624307D01*
X115537004Y-112624306D01*
X115532400Y-112618963D01*
X115412095Y-112540985D01*
X115274739Y-112499907D01*
X115191497Y-112499398D01*
X115138427Y-112499074D01*
X115138426Y-112499074D01*
X115131376Y-112499031D01*
X115124599Y-112500968D01*
X115124598Y-112500968D01*
X115000309Y-112536490D01*
X115000307Y-112536491D01*
X114993529Y-112538428D01*
X114981878Y-112545779D01*
X114896620Y-112599573D01*
X114872280Y-112614930D01*
X114867613Y-112620214D01*
X114867611Y-112620216D01*
X114782044Y-112717103D01*
X114782042Y-112717105D01*
X114777377Y-112722388D01*
X114774381Y-112728770D01*
X114774380Y-112728771D01*
X114771927Y-112733996D01*
X114716447Y-112852163D01*
X114715362Y-112859132D01*
X114715361Y-112859135D01*
X114701453Y-112948468D01*
X114694391Y-112993823D01*
X114695306Y-113000820D01*
X114695306Y-113000821D01*
X114711626Y-113125622D01*
X114712980Y-113135979D01*
X114715821Y-113142435D01*
X114715821Y-113142436D01*
X114754129Y-113229496D01*
X114770720Y-113267203D01*
X114783921Y-113282907D01*
X114858431Y-113371549D01*
X114858434Y-113371551D01*
X114862970Y-113376948D01*
X114982313Y-113456390D01*
X115082920Y-113487821D01*
X115112425Y-113497039D01*
X115112426Y-113497039D01*
X115119157Y-113499142D01*
X115190371Y-113500448D01*
X115237123Y-113501305D01*
X115294957Y-113521276D01*
X115305312Y-113530284D01*
X117699684Y-115924656D01*
X117702381Y-115927781D01*
X117704575Y-115932269D01*
X117711277Y-115938486D01*
X117740808Y-115965880D01*
X117743484Y-115968456D01*
X117757276Y-115982248D01*
X117760987Y-115984793D01*
X117764906Y-115988234D01*
X117786646Y-116008401D01*
X117785688Y-116009433D01*
X117818450Y-116048897D01*
X117822397Y-116109955D01*
X117789701Y-116161672D01*
X117732852Y-116184294D01*
X117726465Y-116184500D01*
X116850479Y-116184500D01*
X116792288Y-116165593D01*
X116780475Y-116155504D01*
X115731771Y-115106800D01*
X115703994Y-115052283D01*
X115704148Y-115020366D01*
X115704862Y-115016125D01*
X115704863Y-115016119D01*
X115705496Y-115012354D01*
X115705647Y-115000000D01*
X115685323Y-114858082D01*
X115625984Y-114727572D01*
X115544261Y-114632728D01*
X115537005Y-114624307D01*
X115537004Y-114624306D01*
X115532400Y-114618963D01*
X115412095Y-114540985D01*
X115274739Y-114499907D01*
X115191497Y-114499398D01*
X115138427Y-114499074D01*
X115138426Y-114499074D01*
X115131376Y-114499031D01*
X115124599Y-114500968D01*
X115124598Y-114500968D01*
X115000309Y-114536490D01*
X115000307Y-114536491D01*
X114993529Y-114538428D01*
X114872280Y-114614930D01*
X114867613Y-114620214D01*
X114867611Y-114620216D01*
X114782044Y-114717103D01*
X114782042Y-114717105D01*
X114777377Y-114722388D01*
X114774381Y-114728770D01*
X114774380Y-114728771D01*
X114767993Y-114742374D01*
X114716447Y-114852163D01*
X114715362Y-114859132D01*
X114715361Y-114859135D01*
X114700793Y-114952706D01*
X114694391Y-114993823D01*
X114695306Y-115000820D01*
X114695306Y-115000821D01*
X114702631Y-115056839D01*
X114712980Y-115135979D01*
X114715821Y-115142435D01*
X114715821Y-115142436D01*
X114766539Y-115257700D01*
X114770720Y-115267203D01*
X114810127Y-115314083D01*
X114858431Y-115371549D01*
X114858434Y-115371551D01*
X114862970Y-115376948D01*
X114868841Y-115380856D01*
X114868842Y-115380857D01*
X114896442Y-115399229D01*
X114982313Y-115456390D01*
X115049298Y-115477317D01*
X115112425Y-115497039D01*
X115112426Y-115497039D01*
X115119157Y-115499142D01*
X115192526Y-115500487D01*
X115237124Y-115501305D01*
X115294958Y-115521276D01*
X115305313Y-115530284D01*
X116434680Y-116659651D01*
X116437380Y-116662780D01*
X116439575Y-116667269D01*
X116446278Y-116673487D01*
X116475822Y-116700893D01*
X116478498Y-116703469D01*
X116492277Y-116717248D01*
X116495987Y-116719793D01*
X116499900Y-116723229D01*
X116521646Y-116743401D01*
X116530134Y-116746788D01*
X116530135Y-116746788D01*
X116532336Y-116747666D01*
X116551652Y-116757980D01*
X116553607Y-116759321D01*
X116553610Y-116759322D01*
X116561146Y-116764492D01*
X116574201Y-116767590D01*
X116587058Y-116770641D01*
X116600884Y-116775014D01*
X116619132Y-116782294D01*
X116619134Y-116782294D01*
X116625622Y-116784883D01*
X116631915Y-116785500D01*
X116638084Y-116785500D01*
X116660943Y-116788175D01*
X116661173Y-116788230D01*
X116661175Y-116788230D01*
X116670066Y-116790340D01*
X116698988Y-116786404D01*
X116712337Y-116785500D01*
X121743684Y-116785500D01*
X121801875Y-116804407D01*
X121838849Y-116857213D01*
X121843544Y-116873586D01*
X121937712Y-117056818D01*
X122065677Y-117218270D01*
X122069357Y-117221402D01*
X122069359Y-117221404D01*
X122182017Y-117317283D01*
X122222564Y-117351791D01*
X122226787Y-117354151D01*
X122226791Y-117354154D01*
X122266342Y-117376258D01*
X122402398Y-117452297D01*
X122406996Y-117453791D01*
X122593724Y-117514463D01*
X122593726Y-117514464D01*
X122598329Y-117515959D01*
X122802894Y-117540351D01*
X122807716Y-117539980D01*
X122807719Y-117539980D01*
X122885485Y-117533996D01*
X123008300Y-117524546D01*
X123206725Y-117469145D01*
X123211038Y-117466966D01*
X123211044Y-117466964D01*
X123386289Y-117378441D01*
X123386291Y-117378440D01*
X123390610Y-117376258D01*
X123425943Y-117348653D01*
X123549135Y-117252406D01*
X123549139Y-117252402D01*
X123552951Y-117249424D01*
X123625558Y-117165308D01*
X123677893Y-117133612D01*
X123738863Y-117138731D01*
X123785181Y-117178711D01*
X123799500Y-117229996D01*
X123799500Y-117876066D01*
X123780593Y-117934257D01*
X123731093Y-117970221D01*
X123694748Y-117974162D01*
X123694748Y-117974500D01*
X121955252Y-117974500D01*
X121929005Y-117979721D01*
X121906334Y-117984230D01*
X121906332Y-117984231D01*
X121896769Y-117986133D01*
X121830448Y-118030448D01*
X121786133Y-118096769D01*
X121774500Y-118155252D01*
X121774500Y-119894748D01*
X121786133Y-119953231D01*
X121825029Y-120011442D01*
X121830448Y-120019552D01*
X121829223Y-120020371D01*
X121852081Y-120065234D01*
X121842510Y-120125666D01*
X121824304Y-120150725D01*
X120804525Y-121170504D01*
X120750008Y-121198281D01*
X120734521Y-121199500D01*
X108347173Y-121199500D01*
X108288982Y-121180593D01*
X108272174Y-121165123D01*
X108237005Y-121124307D01*
X108237004Y-121124306D01*
X108232400Y-121118963D01*
X108112095Y-121040985D01*
X107974739Y-120999907D01*
X107891497Y-120999398D01*
X107838427Y-120999074D01*
X107838426Y-120999074D01*
X107831376Y-120999031D01*
X107824599Y-121000968D01*
X107824598Y-121000968D01*
X107700309Y-121036490D01*
X107700307Y-121036491D01*
X107693529Y-121038428D01*
X107572280Y-121114930D01*
X107567613Y-121120214D01*
X107567611Y-121120216D01*
X107527951Y-121165123D01*
X107477377Y-121222388D01*
X107476588Y-121221691D01*
X107433995Y-121255815D01*
X107372878Y-121258699D01*
X107321738Y-121225107D01*
X107300000Y-121163207D01*
X107300000Y-102368440D01*
X111044770Y-102368440D01*
X111047690Y-102412996D01*
X111058858Y-102583381D01*
X111059200Y-102588604D01*
X111060316Y-102592997D01*
X111060316Y-102592999D01*
X111112395Y-102798058D01*
X111113511Y-102802452D01*
X111205883Y-103002821D01*
X111333222Y-103183002D01*
X111491264Y-103336961D01*
X111674717Y-103459540D01*
X111877436Y-103546635D01*
X111955165Y-103564223D01*
X112088206Y-103594328D01*
X112088211Y-103594329D01*
X112092632Y-103595329D01*
X112202865Y-103599660D01*
X112308565Y-103603813D01*
X112308566Y-103603813D01*
X112313098Y-103603991D01*
X112531452Y-103572331D01*
X112535751Y-103570872D01*
X112535754Y-103570871D01*
X112736078Y-103502870D01*
X112740379Y-103501410D01*
X112748931Y-103496621D01*
X112808939Y-103484682D01*
X112867311Y-103512992D01*
X113920504Y-104566185D01*
X113948281Y-104620702D01*
X113949500Y-104636189D01*
X113949500Y-107813810D01*
X113930593Y-107872001D01*
X113920504Y-107883814D01*
X112886063Y-108918255D01*
X112869760Y-108931420D01*
X112867726Y-108932733D01*
X112867722Y-108932736D01*
X112860848Y-108937175D01*
X112841015Y-108962332D01*
X112837101Y-108966737D01*
X112837102Y-108966738D01*
X112834449Y-108969869D01*
X112831572Y-108972746D01*
X112820956Y-108987601D01*
X112818170Y-108991312D01*
X112788608Y-109028811D01*
X112786042Y-109036118D01*
X112785395Y-109037363D01*
X112780889Y-109043669D01*
X112778545Y-109051508D01*
X112767208Y-109089415D01*
X112765767Y-109093851D01*
X112749945Y-109138906D01*
X112749500Y-109144044D01*
X112749500Y-109146182D01*
X112749426Y-109147901D01*
X112749311Y-109149262D01*
X112747456Y-109155464D01*
X112747777Y-109163635D01*
X112749424Y-109205554D01*
X112749500Y-109209441D01*
X112749500Y-116803265D01*
X112730593Y-116861456D01*
X112724704Y-116868799D01*
X112682050Y-116917096D01*
X112682048Y-116917099D01*
X112677377Y-116922388D01*
X112616447Y-117052163D01*
X112615362Y-117059132D01*
X112615361Y-117059135D01*
X112604605Y-117128220D01*
X112594391Y-117193823D01*
X112612980Y-117335979D01*
X112615821Y-117342435D01*
X112615821Y-117342436D01*
X112664819Y-117453791D01*
X112670720Y-117467203D01*
X112683792Y-117482754D01*
X112758431Y-117571549D01*
X112758434Y-117571551D01*
X112762970Y-117576948D01*
X112882313Y-117656390D01*
X112982920Y-117687821D01*
X113012425Y-117697039D01*
X113012426Y-117697039D01*
X113019157Y-117699142D01*
X113090828Y-117700456D01*
X113155445Y-117701641D01*
X113155447Y-117701641D01*
X113162499Y-117701770D01*
X113169302Y-117699915D01*
X113169304Y-117699915D01*
X113244503Y-117679413D01*
X113300817Y-117664060D01*
X113422991Y-117589045D01*
X113439367Y-117570953D01*
X113448008Y-117561407D01*
X113501076Y-117530954D01*
X113561909Y-117537509D01*
X113607271Y-117578569D01*
X113619835Y-117638450D01*
X113617475Y-117649973D01*
X113616447Y-117652163D01*
X113594391Y-117793823D01*
X113595306Y-117800820D01*
X113595306Y-117800821D01*
X113596814Y-117812354D01*
X113612980Y-117935979D01*
X113615821Y-117942435D01*
X113615821Y-117942436D01*
X113661514Y-118046280D01*
X113670720Y-118067203D01*
X113703613Y-118106334D01*
X113758431Y-118171549D01*
X113758434Y-118171551D01*
X113762970Y-118176948D01*
X113768841Y-118180856D01*
X113768842Y-118180857D01*
X113781143Y-118189045D01*
X113882313Y-118256390D01*
X113961727Y-118281200D01*
X114012425Y-118297039D01*
X114012426Y-118297039D01*
X114019157Y-118299142D01*
X114090828Y-118300456D01*
X114155445Y-118301641D01*
X114155447Y-118301641D01*
X114162499Y-118301770D01*
X114169302Y-118299915D01*
X114169304Y-118299915D01*
X114249264Y-118278115D01*
X114300817Y-118264060D01*
X114422991Y-118189045D01*
X114430403Y-118180857D01*
X114514468Y-118087982D01*
X114519200Y-118082754D01*
X114571605Y-117974590D01*
X114578634Y-117960082D01*
X114581710Y-117953733D01*
X114585875Y-117928982D01*
X114604862Y-117816124D01*
X114604862Y-117816120D01*
X114605496Y-117812354D01*
X114605647Y-117800000D01*
X114585323Y-117658082D01*
X114525984Y-117527572D01*
X114474501Y-117467823D01*
X114450840Y-117411398D01*
X114450500Y-117403200D01*
X114450500Y-109886190D01*
X114469407Y-109827999D01*
X114479496Y-109816186D01*
X115513937Y-108781745D01*
X115530240Y-108768580D01*
X115532274Y-108767267D01*
X115532278Y-108767264D01*
X115539152Y-108762825D01*
X115558985Y-108737668D01*
X115562899Y-108733263D01*
X115562898Y-108733262D01*
X115565551Y-108730131D01*
X115568428Y-108727254D01*
X115579044Y-108712399D01*
X115581835Y-108708681D01*
X115606327Y-108677614D01*
X115606327Y-108677613D01*
X115611392Y-108671189D01*
X115613958Y-108663882D01*
X115614605Y-108662636D01*
X115619111Y-108656331D01*
X115632788Y-108610596D01*
X115634229Y-108606161D01*
X115647993Y-108566967D01*
X115647994Y-108566964D01*
X115650055Y-108561094D01*
X115650500Y-108555956D01*
X115650500Y-108553820D01*
X115650575Y-108552081D01*
X115650689Y-108550738D01*
X115652543Y-108544537D01*
X115650576Y-108494462D01*
X115650500Y-108490576D01*
X115650500Y-105486190D01*
X115669407Y-105427999D01*
X115679496Y-105416186D01*
X116616186Y-104479496D01*
X116670703Y-104451719D01*
X116686190Y-104450500D01*
X120852052Y-104450500D01*
X120872888Y-104452718D01*
X120874170Y-104452994D01*
X120883261Y-104454951D01*
X120915071Y-104451186D01*
X120920963Y-104450839D01*
X120920963Y-104450836D01*
X120925030Y-104450500D01*
X120929115Y-104450500D01*
X120933141Y-104449830D01*
X120933152Y-104449829D01*
X120947119Y-104447504D01*
X120951726Y-104446848D01*
X120974689Y-104444130D01*
X120991012Y-104442198D01*
X120991013Y-104442198D01*
X120999138Y-104441236D01*
X121006122Y-104437882D01*
X121007454Y-104437461D01*
X121015103Y-104436188D01*
X121057160Y-104413495D01*
X121061283Y-104411395D01*
X121098717Y-104393420D01*
X121098721Y-104393418D01*
X121104326Y-104390726D01*
X121108274Y-104387408D01*
X121109782Y-104385900D01*
X121111071Y-104384718D01*
X121112097Y-104383852D01*
X121117794Y-104380778D01*
X121123345Y-104374773D01*
X121123350Y-104374769D01*
X121151809Y-104343982D01*
X121154503Y-104341179D01*
X121985269Y-103510413D01*
X122039786Y-103482636D01*
X122094351Y-103489457D01*
X122157657Y-103516655D01*
X122223266Y-103544844D01*
X122223272Y-103544846D01*
X122227436Y-103546635D01*
X122305165Y-103564223D01*
X122438206Y-103594328D01*
X122438211Y-103594329D01*
X122442632Y-103595329D01*
X122552865Y-103599660D01*
X122658565Y-103603813D01*
X122658566Y-103603813D01*
X122663098Y-103603991D01*
X122881452Y-103572331D01*
X122885751Y-103570872D01*
X122885754Y-103570871D01*
X123086078Y-103502870D01*
X123090379Y-103501410D01*
X123098931Y-103496621D01*
X123278925Y-103395819D01*
X123282884Y-103393602D01*
X123452518Y-103252518D01*
X123593602Y-103082884D01*
X123651542Y-102979424D01*
X123699192Y-102894340D01*
X123699193Y-102894338D01*
X123701410Y-102890379D01*
X123726089Y-102817677D01*
X123762696Y-102768653D01*
X123819834Y-102750500D01*
X127876187Y-102750500D01*
X127934378Y-102769407D01*
X127966093Y-102808053D01*
X128053979Y-102998693D01*
X128053984Y-102998701D01*
X128055883Y-103002821D01*
X128183222Y-103183002D01*
X128341264Y-103336961D01*
X128524717Y-103459540D01*
X128727436Y-103546635D01*
X128805165Y-103564223D01*
X128938206Y-103594328D01*
X128938211Y-103594329D01*
X128942632Y-103595329D01*
X129052865Y-103599660D01*
X129158565Y-103603813D01*
X129158566Y-103603813D01*
X129163098Y-103603991D01*
X129381452Y-103572331D01*
X129385751Y-103570872D01*
X129385754Y-103570871D01*
X129586078Y-103502870D01*
X129590379Y-103501410D01*
X129598931Y-103496621D01*
X129778925Y-103395819D01*
X129782884Y-103393602D01*
X129952518Y-103252518D01*
X129960684Y-103242699D01*
X130024385Y-103166108D01*
X130076131Y-103133459D01*
X130137186Y-103137461D01*
X130184227Y-103176585D01*
X130199500Y-103229413D01*
X130199500Y-114446492D01*
X130199197Y-114450617D01*
X130197575Y-114455342D01*
X130197918Y-114464476D01*
X130199430Y-114504761D01*
X130199500Y-114508474D01*
X130199500Y-114527948D01*
X130200325Y-114532378D01*
X130200661Y-114537571D01*
X130201774Y-114567208D01*
X130205380Y-114575602D01*
X130205381Y-114575605D01*
X130206317Y-114577783D01*
X130212683Y-114598734D01*
X130214791Y-114610053D01*
X130219588Y-114617835D01*
X130228768Y-114632728D01*
X130235451Y-114645595D01*
X130245964Y-114670063D01*
X130249978Y-114674949D01*
X130254342Y-114679313D01*
X130268613Y-114697368D01*
X130273532Y-114705348D01*
X130296769Y-114723018D01*
X130306839Y-114731810D01*
X132275813Y-116700784D01*
X132303973Y-116757953D01*
X132310492Y-116807809D01*
X132313333Y-116814265D01*
X132313333Y-116814266D01*
X132363720Y-116928778D01*
X132368232Y-116939033D01*
X132414357Y-116993906D01*
X132455943Y-117043379D01*
X132455946Y-117043381D01*
X132460482Y-117048778D01*
X132466353Y-117052686D01*
X132466354Y-117052687D01*
X132472560Y-117056818D01*
X132579825Y-117128220D01*
X132680432Y-117159651D01*
X132709937Y-117168869D01*
X132709938Y-117168869D01*
X132716669Y-117170972D01*
X132788340Y-117172286D01*
X132852957Y-117173471D01*
X132852959Y-117173471D01*
X132860011Y-117173600D01*
X132866814Y-117171745D01*
X132866816Y-117171745D01*
X132987908Y-117138731D01*
X132998329Y-117135890D01*
X133120503Y-117060875D01*
X133127915Y-117052687D01*
X133211980Y-116959812D01*
X133216712Y-116954584D01*
X133279222Y-116825563D01*
X133281606Y-116811398D01*
X133302374Y-116687954D01*
X133302374Y-116687950D01*
X133303008Y-116684184D01*
X133303159Y-116671830D01*
X133282835Y-116529912D01*
X133243061Y-116442434D01*
X133226417Y-116405826D01*
X133226416Y-116405825D01*
X133223496Y-116399402D01*
X133158842Y-116324368D01*
X133134517Y-116296137D01*
X133134516Y-116296136D01*
X133129912Y-116290793D01*
X133009607Y-116212815D01*
X132872251Y-116171737D01*
X132789009Y-116171228D01*
X132735939Y-116170904D01*
X132735938Y-116170904D01*
X132728888Y-116170861D01*
X132722111Y-116172798D01*
X132722110Y-116172798D01*
X132718748Y-116173759D01*
X132681422Y-116184427D01*
X132620276Y-116182238D01*
X132584213Y-116159242D01*
X130829496Y-114404525D01*
X130801719Y-114350008D01*
X130800500Y-114334521D01*
X130800500Y-104781323D01*
X134081891Y-104781323D01*
X134082806Y-104788320D01*
X134082806Y-104788321D01*
X134094988Y-104881478D01*
X134100480Y-104923479D01*
X134103321Y-104929935D01*
X134103321Y-104929936D01*
X134150657Y-105037514D01*
X134158220Y-105054703D01*
X134185367Y-105086998D01*
X134245931Y-105159049D01*
X134245934Y-105159051D01*
X134250470Y-105164448D01*
X134256341Y-105168356D01*
X134256342Y-105168357D01*
X134268643Y-105176545D01*
X134369813Y-105243890D01*
X134470420Y-105275321D01*
X134499925Y-105284539D01*
X134499926Y-105284539D01*
X134506657Y-105286642D01*
X134578328Y-105287956D01*
X134642945Y-105289141D01*
X134642947Y-105289141D01*
X134649999Y-105289270D01*
X134656802Y-105287415D01*
X134656804Y-105287415D01*
X134732003Y-105266913D01*
X134788317Y-105251560D01*
X134910491Y-105176545D01*
X134917903Y-105168357D01*
X134961162Y-105120564D01*
X135014230Y-105090110D01*
X135034560Y-105088000D01*
X137358992Y-105088000D01*
X137363117Y-105088303D01*
X137367842Y-105089925D01*
X137417261Y-105088070D01*
X137420974Y-105088000D01*
X137440448Y-105088000D01*
X137444878Y-105087175D01*
X137450071Y-105086839D01*
X137466102Y-105086237D01*
X137470575Y-105086069D01*
X137479708Y-105085726D01*
X137488102Y-105082120D01*
X137488105Y-105082119D01*
X137490283Y-105081183D01*
X137511234Y-105074817D01*
X137522553Y-105072709D01*
X137545229Y-105058732D01*
X137558096Y-105052048D01*
X137576142Y-105044295D01*
X137576143Y-105044294D01*
X137582563Y-105041536D01*
X137587449Y-105037522D01*
X137591813Y-105033158D01*
X137609868Y-105018887D01*
X137617848Y-105013968D01*
X137635518Y-104990731D01*
X137644310Y-104980661D01*
X138674656Y-103950316D01*
X138677781Y-103947619D01*
X138682269Y-103945425D01*
X138715880Y-103909192D01*
X138718456Y-103906516D01*
X138732248Y-103892724D01*
X138734793Y-103889013D01*
X138738234Y-103885094D01*
X138752185Y-103870055D01*
X138752185Y-103870054D01*
X138758401Y-103863354D01*
X138761787Y-103854866D01*
X138761789Y-103854863D01*
X138762667Y-103852662D01*
X138772981Y-103833346D01*
X138774322Y-103831391D01*
X138774323Y-103831389D01*
X138779492Y-103823854D01*
X138782108Y-103812833D01*
X138785641Y-103797942D01*
X138790014Y-103784116D01*
X138797294Y-103765868D01*
X138797294Y-103765866D01*
X138799883Y-103759378D01*
X138800500Y-103753085D01*
X138800500Y-103746916D01*
X138803175Y-103724057D01*
X138803230Y-103723827D01*
X138803230Y-103723825D01*
X138805340Y-103714934D01*
X138801404Y-103686012D01*
X138800500Y-103672663D01*
X138800500Y-102743823D01*
X148094391Y-102743823D01*
X148097639Y-102768653D01*
X148098386Y-102774368D01*
X148099220Y-102787809D01*
X148099031Y-102818624D01*
X148100970Y-102825408D01*
X148100970Y-102825409D01*
X148106487Y-102844711D01*
X148109463Y-102859082D01*
X148112065Y-102878986D01*
X148112066Y-102878990D01*
X148112980Y-102885979D01*
X148115820Y-102892433D01*
X148115820Y-102892434D01*
X148125389Y-102914181D01*
X148129958Y-102926836D01*
X148138428Y-102956471D01*
X148142190Y-102962434D01*
X148142192Y-102962438D01*
X148152909Y-102979424D01*
X148159793Y-102992369D01*
X148170720Y-103017203D01*
X148175260Y-103022604D01*
X148190544Y-103040787D01*
X148198486Y-103051657D01*
X148214930Y-103077720D01*
X148220214Y-103082387D01*
X148220216Y-103082389D01*
X148235269Y-103095684D01*
X148245513Y-103106182D01*
X148256369Y-103119095D01*
X148262970Y-103126948D01*
X148268841Y-103130856D01*
X148268842Y-103130857D01*
X148288621Y-103144023D01*
X148299297Y-103152230D01*
X148322388Y-103172623D01*
X148328770Y-103175619D01*
X148328774Y-103175622D01*
X148346944Y-103184152D01*
X148359722Y-103191352D01*
X148382313Y-103206390D01*
X148389042Y-103208492D01*
X148389046Y-103208494D01*
X148411720Y-103215577D01*
X148424268Y-103220456D01*
X148452163Y-103233553D01*
X148478982Y-103237729D01*
X148493261Y-103241051D01*
X148519157Y-103249142D01*
X148539335Y-103249512D01*
X148553093Y-103249764D01*
X148557695Y-103249984D01*
X148561009Y-103250500D01*
X148592340Y-103250500D01*
X148594155Y-103250517D01*
X148655447Y-103251641D01*
X148655449Y-103251641D01*
X148662499Y-103251770D01*
X148666100Y-103250788D01*
X148670746Y-103250500D01*
X163592340Y-103250500D01*
X163594155Y-103250517D01*
X163655447Y-103251641D01*
X163655449Y-103251641D01*
X163662499Y-103251770D01*
X163666100Y-103250788D01*
X163670746Y-103250500D01*
X178842340Y-103250500D01*
X178844155Y-103250517D01*
X178905445Y-103251641D01*
X178905447Y-103251641D01*
X178912499Y-103251770D01*
X178919302Y-103249915D01*
X178919305Y-103249915D01*
X178945773Y-103242699D01*
X178957776Y-103240213D01*
X178970238Y-103238428D01*
X178991918Y-103235323D01*
X179013261Y-103225619D01*
X179028197Y-103220227D01*
X179032343Y-103219097D01*
X179050817Y-103214060D01*
X179080209Y-103196013D01*
X179091030Y-103190260D01*
X179116004Y-103178905D01*
X179116005Y-103178904D01*
X179122428Y-103175984D01*
X179140190Y-103160679D01*
X179153012Y-103151312D01*
X179166978Y-103142737D01*
X179172991Y-103139045D01*
X179196135Y-103113475D01*
X179204911Y-103104911D01*
X179225693Y-103087005D01*
X179225694Y-103087003D01*
X179231037Y-103082400D01*
X179243794Y-103062719D01*
X179253466Y-103050137D01*
X179264465Y-103037985D01*
X179269200Y-103032754D01*
X179284237Y-103001718D01*
X179290253Y-102991041D01*
X179293754Y-102985639D01*
X179309015Y-102962095D01*
X179315736Y-102939622D01*
X179321488Y-102924830D01*
X179328635Y-102910080D01*
X179328635Y-102910079D01*
X179331710Y-102903733D01*
X179337431Y-102869728D01*
X179340210Y-102857787D01*
X179348071Y-102831502D01*
X179348072Y-102831498D01*
X179350093Y-102824739D01*
X179350236Y-102801290D01*
X179351605Y-102785480D01*
X179355496Y-102762354D01*
X179355647Y-102750000D01*
X179351801Y-102723145D01*
X179350803Y-102708505D01*
X179350926Y-102688428D01*
X179350926Y-102688427D01*
X179350969Y-102681376D01*
X179342500Y-102651741D01*
X179339691Y-102638581D01*
X179336323Y-102615064D01*
X179335323Y-102608082D01*
X179332404Y-102601661D01*
X179324093Y-102583381D01*
X179319028Y-102569616D01*
X179313510Y-102550310D01*
X179311572Y-102543529D01*
X179295133Y-102517474D01*
X179288738Y-102505622D01*
X179278904Y-102483992D01*
X179278901Y-102483987D01*
X179275984Y-102477572D01*
X179258277Y-102457022D01*
X179249549Y-102445227D01*
X179238837Y-102428249D01*
X179238833Y-102428245D01*
X179235070Y-102422280D01*
X179211967Y-102401877D01*
X179202511Y-102392304D01*
X179182400Y-102368963D01*
X179159633Y-102354206D01*
X179147952Y-102345341D01*
X179127612Y-102327377D01*
X179099717Y-102314280D01*
X179087953Y-102307745D01*
X179068018Y-102294824D01*
X179062095Y-102290985D01*
X179044279Y-102285657D01*
X179036101Y-102283211D01*
X179022403Y-102277981D01*
X178997837Y-102266447D01*
X178967397Y-102261707D01*
X178954262Y-102258735D01*
X178931501Y-102251928D01*
X178931493Y-102251927D01*
X178924739Y-102249907D01*
X178890997Y-102249701D01*
X178890019Y-102249660D01*
X178888991Y-102249500D01*
X178858409Y-102249500D01*
X178857804Y-102249498D01*
X178856942Y-102249493D01*
X178781376Y-102249031D01*
X178780100Y-102249396D01*
X178778571Y-102249500D01*
X163608409Y-102249500D01*
X163607804Y-102249498D01*
X163606942Y-102249493D01*
X163531376Y-102249031D01*
X163530100Y-102249396D01*
X163528571Y-102249500D01*
X148608409Y-102249500D01*
X148607804Y-102249498D01*
X148538432Y-102249074D01*
X148538431Y-102249074D01*
X148531376Y-102249031D01*
X148501747Y-102257500D01*
X148488582Y-102260309D01*
X148458082Y-102264677D01*
X148451662Y-102267596D01*
X148451658Y-102267597D01*
X148433381Y-102275907D01*
X148419616Y-102280972D01*
X148393529Y-102288428D01*
X148387564Y-102292192D01*
X148387563Y-102292192D01*
X148367474Y-102304867D01*
X148355622Y-102311262D01*
X148333992Y-102321096D01*
X148333987Y-102321099D01*
X148327572Y-102324016D01*
X148322229Y-102328620D01*
X148307022Y-102341723D01*
X148295227Y-102350451D01*
X148278249Y-102361163D01*
X148278245Y-102361167D01*
X148272280Y-102364930D01*
X148251877Y-102388033D01*
X148242308Y-102397485D01*
X148218963Y-102417600D01*
X148215126Y-102423520D01*
X148204206Y-102440367D01*
X148195341Y-102452048D01*
X148177377Y-102472388D01*
X148164280Y-102500283D01*
X148157745Y-102512047D01*
X148144824Y-102531982D01*
X148140985Y-102537905D01*
X148138963Y-102544667D01*
X148133211Y-102563899D01*
X148127981Y-102577597D01*
X148116447Y-102602163D01*
X148115361Y-102609138D01*
X148111707Y-102632604D01*
X148108735Y-102645738D01*
X148101928Y-102668499D01*
X148101927Y-102668507D01*
X148099907Y-102675261D01*
X148099761Y-102699151D01*
X148099741Y-102702389D01*
X148098565Y-102717013D01*
X148094391Y-102743823D01*
X138800500Y-102743823D01*
X138800500Y-101952044D01*
X138819407Y-101893853D01*
X138826102Y-101885608D01*
X138914468Y-101787982D01*
X138919200Y-101782754D01*
X138981710Y-101653733D01*
X138985875Y-101628982D01*
X139004862Y-101516124D01*
X139004862Y-101516120D01*
X139005496Y-101512354D01*
X139005647Y-101500000D01*
X138985323Y-101358082D01*
X138963543Y-101310180D01*
X138928905Y-101233996D01*
X138928904Y-101233995D01*
X138925984Y-101227572D01*
X138832400Y-101118963D01*
X138712095Y-101040985D01*
X138574739Y-100999907D01*
X138491497Y-100999398D01*
X138438427Y-100999074D01*
X138438426Y-100999074D01*
X138431376Y-100999031D01*
X138424599Y-101000968D01*
X138424598Y-101000968D01*
X138300309Y-101036490D01*
X138300307Y-101036491D01*
X138293529Y-101038428D01*
X138172280Y-101114930D01*
X138167613Y-101120214D01*
X138167611Y-101120216D01*
X138082044Y-101217103D01*
X138082042Y-101217105D01*
X138077377Y-101222388D01*
X138016447Y-101352163D01*
X138015362Y-101359132D01*
X138015361Y-101359135D01*
X138004700Y-101427611D01*
X137994391Y-101493823D01*
X137995306Y-101500820D01*
X137995306Y-101500821D01*
X138004364Y-101570090D01*
X138012980Y-101635979D01*
X138015821Y-101642435D01*
X138015821Y-101642436D01*
X138023586Y-101660082D01*
X138070720Y-101767203D01*
X138162970Y-101876948D01*
X138166999Y-101879630D01*
X138197265Y-101931636D01*
X138199500Y-101952554D01*
X138199500Y-103534521D01*
X138180593Y-103592712D01*
X138170504Y-103604525D01*
X137317025Y-104458004D01*
X137262508Y-104485781D01*
X137247021Y-104487000D01*
X135034673Y-104487000D01*
X134976482Y-104468093D01*
X134959674Y-104452623D01*
X134924505Y-104411807D01*
X134924504Y-104411806D01*
X134919900Y-104406463D01*
X134799595Y-104328485D01*
X134662239Y-104287407D01*
X134578997Y-104286898D01*
X134525927Y-104286574D01*
X134525926Y-104286574D01*
X134518876Y-104286531D01*
X134512099Y-104288468D01*
X134512098Y-104288468D01*
X134387809Y-104323990D01*
X134387807Y-104323991D01*
X134381029Y-104325928D01*
X134259780Y-104402430D01*
X134255113Y-104407714D01*
X134255111Y-104407716D01*
X134169544Y-104504603D01*
X134169542Y-104504605D01*
X134164877Y-104509888D01*
X134161881Y-104516270D01*
X134161880Y-104516271D01*
X134154936Y-104531062D01*
X134103947Y-104639663D01*
X134102862Y-104646632D01*
X134102861Y-104646635D01*
X134089004Y-104735639D01*
X134081891Y-104781323D01*
X130800500Y-104781323D01*
X130800500Y-96665479D01*
X130819407Y-96607288D01*
X130829496Y-96595475D01*
X131795959Y-95629012D01*
X131850476Y-95601235D01*
X131867774Y-95600033D01*
X131912090Y-95600846D01*
X131955446Y-95601641D01*
X131955448Y-95601641D01*
X131962499Y-95601770D01*
X131969302Y-95599915D01*
X131969304Y-95599915D01*
X132044503Y-95579413D01*
X132100817Y-95564060D01*
X132222991Y-95489045D01*
X132228407Y-95483062D01*
X132314468Y-95387982D01*
X132319200Y-95382754D01*
X132381710Y-95253733D01*
X132383578Y-95242634D01*
X132404862Y-95116124D01*
X132404862Y-95116120D01*
X132405496Y-95112354D01*
X132405647Y-95100000D01*
X132385323Y-94958082D01*
X132353934Y-94889045D01*
X132328905Y-94833996D01*
X132328904Y-94833995D01*
X132325984Y-94827572D01*
X132239214Y-94726871D01*
X132237005Y-94724307D01*
X132237004Y-94724306D01*
X132232400Y-94718963D01*
X132112095Y-94640985D01*
X131974739Y-94599907D01*
X131891497Y-94599398D01*
X131838427Y-94599074D01*
X131838426Y-94599074D01*
X131831376Y-94599031D01*
X131824599Y-94600968D01*
X131824598Y-94600968D01*
X131700309Y-94636490D01*
X131700307Y-94636491D01*
X131693529Y-94638428D01*
X131572280Y-94714930D01*
X131567613Y-94720214D01*
X131567611Y-94720216D01*
X131482044Y-94817103D01*
X131482042Y-94817105D01*
X131477377Y-94822388D01*
X131474381Y-94828770D01*
X131474380Y-94828771D01*
X131460224Y-94858922D01*
X131416447Y-94952163D01*
X131415362Y-94959132D01*
X131415361Y-94959135D01*
X131403397Y-95035979D01*
X131394391Y-95093823D01*
X131395306Y-95100820D01*
X131395306Y-95100822D01*
X131398107Y-95122242D01*
X131386905Y-95182393D01*
X131369947Y-95205082D01*
X130325349Y-96249680D01*
X130322220Y-96252380D01*
X130317731Y-96254575D01*
X130311513Y-96261278D01*
X130284107Y-96290822D01*
X130281531Y-96293498D01*
X130267752Y-96307277D01*
X130265207Y-96310987D01*
X130261771Y-96314900D01*
X130241599Y-96336646D01*
X130238212Y-96345134D01*
X130238212Y-96345135D01*
X130237334Y-96347336D01*
X130227020Y-96366652D01*
X130225679Y-96368607D01*
X130225678Y-96368610D01*
X130220508Y-96376146D01*
X130218398Y-96385038D01*
X130214359Y-96402058D01*
X130209986Y-96415884D01*
X130204761Y-96428982D01*
X130200117Y-96440622D01*
X130199500Y-96446915D01*
X130199500Y-96453084D01*
X130196825Y-96475943D01*
X130194660Y-96485066D01*
X130197128Y-96503200D01*
X130198596Y-96513987D01*
X130199500Y-96527337D01*
X130199500Y-101567792D01*
X130180593Y-101625983D01*
X130131093Y-101661947D01*
X130069907Y-101661947D01*
X130021176Y-101627026D01*
X129998683Y-101596904D01*
X129998682Y-101596903D01*
X129995967Y-101593267D01*
X129895960Y-101500821D01*
X129837279Y-101446577D01*
X129837278Y-101446576D01*
X129833949Y-101443499D01*
X129647350Y-101325764D01*
X129442421Y-101244006D01*
X129226024Y-101200962D01*
X129117347Y-101199539D01*
X129009946Y-101198133D01*
X129009941Y-101198133D01*
X129005406Y-101198074D01*
X129000933Y-101198843D01*
X129000928Y-101198843D01*
X128792435Y-101234668D01*
X128792429Y-101234670D01*
X128787957Y-101235438D01*
X128760176Y-101245687D01*
X128585220Y-101310231D01*
X128585217Y-101310232D01*
X128580957Y-101311804D01*
X128577054Y-101314126D01*
X128577052Y-101314127D01*
X128557492Y-101325764D01*
X128391341Y-101424614D01*
X128387926Y-101427609D01*
X128387923Y-101427611D01*
X128304443Y-101500821D01*
X128225457Y-101570090D01*
X128222649Y-101573652D01*
X128154514Y-101660082D01*
X128088863Y-101743360D01*
X127986131Y-101938620D01*
X127975672Y-101972306D01*
X127973327Y-101979857D01*
X127938015Y-102029824D01*
X127878780Y-102049500D01*
X123823509Y-102049500D01*
X123765318Y-102030593D01*
X123728226Y-101977371D01*
X123725565Y-101967936D01*
X123723557Y-101963864D01*
X123723555Y-101963859D01*
X123629988Y-101774125D01*
X123627980Y-101770053D01*
X123495967Y-101593267D01*
X123395960Y-101500821D01*
X123337279Y-101446577D01*
X123337278Y-101446576D01*
X123333949Y-101443499D01*
X123147350Y-101325764D01*
X122942421Y-101244006D01*
X122726024Y-101200962D01*
X122617347Y-101199539D01*
X122509946Y-101198133D01*
X122509941Y-101198133D01*
X122505406Y-101198074D01*
X122500933Y-101198843D01*
X122500928Y-101198843D01*
X122292435Y-101234668D01*
X122292429Y-101234670D01*
X122287957Y-101235438D01*
X122260176Y-101245687D01*
X122085220Y-101310231D01*
X122085217Y-101310232D01*
X122080957Y-101311804D01*
X122077054Y-101314126D01*
X122077052Y-101314127D01*
X122057492Y-101325764D01*
X121891341Y-101424614D01*
X121887926Y-101427609D01*
X121887923Y-101427611D01*
X121804443Y-101500821D01*
X121725457Y-101570090D01*
X121722649Y-101573652D01*
X121654514Y-101660082D01*
X121588863Y-101743360D01*
X121586749Y-101747378D01*
X121498516Y-101915081D01*
X121486131Y-101938620D01*
X121420703Y-102149333D01*
X121420169Y-102153841D01*
X121420169Y-102153843D01*
X121397363Y-102346528D01*
X121394770Y-102368440D01*
X121397690Y-102412996D01*
X121408858Y-102583381D01*
X121409200Y-102588604D01*
X121410316Y-102592997D01*
X121410316Y-102592999D01*
X121462395Y-102798058D01*
X121463511Y-102802452D01*
X121465407Y-102806565D01*
X121465410Y-102806573D01*
X121509834Y-102902935D01*
X121517026Y-102963696D01*
X121489932Y-103014386D01*
X120783814Y-103720504D01*
X120729297Y-103748281D01*
X120713810Y-103749500D01*
X119109162Y-103749500D01*
X119050971Y-103730593D01*
X119015007Y-103681093D01*
X119015007Y-103619907D01*
X119050971Y-103570407D01*
X119077340Y-103556754D01*
X119236078Y-103502870D01*
X119240379Y-103501410D01*
X119248931Y-103496621D01*
X119428925Y-103395819D01*
X119432884Y-103393602D01*
X119602518Y-103252518D01*
X119743602Y-103082884D01*
X119801542Y-102979424D01*
X119849192Y-102894340D01*
X119849193Y-102894338D01*
X119851410Y-102890379D01*
X119862034Y-102859082D01*
X119920871Y-102685754D01*
X119920872Y-102685751D01*
X119922331Y-102681452D01*
X119932969Y-102608082D01*
X119953571Y-102465997D01*
X119953571Y-102465991D01*
X119953991Y-102463098D01*
X119954281Y-102452054D01*
X119955567Y-102402914D01*
X119955567Y-102402909D01*
X119955643Y-102400000D01*
X119955008Y-102393083D01*
X119941814Y-102249500D01*
X119935454Y-102180289D01*
X119875565Y-101967936D01*
X119873557Y-101963864D01*
X119873555Y-101963859D01*
X119779988Y-101774125D01*
X119777980Y-101770053D01*
X119645967Y-101593267D01*
X119545960Y-101500821D01*
X119487279Y-101446577D01*
X119487278Y-101446576D01*
X119483949Y-101443499D01*
X119297350Y-101325764D01*
X119092421Y-101244006D01*
X118876024Y-101200962D01*
X118767347Y-101199539D01*
X118659946Y-101198133D01*
X118659941Y-101198133D01*
X118655406Y-101198074D01*
X118650933Y-101198843D01*
X118650928Y-101198843D01*
X118442435Y-101234668D01*
X118442429Y-101234670D01*
X118437957Y-101235438D01*
X118410176Y-101245687D01*
X118235220Y-101310231D01*
X118235217Y-101310232D01*
X118230957Y-101311804D01*
X118227054Y-101314126D01*
X118227052Y-101314127D01*
X118207492Y-101325764D01*
X118041341Y-101424614D01*
X118037926Y-101427609D01*
X118037923Y-101427611D01*
X117954443Y-101500821D01*
X117875457Y-101570090D01*
X117872649Y-101573652D01*
X117804514Y-101660082D01*
X117738863Y-101743360D01*
X117636131Y-101938620D01*
X117625672Y-101972306D01*
X117623327Y-101979857D01*
X117588015Y-102029824D01*
X117528780Y-102049500D01*
X113473509Y-102049500D01*
X113415318Y-102030593D01*
X113378226Y-101977371D01*
X113375565Y-101967936D01*
X113373557Y-101963864D01*
X113373555Y-101963859D01*
X113279988Y-101774125D01*
X113277980Y-101770053D01*
X113145967Y-101593267D01*
X113045960Y-101500821D01*
X112987279Y-101446577D01*
X112987278Y-101446576D01*
X112983949Y-101443499D01*
X112797350Y-101325764D01*
X112592421Y-101244006D01*
X112376024Y-101200962D01*
X112267347Y-101199539D01*
X112159946Y-101198133D01*
X112159941Y-101198133D01*
X112155406Y-101198074D01*
X112150933Y-101198843D01*
X112150928Y-101198843D01*
X111942435Y-101234668D01*
X111942429Y-101234670D01*
X111937957Y-101235438D01*
X111910176Y-101245687D01*
X111735220Y-101310231D01*
X111735217Y-101310232D01*
X111730957Y-101311804D01*
X111727054Y-101314126D01*
X111727052Y-101314127D01*
X111707492Y-101325764D01*
X111541341Y-101424614D01*
X111537926Y-101427609D01*
X111537923Y-101427611D01*
X111454443Y-101500821D01*
X111375457Y-101570090D01*
X111372649Y-101573652D01*
X111304514Y-101660082D01*
X111238863Y-101743360D01*
X111236749Y-101747378D01*
X111148516Y-101915081D01*
X111136131Y-101938620D01*
X111070703Y-102149333D01*
X111070169Y-102153841D01*
X111070169Y-102153843D01*
X111047363Y-102346528D01*
X111044770Y-102368440D01*
X107300000Y-102368440D01*
X107300000Y-99339501D01*
X114730630Y-99339501D01*
X114759280Y-99506233D01*
X114825518Y-99661902D01*
X114925791Y-99798158D01*
X114930173Y-99801881D01*
X114930175Y-99801883D01*
X114999015Y-99860367D01*
X115054720Y-99907692D01*
X115205389Y-99984627D01*
X115210974Y-99985994D01*
X115210975Y-99985994D01*
X115365437Y-100023791D01*
X115365440Y-100023792D01*
X115369717Y-100024838D01*
X115374115Y-100025111D01*
X115374116Y-100025111D01*
X115378872Y-100025406D01*
X115378874Y-100025406D01*
X115380388Y-100025500D01*
X115502363Y-100025500D01*
X115628037Y-100010848D01*
X115633443Y-100008886D01*
X115633446Y-100008885D01*
X115781653Y-99955088D01*
X115787061Y-99953125D01*
X115791870Y-99949972D01*
X115791874Y-99949970D01*
X115862041Y-99903966D01*
X115928540Y-99860367D01*
X116044885Y-99737550D01*
X116129856Y-99591262D01*
X116178895Y-99429350D01*
X116189370Y-99260499D01*
X116160720Y-99093767D01*
X116094482Y-98938098D01*
X115994209Y-98801842D01*
X115989827Y-98798119D01*
X115989825Y-98798117D01*
X115869666Y-98696034D01*
X115869665Y-98696033D01*
X115865280Y-98692308D01*
X115714611Y-98615373D01*
X115709025Y-98614006D01*
X115554563Y-98576209D01*
X115554560Y-98576208D01*
X115550283Y-98575162D01*
X115545885Y-98574889D01*
X115545884Y-98574889D01*
X115541128Y-98574594D01*
X115541126Y-98574594D01*
X115539612Y-98574500D01*
X115417637Y-98574500D01*
X115291963Y-98589152D01*
X115286557Y-98591114D01*
X115286554Y-98591115D01*
X115142861Y-98643274D01*
X115132939Y-98646875D01*
X115128130Y-98650028D01*
X115128126Y-98650030D01*
X115067634Y-98689691D01*
X114991460Y-98739633D01*
X114875115Y-98862450D01*
X114790144Y-99008738D01*
X114741105Y-99170650D01*
X114730630Y-99339501D01*
X107300000Y-99339501D01*
X107300000Y-96293823D01*
X112194391Y-96293823D01*
X112195306Y-96300820D01*
X112195306Y-96300821D01*
X112208154Y-96399074D01*
X112212980Y-96435979D01*
X112215821Y-96442435D01*
X112215821Y-96442436D01*
X112264243Y-96552482D01*
X112270720Y-96567203D01*
X112310300Y-96614289D01*
X112326283Y-96633303D01*
X112349253Y-96690013D01*
X112349500Y-96697005D01*
X112349500Y-97252052D01*
X112347282Y-97272888D01*
X112345049Y-97283261D01*
X112346011Y-97291386D01*
X112348814Y-97315071D01*
X112349161Y-97320963D01*
X112349164Y-97320963D01*
X112349500Y-97325030D01*
X112349500Y-97329115D01*
X112350170Y-97333141D01*
X112350171Y-97333152D01*
X112352496Y-97347119D01*
X112353152Y-97351726D01*
X112358764Y-97399138D01*
X112362118Y-97406122D01*
X112362539Y-97407454D01*
X112363812Y-97415103D01*
X112386505Y-97457160D01*
X112388605Y-97461283D01*
X112406580Y-97498717D01*
X112406582Y-97498721D01*
X112409274Y-97504326D01*
X112412592Y-97508274D01*
X112414100Y-97509782D01*
X112415282Y-97511071D01*
X112416148Y-97512097D01*
X112419222Y-97517794D01*
X112425227Y-97523345D01*
X112425231Y-97523350D01*
X112456018Y-97551809D01*
X112458821Y-97554503D01*
X113018255Y-98113937D01*
X113031420Y-98130240D01*
X113032733Y-98132274D01*
X113032736Y-98132278D01*
X113037175Y-98139152D01*
X113062332Y-98158985D01*
X113066737Y-98162899D01*
X113066738Y-98162898D01*
X113069869Y-98165551D01*
X113072746Y-98168428D01*
X113087601Y-98179044D01*
X113091312Y-98181830D01*
X113128811Y-98211392D01*
X113136118Y-98213958D01*
X113137363Y-98214605D01*
X113143669Y-98219111D01*
X113151508Y-98221455D01*
X113151507Y-98221455D01*
X113189417Y-98232793D01*
X113193851Y-98234234D01*
X113233030Y-98247992D01*
X113233033Y-98247993D01*
X113238906Y-98250055D01*
X113244044Y-98250500D01*
X113246182Y-98250500D01*
X113247900Y-98250574D01*
X113249261Y-98250689D01*
X113255463Y-98252544D01*
X113263634Y-98252223D01*
X113305554Y-98250576D01*
X113309441Y-98250500D01*
X116697085Y-98250500D01*
X116755276Y-98269407D01*
X116759488Y-98272806D01*
X116762970Y-98276948D01*
X116768841Y-98280856D01*
X116768842Y-98280857D01*
X116781143Y-98289045D01*
X116882313Y-98356390D01*
X116982920Y-98387821D01*
X117012425Y-98397039D01*
X117012426Y-98397039D01*
X117019157Y-98399142D01*
X117090828Y-98400456D01*
X117155445Y-98401641D01*
X117155447Y-98401641D01*
X117162499Y-98401770D01*
X117169302Y-98399915D01*
X117169304Y-98399915D01*
X117244503Y-98379413D01*
X117300817Y-98364060D01*
X117422991Y-98289045D01*
X117430403Y-98280857D01*
X117514468Y-98187982D01*
X117519200Y-98182754D01*
X117581710Y-98053733D01*
X117605496Y-97912354D01*
X117605647Y-97900000D01*
X117585323Y-97758082D01*
X117525984Y-97627572D01*
X117442421Y-97530593D01*
X117437005Y-97524307D01*
X117437004Y-97524306D01*
X117432400Y-97518963D01*
X117312095Y-97440985D01*
X117174739Y-97399907D01*
X117091497Y-97399398D01*
X117038427Y-97399074D01*
X117038426Y-97399074D01*
X117031376Y-97399031D01*
X117024599Y-97400968D01*
X117024598Y-97400968D01*
X116900309Y-97436490D01*
X116900307Y-97436491D01*
X116893529Y-97438428D01*
X116772280Y-97514930D01*
X116767611Y-97520217D01*
X116762241Y-97524787D01*
X116760313Y-97522522D01*
X116718614Y-97547134D01*
X116697101Y-97549500D01*
X113747825Y-97549500D01*
X113689634Y-97530593D01*
X113653670Y-97481093D01*
X113653670Y-97419907D01*
X113689634Y-97370407D01*
X113700711Y-97364089D01*
X113700817Y-97364060D01*
X113709886Y-97358492D01*
X113816978Y-97292737D01*
X113822991Y-97289045D01*
X113827723Y-97283817D01*
X113827728Y-97283813D01*
X113828407Y-97283062D01*
X113829134Y-97282645D01*
X113833151Y-97279310D01*
X113833730Y-97280007D01*
X113881476Y-97252609D01*
X113901803Y-97250500D01*
X114652052Y-97250500D01*
X114672888Y-97252718D01*
X114674170Y-97252994D01*
X114683261Y-97254951D01*
X114715071Y-97251186D01*
X114720963Y-97250839D01*
X114720963Y-97250836D01*
X114725030Y-97250500D01*
X114729115Y-97250500D01*
X114733141Y-97249830D01*
X114733152Y-97249829D01*
X114747119Y-97247504D01*
X114751726Y-97246848D01*
X114774689Y-97244130D01*
X114791012Y-97242198D01*
X114791013Y-97242198D01*
X114799138Y-97241236D01*
X114806122Y-97237882D01*
X114807454Y-97237461D01*
X114815103Y-97236188D01*
X114857160Y-97213495D01*
X114861283Y-97211395D01*
X114898717Y-97193420D01*
X114898721Y-97193418D01*
X114904326Y-97190726D01*
X114908274Y-97187408D01*
X114909782Y-97185900D01*
X114911071Y-97184718D01*
X114912097Y-97183852D01*
X114917794Y-97180778D01*
X114951811Y-97143979D01*
X114954504Y-97141178D01*
X115616185Y-96479496D01*
X115670702Y-96451719D01*
X115686189Y-96450500D01*
X117497085Y-96450500D01*
X117555276Y-96469407D01*
X117559488Y-96472806D01*
X117562970Y-96476948D01*
X117568841Y-96480856D01*
X117568842Y-96480857D01*
X117575165Y-96485066D01*
X117682313Y-96556390D01*
X117750588Y-96577720D01*
X117812425Y-96597039D01*
X117812426Y-96597039D01*
X117819157Y-96599142D01*
X117890828Y-96600456D01*
X117955445Y-96601641D01*
X117955447Y-96601641D01*
X117962499Y-96601770D01*
X117969302Y-96599915D01*
X117969304Y-96599915D01*
X118069485Y-96572602D01*
X118100817Y-96564060D01*
X118222991Y-96489045D01*
X118230403Y-96480857D01*
X118314468Y-96387982D01*
X118319200Y-96382754D01*
X118371712Y-96274368D01*
X118378634Y-96260082D01*
X118381710Y-96253733D01*
X118383378Y-96243823D01*
X118404862Y-96116124D01*
X118404862Y-96116120D01*
X118405496Y-96112354D01*
X118405647Y-96100000D01*
X118385323Y-95958082D01*
X118341257Y-95861163D01*
X118328905Y-95833996D01*
X118328904Y-95833995D01*
X118325984Y-95827572D01*
X118258478Y-95749228D01*
X118237005Y-95724307D01*
X118237004Y-95724306D01*
X118232400Y-95718963D01*
X118112095Y-95640985D01*
X118105986Y-95639158D01*
X118061322Y-95597798D01*
X118049437Y-95537778D01*
X118075102Y-95482235D01*
X118128512Y-95452385D01*
X118147741Y-95450500D01*
X118913810Y-95450500D01*
X118972001Y-95469407D01*
X118983814Y-95479496D01*
X119520504Y-96016185D01*
X119548281Y-96070702D01*
X119549500Y-96086189D01*
X119549500Y-96503265D01*
X119530593Y-96561456D01*
X119524704Y-96568799D01*
X119482050Y-96617096D01*
X119482048Y-96617099D01*
X119477377Y-96622388D01*
X119416447Y-96752163D01*
X119394391Y-96893823D01*
X119395306Y-96900820D01*
X119395306Y-96900821D01*
X119406161Y-96983835D01*
X119412980Y-97035979D01*
X119415821Y-97042435D01*
X119415821Y-97042436D01*
X119460502Y-97143980D01*
X119470720Y-97167203D01*
X119512033Y-97216351D01*
X119558431Y-97271549D01*
X119558434Y-97271551D01*
X119562970Y-97276948D01*
X119568841Y-97280856D01*
X119568842Y-97280857D01*
X119581143Y-97289045D01*
X119682313Y-97356390D01*
X119782920Y-97387821D01*
X119812425Y-97397039D01*
X119812426Y-97397039D01*
X119819157Y-97399142D01*
X119890828Y-97400456D01*
X119955445Y-97401641D01*
X119955447Y-97401641D01*
X119962499Y-97401770D01*
X119969302Y-97399915D01*
X119969304Y-97399915D01*
X120044503Y-97379413D01*
X120100817Y-97364060D01*
X120222991Y-97289045D01*
X120228227Y-97283261D01*
X120314468Y-97187982D01*
X120319200Y-97182754D01*
X120381710Y-97053733D01*
X120385875Y-97028982D01*
X120404862Y-96916124D01*
X120404862Y-96916120D01*
X120405496Y-96912354D01*
X120405647Y-96900000D01*
X120385323Y-96758082D01*
X120325984Y-96627572D01*
X120274501Y-96567823D01*
X120250840Y-96511398D01*
X120250500Y-96503200D01*
X120250500Y-95947948D01*
X120252718Y-95927112D01*
X120253228Y-95924741D01*
X120254951Y-95916739D01*
X120251186Y-95884929D01*
X120250839Y-95879037D01*
X120250836Y-95879037D01*
X120250500Y-95874970D01*
X120250500Y-95870885D01*
X120249830Y-95866859D01*
X120249829Y-95866848D01*
X120247504Y-95852881D01*
X120246846Y-95848262D01*
X120242198Y-95808988D01*
X120242198Y-95808987D01*
X120241236Y-95800862D01*
X120237882Y-95793878D01*
X120237461Y-95792546D01*
X120236188Y-95784897D01*
X120213495Y-95742840D01*
X120211395Y-95738717D01*
X120193420Y-95701283D01*
X120193418Y-95701279D01*
X120190726Y-95695674D01*
X120187408Y-95691726D01*
X120185900Y-95690218D01*
X120184718Y-95688929D01*
X120183852Y-95687903D01*
X120180778Y-95682206D01*
X120174773Y-95676655D01*
X120174769Y-95676650D01*
X120143982Y-95648191D01*
X120141179Y-95645497D01*
X119381745Y-94886063D01*
X119368580Y-94869760D01*
X119367267Y-94867726D01*
X119367264Y-94867722D01*
X119362825Y-94860848D01*
X119337668Y-94841015D01*
X119333263Y-94837101D01*
X119333262Y-94837102D01*
X119330131Y-94834449D01*
X119327254Y-94831572D01*
X119323335Y-94828771D01*
X119316319Y-94823758D01*
X119312399Y-94820956D01*
X119308681Y-94818165D01*
X119301780Y-94812724D01*
X119271189Y-94788608D01*
X119263882Y-94786042D01*
X119262637Y-94785395D01*
X119256331Y-94780889D01*
X119224542Y-94771382D01*
X119210585Y-94767208D01*
X119206149Y-94765767D01*
X119166967Y-94752007D01*
X119166964Y-94752006D01*
X119161094Y-94749945D01*
X119155956Y-94749500D01*
X119153818Y-94749500D01*
X119152099Y-94749426D01*
X119150738Y-94749311D01*
X119144536Y-94747456D01*
X119136365Y-94747777D01*
X119094446Y-94749424D01*
X119090559Y-94749500D01*
X117488712Y-94749500D01*
X117430521Y-94730593D01*
X117428956Y-94729346D01*
X117425744Y-94725618D01*
X117305439Y-94647640D01*
X117168083Y-94606562D01*
X117084841Y-94606053D01*
X117031771Y-94605729D01*
X117031770Y-94605729D01*
X117024720Y-94605686D01*
X117017943Y-94607623D01*
X117017942Y-94607623D01*
X116893653Y-94643145D01*
X116893651Y-94643146D01*
X116886873Y-94645083D01*
X116765624Y-94721585D01*
X116760957Y-94726869D01*
X116760955Y-94726871D01*
X116675388Y-94823758D01*
X116675386Y-94823760D01*
X116670721Y-94829043D01*
X116667725Y-94835425D01*
X116667724Y-94835426D01*
X116652559Y-94867726D01*
X116609791Y-94958818D01*
X116608706Y-94965787D01*
X116608705Y-94965790D01*
X116598867Y-95028982D01*
X116587735Y-95100478D01*
X116588650Y-95107475D01*
X116588650Y-95107476D01*
X116605409Y-95235637D01*
X116606324Y-95242634D01*
X116609165Y-95249090D01*
X116609165Y-95249091D01*
X116660569Y-95365914D01*
X116664064Y-95373858D01*
X116710189Y-95428731D01*
X116751775Y-95478204D01*
X116751778Y-95478206D01*
X116756314Y-95483603D01*
X116762185Y-95487511D01*
X116762186Y-95487512D01*
X116774487Y-95495700D01*
X116875657Y-95563045D01*
X116876164Y-95563203D01*
X116918377Y-95603261D01*
X116929527Y-95663422D01*
X116903186Y-95718647D01*
X116849415Y-95747842D01*
X116831374Y-95749500D01*
X115686190Y-95749500D01*
X115627999Y-95730593D01*
X115616186Y-95720504D01*
X114581745Y-94686063D01*
X114568580Y-94669760D01*
X114567267Y-94667726D01*
X114567264Y-94667722D01*
X114562825Y-94660848D01*
X114537668Y-94641015D01*
X114533263Y-94637101D01*
X114533262Y-94637102D01*
X114530131Y-94634449D01*
X114527254Y-94631572D01*
X114523636Y-94628986D01*
X114520203Y-94626533D01*
X114512399Y-94620956D01*
X114508681Y-94618165D01*
X114492907Y-94605729D01*
X114471189Y-94588608D01*
X114463882Y-94586042D01*
X114462637Y-94585395D01*
X114456331Y-94580889D01*
X114424542Y-94571382D01*
X114410585Y-94567208D01*
X114406149Y-94565767D01*
X114366967Y-94552007D01*
X114366964Y-94552006D01*
X114361094Y-94549945D01*
X114355956Y-94549500D01*
X114353818Y-94549500D01*
X114352099Y-94549426D01*
X114350738Y-94549311D01*
X114344536Y-94547456D01*
X114336365Y-94547777D01*
X114294446Y-94549424D01*
X114290559Y-94549500D01*
X113302997Y-94549500D01*
X113244806Y-94530593D01*
X113237917Y-94525103D01*
X113237006Y-94524308D01*
X113232400Y-94518963D01*
X113193614Y-94493823D01*
X148094391Y-94493823D01*
X148097152Y-94514930D01*
X148098386Y-94524368D01*
X148099220Y-94537809D01*
X148099031Y-94568624D01*
X148100970Y-94575408D01*
X148100970Y-94575409D01*
X148106487Y-94594711D01*
X148109463Y-94609082D01*
X148112065Y-94628986D01*
X148112066Y-94628990D01*
X148112980Y-94635979D01*
X148115820Y-94642433D01*
X148115820Y-94642434D01*
X148125389Y-94664181D01*
X148129958Y-94676836D01*
X148138428Y-94706471D01*
X148142190Y-94712434D01*
X148142192Y-94712438D01*
X148152909Y-94729424D01*
X148159793Y-94742369D01*
X148170720Y-94767203D01*
X148175260Y-94772604D01*
X148190544Y-94790787D01*
X148198486Y-94801657D01*
X148214930Y-94827720D01*
X148220214Y-94832387D01*
X148220216Y-94832389D01*
X148235269Y-94845684D01*
X148245513Y-94856182D01*
X148255218Y-94867726D01*
X148262970Y-94876948D01*
X148268841Y-94880856D01*
X148268842Y-94880857D01*
X148288621Y-94894023D01*
X148299297Y-94902230D01*
X148322388Y-94922623D01*
X148328770Y-94925619D01*
X148328774Y-94925622D01*
X148346944Y-94934152D01*
X148359722Y-94941352D01*
X148382313Y-94956390D01*
X148389042Y-94958492D01*
X148389046Y-94958494D01*
X148411720Y-94965577D01*
X148424268Y-94970456D01*
X148452163Y-94983553D01*
X148478982Y-94987729D01*
X148493261Y-94991051D01*
X148519157Y-94999142D01*
X148539335Y-94999512D01*
X148553093Y-94999764D01*
X148557695Y-94999984D01*
X148561009Y-95000500D01*
X148592340Y-95000500D01*
X148594155Y-95000517D01*
X148655447Y-95001641D01*
X148655449Y-95001641D01*
X148662499Y-95001770D01*
X148666100Y-95000788D01*
X148670746Y-95000500D01*
X163592340Y-95000500D01*
X163594155Y-95000517D01*
X163655447Y-95001641D01*
X163655449Y-95001641D01*
X163662499Y-95001770D01*
X163666100Y-95000788D01*
X163670746Y-95000500D01*
X178842340Y-95000500D01*
X178844155Y-95000517D01*
X178905447Y-95001641D01*
X178905449Y-95001641D01*
X178912499Y-95001770D01*
X178916100Y-95000788D01*
X178920746Y-95000500D01*
X180792340Y-95000500D01*
X180794155Y-95000517D01*
X180855445Y-95001641D01*
X180855447Y-95001641D01*
X180862499Y-95001770D01*
X180869302Y-94999915D01*
X180869305Y-94999915D01*
X180895773Y-94992699D01*
X180907776Y-94990213D01*
X180917229Y-94988859D01*
X180941918Y-94985323D01*
X180963261Y-94975619D01*
X180978197Y-94970227D01*
X180982343Y-94969097D01*
X181000817Y-94964060D01*
X181030209Y-94946013D01*
X181041030Y-94940260D01*
X181066004Y-94928905D01*
X181066005Y-94928904D01*
X181072428Y-94925984D01*
X181090190Y-94910679D01*
X181103012Y-94901312D01*
X181116978Y-94892737D01*
X181122991Y-94889045D01*
X181132432Y-94878615D01*
X181146134Y-94863476D01*
X181154911Y-94854911D01*
X181175693Y-94837005D01*
X181175694Y-94837003D01*
X181181037Y-94832400D01*
X181193794Y-94812719D01*
X181203466Y-94800137D01*
X181213901Y-94788608D01*
X181219200Y-94782754D01*
X181234237Y-94751718D01*
X181240253Y-94741041D01*
X181247025Y-94730593D01*
X181259015Y-94712095D01*
X181265736Y-94689622D01*
X181271488Y-94674830D01*
X181278635Y-94660080D01*
X181278635Y-94660079D01*
X181281710Y-94653733D01*
X181285873Y-94628986D01*
X181287431Y-94619728D01*
X181290210Y-94607787D01*
X181298071Y-94581502D01*
X181298072Y-94581498D01*
X181300093Y-94574739D01*
X181300236Y-94551290D01*
X181301605Y-94535480D01*
X181305496Y-94512354D01*
X181305647Y-94500000D01*
X181301801Y-94473145D01*
X181300803Y-94458505D01*
X181300926Y-94438428D01*
X181300926Y-94438427D01*
X181300969Y-94431376D01*
X181292500Y-94401741D01*
X181289691Y-94388581D01*
X181286323Y-94365064D01*
X181285323Y-94358082D01*
X181282404Y-94351661D01*
X181274093Y-94333381D01*
X181269028Y-94319616D01*
X181263510Y-94300310D01*
X181261572Y-94293529D01*
X181245133Y-94267474D01*
X181238738Y-94255622D01*
X181228904Y-94233992D01*
X181228901Y-94233987D01*
X181225984Y-94227572D01*
X181208277Y-94207022D01*
X181199549Y-94195227D01*
X181188837Y-94178249D01*
X181188833Y-94178245D01*
X181185070Y-94172280D01*
X181161967Y-94151877D01*
X181152511Y-94142304D01*
X181132400Y-94118963D01*
X181109633Y-94104206D01*
X181097952Y-94095341D01*
X181077612Y-94077377D01*
X181049717Y-94064280D01*
X181037953Y-94057745D01*
X181018018Y-94044824D01*
X181012095Y-94040985D01*
X180994279Y-94035657D01*
X180986101Y-94033211D01*
X180972403Y-94027981D01*
X180947837Y-94016447D01*
X180917397Y-94011707D01*
X180904262Y-94008735D01*
X180881501Y-94001928D01*
X180881493Y-94001927D01*
X180874739Y-93999907D01*
X180840997Y-93999701D01*
X180840019Y-93999660D01*
X180838991Y-93999500D01*
X180808409Y-93999500D01*
X180807804Y-93999498D01*
X180806942Y-93999493D01*
X180731376Y-93999031D01*
X180730100Y-93999396D01*
X180728571Y-93999500D01*
X178858409Y-93999500D01*
X178857804Y-93999498D01*
X178856942Y-93999493D01*
X178781376Y-93999031D01*
X178780100Y-93999396D01*
X178778571Y-93999500D01*
X163608409Y-93999500D01*
X163607804Y-93999498D01*
X163606942Y-93999493D01*
X163531376Y-93999031D01*
X163530100Y-93999396D01*
X163528571Y-93999500D01*
X148608409Y-93999500D01*
X148607804Y-93999498D01*
X148538432Y-93999074D01*
X148538431Y-93999074D01*
X148531376Y-93999031D01*
X148501747Y-94007500D01*
X148488582Y-94010309D01*
X148458082Y-94014677D01*
X148451662Y-94017596D01*
X148451658Y-94017597D01*
X148433381Y-94025907D01*
X148419616Y-94030972D01*
X148393529Y-94038428D01*
X148387564Y-94042192D01*
X148387563Y-94042192D01*
X148367474Y-94054867D01*
X148355622Y-94061262D01*
X148333992Y-94071096D01*
X148333987Y-94071099D01*
X148327572Y-94074016D01*
X148322229Y-94078620D01*
X148307022Y-94091723D01*
X148295227Y-94100451D01*
X148278249Y-94111163D01*
X148278245Y-94111167D01*
X148272280Y-94114930D01*
X148251877Y-94138033D01*
X148242308Y-94147485D01*
X148218963Y-94167600D01*
X148215126Y-94173520D01*
X148204206Y-94190367D01*
X148195341Y-94202048D01*
X148177377Y-94222388D01*
X148164280Y-94250283D01*
X148157745Y-94262047D01*
X148144824Y-94281982D01*
X148140985Y-94287905D01*
X148138963Y-94294667D01*
X148133211Y-94313899D01*
X148127981Y-94327597D01*
X148116447Y-94352163D01*
X148115361Y-94359138D01*
X148111707Y-94382604D01*
X148108735Y-94395738D01*
X148101928Y-94418499D01*
X148101927Y-94418507D01*
X148099907Y-94425261D01*
X148099823Y-94438964D01*
X148099741Y-94452389D01*
X148098565Y-94467013D01*
X148094391Y-94493823D01*
X113193614Y-94493823D01*
X113112095Y-94440985D01*
X112974739Y-94399907D01*
X112891497Y-94399398D01*
X112838427Y-94399074D01*
X112838426Y-94399074D01*
X112831376Y-94399031D01*
X112824599Y-94400968D01*
X112824598Y-94400968D01*
X112700309Y-94436490D01*
X112700307Y-94436491D01*
X112693529Y-94438428D01*
X112572280Y-94514930D01*
X112567613Y-94520214D01*
X112567611Y-94520216D01*
X112482044Y-94617103D01*
X112482042Y-94617105D01*
X112477377Y-94622388D01*
X112474381Y-94628770D01*
X112474380Y-94628771D01*
X112466470Y-94645619D01*
X112416447Y-94752163D01*
X112415362Y-94759132D01*
X112415361Y-94759135D01*
X112402612Y-94841022D01*
X112394391Y-94893823D01*
X112395306Y-94900820D01*
X112395306Y-94900821D01*
X112406266Y-94984637D01*
X112412980Y-95035979D01*
X112415821Y-95042435D01*
X112415821Y-95042436D01*
X112450937Y-95122242D01*
X112470720Y-95167203D01*
X112502561Y-95205082D01*
X112558431Y-95271549D01*
X112558434Y-95271551D01*
X112562970Y-95276948D01*
X112682313Y-95356390D01*
X112755508Y-95379257D01*
X112812425Y-95397039D01*
X112812426Y-95397039D01*
X112819157Y-95399142D01*
X112890828Y-95400456D01*
X112955445Y-95401641D01*
X112955447Y-95401641D01*
X112962499Y-95401770D01*
X112969302Y-95399915D01*
X112969304Y-95399915D01*
X113045075Y-95379257D01*
X113100817Y-95364060D01*
X113222991Y-95289045D01*
X113227723Y-95283817D01*
X113227728Y-95283813D01*
X113228407Y-95283062D01*
X113229134Y-95282645D01*
X113233151Y-95279310D01*
X113233730Y-95280007D01*
X113281476Y-95252609D01*
X113301803Y-95250500D01*
X114113810Y-95250500D01*
X114172001Y-95269407D01*
X114183814Y-95279496D01*
X114934314Y-96029996D01*
X114962091Y-96084513D01*
X114952520Y-96144945D01*
X114934314Y-96170004D01*
X114583814Y-96520504D01*
X114529297Y-96548281D01*
X114513810Y-96549500D01*
X113902997Y-96549500D01*
X113844806Y-96530593D01*
X113837917Y-96525103D01*
X113837006Y-96524308D01*
X113832400Y-96518963D01*
X113712095Y-96440985D01*
X113574739Y-96399907D01*
X113491497Y-96399398D01*
X113438427Y-96399074D01*
X113438426Y-96399074D01*
X113431376Y-96399031D01*
X113424599Y-96400968D01*
X113424598Y-96400968D01*
X113396030Y-96409133D01*
X113329631Y-96428110D01*
X113268486Y-96425921D01*
X113220304Y-96388210D01*
X113203490Y-96329380D01*
X113204800Y-96316493D01*
X113204861Y-96316129D01*
X113204861Y-96316128D01*
X113205496Y-96312354D01*
X113205647Y-96300000D01*
X113185323Y-96158082D01*
X113151873Y-96084513D01*
X113128905Y-96033996D01*
X113128904Y-96033995D01*
X113125984Y-96027572D01*
X113032400Y-95918963D01*
X112912095Y-95840985D01*
X112774739Y-95799907D01*
X112691497Y-95799398D01*
X112638427Y-95799074D01*
X112638426Y-95799074D01*
X112631376Y-95799031D01*
X112624599Y-95800968D01*
X112624598Y-95800968D01*
X112500309Y-95836490D01*
X112500307Y-95836491D01*
X112493529Y-95838428D01*
X112372280Y-95914930D01*
X112367613Y-95920214D01*
X112367611Y-95920216D01*
X112282044Y-96017103D01*
X112282042Y-96017105D01*
X112277377Y-96022388D01*
X112274381Y-96028770D01*
X112274380Y-96028771D01*
X112257887Y-96063899D01*
X112216447Y-96152163D01*
X112215362Y-96159132D01*
X112215361Y-96159135D01*
X112208627Y-96202389D01*
X112194391Y-96293823D01*
X107300000Y-96293823D01*
X107300000Y-92743823D01*
X148094391Y-92743823D01*
X148096815Y-92762354D01*
X148098386Y-92774368D01*
X148099220Y-92787809D01*
X148099031Y-92818624D01*
X148100970Y-92825408D01*
X148100970Y-92825409D01*
X148106487Y-92844711D01*
X148109463Y-92859082D01*
X148112065Y-92878986D01*
X148112066Y-92878990D01*
X148112980Y-92885979D01*
X148115820Y-92892433D01*
X148115820Y-92892434D01*
X148125389Y-92914181D01*
X148129958Y-92926836D01*
X148138428Y-92956471D01*
X148142190Y-92962434D01*
X148142192Y-92962438D01*
X148152909Y-92979424D01*
X148159793Y-92992369D01*
X148170720Y-93017203D01*
X148175260Y-93022604D01*
X148190544Y-93040787D01*
X148198486Y-93051657D01*
X148214930Y-93077720D01*
X148220214Y-93082387D01*
X148220216Y-93082389D01*
X148235269Y-93095684D01*
X148245513Y-93106182D01*
X148258429Y-93121546D01*
X148262970Y-93126948D01*
X148268841Y-93130856D01*
X148268842Y-93130857D01*
X148288621Y-93144023D01*
X148299297Y-93152230D01*
X148322388Y-93172623D01*
X148328770Y-93175619D01*
X148328774Y-93175622D01*
X148346944Y-93184152D01*
X148359722Y-93191352D01*
X148382313Y-93206390D01*
X148389042Y-93208492D01*
X148389046Y-93208494D01*
X148411720Y-93215577D01*
X148424268Y-93220456D01*
X148452163Y-93233553D01*
X148478982Y-93237729D01*
X148493261Y-93241051D01*
X148519157Y-93249142D01*
X148539335Y-93249512D01*
X148553093Y-93249764D01*
X148557695Y-93249984D01*
X148561009Y-93250500D01*
X148592340Y-93250500D01*
X148594155Y-93250517D01*
X148655447Y-93251641D01*
X148655449Y-93251641D01*
X148662499Y-93251770D01*
X148666100Y-93250788D01*
X148670746Y-93250500D01*
X163592340Y-93250500D01*
X163594155Y-93250517D01*
X163655447Y-93251641D01*
X163655449Y-93251641D01*
X163662499Y-93251770D01*
X163666100Y-93250788D01*
X163670746Y-93250500D01*
X178842340Y-93250500D01*
X178844155Y-93250517D01*
X178905445Y-93251641D01*
X178905447Y-93251641D01*
X178912499Y-93251770D01*
X178919302Y-93249915D01*
X178919305Y-93249915D01*
X178945773Y-93242699D01*
X178957776Y-93240213D01*
X178967229Y-93238859D01*
X178991918Y-93235323D01*
X179013261Y-93225619D01*
X179028197Y-93220227D01*
X179032343Y-93219097D01*
X179050817Y-93214060D01*
X179080209Y-93196013D01*
X179091030Y-93190260D01*
X179116004Y-93178905D01*
X179116005Y-93178904D01*
X179122428Y-93175984D01*
X179140190Y-93160679D01*
X179153012Y-93151312D01*
X179166978Y-93142737D01*
X179172991Y-93139045D01*
X179196135Y-93113475D01*
X179204911Y-93104911D01*
X179225693Y-93087005D01*
X179225694Y-93087003D01*
X179231037Y-93082400D01*
X179243794Y-93062719D01*
X179253466Y-93050137D01*
X179264465Y-93037985D01*
X179269200Y-93032754D01*
X179284237Y-93001718D01*
X179290253Y-92991041D01*
X179293754Y-92985639D01*
X179309015Y-92962095D01*
X179315736Y-92939622D01*
X179321488Y-92924830D01*
X179328635Y-92910080D01*
X179328635Y-92910079D01*
X179331710Y-92903733D01*
X179337431Y-92869728D01*
X179340210Y-92857787D01*
X179348071Y-92831502D01*
X179348072Y-92831498D01*
X179350093Y-92824739D01*
X179350236Y-92801290D01*
X179351605Y-92785480D01*
X179355496Y-92762354D01*
X179355647Y-92750000D01*
X179351801Y-92723145D01*
X179350803Y-92708505D01*
X179350926Y-92688428D01*
X179350926Y-92688427D01*
X179350969Y-92681376D01*
X179342500Y-92651741D01*
X179339691Y-92638581D01*
X179336323Y-92615064D01*
X179335323Y-92608082D01*
X179332404Y-92601661D01*
X179324093Y-92583381D01*
X179319028Y-92569616D01*
X179313510Y-92550310D01*
X179311572Y-92543529D01*
X179295133Y-92517474D01*
X179288738Y-92505622D01*
X179278904Y-92483992D01*
X179278901Y-92483987D01*
X179275984Y-92477572D01*
X179258277Y-92457022D01*
X179249549Y-92445227D01*
X179238837Y-92428249D01*
X179238833Y-92428245D01*
X179235070Y-92422280D01*
X179211967Y-92401877D01*
X179202511Y-92392304D01*
X179200727Y-92390233D01*
X179182400Y-92368963D01*
X179159633Y-92354206D01*
X179147952Y-92345341D01*
X179127612Y-92327377D01*
X179099717Y-92314280D01*
X179087953Y-92307745D01*
X179068018Y-92294824D01*
X179062095Y-92290985D01*
X179044279Y-92285657D01*
X179036101Y-92283211D01*
X179022403Y-92277981D01*
X178997837Y-92266447D01*
X178967397Y-92261707D01*
X178954262Y-92258735D01*
X178931501Y-92251928D01*
X178931493Y-92251927D01*
X178924739Y-92249907D01*
X178890997Y-92249701D01*
X178890019Y-92249660D01*
X178888991Y-92249500D01*
X178858409Y-92249500D01*
X178857804Y-92249498D01*
X178856942Y-92249493D01*
X178781376Y-92249031D01*
X178780100Y-92249396D01*
X178778571Y-92249500D01*
X163608409Y-92249500D01*
X163607804Y-92249498D01*
X163606942Y-92249493D01*
X163531376Y-92249031D01*
X163530100Y-92249396D01*
X163528571Y-92249500D01*
X148608409Y-92249500D01*
X148607804Y-92249498D01*
X148538432Y-92249074D01*
X148538431Y-92249074D01*
X148531376Y-92249031D01*
X148501747Y-92257500D01*
X148488582Y-92260309D01*
X148458082Y-92264677D01*
X148451662Y-92267596D01*
X148451658Y-92267597D01*
X148433381Y-92275907D01*
X148419616Y-92280972D01*
X148393529Y-92288428D01*
X148387564Y-92292192D01*
X148387563Y-92292192D01*
X148367474Y-92304867D01*
X148355622Y-92311262D01*
X148333992Y-92321096D01*
X148333987Y-92321099D01*
X148327572Y-92324016D01*
X148322229Y-92328620D01*
X148307022Y-92341723D01*
X148295227Y-92350451D01*
X148278249Y-92361163D01*
X148278245Y-92361167D01*
X148272280Y-92364930D01*
X148251877Y-92388033D01*
X148242308Y-92397485D01*
X148218963Y-92417600D01*
X148215126Y-92423520D01*
X148204206Y-92440367D01*
X148195341Y-92452048D01*
X148177377Y-92472388D01*
X148164280Y-92500283D01*
X148157745Y-92512047D01*
X148144824Y-92531982D01*
X148140985Y-92537905D01*
X148138963Y-92544667D01*
X148133211Y-92563899D01*
X148127981Y-92577597D01*
X148116447Y-92602163D01*
X148115361Y-92609138D01*
X148111707Y-92632604D01*
X148108735Y-92645738D01*
X148101928Y-92668499D01*
X148101927Y-92668507D01*
X148099907Y-92675261D01*
X148099761Y-92699151D01*
X148099741Y-92702389D01*
X148098565Y-92717013D01*
X148094391Y-92743823D01*
X107300000Y-92743823D01*
X107300000Y-92100000D01*
X114879534Y-92100000D01*
X114899313Y-92250236D01*
X114901797Y-92256233D01*
X114954819Y-92384240D01*
X114954821Y-92384244D01*
X114957302Y-92390233D01*
X114961248Y-92395375D01*
X114961250Y-92395379D01*
X115004739Y-92452054D01*
X115049549Y-92510451D01*
X115054698Y-92514402D01*
X115164621Y-92598750D01*
X115164625Y-92598752D01*
X115169767Y-92602698D01*
X115175756Y-92605179D01*
X115175760Y-92605181D01*
X115272525Y-92645262D01*
X115309764Y-92660687D01*
X115422280Y-92675500D01*
X115497720Y-92675500D01*
X115610236Y-92660687D01*
X115647475Y-92645262D01*
X115744240Y-92605181D01*
X115744244Y-92605179D01*
X115750233Y-92602698D01*
X115755375Y-92598752D01*
X115755379Y-92598750D01*
X115865302Y-92514402D01*
X115870451Y-92510451D01*
X115915261Y-92452054D01*
X115958750Y-92395379D01*
X115958752Y-92395375D01*
X115962698Y-92390233D01*
X115965179Y-92384244D01*
X115965181Y-92384240D01*
X116018203Y-92256233D01*
X116020687Y-92250236D01*
X116040466Y-92100000D01*
X116020687Y-91949764D01*
X116018203Y-91943767D01*
X115965181Y-91815760D01*
X115965179Y-91815756D01*
X115962698Y-91809767D01*
X115958752Y-91804625D01*
X115958750Y-91804621D01*
X115874402Y-91694698D01*
X115870451Y-91689549D01*
X115865302Y-91685598D01*
X115755379Y-91601250D01*
X115755375Y-91601248D01*
X115750233Y-91597302D01*
X115744244Y-91594821D01*
X115744240Y-91594819D01*
X115616233Y-91541797D01*
X115610236Y-91539313D01*
X115497720Y-91524500D01*
X115422280Y-91524500D01*
X115309764Y-91539313D01*
X115303767Y-91541797D01*
X115175760Y-91594819D01*
X115175756Y-91594821D01*
X115169767Y-91597302D01*
X115164625Y-91601248D01*
X115164621Y-91601250D01*
X115054698Y-91685598D01*
X115049549Y-91689549D01*
X115045598Y-91694698D01*
X114961250Y-91804621D01*
X114961248Y-91804625D01*
X114957302Y-91809767D01*
X114954821Y-91815756D01*
X114954819Y-91815760D01*
X114901797Y-91943767D01*
X114899313Y-91949764D01*
X114879534Y-92100000D01*
X107300000Y-92100000D01*
X107300000Y-91533960D01*
X107302518Y-91511773D01*
X107302562Y-91511583D01*
X107305143Y-91500358D01*
X107302682Y-91489483D01*
X107302702Y-91478336D01*
X107302863Y-91478336D01*
X107302076Y-91468331D01*
X107314974Y-91271531D01*
X107316664Y-91258691D01*
X107360067Y-91040489D01*
X107363419Y-91027980D01*
X107434933Y-90817309D01*
X107439889Y-90805346D01*
X107538284Y-90605820D01*
X107544753Y-90594614D01*
X107668365Y-90409615D01*
X107676233Y-90399361D01*
X107822931Y-90232085D01*
X107832086Y-90222930D01*
X107999361Y-90076233D01*
X108009615Y-90068365D01*
X108194614Y-89944753D01*
X108205820Y-89938284D01*
X108323046Y-89880475D01*
X108405347Y-89839889D01*
X108417309Y-89834933D01*
X108627984Y-89763418D01*
X108640484Y-89760068D01*
X108858698Y-89716663D01*
X108871523Y-89714975D01*
X109067819Y-89702109D01*
X109077628Y-89702899D01*
X109077628Y-89702625D01*
X109088778Y-89702645D01*
X109099642Y-89705143D01*
X109110514Y-89702683D01*
X109110516Y-89702683D01*
X109111583Y-89702441D01*
X109133432Y-89700000D01*
X180066040Y-89700000D01*
X180088227Y-89702518D01*
G37*
%TD.AperFunction*%
%TA.AperFunction,Conductor*%
G36*
X117584378Y-102769407D02*
G01*
X117616093Y-102808053D01*
X117703979Y-102998693D01*
X117703984Y-102998701D01*
X117705883Y-103002821D01*
X117833222Y-103183002D01*
X117991264Y-103336961D01*
X118174717Y-103459540D01*
X118377436Y-103546635D01*
X118409724Y-103553941D01*
X118462307Y-103585225D01*
X118486460Y-103641441D01*
X118472956Y-103701118D01*
X118426955Y-103741460D01*
X118387875Y-103749500D01*
X116547948Y-103749500D01*
X116527112Y-103747282D01*
X116525830Y-103747006D01*
X116516739Y-103745049D01*
X116484929Y-103748814D01*
X116479037Y-103749161D01*
X116479037Y-103749164D01*
X116474970Y-103749500D01*
X116470885Y-103749500D01*
X116466859Y-103750170D01*
X116466848Y-103750171D01*
X116452881Y-103752496D01*
X116448269Y-103753153D01*
X116400861Y-103758764D01*
X116393878Y-103762117D01*
X116392544Y-103762539D01*
X116384897Y-103763812D01*
X116377696Y-103767698D01*
X116377695Y-103767698D01*
X116342861Y-103786494D01*
X116338703Y-103788612D01*
X116301288Y-103806578D01*
X116301287Y-103806579D01*
X116295674Y-103809274D01*
X116291726Y-103812592D01*
X116290216Y-103814102D01*
X116288929Y-103815282D01*
X116287903Y-103816148D01*
X116282206Y-103819222D01*
X116276655Y-103825227D01*
X116276650Y-103825231D01*
X116248191Y-103856018D01*
X116245497Y-103858821D01*
X115086063Y-105018255D01*
X115069760Y-105031420D01*
X115067726Y-105032733D01*
X115067722Y-105032736D01*
X115060848Y-105037175D01*
X115041015Y-105062332D01*
X115037101Y-105066737D01*
X115037102Y-105066738D01*
X115034449Y-105069869D01*
X115031572Y-105072746D01*
X115020956Y-105087601D01*
X115018165Y-105091319D01*
X114995110Y-105120564D01*
X114988608Y-105128811D01*
X114986042Y-105136118D01*
X114985395Y-105137363D01*
X114980889Y-105143669D01*
X114971382Y-105175458D01*
X114967208Y-105189415D01*
X114965767Y-105193851D01*
X114949945Y-105238906D01*
X114949500Y-105244044D01*
X114949500Y-105246182D01*
X114949426Y-105247901D01*
X114949311Y-105249262D01*
X114947456Y-105255464D01*
X114947777Y-105263635D01*
X114949424Y-105305554D01*
X114949500Y-105309441D01*
X114949500Y-108313810D01*
X114930593Y-108372001D01*
X114920504Y-108383814D01*
X113886063Y-109418255D01*
X113869760Y-109431420D01*
X113867726Y-109432733D01*
X113867722Y-109432736D01*
X113860848Y-109437175D01*
X113841015Y-109462332D01*
X113837101Y-109466737D01*
X113837102Y-109466738D01*
X113834449Y-109469869D01*
X113831572Y-109472746D01*
X113820956Y-109487601D01*
X113818170Y-109491312D01*
X113788608Y-109528811D01*
X113786042Y-109536118D01*
X113785395Y-109537363D01*
X113780889Y-109543669D01*
X113778545Y-109551508D01*
X113767208Y-109589415D01*
X113765767Y-109593851D01*
X113749945Y-109638906D01*
X113749500Y-109644044D01*
X113749500Y-109646182D01*
X113749426Y-109647901D01*
X113749311Y-109649262D01*
X113747456Y-109655464D01*
X113747777Y-109663635D01*
X113749424Y-109705554D01*
X113749500Y-109709441D01*
X113749500Y-116962242D01*
X113730593Y-117020433D01*
X113681093Y-117056397D01*
X113619907Y-117056397D01*
X113570407Y-117020433D01*
X113560378Y-117003218D01*
X113528905Y-116933996D01*
X113528904Y-116933995D01*
X113525984Y-116927572D01*
X113483180Y-116877896D01*
X113474501Y-116867823D01*
X113450840Y-116811398D01*
X113450500Y-116803200D01*
X113450500Y-109386190D01*
X113469407Y-109327999D01*
X113479496Y-109316186D01*
X114513937Y-108281745D01*
X114530240Y-108268580D01*
X114532274Y-108267267D01*
X114532278Y-108267264D01*
X114539152Y-108262825D01*
X114558985Y-108237668D01*
X114562899Y-108233263D01*
X114562898Y-108233262D01*
X114565551Y-108230131D01*
X114568428Y-108227254D01*
X114579044Y-108212399D01*
X114581835Y-108208681D01*
X114606327Y-108177614D01*
X114606327Y-108177613D01*
X114611392Y-108171189D01*
X114613958Y-108163882D01*
X114614605Y-108162636D01*
X114619111Y-108156331D01*
X114632788Y-108110596D01*
X114634229Y-108106161D01*
X114647993Y-108066967D01*
X114647994Y-108066964D01*
X114650055Y-108061094D01*
X114650500Y-108055956D01*
X114650500Y-108053820D01*
X114650575Y-108052081D01*
X114650689Y-108050738D01*
X114652543Y-108044537D01*
X114650576Y-107994462D01*
X114650500Y-107990576D01*
X114650500Y-104497948D01*
X114652718Y-104477112D01*
X114653228Y-104474741D01*
X114654951Y-104466739D01*
X114651186Y-104434929D01*
X114650839Y-104429037D01*
X114650836Y-104429037D01*
X114650500Y-104424970D01*
X114650500Y-104420885D01*
X114649830Y-104416859D01*
X114649829Y-104416848D01*
X114647504Y-104402881D01*
X114646846Y-104398262D01*
X114646548Y-104395738D01*
X114641236Y-104350862D01*
X114637882Y-104343878D01*
X114637461Y-104342546D01*
X114636188Y-104334897D01*
X114613495Y-104292840D01*
X114611395Y-104288717D01*
X114593420Y-104251283D01*
X114593418Y-104251279D01*
X114590726Y-104245674D01*
X114587408Y-104241726D01*
X114585900Y-104240218D01*
X114584718Y-104238929D01*
X114583852Y-104237903D01*
X114580778Y-104232206D01*
X114574773Y-104226655D01*
X114574769Y-104226650D01*
X114543982Y-104198191D01*
X114541179Y-104195497D01*
X113362993Y-103017311D01*
X113335216Y-102962794D01*
X113346618Y-102898937D01*
X113349190Y-102894344D01*
X113349192Y-102894339D01*
X113351410Y-102890379D01*
X113376089Y-102817677D01*
X113412696Y-102768653D01*
X113469834Y-102750500D01*
X117526187Y-102750500D01*
X117584378Y-102769407D01*
G37*
%TD.AperFunction*%
%TD*%
M02*
