%TF.GenerationSoftware,KiCad,Pcbnew,(6.0.0)*%
%TF.CreationDate,2022-11-26T21:53:32+02:00*%
%TF.ProjectId,mood,6d6f6f64-2e6b-4696-9361-645f70636258,rev?*%
%TF.SameCoordinates,Original*%
%TF.FileFunction,Soldermask,Top*%
%TF.FilePolarity,Negative*%
%FSLAX46Y46*%
G04 Gerber Fmt 4.6, Leading zero omitted, Abs format (unit mm)*
G04 Created by KiCad (PCBNEW (6.0.0)) date 2022-11-26 21:53:32*
%MOMM*%
%LPD*%
G01*
G04 APERTURE LIST*
G04 Aperture macros list*
%AMRoundRect*
0 Rectangle with rounded corners*
0 $1 Rounding radius*
0 $2 $3 $4 $5 $6 $7 $8 $9 X,Y pos of 4 corners*
0 Add a 4 corners polygon primitive as box body*
4,1,4,$2,$3,$4,$5,$6,$7,$8,$9,$2,$3,0*
0 Add four circle primitives for the rounded corners*
1,1,$1+$1,$2,$3*
1,1,$1+$1,$4,$5*
1,1,$1+$1,$6,$7*
1,1,$1+$1,$8,$9*
0 Add four rect primitives between the rounded corners*
20,1,$1+$1,$2,$3,$4,$5,0*
20,1,$1+$1,$4,$5,$6,$7,0*
20,1,$1+$1,$6,$7,$8,$9,0*
20,1,$1+$1,$8,$9,$2,$3,0*%
G04 Aperture macros list end*
%ADD10RoundRect,0.200000X0.275000X-0.200000X0.275000X0.200000X-0.275000X0.200000X-0.275000X-0.200000X0*%
%ADD11RoundRect,0.250000X-0.250000X-0.475000X0.250000X-0.475000X0.250000X0.475000X-0.250000X0.475000X0*%
%ADD12R,3.700000X0.980000*%
%ADD13RoundRect,0.237500X0.250000X0.237500X-0.250000X0.237500X-0.250000X-0.237500X0.250000X-0.237500X0*%
%ADD14RoundRect,0.237500X-0.237500X0.250000X-0.237500X-0.250000X0.237500X-0.250000X0.237500X0.250000X0*%
%ADD15R,0.950000X0.300000*%
%ADD16RoundRect,0.237500X0.237500X-0.300000X0.237500X0.300000X-0.237500X0.300000X-0.237500X-0.300000X0*%
%ADD17RoundRect,0.237500X-0.300000X-0.237500X0.300000X-0.237500X0.300000X0.237500X-0.300000X0.237500X0*%
%ADD18RoundRect,0.160000X0.197500X0.160000X-0.197500X0.160000X-0.197500X-0.160000X0.197500X-0.160000X0*%
%ADD19R,2.000000X1.100000*%
%ADD20R,1.500000X0.900000*%
%ADD21R,0.700000X0.700000*%
%ADD22RoundRect,0.237500X0.237500X-0.250000X0.237500X0.250000X-0.237500X0.250000X-0.237500X-0.250000X0*%
%ADD23C,0.650000*%
%ADD24C,0.950000*%
%ADD25R,0.700000X0.300000*%
%ADD26C,1.400000*%
%ADD27R,4.000000X4.000000*%
%ADD28RoundRect,0.237500X-0.250000X-0.237500X0.250000X-0.237500X0.250000X0.237500X-0.250000X0.237500X0*%
%ADD29RoundRect,0.250000X-0.450000X0.325000X-0.450000X-0.325000X0.450000X-0.325000X0.450000X0.325000X0*%
%ADD30RoundRect,0.150000X0.150000X-0.587500X0.150000X0.587500X-0.150000X0.587500X-0.150000X-0.587500X0*%
%ADD31R,0.900000X1.800000*%
%ADD32C,5.600000*%
%ADD33C,2.000000*%
%ADD34R,1.700000X1.700000*%
%ADD35O,1.700000X1.700000*%
G04 APERTURE END LIST*
D10*
%TO.C,R6*%
X119900000Y-97875000D03*
X119900000Y-99525000D03*
%TD*%
%TO.C,R5*%
X118100000Y-97875000D03*
X118100000Y-99525000D03*
%TD*%
D11*
%TO.C,C7*%
X136400000Y-101500000D03*
X134500000Y-101500000D03*
%TD*%
%TO.C,C5*%
X136400000Y-99250000D03*
X134500000Y-99250000D03*
%TD*%
%TO.C,C2*%
X135500000Y-92500000D03*
X137400000Y-92500000D03*
%TD*%
D12*
%TO.C,L1*%
X131450000Y-98935000D03*
X131450000Y-96565000D03*
%TD*%
D13*
%TO.C,R3*%
X141537500Y-98750000D03*
X143362500Y-98750000D03*
%TD*%
D14*
%TO.C,R2*%
X138450000Y-100412500D03*
X138450000Y-98587500D03*
%TD*%
D15*
%TO.C,IC2*%
X134700000Y-96250000D03*
X134700000Y-96750000D03*
X134700000Y-97250000D03*
X136200000Y-97250000D03*
X136200000Y-96750000D03*
X136200000Y-96250000D03*
%TD*%
D16*
%TO.C,C8*%
X139950000Y-98637500D03*
X139950000Y-100362500D03*
%TD*%
D17*
%TO.C,C4*%
X134587500Y-103500000D03*
X136312500Y-103500000D03*
%TD*%
%TO.C,C3*%
X135587500Y-94500000D03*
X137312500Y-94500000D03*
%TD*%
D18*
%TO.C,R52*%
X162897500Y-124500000D03*
X161702500Y-124500000D03*
%TD*%
%TO.C,R30*%
X177897500Y-92700000D03*
X176702500Y-92700000D03*
%TD*%
%TO.C,R33*%
X162897500Y-106300000D03*
X161702500Y-106300000D03*
%TD*%
D19*
%TO.C,D4*%
X169700000Y-92800000D03*
X169700000Y-94500000D03*
X169700000Y-96200000D03*
X174500000Y-96200000D03*
X174500000Y-94500000D03*
X174500000Y-92800000D03*
%TD*%
D18*
%TO.C,R31*%
X147897500Y-122700000D03*
X146702500Y-122700000D03*
%TD*%
D20*
%TO.C,IC1*%
X129200000Y-122400000D03*
X129200000Y-120900000D03*
X129200000Y-119400000D03*
X129200000Y-117900000D03*
X129200000Y-116400000D03*
X129200000Y-114900000D03*
X129200000Y-113400000D03*
X129200000Y-111900000D03*
X129200000Y-110400000D03*
X111700000Y-110400000D03*
X111700000Y-111900000D03*
X111700000Y-113400000D03*
X111700000Y-114900000D03*
X111700000Y-116400000D03*
X111700000Y-117900000D03*
X111700000Y-119400000D03*
X111700000Y-120900000D03*
X111700000Y-122400000D03*
D21*
X119490000Y-116200000D03*
X118390000Y-116200000D03*
X118390000Y-117300000D03*
X119490000Y-117300000D03*
X120590000Y-117300000D03*
X120590000Y-116200000D03*
X120590000Y-115100000D03*
X119490000Y-115100000D03*
X118390000Y-115100000D03*
%TD*%
D18*
%TO.C,R43*%
X178097500Y-112700000D03*
X176902500Y-112700000D03*
%TD*%
D19*
%TO.C,D10*%
X139700000Y-92800000D03*
X139700000Y-94500000D03*
X139700000Y-96200000D03*
X144500000Y-96200000D03*
X144500000Y-94500000D03*
X144500000Y-92800000D03*
%TD*%
D18*
%TO.C,R37*%
X162897500Y-104500000D03*
X161702500Y-104500000D03*
%TD*%
D19*
%TO.C,D11*%
X139700000Y-112800000D03*
X139700000Y-114500000D03*
X139700000Y-116200000D03*
X144500000Y-116200000D03*
X144500000Y-114500000D03*
X144500000Y-112800000D03*
%TD*%
D18*
%TO.C,R47*%
X162897500Y-96300000D03*
X161702500Y-96300000D03*
%TD*%
D19*
%TO.C,D8*%
X154700000Y-112800000D03*
X154700000Y-114500000D03*
X154700000Y-116200000D03*
X159500000Y-116200000D03*
X159500000Y-114500000D03*
X159500000Y-112800000D03*
%TD*%
D22*
%TO.C,R28*%
X109000000Y-118212500D03*
X109000000Y-116387500D03*
%TD*%
D18*
%TO.C,R54*%
X178097500Y-102700000D03*
X176902500Y-102700000D03*
%TD*%
D23*
%TO.C,J2*%
X115460000Y-92100000D03*
D24*
X115460000Y-99300000D03*
D25*
X116120000Y-92950000D03*
X116120000Y-93450000D03*
X116120000Y-93950000D03*
X116120000Y-94450000D03*
X116120000Y-94950000D03*
X116120000Y-95450000D03*
X116120000Y-95950000D03*
X116120000Y-96450000D03*
X116120000Y-96950000D03*
X116120000Y-97450000D03*
X116120000Y-97950000D03*
X116120000Y-98450000D03*
X114420000Y-98200000D03*
X114420000Y-97700000D03*
X114420000Y-97200000D03*
X114420000Y-96700000D03*
X114420000Y-96200000D03*
X114420000Y-95700000D03*
X114420000Y-95200000D03*
X114420000Y-94700000D03*
X114420000Y-94200000D03*
X114420000Y-93700000D03*
X114420000Y-93200000D03*
X114420000Y-92700000D03*
D26*
X108260000Y-91210000D03*
X114210000Y-91570000D03*
X114210000Y-99830000D03*
X108260000Y-100190000D03*
%TD*%
D14*
%TO.C,R17*%
X128100000Y-98812500D03*
X128100000Y-96987500D03*
%TD*%
D19*
%TO.C,D14*%
X154700000Y-122800000D03*
X154700000Y-124500000D03*
X154700000Y-126200000D03*
X159500000Y-126200000D03*
X159500000Y-124500000D03*
X159500000Y-122800000D03*
%TD*%
D18*
%TO.C,R35*%
X178097500Y-116300000D03*
X176902500Y-116300000D03*
%TD*%
%TO.C,R51*%
X162900000Y-94500000D03*
X161705000Y-94500000D03*
%TD*%
D27*
%TO.C,TP1*%
X131950000Y-92500000D03*
%TD*%
D28*
%TO.C,R16*%
X150775000Y-106768750D03*
X152600000Y-106768750D03*
%TD*%
D29*
%TO.C,D2*%
X126100000Y-98925000D03*
X126100000Y-96875000D03*
%TD*%
D19*
%TO.C,D5*%
X139700000Y-122800000D03*
X139700000Y-124500000D03*
X139700000Y-126200000D03*
X144500000Y-126200000D03*
X144500000Y-124500000D03*
X144500000Y-122800000D03*
%TD*%
D18*
%TO.C,R26*%
X147897500Y-124500000D03*
X146702500Y-124500000D03*
%TD*%
%TO.C,R36*%
X147897500Y-96300000D03*
X146702500Y-96300000D03*
%TD*%
%TO.C,R56*%
X162897500Y-122700000D03*
X161702500Y-122700000D03*
%TD*%
D13*
%TO.C,R1*%
X133712500Y-120300000D03*
X131887500Y-120300000D03*
%TD*%
D18*
%TO.C,R24*%
X178097500Y-124500000D03*
X176902500Y-124500000D03*
%TD*%
D16*
%TO.C,C11*%
X128450000Y-92612500D03*
X128450000Y-90887500D03*
%TD*%
D19*
%TO.C,D3*%
X169700000Y-122800000D03*
X169700000Y-124500000D03*
X169700000Y-126200000D03*
X174500000Y-126200000D03*
X174500000Y-124500000D03*
X174500000Y-122800000D03*
%TD*%
D18*
%TO.C,R32*%
X147897500Y-102700000D03*
X146702500Y-102700000D03*
%TD*%
%TO.C,R39*%
X178097500Y-114500000D03*
X176902500Y-114500000D03*
%TD*%
D27*
%TO.C,TP2*%
X119900000Y-92500000D03*
%TD*%
D18*
%TO.C,R40*%
X147897500Y-94500000D03*
X146702500Y-94500000D03*
%TD*%
%TO.C,R21*%
X147897500Y-106300000D03*
X146702500Y-106300000D03*
%TD*%
D13*
%TO.C,R4*%
X133712500Y-113900000D03*
X131887500Y-113900000D03*
%TD*%
D19*
%TO.C,D9*%
X169700000Y-112800000D03*
X169700000Y-114500000D03*
X169700000Y-116200000D03*
X174500000Y-116200000D03*
X174500000Y-114500000D03*
X174500000Y-112800000D03*
%TD*%
D18*
%TO.C,R25*%
X177897500Y-94500000D03*
X176702500Y-94500000D03*
%TD*%
D28*
%TO.C,R14*%
X150775000Y-116706250D03*
X152600000Y-116706250D03*
%TD*%
D19*
%TO.C,D7*%
X154700000Y-102800000D03*
X154700000Y-104500000D03*
X154700000Y-106200000D03*
X159500000Y-106200000D03*
X159500000Y-104500000D03*
X159500000Y-102800000D03*
%TD*%
D28*
%TO.C,R8*%
X131887500Y-117100000D03*
X133712500Y-117100000D03*
%TD*%
D14*
%TO.C,R7*%
X121900000Y-96987500D03*
X121900000Y-98812500D03*
%TD*%
D18*
%TO.C,R46*%
X178097500Y-106300000D03*
X176902500Y-106300000D03*
%TD*%
D22*
%TO.C,R23*%
X109000000Y-114812500D03*
X109000000Y-112987500D03*
%TD*%
D18*
%TO.C,R55*%
X162897500Y-92700000D03*
X161702500Y-92700000D03*
%TD*%
%TO.C,R41*%
X162900000Y-102700000D03*
X161705000Y-102700000D03*
%TD*%
%TO.C,R19*%
X177897500Y-96300000D03*
X176702500Y-96300000D03*
%TD*%
D30*
%TO.C,Q2*%
X150700000Y-124556250D03*
X152600000Y-124556250D03*
X151650000Y-122681250D03*
%TD*%
D18*
%TO.C,R18*%
X178097500Y-126300000D03*
X176902500Y-126300000D03*
%TD*%
D16*
%TO.C,C6*%
X135400000Y-120262500D03*
X135400000Y-118537500D03*
%TD*%
D25*
%TO.C,IC6*%
X124700000Y-91500000D03*
X124700000Y-92000000D03*
X124700000Y-92500000D03*
X126700000Y-92500000D03*
X126700000Y-92000000D03*
X126700000Y-91500000D03*
D31*
X125700000Y-92000000D03*
%TD*%
D22*
%TO.C,R57*%
X109000000Y-121712500D03*
X109000000Y-119887500D03*
%TD*%
D32*
%TO.C,H2*%
X134100000Y-109500000D03*
%TD*%
D33*
%TO.C,SW2*%
X122600000Y-106900000D03*
X129100000Y-106900000D03*
X129100000Y-102400000D03*
X122600000Y-102400000D03*
%TD*%
D18*
%TO.C,R42*%
X162897500Y-112700000D03*
X161702500Y-112700000D03*
%TD*%
%TO.C,R48*%
X162897500Y-126300000D03*
X161702500Y-126300000D03*
%TD*%
D28*
%TO.C,R22*%
X124787500Y-94250000D03*
X126612500Y-94250000D03*
%TD*%
D17*
%TO.C,C1*%
X131937500Y-122000000D03*
X133662500Y-122000000D03*
%TD*%
D19*
%TO.C,D12*%
X169700000Y-102800000D03*
X169700000Y-104500000D03*
X169700000Y-106200000D03*
X174500000Y-106200000D03*
X174500000Y-104500000D03*
X174500000Y-102800000D03*
%TD*%
D33*
%TO.C,SW1*%
X112250000Y-102400000D03*
X118750000Y-102400000D03*
X112250000Y-106900000D03*
X118750000Y-106900000D03*
%TD*%
D18*
%TO.C,R27*%
X147897500Y-104500000D03*
X146702500Y-104500000D03*
%TD*%
D19*
%TO.C,D13*%
X154700000Y-92800000D03*
X154700000Y-94500000D03*
X154700000Y-96200000D03*
X159500000Y-96200000D03*
X159500000Y-94500000D03*
X159500000Y-92800000D03*
%TD*%
D18*
%TO.C,R34*%
X162897500Y-116300000D03*
X161702500Y-116300000D03*
%TD*%
D32*
%TO.C,H1*%
X165100000Y-109500000D03*
%TD*%
D13*
%TO.C,R9*%
X133712500Y-118700000D03*
X131887500Y-118700000D03*
%TD*%
D18*
%TO.C,R29*%
X178097500Y-122700000D03*
X176902500Y-122700000D03*
%TD*%
D30*
%TO.C,Q3*%
X150700000Y-104506250D03*
X152600000Y-104506250D03*
X151650000Y-102631250D03*
%TD*%
D19*
%TO.C,D6*%
X144500000Y-102800000D03*
X144500000Y-104500000D03*
X144500000Y-106200000D03*
X139700000Y-106200000D03*
X139700000Y-104500000D03*
X139700000Y-102800000D03*
%TD*%
D18*
%TO.C,R53*%
X147897500Y-112700000D03*
X146702500Y-112700000D03*
%TD*%
%TO.C,R49*%
X147897500Y-114500000D03*
X146702500Y-114500000D03*
%TD*%
%TO.C,R20*%
X147897500Y-126300000D03*
X146702500Y-126300000D03*
%TD*%
D29*
%TO.C,D1*%
X123900000Y-96875000D03*
X123900000Y-98925000D03*
%TD*%
D18*
%TO.C,R44*%
X147897500Y-92700000D03*
X146702500Y-92700000D03*
%TD*%
D28*
%TO.C,R15*%
X150737500Y-126518750D03*
X152562500Y-126518750D03*
%TD*%
D18*
%TO.C,R45*%
X147897500Y-116300000D03*
X146702500Y-116300000D03*
%TD*%
D30*
%TO.C,Q1*%
X150700000Y-114506250D03*
X152600000Y-114506250D03*
X151650000Y-112631250D03*
%TD*%
D18*
%TO.C,R38*%
X162897500Y-114500000D03*
X161702500Y-114500000D03*
%TD*%
%TO.C,R50*%
X178097500Y-104500000D03*
X176902500Y-104500000D03*
%TD*%
D34*
%TO.C,J1*%
X122825000Y-119025000D03*
D35*
X125365000Y-119025000D03*
X122825000Y-116485000D03*
X125365000Y-116485000D03*
X122825000Y-113945000D03*
X125365000Y-113945000D03*
%TD*%
M02*
