M48
; DRILL file {KiCad (6.0.0)} date Sat Nov 26 21:53:33 2022
; FORMAT={-:-/ absolute / inch / decimal}
; #@! TF.CreationDate,2022-11-26T21:53:33+02:00
; #@! TF.GenerationSoftware,Kicad,Pcbnew,(6.0.0)
; #@! TF.FileFunction,Plated,1,2,PTH
FMAT,2
INCH
; #@! TA.AperFunction,Plated,PTH,ViaDrill
T1C0.0118
; #@! TA.AperFunction,Plated,PTH,ComponentDrill
T2C0.0394
; #@! TA.AperFunction,Plated,PTH,ComponentDrill
T3C0.0433
; #@! TA.AperFunction,Plated,PTH,ComponentDrill
T4C0.1260
%
G90
G05
T1
X4.248Y-4.7835
X4.374Y-3.6024
X4.374Y-3.6811
X4.437Y-3.7913
X4.4449Y-3.7362
X4.4528Y-3.6811
X4.4528Y-4.1142
X4.4528Y-4.6142
X4.4685Y-3.815
X4.4921Y-4.6378
X4.5315Y-4.0748
X4.5354Y-4.4488
X4.5354Y-4.5276
X4.5709Y-4.7047
X4.61Y-3.7444
X4.6102Y-3.8543
X4.6417Y-3.7835
X4.6496Y-4.4685
X4.6496Y-4.7047
X4.7205Y-3.815
X4.7283Y-4.4685
X4.7283Y-4.7047
X4.9252Y-4.1142
X4.9252Y-4.1929
X5.0039Y-4.1142
X5.0039Y-4.1929
X5.1614Y-4.0354
X5.1614Y-4.1142
X5.1929Y-3.7441
X5.2282Y-4.5934
X5.2283Y-4.7677
X5.2323Y-4.4528
X5.2987Y-4.1255
X5.437Y-4.6654
X5.437Y-4.7441
X5.4528Y-3.9961
X5.5157Y-4.311
X5.5157Y-4.6654
X5.5157Y-4.7441
X5.5945Y-4.311
X5.6732Y-4.311
X5.752Y-4.311
X5.752Y-4.7441
X5.7913Y-3.878
X5.8307Y-4.7441
X5.8504Y-3.6516
X5.8504Y-3.7205
X5.8504Y-3.7894
X5.8504Y-4.0453
X5.8504Y-4.1142
X5.8504Y-4.185
X5.8504Y-4.437
X5.8504Y-4.5079
X5.8504Y-4.5787
X5.8504Y-4.8307
X5.8504Y-4.9016
X5.8504Y-4.9724
X5.8701Y-3.878
X5.9094Y-4.311
X5.9488Y-3.878
X6.0669Y-4.311
X6.1457Y-3.878
X6.1457Y-3.9567
X6.1457Y-4.311
X6.1457Y-4.6654
X6.1457Y-4.7441
X6.2244Y-3.878
X6.2244Y-3.9567
X6.2244Y-4.311
X6.2244Y-4.6654
X6.2244Y-4.7441
X6.3031Y-4.311
X6.4409Y-3.6516
X6.4409Y-3.7205
X6.4409Y-3.7894
X6.4409Y-4.0453
X6.4409Y-4.1142
X6.4409Y-4.185
X6.4449Y-4.5787
X6.4449Y-4.8307
X6.4449Y-4.9016
X6.4449Y-4.9724
X6.4488Y-4.4528
X6.4488Y-4.5079
X6.4606Y-3.878
X6.4606Y-3.9567
X6.4606Y-4.6654
X6.4606Y-4.7441
X6.5394Y-3.878
X6.5394Y-3.9567
X6.5394Y-4.6654
X6.5394Y-4.7441
X6.6969Y-4.311
X6.7756Y-3.878
X6.7756Y-3.9567
X6.7756Y-4.311
X6.7756Y-4.6654
X6.7756Y-4.7441
X6.8543Y-3.878
X6.8543Y-3.9567
X6.8543Y-4.311
X6.8543Y-4.6654
X6.8543Y-4.7441
X6.9331Y-4.311
X7.0118Y-4.311
X7.0394Y-4.185
X7.0413Y-3.6516
X7.0413Y-3.7205
X7.0413Y-3.7894
X7.0413Y-4.0453
X7.0413Y-4.1142
X7.0433Y-4.437
X7.0433Y-4.8307
X7.0433Y-4.9016
X7.0433Y-4.9724
X7.0472Y-4.5079
X7.0472Y-4.5787
X7.0709Y-4.8307
X7.1024Y-4.9016
X7.1083Y-4.0827
X7.1083Y-4.4901
X7.1181Y-3.7205
X7.1378Y-4.1614
X7.1378Y-4.5551
X7.1378Y-4.9724
T2
X4.8356Y-4.486
X4.8356Y-4.586
X4.8356Y-4.686
X4.9356Y-4.486
X4.9356Y-4.586
X4.9356Y-4.686
T3
X4.2622Y-3.5909
X4.2622Y-3.9445
X4.4193Y-4.0315
X4.4193Y-4.2087
X4.4965Y-3.6051
X4.4965Y-3.9303
X4.6752Y-4.0315
X4.6752Y-4.2087
X4.8268Y-4.0315
X4.8268Y-4.2087
X5.0827Y-4.0315
X5.0827Y-4.2087
T4
X5.2795Y-4.311
X6.5Y-4.311
T0
M30
